<svg id="Livello_1" data-name="Livello 1" xmlns="http://www.w3.org/2000/svg" viewBox="0 0 60 60"><defs><style>.cls-1{fill:#fff;}.cls-2{fill:#ff9600;}</style></defs><title>bookreaderw</title><circle class="cls-1" cx="30" cy="30" r="30"/><path id="book-reader-solid" class="cls-2" d="M37.87,15.88A7.87,7.87,0,1,0,30,23.75a7.87,7.87,0,0,0,7.87-7.87Zm-9.71,11.9c-4.87-3-12.75-3.8-16.71-4A2.27,2.27,0,0,0,9,25.84s0,.09,0,.14V44.25a2.26,2.26,0,0,0,2.17,2.22c3.58.19,10.82.88,15.83,3.4a1.14,1.14,0,0,0,1.68-1V28.72a1.09,1.09,0,0,0-.53-.94Zm20.39-4c-4,.22-11.85,1-16.71,4a1.11,1.11,0,0,0-.53,1V48.89a1.15,1.15,0,0,0,1.68,1c5-2.52,12.24-3.21,15.82-3.4A2.26,2.26,0,0,0,51,44.25V26a2.27,2.27,0,0,0-2.31-2.23h-.13Z"/></svg>