<svg xmlns="http://www.w3.org/2000/svg" width="59" height="59" viewBox="0 0 59 59">
  <defs>
    <style>
      .cls-1 {
        fill: #ff9600;
      }
    </style>
  </defs>
  <path id="book-reader-solid" class="cls-1" d="M40.228,10.971A10.971,10.971,0,1,0,29.257,21.943,10.971,10.971,0,0,0,40.228,10.971ZM26.7,27.554c-6.78-4.151-17.763-5.291-23.29-5.606A3.162,3.162,0,0,0,0,25.044V50.507A3.143,3.143,0,0,0,3.027,53.6c4.99.262,15.084,1.221,22.061,4.735a1.591,1.591,0,0,0,2.341-1.357V28.864a1.521,1.521,0,0,0-.734-1.31Zm28.412-5.606c-5.526.313-16.51,1.455-23.289,5.606a1.549,1.549,0,0,0-.733,1.329v28.09a1.6,1.6,0,0,0,2.347,1.36C40.41,54.822,50.5,53.863,55.487,53.6a3.145,3.145,0,0,0,3.027-3.093V25.044A3.164,3.164,0,0,0,55.108,21.948Z"/>
</svg>
