<svg xmlns="http://www.w3.org/2000/svg" viewBox="0 0 60 60"><defs><style>.cls-1{fill:#fff;}.cls-2{fill:#ff9600;}</style></defs><title>checkw</title><g id="Livello_1" data-name="Livello 1"><circle class="cls-1" cx="30" cy="30" r="30"/></g><g id="Livello_2" data-name="Livello 2"><g id="Group_4" data-name="Group 4"><g id="Group_28" data-name="Group 28"><path id="Path_208" data-name="Path 208" class="cls-2" d="M48,46.42,39.57,38a17.49,17.49,0,0,0,3.58-10.73A17.77,17.77,0,0,0,25.48,9.38h-.22A17.77,17.77,0,0,0,7.38,27q0,.11,0,.22A17.77,17.77,0,0,0,25,45.15h.22A17.49,17.49,0,0,0,36,41.57L44.42,50ZM12.49,27.26A12.65,12.65,0,0,1,25,14.49h.25A12.65,12.65,0,0,1,38,27q0,.13,0,.25A12.65,12.65,0,0,1,25.51,40h-.25A12.65,12.65,0,0,1,12.49,27.51Q12.49,27.39,12.49,27.26Z"/><path id="Checkbox" class="cls-2" d="M23.78,34.2l-7.27-7.27L18,25.45l5.8,5.69,9.59-9.59L34.84,23Z"/></g></g></g></svg>