<svg xmlns="http://www.w3.org/2000/svg" width="59" height="59" viewBox="0 0 59 59">
  <defs>
    <style>
      .cls-1 {
        fill: #ff9600;
      }
    </style>
  </defs>
  <g id="Group_4" data-name="Group 4" transform="translate(-724 -424)">
    <g id="Group_28" data-name="Group 28">
      <path id="Path_208" data-name="Path 208" class="cls-1" d="M53.377,48.677,42.3,37.6A22.985,22.985,0,0,0,47,23.5,23.355,23.355,0,0,0,23.5,0,23.355,23.355,0,0,0,0,23.5,23.355,23.355,0,0,0,23.5,47a22.985,22.985,0,0,0,14.1-4.7L48.677,53.377ZM6.714,23.5A16.622,16.622,0,0,1,23.5,6.714,16.622,16.622,0,0,1,40.285,23.5,16.622,16.622,0,0,1,23.5,40.285,16.622,16.622,0,0,1,6.714,23.5Z" transform="translate(724 424)"/>
      <path id="Checkbox" class="cls-1" d="M9.553,16.614,0,7.061,1.938,5.123,9.553,12.6,22.153,0l1.938,1.938Z" transform="translate(736 440)"/>
    </g>
  </g>
</svg>
