<svg xmlns="http://www.w3.org/2000/svg" width="59" height="59" viewBox="0 0 59 59">
  <defs>
    <style>
      .cls-1 {
        fill: #ff9600;
      }
    </style>
  </defs>
  <path id="graduation-cap-solid" class="cls-1" d="M62.081,72.9,34.257,64.347a7.968,7.968,0,0,0-4.667,0L1.766,72.9a2.348,2.348,0,0,0,0,4.547l4.851,1.49a7.86,7.86,0,0,0-1.783,4.678A3.078,3.078,0,0,0,4.579,88.9L2.032,100.358A1.6,1.6,0,0,0,3.589,102.3h5.6a1.6,1.6,0,0,0,1.558-1.942L8.2,88.9a3.07,3.07,0,0,0-.18-5.239A4.705,4.705,0,0,1,10.082,80l19.507,5.994a7.977,7.977,0,0,0,4.667,0l27.824-8.548A2.349,2.349,0,0,0,62.081,72.9ZM35.194,89.043a11.166,11.166,0,0,1-6.542,0L14.186,84.6,12.772,95.917c0,3.526,8.574,6.384,19.151,6.384s19.151-2.858,19.151-6.384L49.66,84.6Z" transform="translate(-0.005 -63.997)"/>
</svg>
