<svg xmlns="http://www.w3.org/2000/svg" viewBox="0 0 60 60"><defs><style>.cls-1{fill:#fff;}.cls-2{fill:#ff9600;}</style></defs><title>graduationw</title><g id="Livello_1" data-name="Livello 1"><circle class="cls-1" cx="30" cy="30" r="30"/></g><g id="Livello_3" data-name="Livello 3"><path id="graduation-cap-solid" class="cls-2" d="M52.67,21.42,31.68,15a6,6,0,0,0-3.52,0l-21,6.45a1.77,1.77,0,0,0,0,3.43L10.82,26A5.93,5.93,0,0,0,9.48,29.5a2.32,2.32,0,0,0-.19,4L7.36,42.14a1.21,1.21,0,0,0,.92,1.44l.25,0h4.23a1.21,1.21,0,0,0,1.18-1.47L12,33.49a2.32,2.32,0,0,0-.14-4,3.55,3.55,0,0,1,1.56-2.76L28.16,31.3a6,6,0,0,0,3.52,0l21-6.45a1.77,1.77,0,0,0,0-3.43ZM32.39,33.6a8.43,8.43,0,0,1-4.94,0L16.53,30.25l-1.07,8.54c0,2.66,6.47,4.82,14.45,4.82s14.45-2.16,14.45-4.82L43.3,30.25Z"/></g></svg>