<?xml version="1.0" encoding="utf-8"?>
<!DOCTYPE svg PUBLIC "-//W3C//DTD SVG 20010904//EN" "http://www.w3.org/TR/2001/REC-SVG-20010904/DTD/svg10.dtd">
<svg version="1.0" xmlns="http://www.w3.org/2000/svg" width="800px" height="800px" viewBox="0 0 800 800" preserveAspectRatio="xMidYMid meet">
 <g fill="#ff9600">
  <path d="M389.5 721.3 c-53.5 -1.7 -109.1 -18 -155 -45.6 -88.8 -53.3 -146.1 -143.8 -156.5 -247.2 -1.5 -14.1 -1.5 -46.9 0 -61 13.8 -137.5 111.1 -250.2 244.5 -283.4 26.1 -6.5 49.1 -9.2 77.5 -9.2 28.4 0 51.4 2.7 77.5 9.2 133.4 33.2 230.7 145.9 244.5 283.4 1.5 14.1 1.5 46.9 0 61 -17.2 170.6 -162 298.1 -332.5 292.8z m48.9 -38.4 c63.2 -9.1 118.6 -37 164.2 -82.4 99.1 -98.6 113 -250.1 33.6 -365 -30.2 -43.7 -74.4 -80.2 -122.5 -101 -74.7 -32.3 -152.7 -32.3 -227.7 0.1 -62.3 26.9 -116 79 -145.5 140.8 -12.9 27.1 -20.8 53.6 -25.7 85.6 -1.7 10.7 -2.1 18.3 -2.1 37 0 25.4 1.4 38.5 6.8 62.4 15.7 69.9 59.1 133.4 119.5 174.8 41.7 28.6 90.5 45.9 140.5 49.9 14.9 1.1 43.1 0.1 58.9 -2.2z"/>
  <path d="M379.1 680.9 c-69.2 -4.2 -134.2 -34.2 -183.2 -84.5 -44.1 -45.5 -71.6 -103.9 -78 -165.9 -1.5 -14.6 -1.5 -50 0 -65 6.3 -61.7 34.1 -120.8 78.5 -166.3 45.4 -46.5 103.3 -75.1 168 -82.8 17.4 -2.1 53.8 -2.1 71.2 0 52.5 6.3 97.9 25 141.4 58.5 11.4 8.8 35.9 33.2 45.9 45.9 33.2 42.1 53.7 92.2 59.2 145.2 1.6 14.8 1.6 49.3 0 63.8 -6.8 63.9 -33.5 120.7 -78.5 167.1 -45.7 47 -107 76.7 -171.1 83 -15.8 1.6 -37.7 2 -53.4 1z m-2.6 -101.8 c6.7 -3.1 15.3 -10.4 18.5 -15.6 1.7 -2.8 2.8 -3.5 5.4 -3.5 2.6 0 3.8 0.8 6.9 5 6.6 8.9 19.8 17 27.7 17 4.2 0 13.1 -3.6 19.2 -7.7 6.9 -4.6 11.7 -9.2 19 -18.1 5.2 -6.3 7.1 -7.9 13.2 -10.6 9.2 -4.2 13.8 -8.3 17.2 -15.3 2.3 -4.6 2.8 -7.2 3.2 -16 l0.5 -10.4 6.7 -5 c15.4 -11.5 23 -28.3 23 -51 l0 -10.8 4.1 -3.8 c7.4 -6.7 11.3 -11.3 15.2 -17.6 10.7 -17.4 10.9 -37.3 0.8 -59.9 -2.6 -5.7 -2.9 -7.7 -3.4 -21.3 -0.8 -18.7 -3.2 -29.9 -9.1 -42 -7.5 -15.3 -18.5 -25 -33.9 -29.7 -6 -1.8 -7.1 -2.5 -9.4 -6.2 -7 -11.3 -18 -18.8 -29.5 -20.1 -5 -0.6 -7.2 -1.5 -12 -5.1 -7.5 -5.5 -14.6 -8.9 -23 -11.1 -6.5 -1.7 -7.1 -1.7 -13.5 0 -3.8 0.9 -9.6 3.1 -12.9 4.7 -8 3.9 -11.4 3.8 -21 -0.6 -4.3 -2 -10.6 -4.1 -13.9 -4.7 -5.6 -0.9 -7 -0.8 -14.7 1.6 -4.7 1.5 -10.7 4.2 -13.4 6.1 -10.4 7.4 -13.4 8.8 -19.7 9.6 -10.8 1.3 -19.3 7.1 -26.8 18.1 -3.5 5.2 -4.4 5.9 -9.6 7.4 -17.4 5 -30.2 17.3 -37.4 35.9 -3.9 10.1 -5.6 19.9 -6.5 37.3 -0.6 12.8 -1 14.5 -4.5 23.3 -4.7 11.7 -7.3 25.2 -6.4 32.4 1.1 7.6 4.3 17.4 7.8 23.6 1.7 3 7 9.5 11.9 14.3 l8.7 8.8 -0.1 11.7 c-0.1 22.6 6.5 36.9 23.3 49.8 l5.9 4.5 0 8.3 c0 10.8 2 17.1 7.2 23 4.7 5.4 9.1 8.4 16.2 11.1 3.3 1.3 5.7 3.1 7.7 5.8 9.5 13.1 20.5 22.6 31.6 27.2 7.7 3.2 12.5 3.1 19.8 -0.4z"/>
  <path d="M358.5 574.7 c-10.2 -3.4 -19 -10.5 -28 -22.6 -6.5 -8.8 -7.5 -9.6 -15.9 -12.1 -5.9 -1.9 -11.3 -7.3 -13.1 -13.3 -1.7 -5.7 -2 -15.6 -0.6 -20.4 1.1 -3.7 0.4 -4.5 -7.7 -8.9 -6.6 -3.5 -14.2 -11.6 -17.5 -18.7 -4 -8.4 -5 -15.2 -4.5 -29.2 l0.5 -12.6 -4.6 -3.6 c-12.6 -10 -18.2 -17.6 -22.1 -29.7 -2 -6.1 -2.2 -8.3 -1.8 -20 0.6 -13.8 1.9 -18.8 8 -31.1 2.3 -4.6 2.6 -6.5 3.1 -22 0.6 -19 2 -25.9 7.1 -37.1 6.3 -13.6 17.3 -22.6 31.1 -25.4 3.3 -0.7 6.6 -1.7 7.3 -2.2 0.7 -0.6 2.6 -3.7 4.4 -7 3.7 -7 10.1 -13 15.6 -14.6 2.2 -0.7 6.4 -1.2 9.5 -1.2 5.3 0 5.9 -0.3 11.3 -5 3.2 -2.8 8.7 -6.5 12.3 -8.3 5.7 -2.8 7.8 -3.2 15.7 -3.5 12.3 -0.5 22.9 2.5 27.2 7.7 0.9 1.2 1.2 34.6 1.2 159.6 0 148.6 -0.1 158.2 -1.7 161.3 -3.5 6.4 -11.2 14.8 -16 17.4 -5.9 3.3 -15.1 4.3 -20.8 2.5z m4.4 -44.4 c5.8 -2.3 9.8 -6 12.5 -11.5 3.1 -6.2 3.2 -9.8 0.5 -15.8 -2.5 -5.6 -6.2 -9.6 -11.4 -12.2 -2.2 -1.1 -4.3 -2.6 -4.7 -3.2 -0.4 -0.6 -0.8 -6.3 -0.8 -12.6 0 -6.3 0.4 -12 0.8 -12.6 0.4 -0.5 2.2 -1.6 4 -2.3 4.5 -1.9 11.9 -10.4 13.3 -15.4 2.5 -9.3 -3.5 -19.7 -14.9 -25.9 l-3.2 -1.7 0 -17.5 c0 -20.9 0.2 -20.6 -11.7 -20.6 l-7.3 0 0 -28.5 0 -28.6 3.2 -1.7 c10.9 -5.8 17.2 -16.4 14.9 -24.9 -2.7 -10 -14 -18.9 -22.8 -18 -8.7 0.9 -18 9.1 -20.3 17.8 -1.2 4.2 -0.6 7.6 2.1 13 1.9 3.8 9.1 10.9 11.1 10.9 0.6 0 2 0.7 3 1.7 1.7 1.5 1.8 3.8 1.8 30 l0 28.3 -9.5 0 -9.5 0 -2.4 -4.7 c-3 -5.9 -6.8 -9.6 -12.6 -12.2 -5.8 -2.7 -8.4 -2.6 -14.5 0.3 -8.9 4.2 -14.8 12.6 -14.7 20.9 0.2 11.4 15.6 23.6 26.2 20.7 5.7 -1.5 11.7 -6.5 15.1 -12.5 l3.1 -5.5 18.8 0 18.7 0 0.7 4.6 c0.8 5.9 0.8 22.2 0 25.2 -0.4 1.4 -2.4 3.2 -5.3 4.7 -17.5 8.9 -17.5 30.2 0 39.1 l4.9 2.4 0 13.3 -0.1 13.2 -3.8 1.8 c-8 3.7 -14.1 12.2 -14.1 19.7 0 9.9 8.1 19.6 18.5 22.1 3.2 0.7 5.1 0.4 10.4 -1.8z"/>
  <path d="M346.3 524 c-4.9 -3 -6.6 -7.1 -6.1 -15.2 0.3 -6.1 0.7 -7.2 3.6 -10 2.8 -2.9 3.9 -3.3 10.2 -3.6 12.5 -0.7 17.4 3.3 17.4 14.7 0.1 7.4 -1.8 11.7 -6.4 14.5 -4.1 2.3 -14.6 2.2 -18.7 -0.4z"/>
  <path d="M349.5 455.3 c-3.2 -0.9 -6.5 -3.4 -8.1 -6.4 -2.1 -4.1 -1.8 -14.7 0.5 -18.5 5 -8.1 20.8 -8.7 26.9 -0.9 1.8 2.3 2.2 4.1 2.2 10.6 0 6.9 -0.3 8.1 -2.6 10.8 -3.6 4.3 -11.8 6.2 -18.9 4.4z"/>
  <path d="M282.3 396 c-4.3 -2.6 -6.3 -6.8 -6.3 -13.5 0 -6.3 1.7 -10.3 5.6 -13.4 3.7 -2.9 15.4 -3 20 -0.2 8.4 5.1 8 23.1 -0.6 27.6 -4.3 2.2 -14.7 2 -18.7 -0.5z"/>
  <path d="M327 312.8 c-4.7 -3.2 -6 -6.1 -6 -13.8 0 -11 4 -14.9 15.3 -15 12 0 15.7 3.7 15.7 16 0 6.6 -0.2 7.3 -3.4 10.7 -3.2 3.6 -3.7 3.8 -10.8 4.1 -6.4 0.3 -7.7 0.1 -10.8 -2z"/>
  <path d="M423.5 573.3 c-6 -3.2 -9.6 -6.7 -14.5 -14 l-5 -7.5 0 -158.4 0 -158.5 2.5 -2.3 c1.4 -1.3 5.7 -3.4 9.5 -4.6 6 -1.9 8.5 -2.2 16.6 -1.8 8.4 0.5 10.3 1 16.9 4.2 l7.5 3.7 0 4.2 c0 3.5 -0.9 5.5 -5.4 11.7 -5.1 6.9 -6 10 -3.1 10 0.6 0 3.6 -3.3 6.6 -7.4 3 -4.1 6.4 -7.9 7.7 -8.5 3 -1.4 12.1 -1.4 18 0.1 3.3 0.8 6.1 2.6 9.9 6.3 4.5 4.3 5.3 5.7 5.3 8.7 0 3.4 -0.5 3.9 -8.7 9.4 -5.4 3.7 -10.6 8.2 -13.5 11.8 -7.8 9.7 -12.5 24.4 -8.6 26.9 0.9 0.6 2 0.9 2.3 0.5 0.4 -0.3 1.5 -4.1 2.6 -8.4 3.4 -13.5 10.6 -22.7 22.6 -28.6 5.6 -2.7 6.9 -3 13.5 -2.6 17.9 1 31.2 14 37.9 37 1.6 5.7 2.2 11 2.6 24.3 l0.5 17 3.8 8.5 c6.2 13.5 7.3 19.4 6.8 34.7 -0.5 13.2 -0.5 13.3 -4.6 21.7 -3.4 6.7 -5.7 9.8 -11.5 15.3 -7.3 6.7 -19.1 14.2 -26.5 16.9 -4.6 1.6 -13.2 1.8 -18.3 0.3 -5.9 -1.8 -10.7 -6.5 -17.6 -17.2 -3.5 -5.4 -7 -9.6 -7.6 -9.4 -2.1 0.7 -0.9 5.6 2.9 11.8 10.5 17.4 26.6 25.2 40.9 19.9 3.3 -1.3 7.9 -2.5 10.3 -2.7 l4.2 -0.5 0 9.4 c0 20.5 -7.4 34 -23.5 43 l-6 3.4 0 12.4 c0 11.8 -0.2 12.8 -2.7 17.2 -2.1 3.4 -4.1 5.3 -8 7.2 -2.8 1.4 -5.8 2.6 -6.5 2.6 -3.2 0 -7.2 3.2 -10.8 8.7 -5.5 8.4 -16.4 18.7 -23.4 22.3 -5.3 2.6 -7 3 -14.3 3 -5.7 -0.1 -9.3 -0.6 -11.3 -1.7z m6.8 -59.6 c7 -14.8 16.1 -23.4 26.8 -25.2 4.2 -0.6 6.2 -2.4 4.9 -4.4 -0.6 -1 -2.9 -1.3 -8.4 -1.2 -7.5 0.2 -7.6 0.2 -7.6 -2.2 0 -4.1 -4 -15.8 -7.5 -22.2 -4.1 -7.3 -12.2 -17 -14.3 -17 -2.8 0 -2.4 2.3 1.1 6.2 9.8 11 13.7 20.4 14 33.7 0.2 8.8 0.1 9.4 -2.8 13.5 -11.4 16.3 -15.6 25 -13.5 27.6 0.7 0.8 1.6 1.2 2.1 0.9 0.5 -0.3 2.9 -4.7 5.2 -9.7z m81.5 -127.3 c8.2 -1.6 12.2 -3.6 12.2 -5.8 0 -2.1 -1.7 -2.3 -8.4 -0.9 -8.1 1.7 -21.8 1.6 -28.5 -0.2 -13.2 -3.5 -21.1 -12.8 -31.8 -37.3 -6 -14 -9.6 -19.5 -13.5 -20.8 -2.3 -0.7 -2.3 -2.8 0.3 -22.1 2.1 -15.8 1.8 -18.3 -1.7 -18.3 -1.9 0 -2.7 3.3 -4.8 21 -2.6 20.7 -6.7 33.5 -14.6 45.2 -3.3 4.8 -3.7 5.8 -2.5 6.8 2.2 1.8 3.2 0.6 11 -13.4 6.9 -12.4 7 -12.5 10.6 -12.6 l3.7 0 5.6 13.3 c12.4 28.8 23.4 40.5 42.3 45.1 7.7 1.9 10.9 1.9 20.1 0z"/>
 </g>
 <g fill="#ffffff">
  <path d="M378.5 688.3 c-93.2 -6.9 -178.1 -59 -227.3 -139.5 -20.2 -33 -33 -68.8 -39.5 -110.8 -3 -19.5 -3 -60.5 0 -80 10.3 -66 37.3 -120.2 82.7 -165.6 66.9 -66.9 160.4 -96.8 253.6 -81.3 60 10 114.2 37.9 157.6 81.3 49 49 77.6 110.2 84.3 180.6 1.4 13.5 0.6 48.4 -1.4 62.5 -8.8 65.2 -37 122.4 -82.9 168 -45.5 45.4 -100.1 72.8 -164.2 82.5 -13.4 2 -49.2 3.4 -62.9 2.3z m50.5 -11.4 c63.8 -5.9 125.7 -35.8 171.6 -83 44.8 -46.2 71.9 -103.5 78.4 -166.5 1.5 -14 1.5 -44.7 0.1 -58.9 -5.4 -52.2 -26.1 -102.7 -59.2 -144.7 -10 -12.7 -34.5 -37.1 -45.9 -45.9 -43.5 -33.5 -89.2 -52.4 -141.4 -58.5 -17 -2 -48.2 -2 -65.2 0 -64.4 7.6 -122.6 36.3 -168 82.8 -44.4 45.5 -72.4 104.9 -78.4 166.3 -1.5 15 -1.5 44.5 -0.1 59 5.3 51.9 26.2 103.1 59.3 144.7 38.4 48.3 91.9 82.9 150.8 97.8 32 8 62.2 10.1 98 6.9z"/>
  <path d="M353.7 582.5 c-11.1 -4.6 -22.1 -14.1 -31.6 -27.2 -2 -2.7 -4.4 -4.5 -7.7 -5.8 -7.1 -2.7 -11.5 -5.7 -16.2 -11.1 -5.2 -5.9 -7.2 -12.2 -7.2 -23 l0 -8.3 -5.9 -4.5 c-16.6 -12.8 -23.2 -26.8 -23.5 -50.1 l-0.2 -12 -8.5 -8.5 c-9.4 -9.5 -13.7 -16.1 -16.9 -26.5 -4.6 -15.2 -3.4 -31.2 3.9 -49.5 3.5 -8.8 3.8 -10.5 4.5 -23 0.8 -17 2.6 -27.5 6.5 -37.6 7.2 -18.6 20 -30.9 37.4 -35.9 5.2 -1.5 6.1 -2.2 9.6 -7.4 7.5 -11 17.3 -17.5 27.8 -18.4 5.3 -0.5 8.4 -2 18.6 -9.3 6.2 -4.3 19 -8.4 26.5 -8.4 7.7 0.1 12.9 1.4 22.3 5.7 l7.9 3.6 4.8 -2.6 c19.3 -10.4 37.9 -8.4 57.7 6.3 4.1 3 6.3 3.9 11.2 4.5 11.6 1.3 22.6 8.8 29.6 20.1 2.3 3.7 3.4 4.4 9.4 6.2 15.4 4.7 26.4 14.4 33.9 29.7 5.9 12.1 8.3 23.3 9.1 42 0.5 13.6 0.8 15.6 3.4 21.3 5.5 12.3 7.3 20.6 7.4 33.7 0 9.7 -0.4 13.4 -2.2 19 -3.6 11.4 -9.8 20.4 -21.2 30.8 l-4.1 3.8 0 10.8 c0 22.7 -7.6 39.5 -23 51 l-6.7 5 -0.5 10.4 c-0.8 17 -5.7 24.6 -20.4 31.3 -6.1 2.7 -8 4.3 -13.2 10.6 -22.1 26.8 -43 32.8 -62.8 17.8 -3 -2.2 -7.1 -6.3 -9.2 -9.1 l-3.7 -5 -1.4 2.3 c-3.3 5.2 -13.4 14 -19.4 16.8 -8.2 3.9 -17.4 4.1 -26 0.5z m23.5 -13.8 c4.4 -2.5 11.8 -10.9 15.1 -16.9 1.6 -3.1 1.7 -12.6 1.7 -158.3 0 -122.6 -0.3 -155.4 -1.2 -156.6 -2.1 -2.5 -6.2 -4.7 -12.3 -6.4 -12.2 -3.6 -24.9 0 -36.9 10.5 -5.8 5.1 -6.4 5.3 -12.8 5 -9.2 -0.4 -18.1 5.5 -23.6 15.8 -1.8 3.3 -3.7 6.4 -4.4 7 -0.7 0.5 -4 1.5 -7.3 2.2 -13.8 2.8 -24.8 11.8 -31.1 25.4 -5.1 11.2 -6.5 18.1 -7.1 37.1 -0.5 15.5 -0.8 17.4 -3.1 22 -6 11.9 -7.5 17.5 -7.8 29 -0.2 9.3 0.1 12 2 17.5 4 11.4 8.5 17.6 19.8 26.6 l6.8 5.5 -0.5 13.7 c-0.5 14.7 0.3 20.1 4.5 28.7 3.2 6.7 11.1 14.7 17.8 18.3 8 4.3 8.6 5.2 7.7 11 -1.6 10.7 -1.6 12.3 -0.1 17.5 1.8 6.4 7.1 11.8 13.2 13.7 8.4 2.5 9.4 3.3 15.9 12.1 11.8 15.8 25.6 24.7 35.6 22.9 2 -0.4 5.7 -1.9 8.1 -3.3z m68.9 0.3 c7 -3.6 17.9 -13.9 23.4 -22.3 3.6 -5.5 7.6 -8.7 10.8 -8.7 0.7 0 3.7 -1.2 6.5 -2.6 9 -4.5 12.2 -12.5 10.2 -25.7 -1.4 -9.3 -0.8 -10.8 6.2 -14.3 6.6 -3.4 14.8 -11.1 18.1 -17.2 3.5 -6.5 5.7 -15.2 5.7 -23 0 -5.7 -0.2 -6.3 -1.7 -5.7 -16.3 6.7 -29 5.9 -40.9 -2.6 -8.3 -6 -18.9 -22.7 -18.2 -28.7 0.3 -3.1 4.7 -5.7 7.8 -4.7 1.2 0.4 4.9 5 8.4 10.4 7 10.9 11.8 15.3 18.2 17.1 5.2 1.5 10 0.7 16.8 -2.7 15.9 -7.9 27.5 -18.8 33.2 -30.7 3.2 -6.7 3.7 -8.7 4.1 -17.8 0.6 -12.1 -0.8 -18.9 -6.7 -31.8 l-3.8 -8.5 -0.5 -17 c-0.5 -18.8 -2.1 -26.1 -8 -38.3 -5.7 -11.8 -18.5 -21.7 -29.5 -23 -8.2 -0.9 -22.4 8.5 -28.6 19 -1.4 2.4 -3.5 8 -4.5 12.3 -2.1 8.2 -3 9.5 -7.2 9.5 -4.5 0 -6.3 -3.1 -5.6 -9.9 1.4 -13.6 9.6 -26.5 21.9 -35 12.8 -8.8 12.1 -7.1 5.7 -13.3 -4 -4 -6.7 -5.8 -10.1 -6.6 -10 -2.5 -12.6 -1.4 -19.3 7.9 -7.1 9.9 -11 11.5 -15.2 6 -2.1 -2.8 -1.5 -4.7 4.7 -13.2 3.3 -4.6 6 -8.9 6 -9.6 0 -0.7 -3.3 -2.8 -7.2 -4.8 -10 -4.9 -18.1 -5.6 -27.7 -2.5 -3.9 1.2 -8.2 3.3 -9.6 4.6 l-2.5 2.3 0 155.5 0 155.4 5 7.5 c10.2 15.3 20.9 19.3 34.1 12.7z"/>
  <path d="M349.5 535.1 c-22.8 -5.6 -25.8 -38 -4.4 -47.8 l3.8 -1.8 0.1 -10.2 0 -10.2 -5.2 -2.8 c-10 -5.4 -15.2 -16.4 -12.9 -27.4 1.9 -8.9 5.7 -13.7 13.9 -17.8 2.3 -1.2 4.2 -2.7 4.3 -3.4 0.5 -8.8 0.5 -17.9 0.2 -20.9 l-0.5 -3.8 -15.8 0 -15.8 0 -3.1 5.4 c-6.4 11.5 -17.2 15.8 -29.9 12.1 -17.4 -5.2 -23.6 -27.2 -11.4 -40.7 12.4 -13.7 33.4 -11 41.8 5.5 l2.4 4.7 6.5 0 6.5 0 0 -25.3 c0 -23.3 -0.1 -25.5 -1.8 -27 -1 -1 -2.4 -1.7 -3 -1.7 -2 0 -9.3 -7.2 -11.4 -11.3 -8.5 -16.7 3.8 -36.7 22.6 -36.7 17.9 0 29.8 16.7 24.2 33.8 -1.8 5.3 -8.1 12 -14.4 15.4 l-3.2 1.7 0 25.6 0 25.5 7.3 0 c11.9 0 11.7 -0.3 11.7 20.6 l0 17.5 3.3 1.7 c5.3 2.8 13.4 11.6 14.6 15.9 1.4 4.8 1.4 11.7 0.1 16.5 -1.3 4.6 -8.9 13.1 -13.2 14.9 -1.8 0.7 -3.6 1.8 -4 2.3 -0.4 0.6 -0.8 4.9 -0.8 9.6 0 4.7 0.4 9 0.8 9.6 0.4 0.6 2.5 2.1 4.7 3.2 12.2 6.2 17.1 21.6 10.9 34 -5.1 10.3 -17.6 16 -28.9 13.3z m12.5 -13.7 c6.1 -3.6 8.1 -12.6 4.1 -18.3 -6.4 -8.9 -21.3 -5.3 -22.8 5.6 -1.3 10.1 10 17.8 18.7 12.7z m-2.8 -69.4 c5.6 -1.6 8.8 -6 8.8 -12.2 0 -4.3 -0.4 -5.4 -3.3 -8.3 -4.3 -4.3 -9.2 -5.3 -14.2 -2.9 -6.7 3.1 -9.4 10.9 -6.1 17.3 1.9 3.7 5.1 5.8 10.6 7 0.3 0 2.2 -0.4 4.2 -0.9z m-61.2 -58.5 c5.6 -2.9 7.8 -9.9 5.1 -16.1 -4.4 -9.8 -17.6 -10 -22.6 -0.4 -5.5 10.7 6.7 22.1 17.5 16.5z m47.7 -85.9 c7.6 -8.3 1.9 -20.7 -9.4 -20.6 -7 0.1 -12.3 5.3 -12.3 12 0 4.7 1.8 8 6 10.8 5.2 3.5 11.3 2.6 15.7 -2.2z"/>
  <path d="M419.6 525.1 c-1.4 -1.5 -1.7 -2.9 -1.2 -5.2 1 -5.2 7.1 -16.9 12.5 -24.3 2.8 -3.8 5.1 -7.8 5.2 -9 0.6 -13.9 -3.3 -23.9 -14.3 -36.5 -4.2 -4.9 -4.8 -8.1 -1.8 -11.1 3.3 -3.3 6.6 -2.5 11.3 2.6 9.1 9.9 14.7 20.7 17.1 32.7 l1.1 5.9 6 -0.7 c7.3 -0.8 9 -0.2 10.5 3.6 1.7 4.1 -0.7 7.6 -5.7 8.4 -10.9 1.8 -19.8 10.1 -27.2 25.5 -4.4 9.2 -4.7 9.5 -8.2 9.8 -2.5 0.2 -4 -0.3 -5.3 -1.7z"/>
  <path d="M488.7 389.4 c-18.9 -4.6 -29.9 -16.3 -42.3 -45.1 -3.1 -7.3 -5.9 -13.3 -6.3 -13.3 -0.3 0.1 -3.5 5.3 -7.1 11.8 -3.6 6.4 -7.5 12.7 -8.7 14 -4.1 4.2 -10.3 1.7 -10.3 -4.1 0 -1.5 1.8 -5.3 3.9 -8.5 8 -11.7 12.1 -24.5 14.7 -45.2 0.8 -6.9 1.7 -13.4 1.9 -14.5 0.2 -1.1 0.4 -2.5 0.4 -3.2 0.3 -4 7.5 -5.7 10.4 -2.5 2.2 2.4 2.1 5.8 -0.3 23.8 -1.4 11 -1.7 15 -0.8 15.3 4.2 1.4 8.2 7.4 14.1 21.2 3.5 8 8.4 17.7 11 21.6 9.9 14.9 24.3 20 44.2 15.8 3.8 -0.8 8 -1.5 9.2 -1.5 5.5 0 7.1 7.7 2.3 11.1 -3.3 2.3 -16.2 4.9 -24.2 4.8 -3.5 0 -8.9 -0.7 -12.1 -1.5z"/>
 </g>
</svg>