<?xml version="1.0" encoding="utf-8"?>
<!-- Generator: Adobe Illustrator 25.0.1, SVG Export Plug-In . SVG Version: 6.00 Build 0)  -->
<svg version="1.1" id="Livello_1" xmlns="http://www.w3.org/2000/svg" xmlns:xlink="http://www.w3.org/1999/xlink" x="0px" y="0px"
	 viewBox="0 0 1242 1532" style="enable-background:new 0 0 1242 1532;" xml:space="preserve">
<style type="text/css">
	.st0{fill:#3F3FCB;}
	.st1{fill:#FB9600;}
	.st2{fill:#FF9432;}
</style>
<g>
	<g>
		<path class="st0" d="M220.9,1186.6c-5.6-3.5-9.9-8.4-13-14.5c-3.1-6.1-4.6-12.8-4.6-20.2v-53.5H219v53.5c0,4.5,0.8,8.5,2.5,12.2
			s4.1,6.6,7.3,8.8c3.2,2.2,6.9,3.2,11.2,3.2c4.4,0,8.1-1.1,11.3-3.2c3.1-2.2,5.5-5.1,7.2-8.8c1.6-3.7,2.5-7.8,2.5-12.3v-53.5h15.7
			v53.5c0,7.4-1.5,14.1-4.6,20.2c-3.1,6.1-7.4,10.9-13,14.5c-5.6,3.5-12,5.3-19.1,5.3C232.8,1191.9,226.5,1190.1,220.9,1186.6z"/>
		<path class="st0" d="M297.9,1187.1c-4.4-2.5-7.5-5.7-9.4-9.8l13.3-5.7c0.9,1.6,2.5,3.1,4.9,4.4c2.3,1.3,4.8,2,7.5,2
			c2.8,0,5.2-0.6,7.2-1.7c2-1.2,3-2.8,3-5c0-1.5-0.5-2.8-1.6-3.7c-1.1-0.9-2.3-1.6-3.6-2c-1.3-0.4-3.3-1-5.8-1.6
			c-6.9-1.4-12.5-3.8-16.9-7.2c-4.4-3.4-6.5-7.9-6.5-13.4c0-4.2,1.1-7.8,3.4-11c2.3-3.2,5.2-5.7,9-7.4c3.7-1.7,7.8-2.6,12-2.6
			c5.2,0,10,1.1,14.3,3.3c4.4,2.2,7.8,5.2,10.3,9.1l-12.5,7.3c-1-1.7-2.7-3.2-4.9-4.5s-4.5-1.8-7-1.8c-3,0-5.4,0.6-7.2,1.8
			c-1.8,1.2-2.8,3-2.8,5.3c0,1.2,0.4,2.2,1.2,3s1.8,1.4,2.9,1.8c1.2,0.4,2.7,0.9,4.6,1.4c0.3,0.1,0.9,0.2,1.6,0.4
			c0.7,0.2,1.3,0.4,1.9,0.6c6.7,2.2,12.1,4.9,16.2,8.2c4,3.3,6,7.5,5.9,12.7c0,3.8-1.1,7.3-3.4,10.5c-2.3,3.1-5.2,5.6-9,7.3
			c-3.7,1.7-7.7,2.6-11.9,2.6c-0.9,0-1.6,0-2.1-0.1C307.2,1191,302.3,1189.6,297.9,1187.1z"/>
		<path class="st0" d="M362.2,1187.2c-5-3.1-9-7.3-11.9-12.6c-3-5.3-4.4-11.1-4.4-17.3s1.5-12,4.4-17.3c3-5.3,6.9-9.5,11.9-12.6
			c5-3.1,10.5-4.7,16.4-4.7c6.1,0,11.6,1.6,16.6,4.7s8.9,7.4,11.8,12.7c2.9,5.3,4.3,11.1,4.3,17.4c0,2-0.1,3.7-0.3,5.2h-48.2
			c0.9,3.9,2.7,7.1,5.6,9.6c2.9,2.5,6.4,3.7,10.5,3.7c2.8,0,5.3-0.7,7.6-2.1c2.3-1.4,4.3-3.3,5.8-5.7l16.1,3.7
			c-1.8,3.9-4.2,7.3-7.2,10.3c-3,3-6.4,5.3-10.3,7s-7.9,2.5-12.2,2.5C372.7,1191.9,367.2,1190.3,362.2,1187.2z M391.9,1143.6
			c-1.6-2.2-3.5-3.9-5.8-5.2c-2.3-1.3-4.8-1.9-7.5-1.9c-2.6,0-5.1,0.6-7.4,1.9s-4.2,3-5.8,5.2s-2.6,4.7-3.2,7.4h32.9
			C394.6,1148.3,393.5,1145.8,391.9,1143.6z"/>
		<path class="st0" d="M477,1141.4l-0.1,48.7h-15.7l0.1-48.7h-9.8v-15.7h9.8l-0.1-21.7h15.7l0.1,21.7h12.9v15.7H477z"/>
		<path class="st0" d="M546.4,1190.2v-33.7c0-3.4-0.7-6.5-2.1-9.3c-1.4-2.8-3.3-5.1-5.7-6.8c-2.4-1.7-5-2.5-7.8-2.5
			c-3.1,0-5.8,0.8-8,2.5c-2.2,1.6-3.8,3.9-5,6.7c-1.1,2.8-1.7,5.9-1.7,9.4v33.7h-15.9v-98.4H516v39.2c1.6-3,3.7-5.1,6.4-6.3
			c2.7-1.2,6-1.8,10-1.8c5.9,0,11,1.5,15.5,4.5c4.5,3,8,7,10.4,12.1c2.5,5.1,3.7,10.7,3.8,16.8v33.9H546.4z"/>
		<path class="st0" d="M585.4,1187.2c-5-3.1-9-7.3-11.9-12.6c-3-5.3-4.4-11.1-4.4-17.3s1.5-12,4.4-17.3c3-5.3,6.9-9.5,11.9-12.6
			c5-3.1,10.5-4.7,16.4-4.7c6.1,0,11.6,1.6,16.6,4.7s8.9,7.4,11.8,12.7c2.9,5.3,4.3,11.1,4.3,17.4c0,2-0.1,3.7-0.3,5.2H586
			c0.9,3.9,2.7,7.1,5.6,9.6c2.9,2.5,6.4,3.7,10.5,3.7c2.8,0,5.3-0.7,7.6-2.1c2.3-1.4,4.3-3.3,5.8-5.7l16.1,3.7
			c-1.8,3.9-4.2,7.3-7.2,10.3c-3,3-6.4,5.3-10.3,7s-7.9,2.5-12.2,2.5C595.9,1191.9,590.4,1190.3,585.4,1187.2z M615.2,1143.6
			c-1.6-2.2-3.5-3.9-5.8-5.2c-2.3-1.3-4.8-1.9-7.5-1.9c-2.6,0-5.1,0.6-7.4,1.9s-4.2,3-5.8,5.2s-2.6,4.7-3.2,7.4h32.9
			C617.8,1148.3,616.7,1145.8,615.2,1143.6z"/>
		<path class="st1" d="M758.1,1098.3l-12.9,91.8h-19.7l5.5-39.4h-32.5l-5.5,39.4h-19.7l12.9-91.8h19.7l-4.6,32.8h32.5l4.6-32.8
			H758.1z"/>
		<path class="st1" d="M775.1,1098.3h58.5l-2.8,19.7h-38.8l-1.8,13.1h29.9l-2.8,19.7h-29.9l-2.8,19.7h38.8l-2.8,19.7h-58.5
			L775.1,1098.3z"/>
		<path class="st1" d="M898.2,1098.3l20.4,91.8h-20.5l-3.2-14.4h-36.6l-7.3,14.4h-21.2l46.2-91.8H898.2z M890.4,1156.1l-6.7-30.4
			l-15.5,30.4H890.4z"/>
		<path class="st1" d="M972.1,1098.3c7.6,0,14.5,1.8,20.6,5.3c6.1,3.6,11,8.4,14.5,14.6c3.5,6.2,5.2,13,5.2,20.6
			c0,2.2-0.2,4.4-0.5,6.5c-1.1,8.1-4.2,15.6-9.2,22.5c-5,6.8-11.3,12.3-18.8,16.3c-7.5,4-15.4,6-23.7,6h-31l12.9-91.8H972.1z
			 M975.7,1166.8c4.5-2.4,8.2-5.8,11.2-10c3-4.2,4.9-8.8,5.6-13.7c0.2-1,0.3-2.2,0.3-3.5c0-4-1-7.7-2.9-11c-1.9-3.3-4.6-5.9-8-7.8
			c-3.4-1.9-7.2-2.9-11.5-2.9h-11.3l-7.3,52.5H962C966.6,1170.5,971.2,1169.3,975.7,1166.8z"/>
		<path class="st1" d="M1018.7,1189.2c-1.8-1.8-2.7-4-2.7-6.8c0-0.4,0-0.9,0.1-1.6c0.3-2.4,1.5-4.4,3.4-6.1c1.9-1.7,4.1-2.5,6.5-2.5
			c1.8,0,3.4,0.4,4.9,1.2c1.4,0.8,2.6,1.9,3.4,3.3c0.8,1.4,1.2,3,1.2,4.8c0,1.9-0.5,3.6-1.4,5.2c-0.9,1.6-2.1,2.9-3.7,3.8
			c-1.5,0.9-3.2,1.4-4.9,1.4C1022.8,1191.9,1020.5,1191,1018.7,1189.2z M1029.3,1098.3h16.4l-9,64.3h-16.4L1029.3,1098.3z"/>
	</g>
</g>
<g>
	<path class="st2" d="M270.6,622.6V273.9h348.7H968v348.7v348.7H619.3H270.6V622.6z M835.4,947.2c2-1.3,4.9-4,6.6-5.9l3-3.3l4.9,4.6
		c11.7,11,22.8,9.4,35.4-5c3-3.5,7.5-7.2,9.8-8.4c6.8-3.6,9.7-7.6,10.5-15.1c0.6-5.6,1.6-7.6,5.6-11c6.8-5.8,10.8-14.3,11.2-24.4
		c0.4-7.6,1.2-9.2,6.5-15c7.5-8.1,8.6-11.4,8.6-24.2c0-7.5-0.7-11.8-2.9-16c-2-3.9-2.9-8.5-2.9-14.7c0-17.4-7.9-31.1-20.9-36.6
		c-4.3-1.7-8.2-4.5-8.6-5.9c-1.2-3.5-7.6-7.8-13.7-9.1c-2.7-0.6-6.6-2.2-8.6-3.6c-5-3.5-15.3-7.2-19.6-7.2c-1.9,0-6.1,1.3-9.2,2.9
		l-5.6,2.9l-6.9-3c-8.6-3.7-14.6-3-24.2,2.6c-4,2.4-9.8,4.8-12.7,5.3c-3.6,0.7-7.3,2.9-10.8,6.5c-2.9,3-7.9,6.6-11.1,8.2
		c-14.3,6.6-20,17.4-21.8,40.9c-0.3,3.6-1.7,10.1-3.3,14.4c-5.3,14.3-3.3,25.1,6.6,36c5.3,5.9,6.2,7.8,6.2,13.1
		c0,9.7,4.2,19.6,10.8,25.5c4.6,4.2,5.8,6.3,6.1,10.5c0.3,7.5,3.9,13.5,9.8,16.3c2.9,1.4,7.2,4.8,9.8,7.6
		C815.6,949.1,827.1,953,835.4,947.2L835.4,947.2z M504,844.5V740.8H400.3H296.5v103.7v103.7h103.7H504V844.5z M724.5,844.5V740.8
		h-103h-103v103.7v103.7h103h103V844.5z M504,624V520.3H400.3H296.5V624v103.7h103.7H504V624z M724.5,624V520.3h-103h-103V624v103.7
		h103h103V624z M944.9,624V520.3H841.2H737.5V624v103.7h103.7h103.7V624z M504,403.6V299.8H400.3H296.5v103.7v103.7h103.7H504V403.6
		z M724.5,403.6V299.8h-103h-103v103.7v103.7h103h103V403.6z M944.9,403.6V299.8H841.2H737.5v103.7v103.7h103.7h103.7V403.6z"/>
	<path class="st2" d="M817.3,939.3c-2.3-1.7-5.5-4.8-7.1-6.8c-5.6-6.8-7.9-8.8-10.8-8.8c-4.5,0-8.9-8.2-7.9-14.7
		c0.7-4.9,0.3-5.6-4.9-9.4c-8.5-6.1-12-13-11.5-23.5c0.3-8.4,0.1-8.9-4.8-13.4c-6.3-5.9-11.2-15.3-11.2-21.8c0-2.9,1.3-8.5,3-12.7
		s3.3-11.2,3.6-15.6c0.7-12.2,1.9-18.6,4.3-23.2c2.7-5.3,12.8-12.8,17.3-12.8c2.3,0,4-1.4,5.6-4.2c2.9-5.6,7.5-8.8,13.1-8.8
		c2.4,0,5.3-1,6.5-2.3c3-3.6,12.4-7.8,17.4-7.8c2.6,0,6.2,1.2,8.1,2.6l3.2,2.4l0.1,86c0.1,77.5-0.1,86.3-2.3,89.5
		C833.6,942.8,824.5,944.8,817.3,939.3L817.3,939.3z M829.4,919.1c5-5.5,6.3-10.8,3.9-15.6c-1.3-2.4-3.9-5.3-5.8-6.6
		c-5-3.3-5.2-12.2-0.1-14.8c1.9-1.2,4.6-4.3,5.9-7.3c2.2-4.9,2.2-5.8,0.1-9.7c-1.2-2.4-3.7-5.3-5.8-6.6c-3.2-2.2-3.6-3.6-4-12.8
		l-0.4-10.5l-4.6-0.4l-4.8-0.4v-14.4c0-13.8,0.1-14.4,3.5-16c6.2-2.7,8.1-12.2,4-19.5c-1-1.7-4.3-4-7.3-4.9
		c-4.9-1.4-6.3-1.3-10.5,1.2c-2.6,1.4-5.6,4.5-6.6,6.6c-2.6,5.5,0,13.5,5.6,16.7c4.2,2.3,4.2,2.4,4.2,16.4v14h-4c-3,0-4.6-1-5.8-3.5
		c-0.9-2-3.7-4.2-6.6-5.2c-13.5-4.5-24.6,8.9-16.7,20.2c5.8,8.1,17.3,8.1,23.1,0c2.9-4,3.7-4.3,11.7-4.3h8.5v7.9
		c0,5.9-0.6,7.9-2,7.9c-3.5,0-8.1,7.2-8.1,12.5c0,3.9,1.2,6.2,5,10.1c6.6,6.6,6.8,12.4,0.6,17.6c-3.2,2.7-4.6,5.3-5.2,9.8
		c-0.7,5.3-0.3,6.6,3.6,10.5C816.3,923.5,824.6,924,829.4,919.1L829.4,919.1z"/>
	<path class="st2" d="M815.6,913.4c-2.3-2.3-2.2-7.6,0.3-9.8c3-2.3,8.1-1.3,10.4,2.2C830.1,911.6,820.6,918.4,815.6,913.4
		L815.6,913.4z"/>
	<path class="st2" d="M816.3,875c-3-3.5-3.2-9.8-0.1-11c4.5-1.7,7.8-0.9,10.1,2.7c2.2,3.3,2.2,3.7-0.4,6.8
		C822.5,877.9,819.2,878.4,816.3,875z"/>
	<path class="st2" d="M780.2,843.3c-1.4-1.4-2.4-3.7-2.4-5c0-3,3.9-6.8,7.2-6.8c3.2,0,7.2,3.7,7.2,6.6c0,2.6-5.2,7.8-7.6,7.8
		C783.4,845.9,781.5,844.8,780.2,843.3z"/>
	<path class="st2" d="M804.7,797.2c-3.2-3.5-3-6.5,0.3-9.5c3.5-3.2,8.5-2.4,11.2,1.4c1.7,2.6,1.6,3.5-1.2,6.8
		C811.7,800.4,808.1,800.8,804.7,797.2z"/>
	<path class="st2" d="M853.6,936.7l-5.2-5.8v-86.2v-86.2l5-2.4c6.5-3,11.7-3,17.7,0.1l4.6,2.6l-3.6,4.9c-3.9,5.3-4.5,7.9-1.9,9.5
		c0.9,0.6,3.6-1.2,6.5-4.2c5.6-6.2,11-6.9,16.9-2.3c3,2.4,3.5,3.5,2.2,5c-0.9,1.2-2.4,2-3.5,2c-5.3,0-15.4,18-13.3,23.6
		c1.6,4.2,3.9,2.4,7.3-5.5c3.6-8.2,11.8-15.3,17.6-15.3c4.8,0,14.7,8.1,17.3,14c2.7,6.5,3.3,10.2,3.6,20.5c0,5,1.2,9.9,3.2,13.7
		c4.3,8.4,4.2,21.2-0.1,29c-4,6.9-14,14.7-20.2,16c-7.3,1.4-11.2-0.4-16.9-8.1c-4.3-5.9-5.8-6.9-7.3-5.6c-2.2,1.7-1.6,5.9,1.4,9.7
		c7.9,10.2,15.7,13.5,25.1,10.7c2.9-0.9,5.5-1.3,5.8-1c0.4,0.3,0.1,3.6-0.3,7.1c-1.2,7.2-5.8,13.7-12.5,17.7
		c-3.7,2.3-4.2,3.2-4.2,9.9c0,8.2-2,11.5-8.8,13.8c-2.2,0.7-5.5,3.6-7.3,6.3c-4.5,6.8-13,12.1-19,12.1
		C859.8,942.5,857.8,941.3,853.6,936.7L853.6,936.7z M864.1,911.4c4-7.3,10.5-13.5,14.7-13.5c1.7,0,2.7-1,2.7-2.7
		c0-2.2-1.2-3-4.6-3.3c-3.9-0.4-4.8-1.2-5.9-5.3c-1.9-7.6-8.8-17.4-12.2-17.4c-3.6,0-3.3,4.2,0.9,9.9c5.9,8.1,7.3,16.6,3.5,20.7
		c-4.8,5.2-8.8,15-7.1,16.7C858.8,919.1,860.7,918.1,864.1,911.4z M911.7,841.5c2.9-1,4.5-2.6,4.5-4.3c0-2.6-0.7-2.7-10.4-1.9
		c-9.5,0.7-11,0.6-15.4-2.6c-5-3.3-11.8-13.4-13.5-19.9c-0.6-2-2.4-5.3-4.5-7.6c-2.9-3.5-3.3-4.8-2.2-9.4c1.9-8.2,1.6-13.3-1-14.3
		c-3.2-1.2-4.8,1-5,7.5c-0.3,7.1-4.8,21-8.9,28.5c-2.6,4.6-2.7,5.6-1,6.8c2.7,1.7,8.1-3.2,10.4-9.7c2.2-6.2,3.5-6.1,5.6,0.7
		C877.1,836.7,894.2,847.5,911.7,841.5L911.7,841.5z"/>
	<path class="st2" d="M349.8,848.8v-57.6h12.7l12.5,0.1l11.5,17.9c6.3,9.9,17,26.5,23.8,37l12.2,19l0.4-37l0.3-37h10.8h10.8v57.6
		v57.6h-10.7h-10.7L398,866.1l-25.8-40.3l-0.4,40.3l-0.3,40.3h-10.8h-10.8C349.8,906.5,349.8,848.8,349.8,848.8z"/>
	<path class="st2" d="M566,848.8v-57.6h10.8h10.8v25.2c0,13.8,0.4,25.2,1.2,25.2c0.6,0,11.4-11.4,23.9-25.2l22.9-25.2h12.8h13
		l-6.3,6.9c-3.3,3.9-14.6,16.1-24.9,27.5c-10.2,11.2-18.9,21.2-19.2,21.9c-0.4,1,6.6,9.1,36.6,41.6c3.3,3.6,8.1,8.9,10.7,12l4.6,5.3
		h-14.1l-14.3-0.1l-22.3-25.1c-12.2-13.7-22.8-25.1-23.3-25.1c-0.7-0.1-1.2,11.2-1.2,25.1v25.2h-10.8H566L566,848.8L566,848.8z"/>
	<path class="st2" d="M385.9,638.5v-47.6H370h-15.9v-10.1v-10.1h43.2h43.2v10.1v10.1h-15.9h-15.9v47.6V686h-11.5h-11.5V638.5z"/>
	<path class="st2" d="M570.3,628.4v-57.6h10.8h10.7l0.4,22.8l0.4,22.6l22.8,0.4L638,617v-23.2v-23.1h10.8h10.8v57.6V686h-10.8H638
		v-25.9V634l-22.6,0.4l-22.8,0.4l-0.4,25.6l-0.3,25.5h-10.8h-10.8V628.4L570.3,628.4z"/>
	<path class="st2" d="M823.9,628.4v-57.6h10.8h10.8v57.6V686h-10.8h-10.8V628.4z"/>
	<path class="st2" d="M388.8,467.1c-7.2-2.3-19-8.9-24.8-14.3c-25.1-22.5-26.2-59.5-2.6-84.4c22.3-23.6,64.3-24.4,86.5-1.6l4.9,5
		l-7.3,7.5l-7.5,7.3l-5.8-5.2c-7.8-7.1-12.8-9.4-22.2-10.5c-16.1-1.9-32,6.6-39.5,21.6c-9.4,18.4-1.6,41.2,17.1,50.7
		c15.3,7.6,31.3,5.6,43.9-5.8l7.2-6.5l7.3,7.5l7.5,7.6l-5.3,5c-13.4,12.7-25.1,17.1-43.5,17C398,468.3,390.8,467.7,388.8,467.1z"/>
	<path class="st2" d="M570.3,410.6v-57.8l27.8,0.6c25.2,0.4,28.2,0.7,33.6,3.6c12.7,6.8,18.6,17.7,17.6,32.3
		c-0.7,9.9-5.9,18.6-14.6,24.2l-5.3,3.5l4.2,2.6c5.5,3.3,6.6,5.3,15.4,29.1l7.3,19.7h-11.8h-12l-3.7-12.5
		c-4.8-16.1-10.2-26.9-15-30.1c-2-1.3-7.8-2.7-12.8-3.2l-9.1-0.7v23.3v23.2h-10.8h-10.8V410.6L570.3,410.6z M619.3,402.9
		c8.4-4.3,11.1-15.9,5.8-24.4c-4.2-6.9-8.9-8.8-21.5-8.8h-11l-0.4,17.7l-0.4,17.6h11.7C611.1,405,616.6,404.3,619.3,402.9z"/>
	<path class="st2" d="M823.9,405v-57.6h10.8h10.8V405v57.6h-10.8h-10.8V405z"/>
</g>
<g>
</g>
<g>
</g>
<g>
</g>
<g>
</g>
<g>
</g>
<g>
</g>
<g>
</g>
<g>
</g>
<g>
</g>
<g>
</g>
<g>
</g>
</svg>
