<?xml version="1.0" encoding="utf-8"?>
<!-- Generator: Adobe Illustrator 23.1.1, SVG Export Plug-In . SVG Version: 6.00 Build 0)  -->
<svg version="1.1" baseProfile="basic" id="Livello_1" xmlns:serif="http://www.serif.com/"
	 xmlns="http://www.w3.org/2000/svg" xmlns:xlink="http://www.w3.org/1999/xlink" x="0px" y="0px" viewBox="0 0 1366 768"
	 xml:space="preserve">
<g>
	<g transform="matrix(1,0,0,1,8.33463,-5.53944)">
		<g id="Livello1">
			
				<path fill="none" stroke="#3F3FCB" stroke-width="16.2863" stroke-linecap="round" stroke-linejoin="round" stroke-miterlimit="10" d="
				M681.7,578.2l1.6-508.5c142.1,18.5,193.1,114.5,174.2,250.8c7.8,28.7,19.6,43.3,39.1,58.5c12.4,19.7-8.7,31.7-26.3,36.3
				c10.7,17.9,11.3,28.2-8.7,38.1c10,14,6.9,24-3.4,31.7c-5.8,17.6-5.5,25.5-2,45.2c-7.7,34-44.9,26.8-78.6,24.3
				c-25.5-3.2-44.1,5.5-57.4,23.2L681.7,578.2z"/>
		</g>
	</g>
	<g>
		<g id="Livello2">
			<g>
				
					<path fill="none" stroke="#FF9600" stroke-width="16.2863" stroke-linecap="round" stroke-linejoin="round" stroke-miterlimit="10" d="
					M647,64.2c-103.7,13.6-118.5,112.5-66.1,134.3"/>
				
					<path fill="none" stroke="#FF9600" stroke-width="16.2863" stroke-linecap="round" stroke-linejoin="round" stroke-miterlimit="10" d="
					M551.4,146.2C426.7,162.4,428,302.1,519,322.9"/>
				
					<path fill="none" stroke="#FF9600" stroke-width="16.2863" stroke-linecap="round" stroke-linejoin="round" stroke-miterlimit="10" d="
					M478.9,308.5c-57.6,22.8-51.8,129.2,23.8,138.3"/>
				
					<path fill="none" stroke="#FF9600" stroke-width="16.2863" stroke-linecap="round" stroke-linejoin="round" stroke-miterlimit="10" d="
					M490,444.2c-21.7,70.5,39.1,121.7,103.9,97.9"/>
				
					<path fill="none" stroke="#FF9600" stroke-width="16.2863" stroke-linecap="round" stroke-linejoin="round" stroke-miterlimit="10" d="
					M587.9,544.1c13.9,34.3,37.5,40.7,63.7,25"/>
				
					<path fill="none" stroke="#FF9600" stroke-width="16.2863" stroke-linecap="round" stroke-linejoin="round" stroke-miterlimit="10" d="
					M651.5,569V64.2"/>
				<g transform="matrix(1,0,0,1,39.0038,30.2353)">
					
						<path fill="none" stroke="#FF9600" stroke-width="16.2863" stroke-linecap="round" stroke-linejoin="round" stroke-miterlimit="10" d="
						M547.9,215.7c-10.8-32.7-1.3-59,32.8-77.5"/>
				</g>
				
					<path fill="none" stroke="#FF9600" stroke-width="16.2863" stroke-linecap="round" stroke-linejoin="round" stroke-miterlimit="10" d="
					M539.7,367.6c-25.3-24.4-25.4-68.1,0-90.3"/>
				
					<path fill="none" stroke="#FF9600" stroke-width="16.2863" stroke-linecap="round" stroke-linejoin="round" stroke-miterlimit="10" d="
					M550.4,457c8.4,54.9,52.9,74.1,101.1,66.4"/>
				
					<path fill="none" stroke="#FF9600" stroke-width="16.2863" stroke-linecap="round" stroke-linejoin="round" stroke-miterlimit="10" d="
					M582.7,296.1c32-6.4,54.2,10.3,68.9,45"/>
			</g>
		</g>
	</g>
</g>
<text transform="matrix(1 0 0 1 440.2149 711.0723)" fill="#FF9600" font-family="'Urbanist-ExtraBold'" font-size="121.9201px">CriThink</text>
</svg>
