<?xml version="1.0" encoding="utf-8"?>
<!-- Generator: Adobe Illustrator 25.0.1, SVG Export Plug-In . SVG Version: 6.00 Build 0)  -->
<svg version="1.1" id="Livello_1" xmlns="http://www.w3.org/2000/svg" xmlns:xlink="http://www.w3.org/1999/xlink" x="0px" y="0px"
	 viewBox="0 0 1242 1429" style="enable-background:new 0 0 1242 1429;" xml:space="preserve">
<style type="text/css">
	.st0{opacity:0.26;fill:url(#SVGID_1_);}
	.st1{opacity:0.26;fill:url(#SVGID_2_);}
	.st2{fill:url(#SVGID_3_);stroke:url(#SVGID_4_);stroke-miterlimit:10;}
	.st3{opacity:0.9;}
	.st4{fill:#FFFFFF;}
	.st5{fill:#FCF7F4;}
	.st6{fill:url(#SVGID_5_);stroke:url(#SVGID_6_);stroke-miterlimit:10;}
	.st7{fill:url(#SVGID_7_);stroke:url(#SVGID_8_);stroke-miterlimit:10;}
	.st8{fill:url(#SVGID_9_);stroke:url(#SVGID_10_);stroke-miterlimit:10;}
	.st9{fill:url(#SVGID_11_);stroke:url(#SVGID_12_);stroke-miterlimit:10;}
	.st10{fill:url(#SVGID_13_);stroke:url(#SVGID_14_);stroke-miterlimit:10;}
	.st11{fill:url(#SVGID_15_);stroke:url(#SVGID_16_);stroke-miterlimit:10;}
	.st12{fill:url(#SVGID_17_);stroke:url(#SVGID_18_);stroke-miterlimit:10;}
	.st13{fill:url(#SVGID_19_);stroke:url(#SVGID_20_);stroke-miterlimit:10;}
	.st14{fill:url(#SVGID_21_);stroke:url(#SVGID_22_);stroke-miterlimit:10;}
	.st15{fill:url(#SVGID_23_);}
	.st16{fill:url(#SVGID_24_);}
	.st17{fill:url(#SVGID_25_);}
	.st18{fill:url(#SVGID_26_);}
	.st19{fill:url(#SVGID_27_);}
	.st20{opacity:0.2;fill:#FFFFFF;}
	.st21{opacity:0.53;fill:#FFFFFF;}
	.st22{opacity:0.6;}
	.st23{fill:#FF931E;stroke:url(#SVGID_28_);stroke-miterlimit:10;}
	.st24{fill:#FF931E;stroke:url(#SVGID_29_);stroke-miterlimit:10;}
	.st25{opacity:0.26;fill:url(#SVGID_30_);}
	.st26{fill:url(#SVGID_31_);}
	.st27{fill:url(#SVGID_32_);}
	.st28{fill:url(#SVGID_33_);}
	.st29{fill:url(#SVGID_34_);}
	.st30{fill:url(#SVGID_35_);}
	.st31{fill:url(#SVGID_36_);}
	.st32{fill:url(#SVGID_37_);}
	.st33{fill:url(#SVGID_38_);}
	.st34{fill:url(#SVGID_39_);}
	.st35{fill:url(#SVGID_40_);}
	.st36{fill:url(#SVGID_41_);}
	.st37{fill:#FC983B;}
	.st38{fill:url(#SVGID_42_);}
	.st39{fill:url(#SVGID_43_);}
	.st40{fill:url(#SVGID_44_);}
	.st41{fill:url(#SVGID_45_);}
	.st42{fill:url(#SVGID_46_);}
	.st43{fill:url(#SVGID_47_);}
	.st44{fill:url(#SVGID_48_);}
	.st45{fill:url(#SVGID_49_);}
	.st46{fill:url(#SVGID_50_);}
	.st47{fill:url(#SVGID_51_);}
	.st48{fill:url(#SVGID_52_);}
	.st49{fill:url(#SVGID_53_);}
	.st50{fill:url(#SVGID_54_);}
	.st51{fill:url(#SVGID_55_);}
	.st52{clip-path:url(#SVGID_57_);}
	.st53{fill:url(#SVGID_58_);}
	.st54{fill:url(#SVGID_59_);}
	.st55{fill:url(#SVGID_60_);}
	.st56{fill:url(#SVGID_61_);}
	.st57{fill:url(#SVGID_62_);}
	.st58{fill:url(#SVGID_63_);}
	.st59{fill:url(#SVGID_64_);}
	.st60{fill:url(#SVGID_65_);}
	.st61{fill:url(#SVGID_66_);}
	.st62{fill:url(#SVGID_67_);}
	.st63{fill:url(#SVGID_68_);}
	.st64{fill:url(#SVGID_69_);}
	.st65{fill:url(#SVGID_70_);}
	.st66{fill:url(#SVGID_71_);}
	.st67{fill:url(#SVGID_72_);}
	.st68{fill:url(#SVGID_73_);}
	.st69{fill:url(#SVGID_74_);}
	.st70{fill:url(#SVGID_75_);}
	.st71{fill:url(#SVGID_76_);}
	.st72{fill:url(#SVGID_77_);}
	.st73{fill:url(#SVGID_78_);}
	.st74{fill:url(#SVGID_79_);}
	.st75{fill:url(#SVGID_80_);}
	.st76{fill:url(#SVGID_81_);stroke:url(#SVGID_82_);stroke-miterlimit:10;}
	.st77{fill:url(#SVGID_83_);}
	.st78{fill:url(#SVGID_84_);}
	.st79{fill:url(#SVGID_85_);}
	.st80{fill:url(#SVGID_86_);}
	.st81{clip-path:url(#SVGID_88_);fill:url(#SVGID_89_);}
	.st82{fill:url(#SVGID_90_);}
	.st83{fill:url(#SVGID_91_);}
	.st84{fill:url(#SVGID_92_);}
	.st85{fill:url(#SVGID_93_);}
	.st86{fill:url(#SVGID_94_);}
	.st87{fill:#FF931E;stroke:url(#SVGID_95_);stroke-miterlimit:10;}
	.st88{fill:url(#SVGID_96_);}
	.st89{fill:url(#SVGID_97_);}
	.st90{fill:url(#SVGID_98_);}
	.st91{opacity:0.62;fill:#FFFFFF;}
	.st92{fill:#3F3FCB;}
	.st93{fill:#FBAE17;}
	.st94{opacity:0.26;fill:url(#SVGID_99_);}
	.st95{fill:url(#SVGID_100_);stroke:url(#SVGID_101_);stroke-miterlimit:10;}
	.st96{fill:url(#SVGID_102_);stroke:url(#SVGID_103_);stroke-miterlimit:10;}
	.st97{fill:#F0F0F0;}
	.st98{fill:url(#SVGID_104_);}
	.st99{fill:url(#SVGID_105_);}
	.st100{opacity:0.7;}
	.st101{fill:#FFFFFF;stroke:#FFFFFF;stroke-width:11;stroke-miterlimit:10;}
	.st102{opacity:0.5;fill:#FFFFFF;}
	.st103{fill:url(#SVGID_106_);}
	.st104{fill:url(#SVGID_107_);}
	.st105{fill:url(#SVGID_112_);}
	.st106{fill:url(#SVGID_113_);}
	.st107{fill:url(#SVGID_114_);}
	.st108{fill:url(#SVGID_115_);}
	.st109{fill:url(#SVGID_116_);}
	.st110{fill:url(#SVGID_117_);}
	.st111{fill:url(#SVGID_118_);}
	.st112{fill:url(#SVGID_119_);}
	.st113{fill:url(#SVGID_120_);}
	.st114{fill:url(#SVGID_121_);}
	.st115{fill:url(#SVGID_122_);}
	.st116{fill:url(#SVGID_123_);}
	.st117{fill:url(#SVGID_124_);}
	.st118{fill:url(#SVGID_125_);}
	.st119{fill:url(#SVGID_126_);}
	.st120{fill:url(#SVGID_127_);}
	.st121{fill:url(#SVGID_128_);}
	.st122{fill:url(#SVGID_129_);}
	.st123{fill:url(#SVGID_130_);}
	.st124{fill:url(#SVGID_131_);}
	.st125{opacity:0.26;fill:url(#SVGID_132_);}
	.st126{fill:url(#SVGID_133_);}
	.st127{fill:url(#SVGID_134_);}
	.st128{fill:url(#SVGID_135_);}
	.st129{fill:url(#SVGID_136_);}
	.st130{fill:url(#SVGID_137_);}
	.st131{fill:url(#SVGID_138_);}
	.st132{fill:url(#SVGID_139_);}
	.st133{opacity:0.42;fill:url(#SVGID_140_);}
	.st134{opacity:0.42;fill:url(#SVGID_141_);}
	.st135{fill:url(#SVGID_142_);}
	.st136{opacity:0.42;fill:url(#SVGID_143_);}
	.st137{fill:url(#SVGID_144_);}
	.st138{fill:url(#SVGID_145_);}
	.st139{fill:url(#SVGID_146_);}
	.st140{fill:url(#SVGID_147_);}
	.st141{fill:url(#SVGID_148_);}
	.st142{fill:url(#SVGID_149_);}
	.st143{opacity:0.42;fill:url(#SVGID_150_);}
	.st144{fill:url(#SVGID_151_);}
	.st145{fill:url(#SVGID_152_);}
	.st146{fill:url(#SVGID_153_);}
	.st147{opacity:0.65;fill:#FFFFFF;}
	.st148{fill:url(#SVGID_154_);}
	.st149{opacity:0.22;fill:#FFFFFF;}
	.st150{fill:url(#SVGID_155_);}
	.st151{fill:url(#SVGID_156_);}
	.st152{fill:url(#SVGID_157_);}
	.st153{fill:url(#SVGID_158_);}
	.st154{fill:url(#SVGID_159_);}
	.st155{fill:url(#SVGID_160_);}
	.st156{fill:url(#SVGID_161_);}
	.st157{fill:url(#SVGID_162_);}
	.st158{opacity:0.6;fill:#FFFFFF;}
	.st159{fill:url(#SVGID_163_);}
	.st160{fill:url(#SVGID_164_);}
	.st161{fill:url(#SVGID_165_);}
	.st162{fill:url(#SVGID_166_);}
	.st163{fill:url(#SVGID_167_);}
	.st164{fill:url(#SVGID_168_);}
	.st165{fill:url(#SVGID_169_);}
	.st166{fill:url(#SVGID_170_);}
	.st167{fill:url(#SVGID_171_);}
	.st168{fill:url(#SVGID_172_);}
	.st169{fill:url(#SVGID_173_);}
	.st170{fill:url(#SVGID_174_);}
	.st171{fill:url(#SVGID_175_);}
	.st172{fill:url(#SVGID_176_);}
	.st173{fill:url(#SVGID_177_);}
	.st174{fill:url(#SVGID_178_);}
	.st175{fill:url(#SVGID_179_);}
	.st176{fill:url(#SVGID_180_);}
	.st177{fill:url(#SVGID_181_);}
	.st178{opacity:0.2;fill:url(#SVGID_182_);}
	.st179{fill:url(#SVGID_183_);}
	.st180{fill:url(#SVGID_184_);}
	.st181{fill:url(#SVGID_185_);}
	.st182{fill:url(#SVGID_186_);}
	.st183{fill:url(#SVGID_187_);}
	.st184{fill:url(#SVGID_188_);}
	.st185{opacity:0.26;fill:url(#SVGID_189_);}
	.st186{fill:url(#SVGID_190_);}
	.st187{opacity:0.43;fill:#FFFFFF;}
	.st188{fill:url(#SVGID_191_);stroke:url(#SVGID_192_);stroke-miterlimit:10;}
	.st189{opacity:0.26;fill:url(#SVGID_193_);}
	.st190{opacity:0.26;fill:url(#SVGID_194_);}
	.st191{opacity:0.26;fill:url(#SVGID_195_);}
	.st192{fill:url(#SVGID_196_);}
	.st193{fill:url(#SVGID_197_);}
	.st194{fill:url(#SVGID_198_);}
	.st195{fill:url(#SVGID_199_);}
	.st196{fill:url(#SVGID_200_);}
	.st197{fill:url(#SVGID_201_);}
	.st198{fill:url(#SVGID_202_);}
	.st199{fill:url(#SVGID_203_);}
	.st200{fill:url(#SVGID_204_);}
	.st201{fill:url(#SVGID_205_);}
	.st202{fill:url(#SVGID_206_);}
	.st203{fill:url(#SVGID_207_);}
	.st204{fill:url(#SVGID_208_);}
	.st205{fill:url(#SVGID_209_);}
	.st206{fill:url(#SVGID_210_);}
	.st207{fill:url(#SVGID_211_);}
	.st208{fill:url(#SVGID_212_);}
	.st209{fill:url(#SVGID_213_);}
	.st210{fill:#F79E6D;}
	.st211{fill:url(#SVGID_214_);}
	.st212{fill:url(#SVGID_215_);}
	.st213{fill:url(#SVGID_216_);}
	.st214{fill:url(#SVGID_217_);}
	.st215{fill:url(#SVGID_218_);}
	.st216{fill:url(#SVGID_219_);}
	.st217{fill:url(#SVGID_220_);}
	.st218{fill:url(#SVGID_221_);}
	.st219{fill:url(#SVGID_222_);}
	.st220{fill:url(#SVGID_223_);}
	.st221{fill:url(#SVGID_224_);}
	.st222{fill:url(#SVGID_225_);}
	.st223{fill:url(#SVGID_226_);}
	.st224{fill:url(#SVGID_227_);}
	.st225{opacity:0.26;fill:url(#SVGID_228_);}
	.st226{fill:url(#SVGID_229_);stroke:url(#SVGID_230_);stroke-miterlimit:10;}
	.st227{opacity:0.47;fill:#FFFFFF;}
	.st228{fill:url(#SVGID_231_);stroke:url(#SVGID_232_);stroke-miterlimit:10;}
	.st229{fill:url(#SVGID_233_);}
	.st230{fill:url(#SVGID_234_);}
	.st231{fill:#FE9600;}
	.st232{fill:url(#SVGID_235_);}
	.st233{fill:url(#SVGID_236_);}
	.st234{fill:url(#SVGID_237_);}
	.st235{fill:url(#SVGID_238_);}
	.st236{opacity:0.61;fill:#FFFFFF;}
	.st237{fill:url(#SVGID_239_);}
	.st238{fill:url(#SVGID_240_);}
	.st239{fill:url(#SVGID_241_);}
	.st240{fill:url(#SVGID_242_);}
	.st241{fill:url(#SVGID_243_);}
	.st242{fill:url(#SVGID_244_);}
	.st243{fill:url(#SVGID_245_);}
	.st244{fill:url(#SVGID_246_);}
	.st245{fill:url(#SVGID_247_);}
	.st246{fill:url(#SVGID_248_);}
	.st247{fill:url(#SVGID_249_);}
	.st248{fill:url(#SVGID_250_);}
	.st249{fill:url(#SVGID_251_);}
	.st250{fill:url(#SVGID_252_);}
	.st251{fill:url(#SVGID_253_);}
	.st252{fill:url(#SVGID_254_);}
	.st253{fill:url(#SVGID_255_);}
	.st254{fill:url(#SVGID_256_);}
	.st255{fill:url(#SVGID_257_);}
	.st256{fill:url(#SVGID_258_);}
	.st257{fill:url(#SVGID_259_);}
	.st258{fill:url(#SVGID_260_);}
	.st259{fill:url(#SVGID_261_);}
	.st260{fill:url(#SVGID_262_);}
	.st261{fill:url(#SVGID_263_);}
	.st262{fill:url(#SVGID_264_);}
	.st263{fill:url(#SVGID_265_);}
	.st264{fill:url(#SVGID_266_);}
	.st265{fill:url(#SVGID_267_);}
	.st266{fill:url(#SVGID_268_);}
	.st267{fill:url(#SVGID_269_);}
	.st268{opacity:9.000000e-02;}
	.st269{fill:url(#SVGID_270_);}
	.st270{fill:url(#SVGID_271_);}
	.st271{fill:url(#SVGID_272_);}
	.st272{fill:url(#SVGID_273_);}
	.st273{fill:url(#SVGID_274_);}
</style>
<g>
	<linearGradient id="SVGID_1_" gradientUnits="userSpaceOnUse" x1="1258.3649" y1="1685.4659" x2="346.4871" y2="552.971">
		<stop  offset="5.618000e-03" style="stop-color:#F17C54"/>
		<stop  offset="0.8017" style="stop-color:#F7B659"/>
		<stop  offset="1" style="stop-color:#F9C55A"/>
	</linearGradient>
	<path class="st0" d="M1007.5,1238.9c-20.9,22.1-40.8,36.3-56.4,47.5c-184.1,132.1-401.8,93.6-448.1,84.2
		c-68.4-13.9-200.5-40.7-296-153C62.4,1047.5,84.9,779.8,197,603c20.5-32.3,128.8-211.8,348.9-240.5
		c133.2-17.4,288.5,17.7,401,111.9C1183,672.2,1166.2,1071.8,1007.5,1238.9z"/>
	<g>
		<g>
			<g>
				<linearGradient id="SVGID_2_" gradientUnits="userSpaceOnUse" x1="156.5649" y1="569.7575" x2="160.0988" y2="569.7575">
					<stop  offset="2.247200e-02" style="stop-color:#583735"/>
					<stop  offset="0.427" style="stop-color:#DA5535"/>
					<stop  offset="0.736" style="stop-color:#F17A40"/>
					<stop  offset="1" style="stop-color:#F6BA52"/>
				</linearGradient>
				<path style="fill:url(#SVGID_2_);" d="M157.5,574.6c-0.6-0.3-1-0.9-1-1.5c0-2.2,0.1-4.5,0.2-6.7c0-0.9,0.8-1.6,1.8-1.5
					c2.3,0.1,1.5,2.3,1.4,8.3c0,0.9-0.8,1.6-1.7,1.6C158,574.7,157.8,574.7,157.5,574.6z"/>
				<linearGradient id="SVGID_3_" gradientUnits="userSpaceOnUse" x1="159.0878" y1="480.1364" x2="435.7831" y2="480.1364">
					<stop  offset="2.247200e-02" style="stop-color:#583735"/>
					<stop  offset="0.427" style="stop-color:#DA5535"/>
					<stop  offset="0.736" style="stop-color:#F17A40"/>
					<stop  offset="1" style="stop-color:#F6BA52"/>
				</linearGradient>
				<path style="fill:url(#SVGID_3_);" d="M159.1,545.6c0.8-4.2,1.7-8.4,2.8-12.5c0.2-0.9,1.2-1.4,2.1-1.2c2.4,0.7,0.7,2-1.5,14.3
					c-0.2,0.9-1,1.5-2,1.3C159.5,547.4,159,546.5,159.1,545.6z M168.5,513.4c1.6-4,3.4-7.9,5.3-11.7c1-2,4-0.4,3,1.5
					c-1.9,3.7-3.6,7.5-5.2,11.4c-0.3,0.8-1.3,1.2-2.2,0.9C168.6,515.2,168.1,514.2,168.5,513.4z M184.3,483.8
					c2.4-3.5,4.9-7,7.6-10.3c1.4-1.7,4,0.4,2.7,2.1c-2.6,3.3-5.1,6.6-7.4,10.1C185.9,487.5,183.1,485.6,184.3,483.8z M206,460.5
					c-0.7-0.7-0.6-1.7,0-2.3c3.1-2.9,6.3-5.8,9.6-8.5c1.7-1.4,3.9,1.2,2.2,2.6c-3.2,2.6-6.4,5.5-9.4,8.3
					C207.7,461.2,206.6,461.2,206,460.5z M232.1,439.8c-0.5-0.8-0.3-1.8,0.5-2.3c3.6-2.3,7.4-4.4,11.2-6.4c2-1,3.6,1.9,1.6,2.9
					c-3.7,1.9-7.4,4-11,6.2C233.6,440.8,232.6,440.5,232.1,439.8z M262.9,425.7c-0.4-0.2-0.7-0.5-0.9-0.9c-0.3-0.9,0.1-1.8,1-2.1
					c4-1.5,8.2-2.8,12.3-4c0.9-0.2,1.8,0.3,2.1,1.1c0.3,0.9-0.2,1.8-1.1,2c-4.1,1.1-8.1,2.5-12.1,3.9
					C263.8,425.9,263.3,425.9,262.9,425.7z M295.5,417.4c-0.5-0.2-0.9-0.7-1-1.2c-0.2-0.9,0.5-1.8,1.4-1.9c4.3-0.6,8.6-1.1,12.9-1.4
					c0.9-0.1,1.7,0.6,1.8,1.5c0.1,0.9-0.6,1.7-1.5,1.8c-4.2,0.3-8.5,0.8-12.7,1.4C296.1,417.6,295.8,417.5,295.5,417.4z
					 M328.3,414.2c0-0.9,0.8-1.6,1.7-1.6c4.3,0.2,8.7,0.7,13,1.2c2.2,0.3,1.8,3.6-0.4,3.3c-4.2-0.6-8.5-1-12.7-1.2
					C329,415.9,328.2,415.1,328.3,414.2z M433,458.9c-9.4-8.5-11.7-8.6-10.2-10.5c0.6-0.7,1.6-0.8,2.4-0.3c3.4,2.6,6.8,5.5,10,8.4
					C436.9,457.9,434.6,460.4,433,458.9z M361.8,419.2c0.2-0.9,1.1-1.4,2-1.2c4.2,1.1,8.4,2.4,12.5,3.8c2.1,0.7,1,3.9-1.1,3.1
					c-4-1.4-8.2-2.6-12.3-3.7C362.1,421,361.6,420.1,361.8,419.2z M405.9,439c-10.9-6.4-13.2-6-12.1-8.3c0.7-1.4,2.4-0.7,2.2-0.7
					c3.9,1.9,7.8,4,11.5,6.2c0.8,0.5,1.1,1.5,0.6,2.3C407.7,439.2,406.7,439.5,405.9,439z"/>
				<linearGradient id="SVGID_4_" gradientUnits="userSpaceOnUse" x1="447.1362" y1="475.3061" x2="454.7911" y2="475.3061">
					<stop  offset="2.247200e-02" style="stop-color:#583735"/>
					<stop  offset="0.427" style="stop-color:#DA5535"/>
					<stop  offset="0.736" style="stop-color:#F17A40"/>
					<stop  offset="1" style="stop-color:#F6BA52"/>
				</linearGradient>
				<path style="fill:url(#SVGID_4_);" d="M451.8,478.9c-3.5-4.4-5.8-6-4.1-7.5c0.7-0.6,1.8-0.5,2.4,0.2c3.8,4.4,5.8,6.2,4.1,7.6
					C453.6,479.6,452.4,479.7,451.8,478.9z"/>
			</g>
			<g>
				<linearGradient id="SVGID_5_" gradientUnits="userSpaceOnUse" x1="485.9216" y1="598.1623" x2="490.0445" y2="598.1623">
					<stop  offset="2.247200e-02" style="stop-color:#583735"/>
					<stop  offset="0.427" style="stop-color:#DA5535"/>
					<stop  offset="0.736" style="stop-color:#F17A40"/>
					<stop  offset="1" style="stop-color:#F6BA52"/>
				</linearGradient>
				<path style="fill:url(#SVGID_5_);" d="M486.9,602.9c-0.7-0.3-1.1-1-1-1.7c0.3-2.2,0.5-4.3,0.7-6.5c0.1-0.9,0.9-1.6,1.8-1.5
					c0.9,0.1,1.6,0.9,1.5,1.8c-0.2,2.2-0.5,4.4-0.8,6.6c-0.1,0.9-1,1.5-1.9,1.4C487.2,603.1,487,603,486.9,602.9z"/>
				<linearGradient id="SVGID_6_" gradientUnits="userSpaceOnUse" x1="207.1124" y1="681.5813" x2="484.766" y2="681.5813">
					<stop  offset="2.247200e-02" style="stop-color:#583735"/>
					<stop  offset="0.427" style="stop-color:#DA5535"/>
					<stop  offset="0.736" style="stop-color:#F17A40"/>
					<stop  offset="1" style="stop-color:#F6BA52"/>
				</linearGradient>
				<path style="fill:url(#SVGID_6_);" d="M249.1,723.1c-4.2-2.1-8.3-4.4-12.3-6.9c-0.8-0.5-1-1.5-0.6-2.3c1.4-2.2,2.1,0,14.4,6.2
					c0.8,0.4,1.2,1.4,0.8,2.2C250.6,723.8,248.9,723.1,249.1,723.1z M269.1,730c0.8-2.4,2.2-0.4,15.3,3c0.9,0.2,1.5,1.1,1.2,2
					c-0.2,0.9-1.1,1.4-2,1.2c-4.5-1.2-9-2.6-13.5-4.1C269.2,731.8,268.8,730.8,269.1,730z M218.1,702.9c-3.6-3-7.1-6.1-10.5-9.4
					c-0.7-0.6-0.7-1.7,0-2.3c1.8-1.8,2.1,0.5,12.7,9.2c0.7,0.6,0.8,1.6,0.2,2.3C219.9,703.4,218.9,703.5,218.1,702.9z M305.5,740.4
					c-0.6-0.3-1-1-1-1.7c0.1-0.9,0.9-1.6,1.9-1.4c4.5,0.6,9.2,0.9,13.7,1.1c0.9,0,1.7,0.8,1.6,1.7c0,0.9-0.8,1.6-1.7,1.6
					c-4.7-0.2-9.4-0.6-14-1.1C305.8,740.5,305.7,740.4,305.5,740.4z M341.9,740.8c-0.5-0.2-0.9-0.7-1-1.3c-0.1-0.9,0.6-1.7,1.5-1.8
					c4.5-0.4,9.1-1.1,13.6-1.9c0.9-0.2,1.8,0.4,2,1.3c0.2,0.9-0.4,1.8-1.3,1.9c-4.6,0.8-9.2,1.5-13.9,1.9
					C342.5,741,342.2,741,341.9,740.8z M377.4,733.4c-0.4-0.2-0.7-0.5-0.9-1c-0.3-0.9,0.2-1.8,1-2.1c4.3-1.4,8.6-3,12.8-4.8
					c0.8-0.4,1.8,0,2.2,0.9c0.4,0.8,0,1.8-0.9,2.2c-4.3,1.8-8.6,3.4-13,4.9C378.2,733.6,377.7,733.6,377.4,733.4z M410.2,718.5
					c-0.3-0.1-0.5-0.4-0.7-0.6c-0.5-0.8-0.2-1.8,0.5-2.3c3.9-2.3,7.7-4.8,11.4-7.4c0.7-0.5,1.8-0.4,2.4,0.4c0.6,0.7,0.4,1.8-0.3,2.3
					c-3.7,2.7-7.6,5.2-11.6,7.6C411.3,718.8,410.7,718.8,410.2,718.5z M438.4,696.5c-1.8-1.9,0.5-2,9.4-12.1c1.5-1.6,4,0.6,2.6,2.2
					c-3,3.4-6.3,6.8-9.6,9.9C440.1,697.2,439,697.2,438.4,696.5z M461.7,669.3c-2.2-1.4,0-2.1,6.5-13.9c1-1.9,4-0.3,3,1.6
					c-2.2,4-4.6,8-7.1,11.8C463.5,669.7,462.4,669.8,461.7,669.3z M478.1,637.6c-0.8-0.4-1.2-1.3-0.9-2.1c1.6-4.2,3-8.5,4.2-12.8
					c0.2-0.9,1.2-1.4,2.1-1.1c0.9,0.3,1.4,1.2,1.2,2.1c-1.2,4.4-2.7,8.8-4.3,13.1c-0.3,0.9-1.3,1.3-2.2,0.9
					C478.2,637.7,478.2,637.6,478.1,637.6z"/>
				<linearGradient id="SVGID_7_" gradientUnits="userSpaceOnUse" x1="187.8938" y1="672.8065" x2="195.2881" y2="672.8065">
					<stop  offset="2.247200e-02" style="stop-color:#583735"/>
					<stop  offset="0.427" style="stop-color:#DA5535"/>
					<stop  offset="0.736" style="stop-color:#F17A40"/>
					<stop  offset="1" style="stop-color:#F6BA52"/>
				</linearGradient>
				<path style="fill:url(#SVGID_7_);" d="M192.3,676.5c-3.6-4.6-5.5-6.5-3.7-7.7c1.9-1.3,2.6,1,6.4,5.7c0.6,0.7,0.4,1.8-0.3,2.3
					C193.9,677.4,192.9,677.2,192.3,676.5z"/>
			</g>
			<g>
				<g>
					<linearGradient id="SVGID_8_" gradientUnits="userSpaceOnUse" x1="200.8367" y1="575.8847" x2="447.4291" y2="575.8847">
						<stop  offset="5.618000e-03" style="stop-color:#F17C54"/>
						<stop  offset="0.8017" style="stop-color:#F7B659"/>
						<stop  offset="1" style="stop-color:#F9C55A"/>
					</linearGradient>
					<path style="fill:url(#SVGID_8_);" d="M214.1,636.3l24.1-1c6.6,9.1,14.7,17.4,24.1,24.2c-0.9,23.1-2.7,24.6-0.3,25.7l26.8,11.4
						c0.8,0.3,1.7,0.1,2.2-0.5l16-17.5c11.5,2.1,23,2.2,34.1,0.6l16,18.1c0.6,0.6,1.5,0.9,2.2,0.6l26.8-10.4
						c0.8-0.3,1.3-1.1,1.2-1.9l-1.4-23.8c9.2-6.3,17.4-14.1,24.1-23.3l24.1,1.9c0.8,0.1,1.6-0.4,2-1.2l11.1-26.2
						c0.3-0.8,0.1-1.7-0.5-2.2l-18.1-16.1c1.9-11.3,1.8-22.6,0-33.6c17.4-15.5,19.6-15.3,18.6-17.7c-11.3-25.9-10.4-27.9-13-27.8
						l-24.1,1c-6.6-9.1-14.7-17.4-24.1-24.2c0.9-23.1,2.7-24.6,0.3-25.7c-26.8-10.9-27.3-12.8-29-10.9l-16,17.5
						c-11.5-2.1-23-2.2-34.1-0.6c-15.8-17.2-15.8-19.6-18.2-18.7c-26.3,10.8-28.2,9.8-28,12.3l1.4,23.8
						c-9.2,6.3-17.4,14.1-24.1,23.3c-23-1.3-25-3.1-26-0.7c-10.5,26.1-12.5,26.7-10.6,28.4l18.1,16.1c-1.9,11.3-1.8,22.6,0,33.6
						c-17.3,15.4-19.6,15.3-18.6,17.7C212.3,634.3,211.4,636.4,214.1,636.3z"/>
				</g>
				<linearGradient id="SVGID_9_" gradientUnits="userSpaceOnUse" x1="295.8775" y1="575.904" x2="352.3875" y2="575.904">
					<stop  offset="2.247200e-02" style="stop-color:#583735"/>
					<stop  offset="0.427" style="stop-color:#DA5535"/>
					<stop  offset="0.736" style="stop-color:#F17A40"/>
					<stop  offset="1" style="stop-color:#F6BA52"/>
				</linearGradient>
				<path style="opacity:0.42;fill:url(#SVGID_9_);" d="M296.2,571.4c2.3-15.1,16.7-25.4,32.1-22.9c15.4,2.5,26.1,16.9,23.8,32
					c-2.3,15.1-16.7,25.4-32.1,22.9l0,0C304.6,600.9,293.9,586.5,296.2,571.4z M320.4,600.9L320.4,600.9L320.4,600.9z M327.5,553.3
					c-12.5-2-24.4,6.2-26.3,18.8c-1.9,12.4,6.9,24.2,19.6,26.3c12.7,2.1,24.5-6.4,26.3-18.8C349,567.2,340.1,555.4,327.5,553.3z"/>
				<linearGradient id="SVGID_10_" gradientUnits="userSpaceOnUse" x1="252.2279" y1="575.7276" x2="397.1596" y2="575.7276">
					<stop  offset="2.247200e-02" style="stop-color:#583735"/>
					<stop  offset="0.427" style="stop-color:#DA5535"/>
					<stop  offset="0.736" style="stop-color:#F17A40"/>
					<stop  offset="1" style="stop-color:#F6BA52"/>
				</linearGradient>
				<path style="opacity:0.42;fill:url(#SVGID_10_);" d="M294.2,639.9L294.2,639.9c-3.8-1.8-7.4-3.9-10.8-6.3c-1-0.7-1.4-2-0.9-3.1
					c0.1-0.1,0.1-0.3,0.2-0.4c0.8-1.1,2.4-1.4,3.5-0.6c3.9,2.7,8.2,5.1,12.6,7l0,0c33.5,14.3,71.9,0,87-31.9
					c0.4-0.8,0.8-1.6,1.1-2.5c14.3-33.8-2.2-72.8-36.4-87.4c-34.2-14.6-73.8,0.7-88.1,34.3c-8.5,20.1-3.7,34.4-4.6,36.4
					c-1.1,2.2-4.4,1.7-4.8-0.8c-2-13.3-0.2-27.4,6-40.3c26.4-55.8,108.6-52.6,132.7,5.1c7.4,17.8,7.4,37.2,0,54.6
					c-0.4,0.9-0.8,1.8-1.2,2.7c-7.7,16.2-21.1,28.6-38,35.2c-17.9,7-37.6,6.6-55.4-1C296,640.7,295.1,640.3,294.2,639.9z"/>
			</g>
		</g>
		<g>
			<g>
				
					<linearGradient id="SVGID_11_" gradientUnits="userSpaceOnUse" x1="917.798" y1="-35.3577" x2="700.7097" y2="313.9798" gradientTransform="matrix(0.9967 8.140000e-02 -8.140000e-02 0.9967 -250.2143 286.8142)">
					<stop  offset="5.618000e-03" style="stop-color:#F17C54"/>
					<stop  offset="0.8017" style="stop-color:#F7B659"/>
					<stop  offset="1" style="stop-color:#F9C55A"/>
				</linearGradient>
				<path style="fill:url(#SVGID_11_);" d="M505.2,521.8c4,4.8,8.8,9.1,14.4,12.5l0.1,13.5c0,1.5,1.3,0.9,16.1,6.2
					c1.4,0.5,1.2-0.8,9.4-11.1c6.5,0.6,12.9,0.1,19-1.3l9.6,9.4c1.1,1,1.6-0.3,15.7-7c0.4-0.2,0.7-0.7,0.6-1.1l-1.8-13.4
					c4.8-4,9.1-8.8,12.5-14.4c12.9-0.4,14,0.5,14.5-0.9c4.8-15.3,5.9-15.7,4.8-16.6l-10.7-8.2c0.6-6.5,0.1-12.9-1.3-19l9.4-9.6
					c1-1.1-0.3-1.6-7-15.7c-0.6-1.3-1.4-0.3-14.5,1.2c-4-4.8-8.8-9.1-14.4-12.5l-0.1-13.5c0-1.5-1.3-0.9-16.1-6.2
					c-1.4-0.5-1.2,0.8-9.4,11.1c-6.5-0.6-12.9-0.1-19,1.3l-9.6-9.4c-0.3-0.3-0.8-0.4-1.3-0.2l-14.5,7.2c-0.4,0.2-0.7,0.7-0.6,1.1
					l1.8,13.4c-4.8,4-9.1,8.8-12.5,14.4c-12.9,0.4-14-0.5-14.5,0.9c-4.8,15.3-5.9,15.7-4.8,16.6l10.7,8.2c-0.6,6.5-0.1,12.9,1.3,19
					c-8.8,9.4-10.3,9.6-9.6,10.9l7.2,14.5C491.3,524.2,492.1,523.2,505.2,521.8z"/>
			</g>
			<g>
				<linearGradient id="SVGID_12_" gradientUnits="userSpaceOnUse" x1="533.7396" y1="483.9966" x2="567.4921" y2="483.9966">
					<stop  offset="2.247200e-02" style="stop-color:#583735"/>
					<stop  offset="0.427" style="stop-color:#DA5535"/>
					<stop  offset="0.736" style="stop-color:#F17A40"/>
					<stop  offset="1" style="stop-color:#F6BA52"/>
				</linearGradient>
				<path style="opacity:0.42;fill:url(#SVGID_12_);" d="M533.8,482.7c0.7-9.3,8.8-16.3,18.1-15.6c9.3,0.7,16.3,8.8,15.6,18.1
					c-0.7,9.3-8.8,16.3-18.1,15.6l0,0C540.1,500.1,533.1,492,533.8,482.7z M549.5,498.3L549.5,498.3L549.5,498.3z M538.8,483.1
					c-0.5,6.5,4.4,12.2,10.9,12.7l0,0c10.5,0.8,16.7-11.5,9.9-19.5C552.8,468.3,539.6,472.6,538.8,483.1z"/>
				<g>
					<linearGradient id="SVGID_13_" gradientUnits="userSpaceOnUse" x1="463.9866" y1="504.5974" x2="468.9344" y2="504.5974">
						<stop  offset="2.247200e-02" style="stop-color:#583735"/>
						<stop  offset="0.427" style="stop-color:#DA5535"/>
						<stop  offset="0.736" style="stop-color:#F17A40"/>
						<stop  offset="1" style="stop-color:#F6BA52"/>
					</linearGradient>
					<path style="fill:url(#SVGID_13_);" d="M465.6,508.3c-0.6-2.2-1.2-4.4-1.6-6.6c-0.2-0.9,0.4-1.8,1.3-2c2.3-0.5,1.9,2.1,3.5,7.7
						c0.3,0.9-0.3,1.8-1.1,2.1C466.8,509.7,465.9,509.2,465.6,508.3z"/>
					<linearGradient id="SVGID_14_" gradientUnits="userSpaceOnUse" x1="462.3711" y1="438.6888" x2="576.3234" y2="438.6888">
						<stop  offset="2.247200e-02" style="stop-color:#583735"/>
						<stop  offset="0.427" style="stop-color:#DA5535"/>
						<stop  offset="0.736" style="stop-color:#F17A40"/>
						<stop  offset="1" style="stop-color:#F6BA52"/>
					</linearGradient>
					<path style="fill:url(#SVGID_14_);" d="M462.4,479.3c0.2-4.4,0.8-9.1,1.8-13.7c0.5-2.2,3.7-1.5,3.3,0.7
						c-2.5,12-0.7,14.9-3.5,14.8C463,481,462.3,480.3,462.4,479.3z M472.3,446.7c-0.8-0.4-1.2-1.4-0.8-2.2c2.1-4.1,4.5-8.1,7.1-11.8
						c1.3-1.8,4,0.1,2.7,2c-2.6,3.6-4.9,7.4-6.9,11.4C473.8,447.4,472.1,446.7,472.3,446.7z M494.3,419c-0.2-0.1-0.4-0.2-0.6-0.4
						c-0.6-0.7-0.5-1.8,0.2-2.4c3.5-3,7.3-5.6,11.2-8c0.8-0.5,1.8-0.2,2.3,0.6c0.5,0.8,0.2,1.8-0.6,2.3c-3.8,2.3-7.4,4.9-10.8,7.7
						C495.5,419.2,494.8,419.3,494.3,419z M525.4,402.3c-0.4-0.2-0.8-0.6-0.9-1c-0.3-0.9,0.2-1.8,1.1-2.1c4.4-1.3,9-2.3,13.5-2.8
						c0.9-0.1,1.8,0.5,1.9,1.4c0.1,0.9-0.5,1.8-1.4,1.9c-4.4,0.6-8.8,1.5-13,2.7C526.2,402.5,525.8,402.5,525.4,402.3z M559.7,397.7
						c0.1-0.9,1-1.6,1.9-1.5c4.6,0.6,9.1,1.5,13.5,2.8c2.1,0.6,1.2,3.8-0.9,3.2c-4.2-1.2-8.6-2.1-13-2.7
						C560.2,399.5,559.6,398.6,559.7,397.7z"/>
					<linearGradient id="SVGID_15_" gradientUnits="userSpaceOnUse" x1="593.1662" y1="411.2437" x2="602.2066" y2="411.2437">
						<stop  offset="2.247200e-02" style="stop-color:#583735"/>
						<stop  offset="0.427" style="stop-color:#DA5535"/>
						<stop  offset="0.736" style="stop-color:#F17A40"/>
						<stop  offset="1" style="stop-color:#F6BA52"/>
					</linearGradient>
					<path style="fill:url(#SVGID_15_);" d="M599.6,414.4c-5-3.5-7.3-3.9-6.1-5.9c0.5-0.8,1.5-1.1,2.3-0.6c1.9,1.2,3.9,2.4,5.7,3.7
						c0.8,0.5,0.9,1.6,0.4,2.3C601.4,414.8,600.3,415,599.6,414.4z"/>
				</g>
				<g>
					<linearGradient id="SVGID_16_" gradientUnits="userSpaceOnUse" x1="634.1124" y1="470.5453" x2="638.4261" y2="470.5453">
						<stop  offset="2.247200e-02" style="stop-color:#583735"/>
						<stop  offset="0.427" style="stop-color:#DA5535"/>
						<stop  offset="0.736" style="stop-color:#F17A40"/>
						<stop  offset="1" style="stop-color:#F6BA52"/>
					</linearGradient>
					<path style="fill:url(#SVGID_16_);" d="M635.1,474.1c-0.7-6.1-1.9-8,0.3-8.5c0.9-0.2,1.8,0.4,2,1.3c0.4,2.2,0.8,4.5,1.1,6.8
						c0.1,0.9-0.6,1.8-1.5,1.9C636,475.6,635.2,475,635.1,474.1z"/>
					<linearGradient id="SVGID_17_" gradientUnits="userSpaceOnUse" x1="520.7395" y1="532.969" x2="638.2393" y2="532.969">
						<stop  offset="2.247200e-02" style="stop-color:#583735"/>
						<stop  offset="0.427" style="stop-color:#DA5535"/>
						<stop  offset="0.736" style="stop-color:#F17A40"/>
						<stop  offset="1" style="stop-color:#F6BA52"/>
					</linearGradient>
					<path style="fill:url(#SVGID_17_);" d="M520.8,565.4c0.9-2.6,2.9,0.1,14.8,2.2c2.2,0.4,1.6,3.7-0.6,3.3
						c-4.5-0.8-8.9-1.9-13.2-3.4C521,567.3,520.5,566.3,520.8,565.4z M555.2,570.6c-0.1-0.9,0.6-1.7,1.6-1.8
						c12.2-0.9,14.3-3.4,14.9-0.7c0.2,0.9-0.4,1.8-1.3,2c-4.4,1-8.9,1.7-13.4,2C556.1,572.2,555.3,571.5,555.2,570.6z M588.9,561.8
						c-1.3-2.5,2-2,11.8-9.1c1.8-1.3,3.8,1.4,2,2.7c-3.7,2.7-7.5,5.1-11.6,7.1C590.3,563,589.3,562.6,588.9,561.8z M616.4,540.5
						c-2.2-1.8,1.1-2.6,7.3-13c1.1-1.9,4-0.2,2.9,1.7c-2.3,3.9-4.9,7.6-7.8,11.1C618.2,541,617.1,541.1,616.4,540.5z M632.2,508.1
						c3.4-11.7,1.8-14.6,4.6-14.2c0.9,0.1,1.6,1,1.4,1.9c-0.6,4.5-1.5,9-2.8,13.3c-0.3,0.9-1.2,1.4-2.1,1.1
						C632.4,509.9,631.9,508.9,632.2,508.1z"/>
					<linearGradient id="SVGID_18_" gradientUnits="userSpaceOnUse" x1="495.8178" y1="554.4429" x2="504.6191" y2="554.4429">
						<stop  offset="2.247200e-02" style="stop-color:#583735"/>
						<stop  offset="0.427" style="stop-color:#DA5535"/>
						<stop  offset="0.736" style="stop-color:#F17A40"/>
						<stop  offset="1" style="stop-color:#F6BA52"/>
					</linearGradient>
					<path style="fill:url(#SVGID_18_);" d="M502,557.8c-1.9-1.3-3.8-2.6-5.6-4c-0.7-0.6-0.9-1.6-0.3-2.4c1.4-1.8,2.8,0.3,7.7,3.5
						c0.8,0.5,1,1.5,0.5,2.3C503.8,558.1,502.8,558.3,502,557.8z"/>
				</g>
				<linearGradient id="SVGID_19_" gradientUnits="userSpaceOnUse" x1="509.3637" y1="483.8271" x2="592.4561" y2="483.8271">
					<stop  offset="2.247200e-02" style="stop-color:#583735"/>
					<stop  offset="0.427" style="stop-color:#DA5535"/>
					<stop  offset="0.736" style="stop-color:#F17A40"/>
					<stop  offset="1" style="stop-color:#F6BA52"/>
				</linearGradient>
				<path style="opacity:0.42;fill:url(#SVGID_19_);" d="M529.8,519.6c-1.4-0.8-1.6-2.4-1-3.5c0.7-1.2,2.3-1.6,3.4-0.9
					c2.2,1.3,4.6,2.4,7.1,3.2c0.5,0.1,13.3,5.3,27.9-2c29-14.5,26-57-4.7-67.3c-17.7-5.9-36.8,2.5-44.6,19
					c-7.9,16.6,0.7,25.3-4.6,26.5c-1.4,0.3-2.7-0.6-3-1.9c-1.6-7.3-1.2-15,1.2-22.1c7.2-21.7,30.8-33.5,52.6-26.2
					c23.4,7.8,35.1,34.5,24.3,57.3c-8.7,18.3-30.2,28.4-50.7,21.5c0,0,0,0,0,0C535,522.3,532.3,521.1,529.8,519.6z"/>
			</g>
		</g>
	</g>
	<g>
		<linearGradient id="SVGID_20_" gradientUnits="userSpaceOnUse" x1="649.8594" y1="1426.7439" x2="638.6843" y2="1205.478">
			<stop  offset="0" style="stop-color:#2B3582"/>
			<stop  offset="1" style="stop-color:#150E42"/>
		</linearGradient>
		<polygon style="fill:url(#SVGID_20_);" points="556.5,1175.5 537.9,1342 753.2,1342 725.2,1175.5 		"/>
		<linearGradient id="SVGID_21_" gradientUnits="userSpaceOnUse" x1="104.7725" y1="927.468" x2="1137.2274" y2="927.468">
			<stop  offset="0" style="stop-color:#2B3582"/>
			<stop  offset="1" style="stop-color:#150E42"/>
		</linearGradient>
		<path style="fill:url(#SVGID_21_);" d="M104.8,682.9v457.9c0,37.7,30,68.5,67.7,69.4c167.3,4.3,752.2,14.8,911.4,12.4
			c27.4-0.4,49.5-22.3,50.3-49.7c3.1-106.4,8.1-362.2-10.4-481c-3.9-25-25-43.7-50.3-44.5c-140.1-4.5-760.3-18.7-919.4-15.1
			C126.7,633.1,104.8,655.5,104.8,682.9z"/>
		<g>
			<radialGradient id="SVGID_22_" cx="617.8694" cy="908.3207" r="388.2727" gradientUnits="userSpaceOnUse">
				<stop  offset="5.618000e-03" style="stop-color:#F17C54"/>
				<stop  offset="0.8017" style="stop-color:#F7B659"/>
				<stop  offset="1" style="stop-color:#F9C55A"/>
			</radialGradient>
			<path style="fill:url(#SVGID_22_);" d="M133.5,680.7v435.1c0,22,17.7,39.9,39.6,40.2l887.8,11c21.8,0.3,39.7-17.2,39.8-39
				l1.5-431.2c0.1-15.6-12.4-28.4-27.9-28.7l-909-18.4C147.9,649.2,133.5,663.3,133.5,680.7z"/>
		</g>
		<path class="st147" d="M1107.4,1184.9L1107.4,1184.9l-973.9-16.6c-0.8,0-1.4-0.6-1.3-1.4c0-0.8,0.7-1.4,1.4-1.3l973.9,16.6
			c0.8,0,1.4,0.6,1.3,1.4C1108.8,1184.3,1108.2,1184.9,1107.4,1184.9z"/>
		<path class="st147" d="M630.1,1205.2c-6.3,0-11.5-5.2-11.5-11.5s5.2-11.5,11.5-11.5c6.3,0,11.5,5.2,11.5,11.5
			S636.4,1205.2,630.1,1205.2z M630.1,1184.9c-4.8,0-8.8,3.9-8.8,8.8c0,4.8,3.9,8.8,8.8,8.8c4.8,0,8.8-3.9,8.8-8.8
			C638.8,1188.9,634.9,1184.9,630.1,1184.9z"/>
		<linearGradient id="SVGID_23_" gradientUnits="userSpaceOnUse" x1="650.5549" y1="1343.2515" x2="547.7442" y2="1568.9878">
			<stop  offset="0" style="stop-color:#2B3582"/>
			<stop  offset="1" style="stop-color:#150E42"/>
		</linearGradient>
		<path class="st15" d="M799.6,1376.1H484.5c-8.6,0-15-6.1-13.3-12.6l4-16c1.2-4.8,6.5-8.3,12.8-8.5l303.8-9.5
			c6.6-0.2,12.4,3.3,13.8,8.3l7.3,25.5C814.8,1369.8,808.3,1376.1,799.6,1376.1z"/>
		<path class="st4" d="M654.1,1343.6c-0.7,0-1.4-0.6-1.4-1.3c0-0.8,0.6-1.4,1.3-1.4l13-0.2c0.7,0,1.4,0.6,1.4,1.3
			c0,0.8-0.6,1.4-1.3,1.4L654.1,1343.6L654.1,1343.6z"/>
		<path class="st4" d="M482.8,1367.6c-0.1,0-0.1,0-0.2,0c-0.7-0.1-1.2-0.8-1.1-1.6l1.9-11.6c1-6.4,6.5-11.1,13-11.2l138.1-2
			c0.8,0,1.4,0.6,1.4,1.3c0,0.8-0.6,1.4-1.3,1.4l-138.1,2c-5.2,0.1-9.5,3.8-10.3,8.9l-1.9,11.6
			C484,1367.1,483.5,1367.6,482.8,1367.6z"/>
	</g>
	<g>
		<path class="st149" d="M435,695.7l102.6-0.8c14-0.1,25.3,10.7,24.7,23.7l-10,221.6c-0.5,12.1-11.3,21.8-24.3,21.9l-90.9,0.7
			c-13.5,0.1-24.6-10-24.7-22.6l-1.6-221.6C410.5,706.1,421.4,695.8,435,695.7z"/>
		<path class="st20" d="M514.5,1007l-324.5,3.9c-12.5,0.1-22.3,8.2-21.7,17.9l5.4,85c0.6,9.1,10.3,16.2,22.1,16.2h319.1
			c12.2,0,22.1-7.6,22.1-17V1024C536.9,1014.5,526.8,1006.8,514.5,1007z"/>
		<path class="st20" d="M915.2,983.4l-324.5,4.7c-12.5,0.2-22.3,10.1-21.7,21.8l5.4,104c0.6,11.1,10.3,19.8,22.1,19.8h319.1
			c12.2,0,22.1-9.3,22.1-20.8v-108.7C937.6,992.6,927.5,983.2,915.2,983.4z"/>
		<path class="st20" d="M370.2,685.4H202.6c-13.5,0-24.5,11.1-24.5,24.7v240.2c0,13.6,11,24.7,24.5,24.7h167.6
			c13.5,0,24.5-11.1,24.5-24.7V710.1C394.7,696.5,383.7,685.4,370.2,685.4z"/>
		<path class="st20" d="M783.9,778.5H616.3c-13.5,0-24.5,5.9-24.5,13.2v128.7c0,7.3,11,13.2,24.5,13.2h167.6
			c13.5,0,24.5-5.9,24.5-13.2V791.8C808.5,784.5,797.5,778.5,783.9,778.5z"/>
		<path class="st20" d="M1063.5,767H862.1c-16.3,0-29.4,5.9-29.4,13.2V909c0,7.3,13.2,13.2,29.4,13.2h201.3
			c16.3,0,29.4-5.9,29.4-13.2V780.3C1092.9,773,1079.7,767,1063.5,767z"/>
	</g>
	<g>
		<path class="st4" d="M402.2,784.6l-4.8-21.1h-21.8l-4.8,21.1h-15.6l20.7-84.1h21.1l20.8,84.1H402.2z M394.5,749.6l-4.5-19.5
			c-0.3-1.2-0.9-4.2-1.8-8.9c-0.9-4.8-1.5-7.9-1.7-9.5c-0.5,3.3-1.1,6.9-1.9,10.9c-0.8,4-2.7,13-6,27.1H394.5z"/>
		<path class="st4" d="M470.9,726.6c0,8.9-2.2,15.7-6.7,20.5c-4.5,4.8-11,7.1-19.4,7.1h-3.9v30.4h-15.6v-83.7h21.2
			C462.8,700.8,470.9,709.4,470.9,726.6z M440.8,740.7h3c3.8,0,6.7-1,8.5-3.2c1.9-2.1,2.8-5.5,2.8-10.3c0-4.4-0.9-7.6-2.6-9.8
			c-1.7-2.1-4.4-3.2-8-3.2h-3.8V740.7z"/>
		<path class="st4" d="M527.1,726.6c0,8.9-2.2,15.7-6.7,20.5c-4.5,4.8-11,7.1-19.4,7.1H497v30.4h-15.6v-83.7h21.2
			C518.9,700.8,527.1,709.4,527.1,726.6z M497,740.7h3c3.8,0,6.7-1,8.5-3.2c1.9-2.1,2.8-5.5,2.8-10.3c0-4.4-0.9-7.6-2.6-9.8
			c-1.7-2.1-4.4-3.2-8-3.2H497V740.7z"/>
		<path class="st4" d="M553.2,752v32.6h-15.6v-83.7H558c8.6,0,15,2,19.1,6.1c4.1,4.1,6.2,10.3,6.2,18.7c0,10.6-3.6,18-10.7,22.2
			l16.1,36.7H572L558.7,752H553.2z M553.2,738.6h4c3.7,0,6.3-1,7.9-3.1c1.6-2.1,2.4-5.2,2.4-9.3c0-4.3-0.9-7.3-2.5-9.1
			c-1.7-1.8-4.3-2.7-7.9-2.7h-3.9V738.6z"/>
		<path class="st4" d="M653.9,742.6c0,13.9-2.6,24.5-7.8,32c-5.2,7.4-12.6,11.2-22.3,11.2c-9.7,0-17.1-3.7-22.3-11.1
			c-5.2-7.4-7.8-18.1-7.8-32.1c0-13.9,2.6-24.5,7.8-31.9c5.2-7.4,12.7-11.1,22.5-11.1c9.7,0,17.1,3.7,22.2,11.1
			C651.3,718.1,653.9,728.7,653.9,742.6z M609.6,742.6c0,9.5,1.2,16.8,3.6,21.8c2.4,5,5.9,7.5,10.6,7.5c9.4,0,14.1-9.8,14.1-29.3
			c0-19.5-4.7-29.3-14-29.3c-4.7,0-8.3,2.5-10.7,7.5C610.8,725.7,609.6,733,609.6,742.6z"/>
		<path class="st4" d="M702.1,700.8h15.7l-19.7,83.7h-19.8l-19.6-83.7h15.7l10.9,51.1c1,4.4,2,10.6,2.9,18.7
			c0.8-6.9,1.8-13.2,3-18.7L702.1,700.8z"/>
		<path class="st4" d="M762.9,784.6h-37.7v-83.7h37.7v13.5h-22.2v19.9h20.6v13.5h-20.6v23.2h22.2V784.6z"/>
		<path class="st4" d="M828.4,741.9c0,13.8-2.8,24.4-8.4,31.7c-5.6,7.3-13.7,11-24.3,11h-20.5v-83.7h22.4c9.7,0,17.3,3.6,22.7,10.8
			C825.7,718.8,828.4,728.9,828.4,741.9z M812.4,742.4c0-18.7-5.2-28.1-15.5-28.1h-6.2v56.6h5c5.7,0,9.9-2.4,12.6-7.1
			C811.1,759.1,812.4,751.9,812.4,742.4z"/>
	</g>
	<g>
		
			<linearGradient id="SVGID_24_" gradientUnits="userSpaceOnUse" x1="1142.6802" y1="218.7814" x2="653.5959" y2="864.1009" gradientTransform="matrix(0.9999 1.231450e-02 -1.231450e-02 0.9999 5.557972e-02 3.7598)">
			<stop  offset="0" style="stop-color:#2B3582"/>
			<stop  offset="1" style="stop-color:#150E42"/>
		</linearGradient>
		<path class="st16" d="M1103.9,545.4c-66-2.7-392.3-17.6-459.3-20.6c-6.6-0.3-12.2,9.8-12.3,22.4l-0.7,58.3
			c-0.2,12.5,5,22.6,11.5,22.7l459.5,5.7c6.5,0.1,12-9.9,12.1-22.4l0.5-43.3C1115.5,555.7,1110.4,545.6,1103.9,545.4z"/>
		<g>
			<g>
				
					<linearGradient id="SVGID_25_" gradientUnits="userSpaceOnUse" x1="767.3044" y1="133.3557" x2="685.7101" y2="283.8517" gradientTransform="matrix(-0.998 6.241431e-02 6.241431e-02 0.998 1422.5497 360.3358)">
					<stop  offset="5.618000e-03" style="stop-color:#F17C54"/>
					<stop  offset="0.8017" style="stop-color:#F7B659"/>
					<stop  offset="1" style="stop-color:#F9C55A"/>
				</linearGradient>
				<path class="st17" d="M667.8,614.3l18-9.1c1.4-0.7,3.1-0.7,4.4,0.1l17.7,9.6c3.5,1.9,7.6-1,7-4.9l-3.1-19.9
					c-0.2-1.5,0.3-3.1,1.4-4.2l14.6-13.9c2.9-2.7,1.4-7.5-2.5-8.2l-19.9-3.2c-1.5-0.2-2.9-1.2-3.6-2.7l-8.7-18.2
					c-1.7-3.6-6.7-3.6-8.5-0.1l-9.2,18c-0.7,1.4-2.1,2.4-3.6,2.6l-20,2.6c-3.9,0.5-5.5,5.3-2.8,8.1l14.2,14.3
					c1.1,1.1,1.6,2.7,1.3,4.2l-3.7,19.8C660.2,613.1,664.3,616.1,667.8,614.3z"/>
			</g>
		</g>
		<g>
			<g>
				
					<linearGradient id="SVGID_26_" gradientUnits="userSpaceOnUse" x1="675.5869" y1="142.8636" x2="593.9926" y2="293.3596" gradientTransform="matrix(-0.998 6.241431e-02 6.241431e-02 0.998 1422.5497 360.3358)">
					<stop  offset="5.618000e-03" style="stop-color:#F17C54"/>
					<stop  offset="0.8017" style="stop-color:#F7B659"/>
					<stop  offset="1" style="stop-color:#F9C55A"/>
				</linearGradient>
				<path class="st18" d="M759.9,618.1l18-9.1c1.4-0.7,3.1-0.7,4.4,0.1l17.7,9.6c3.5,1.9,7.6-1,7-4.9l-3.1-19.9
					c-0.2-1.5,0.3-3.1,1.4-4.2l14.6-13.9c2.9-2.7,1.4-7.5-2.5-8.2l-19.9-3.2c-1.5-0.2-2.9-1.2-3.6-2.7l-8.7-18.2
					c-1.7-3.6-6.7-3.6-8.5-0.1l-9.2,18c-0.7,1.4-2.1,2.4-3.6,2.6l-20,2.6c-3.9,0.5-5.5,5.3-2.8,8.1l14.2,14.3
					c1.1,1.1,1.6,2.7,1.3,4.2l-3.7,19.8C752.3,616.8,756.4,619.9,759.9,618.1z"/>
			</g>
		</g>
		<g>
			<g>
				
					<linearGradient id="SVGID_27_" gradientUnits="userSpaceOnUse" x1="582.9093" y1="150.3251" x2="501.315" y2="300.8211" gradientTransform="matrix(-0.998 6.241431e-02 6.241431e-02 0.998 1422.5497 360.3358)">
					<stop  offset="5.618000e-03" style="stop-color:#F17C54"/>
					<stop  offset="0.8017" style="stop-color:#F7B659"/>
					<stop  offset="1" style="stop-color:#F9C55A"/>
				</linearGradient>
				<path class="st19" d="M852.9,619.7l18-9.1c1.4-0.7,3.1-0.7,4.4,0.1l17.7,9.6c3.5,1.9,7.6-1,7-4.9l-3.1-19.9
					c-0.2-1.5,0.3-3.1,1.4-4.2l14.6-13.9c2.9-2.7,1.4-7.5-2.5-8.2l-19.9-3.2c-1.5-0.2-2.9-1.2-3.6-2.7l-8.7-18.2
					c-1.7-3.6-6.7-3.6-8.5-0.1l-9.2,18c-0.7,1.4-2.1,2.4-3.6,2.6l-20,2.6c-3.9,0.5-5.5,5.3-2.8,8.1l14.2,14.3
					c1.1,1.1,1.6,2.7,1.3,4.2l-3.7,19.8C845.3,618.5,849.4,621.5,852.9,619.7z"/>
			</g>
		</g>
		<g>
			<g>
				
					<linearGradient id="SVGID_28_" gradientUnits="userSpaceOnUse" x1="492.9902" y1="158.1228" x2="411.3958" y2="308.6188" gradientTransform="matrix(-0.998 6.241431e-02 6.241431e-02 0.998 1422.5497 360.3358)">
					<stop  offset="5.618000e-03" style="stop-color:#F17C54"/>
					<stop  offset="0.8017" style="stop-color:#F7B659"/>
					<stop  offset="1" style="stop-color:#F9C55A"/>
				</linearGradient>
				<path style="fill:url(#SVGID_28_);" d="M943.1,621.9l18-9.1c1.4-0.7,3.1-0.7,4.4,0.1l17.7,9.6c3.5,1.9,7.6-1,7-4.9l-3.1-19.9
					c-0.2-1.5,0.3-3.1,1.4-4.2l14.6-13.9c2.9-2.7,1.4-7.5-2.5-8.2l-19.9-3.2c-1.5-0.2-2.9-1.2-3.6-2.7l-8.7-18.2
					c-1.7-3.6-6.7-3.6-8.5-0.1l-9.2,18c-0.7,1.4-2.1,2.4-3.6,2.6l-20,2.6c-3.9,0.5-5.5,5.3-2.8,8.1l14.2,14.3
					c1.1,1.1,1.6,2.7,1.3,4.2l-3.7,19.8C935.5,620.7,939.6,623.7,943.1,621.9z"/>
			</g>
		</g>
		<g>
			<g>
				
					<linearGradient id="SVGID_29_" gradientUnits="userSpaceOnUse" x1="401.3969" y1="164.9841" x2="319.8025" y2="315.4801" gradientTransform="matrix(-0.998 6.241431e-02 6.241431e-02 0.998 1422.5497 360.3358)">
					<stop  offset="5.618000e-03" style="stop-color:#F17C54"/>
					<stop  offset="0.8017" style="stop-color:#F7B659"/>
					<stop  offset="1" style="stop-color:#F9C55A"/>
				</linearGradient>
				<path style="fill:url(#SVGID_29_);" d="M1034.9,623l18-9.1c1.4-0.7,3.1-0.7,4.4,0.1l17.7,9.6c3.5,1.9,7.6-1,7-4.9l-3.1-19.9
					c-0.2-1.5,0.3-3.1,1.4-4.2l14.6-13.9c2.9-2.7,1.4-7.5-2.5-8.2l-19.9-3.2c-1.5-0.2-2.9-1.2-3.6-2.7l-8.7-18.2
					c-1.7-3.6-6.7-3.6-8.5-0.1l-9.2,18c-0.7,1.4-2.1,2.4-3.6,2.6l-20,2.6c-3.9,0.5-5.5,5.3-2.8,8.1l14.2,14.3
					c1.1,1.1,1.6,2.7,1.3,4.2l-3.7,19.8C1027.4,621.8,1031.4,624.8,1034.9,623z"/>
			</g>
		</g>
	</g>
	<g>
		
			<linearGradient id="SVGID_30_" gradientUnits="userSpaceOnUse" x1="-150.9851" y1="3443.0906" x2="-541.7559" y2="4067.0627" gradientTransform="matrix(0.9998 1.730000e-02 -1.730000e-02 0.9998 703.1591 -2491.7329)">
			<stop  offset="0" style="stop-color:#2B3582"/>
			<stop  offset="1" style="stop-color:#150E42"/>
		</linearGradient>
		<path style="fill:url(#SVGID_30_);" d="M214.2,902.6l289.1,2.4c16,0.1,29,12.7,29.7,28.7l17.9,419.4c0.5,12.5-9.4,22.9-21.9,23
			l-331.4,3.3c-11.7,0.1-21.3-9.4-21.2-21.1l3.5-421.9C180.1,917.6,195.5,902.5,214.2,902.6z"/>
		<path class="st4" d="M246.1,1372.8L246.1,1372.8L209,1372c-12.5-0.3-22.5-10.6-22.4-23.1l0.5-56c0-0.5,0.4-0.9,1-0.9
			c0.5,0,0.9,0.4,0.9,1l-0.5,56c-0.1,11.5,9.1,21,20.6,21.2l37.1,0.8c0.5,0,0.9,0.4,0.9,1C247.1,1372.4,246.6,1372.8,246.1,1372.8z"
			/>
		<path class="st4" d="M188.1,1276.5c-0.5,0-0.9-0.4-0.9-1l0.1-9.1c0-0.5,0.4-0.9,1-0.9c0,0,0,0,0,0c0.5,0,0.9,0.4,0.9,1l-0.1,9.1
			C189.1,1276.1,188.7,1276.5,188.1,1276.5C188.1,1276.5,188.1,1276.5,188.1,1276.5z"/>
		<g>
			<g>
				
					<linearGradient id="SVGID_31_" gradientUnits="userSpaceOnUse" x1="381.8782" y1="1053.2708" x2="4.4527" y2="1607.7878" gradientTransform="matrix(0.9995 -3.070000e-02 3.070000e-02 0.9995 -7.6912 25.3191)">
					<stop  offset="5.618000e-03" style="stop-color:#F17C54"/>
					<stop  offset="0.8017" style="stop-color:#F7B659"/>
					<stop  offset="1" style="stop-color:#F9C55A"/>
				</linearGradient>
				<path class="st26" d="M215.1,899.3c39.4,5.7,175.1,23.4,287.4,15.7c5.1-0.4,9.5,3.6,9.8,8.7l18.9,421.2c0.3,5.8-4.2,10.7-10,11
					c-47.2,2.4-241.8,11.6-311.1,3.8c-4.2-0.5-7.4-4.1-7.4-8.3l1.1-442.3C203.9,903,209.2,898.4,215.1,899.3z"/>
			</g>
			<path class="st158" d="M219.3,910.2c38,5.5,168.5,22.5,276.6,15.1c4.9-0.3,9.2,3.4,9.4,8.4l18.2,405.4c0.2,5.6-4,10.3-9.6,10.6
				c-45.5,2.3-232.7,11.2-299.3,3.6c-4.1-0.5-7.1-3.9-7.1-8l1-425.6C208.4,913.8,213.6,909.4,219.3,910.2z"/>
			<g class="st22">
				<path class="st4" d="M490.3,960.8c2.7,0,4.9-1.3,4.8-2.9c-0.1-1.6-2.4-3-5.2-3l-241.1-3.9c-2.7,0-3.6,1.7-1.9,3.8
					c1.7,2.2,5.3,3.9,8.1,4L490.3,960.8z"/>
			</g>
			<g class="st22">
				<path class="st4" d="M248.8,967.3c-2.7,0-3.6,1.7-1.9,3.8c1.7,2.2,5.3,3.9,8.1,4l235.3,1.9c2.7,0,4.9-1.3,4.8-2.9
					c-0.1-1.6-2.4-3-5.2-3L248.8,967.3z"/>
			</g>
			<path class="st4" d="M287.7,1114.8C287.7,1114.8,287.6,1114.8,287.7,1114.8l-32.6,0.5c-4.7,0.1-8.6-3.1-9.2-7.3l-3.5-27.2
				c-0.2-1.6,0.3-3.2,1.3-4.6c1.2-1.5,3-2.4,5-2.6l0,0c2.7-0.3,6.5-0.7,10.7-1.1c9-1,19.3-2.1,25.3-2.3c0,0,0.1,0,0.1,0
				c4.3-0.1,8.1,2.4,9.2,6.2c1.8,6.2,2,18.1,2,30.8C295.9,1111.2,292.2,1114.7,287.7,1114.8z M248.9,1076.2
				c-1.3,0.1-2.4,0.7-3.1,1.6c-0.6,0.7-0.9,1.7-0.8,2.6l3.5,27.2c0.4,2.9,3.2,5,6.5,5l32.5-0.5c0,0,0,0,0.1,0c3.1-0.1,5.6-2.3,5.6-5
				c0-12.4-0.1-24.1-1.9-30c-0.8-2.6-3.6-4.5-6.7-4.3c-5.9,0.2-16.6,1.4-25.1,2.3C255.4,1075.5,251.7,1076,248.9,1076.2
				L248.9,1076.2z"/>
			<path class="st158" d="M252.5,1078.9c6.8-0.6,21.6-2.5,28.7-2.8c3-0.1,5.6,1.6,6.4,4.2c1.5,5,1.5,15,1.5,24.3
				c0,2.8-2.5,5-5.6,5.1l-26,0.4c-3.2,0-5.9-2.1-6.3-4.9l-2.8-21.8C248.1,1081.1,249.9,1079.1,252.5,1078.9z"/>
			<g class="st22">
				<path class="st4" d="M317.9,1085.8c-2.7,0-4.4,2.2-3.6,4.8l1.9,6.6c0.8,2.6,3.6,4.7,6.4,4.7l159.2-3.8c2.7-0.1,4.9-2.4,4.8-5.1
					l-0.1-2.2c-0.1-2.7-2.5-5-5.2-5L317.9,1085.8z"/>
			</g>
			<path class="st4" d="M289,1041.7C288.9,1041.7,288.9,1041.7,289,1041.7l-32.6,0.5c-4.7,0.1-8.6-3.1-9.2-7.3l-3.5-27.2
				c-0.2-1.6,0.3-3.2,1.3-4.6c1.2-1.5,3-2.4,5-2.6l0,0c2.7-0.3,6.5-0.7,10.7-1.1c9-1,19.3-2.1,25.3-2.3c0,0,0.1,0,0.1,0
				c4.3-0.1,8.1,2.4,9.2,6.2c1.8,6.2,2,18.1,2,30.8C297.2,1038.2,293.5,1041.6,289,1041.7z M250.2,1003.1c-1.3,0.1-2.4,0.7-3.1,1.6
				c-0.6,0.7-0.9,1.7-0.8,2.6l3.5,27.2c0.4,2.9,3.2,5,6.5,5l32.5-0.5c0,0,0,0,0.1,0c3.1-0.1,5.6-2.3,5.6-5c0-12.4-0.1-24.1-1.9-30
				c-0.8-2.6-3.6-4.5-6.7-4.3c-5.9,0.2-16.6,1.4-25.1,2.3C256.7,1002.5,252.9,1002.9,250.2,1003.1L250.2,1003.1z"/>
			<path class="st158" d="M253.7,1005.8c6.8-0.6,21.6-2.5,28.7-2.8c3-0.1,5.6,1.6,6.4,4.2c1.5,5,1.5,15,1.5,24.3
				c0,2.8-2.5,5-5.6,5.1l-26,0.4c-3.2,0-5.9-2.1-6.3-4.9l-2.8-21.8C249.4,1008.1,251.2,1006,253.7,1005.8z"/>
			<g class="st22">
				<path class="st4" d="M319.2,1012.7c-2.7,0-4.4,2.2-3.6,4.8l1.9,6.6c0.8,2.6,3.6,4.7,6.4,4.7l159.2-3.8c2.7-0.1,4.9-2.4,4.8-5.1
					l-0.1-2.2c-0.1-2.7-2.5-5-5.2-5L319.2,1012.7z"/>
			</g>
			<path class="st4" d="M289.4,1184.5C289.4,1184.5,289.3,1184.5,289.4,1184.5l-32.6,0.5c-4.7,0.1-8.6-3.1-9.2-7.3l-3.5-27.2
				c-0.2-1.6,0.3-3.2,1.3-4.6c1.2-1.5,3-2.4,5-2.6l0,0c2.7-0.3,6.5-0.7,10.7-1.1c9-1,19.3-2.1,25.3-2.3c0,0,0.1,0,0.1,0
				c4.3-0.1,8.1,2.4,9.2,6.2c1.8,6.2,2,18.1,2,30.8C297.6,1181,293.9,1184.4,289.4,1184.5z M250.6,1145.9c-1.3,0.1-2.4,0.7-3.1,1.6
				c-0.6,0.7-0.9,1.7-0.8,2.6l3.5,27.2c0.4,2.9,3.2,5,6.5,5l32.5-0.5c0,0,0,0,0.1,0c3.1-0.1,5.6-2.3,5.6-5c0-12.4-0.1-24.1-1.9-30
				c-0.8-2.6-3.6-4.5-6.7-4.3c-5.9,0.2-16.6,1.4-25.1,2.3C257.1,1145.3,253.3,1145.7,250.6,1145.9L250.6,1145.9z"/>
			<path class="st158" d="M254.1,1148.6c6.8-0.6,21.6-2.5,28.7-2.8c3-0.1,5.6,1.6,6.4,4.2c1.5,5,1.5,15,1.5,24.3
				c0,2.8-2.5,5-5.6,5.1l-26,0.4c-3.2,0-5.9-2.1-6.3-4.9l-2.8-21.8C249.8,1150.9,251.6,1148.8,254.1,1148.6z"/>
			<g class="st22">
				<path class="st4" d="M319.6,1155.5c-2.7,0-4.4,2.2-3.6,4.8l1.9,6.6c0.8,2.6,3.6,4.7,6.4,4.7l159.2-3.8c2.7-0.1,4.9-2.4,4.8-5.1
					l-0.1-2.2c-0.1-2.7-2.5-5-5.2-5L319.6,1155.5z"/>
			</g>
			<path class="st4" d="M288,1251.5C287.9,1251.5,287.9,1251.5,288,1251.5l-32.6,0.5c-4.7,0.1-8.6-3.1-9.2-7.3l-3.5-27.2
				c-0.2-1.6,0.3-3.2,1.3-4.6c1.2-1.5,3-2.4,5-2.6l0,0c2.7-0.3,6.5-0.7,10.7-1.1c8.6-0.9,19.3-2.1,25.3-2.3c4.3-0.1,8.2,2.4,9.3,6.2
				c1.8,6.2,2,18.1,2,30.8C296.2,1248,292.5,1251.4,288,1251.5z M249.2,1213c-1.3,0.1-2.4,0.7-3.1,1.6c-0.6,0.7-0.9,1.7-0.7,2.6
				l3.5,27.2c0.4,2.9,3.2,5,6.5,5l32.5-0.5c3.1-0.1,5.7-2.3,5.7-5c0-12.4-0.1-24.1-1.9-30c-0.8-2.6-3.6-4.4-6.7-4.3
				c-5.9,0.2-16.6,1.4-25.1,2.3C255.7,1212.3,251.9,1212.7,249.2,1213L249.2,1213z"/>
			<path class="st158" d="M252.7,1215.6c6.8-0.6,21.6-2.5,28.7-2.8c3-0.1,5.6,1.6,6.4,4.2c1.5,5,1.5,15,1.5,24.3
				c0,2.8-2.5,5-5.6,5.1l-26,0.4c-3.2,0-5.9-2.1-6.3-4.9l-2.8-21.8C248.4,1217.9,250.2,1215.8,252.7,1215.6z"/>
			<g class="st22">
				<path class="st4" d="M318.2,1222.5c-2.7,0-4.4,2.2-3.6,4.8l1.9,6.6c0.8,2.6,3.6,4.7,6.4,4.7l159.2-3.8c2.7-0.1,4.9-2.4,4.8-5.1
					l-0.1-2.2c-0.1-2.7-2.5-5-5.2-5L318.2,1222.5z"/>
			</g>
			<path class="st4" d="M285.9,1320.6C285.9,1320.6,285.9,1320.6,285.9,1320.6l-32.6,0.5c-4.7,0.1-8.6-3.1-9.2-7.3l-3.5-27.2
				c-0.2-1.6,0.3-3.2,1.3-4.6c1.2-1.5,3-2.4,5-2.6l0,0c2.7-0.3,6.5-0.7,10.7-1.1c9-1,19.3-2.1,25.3-2.3c4.4,0,8.2,2.4,9.3,6.2
				c1.8,6.2,2,18.1,2,30.8C294.2,1317.1,290.5,1320.5,285.9,1320.6z M247.1,1282.1c-1.3,0.1-2.4,0.7-3.1,1.6
				c-0.6,0.7-0.9,1.7-0.8,2.6l3.5,27.2c0.4,2.9,3.2,5,6.5,5l32.5-0.5c0,0,0,0,0.1,0c3.1-0.1,5.6-2.3,5.6-5c0-12.4-0.1-24.1-1.9-30
				c-0.8-2.6-3.6-4.4-6.7-4.3c-5.9,0.2-16.6,1.4-25.1,2.3C253.7,1281.4,249.9,1281.8,247.1,1282.1L247.1,1282.1z"/>
			<path class="st158" d="M250.7,1284.7c6.8-0.6,21.6-2.5,28.7-2.8c3-0.1,5.6,1.6,6.4,4.2c1.5,5,1.5,15,1.5,24.3
				c0,2.8-2.5,5-5.6,5.1l-26,0.4c-3.2,0-5.9-2.1-6.3-4.9l-2.8-21.8C246.3,1287,248.2,1285,250.7,1284.7z"/>
			<g class="st22">
				<path class="st4" d="M316.1,1291.6c-2.7,0-4.4,2.2-3.6,4.8l1.9,6.6c0.8,2.6,3.6,4.7,6.4,4.7l159.2-3.8c2.7-0.1,4.9-2.4,4.8-5.1
					l-0.1-2.2c-0.1-2.7-2.5-5-5.2-5L316.1,1291.6z"/>
			</g>
			<path class="st4" d="M254,1083.1L254,1083.1c2.4-1.5,5.5-0.7,6.9,1.7l6.7,11.3c0.7,1.1,2.3,1,2.9-0.2l15.1-35.8
				c0.8-1.8,3.4-1.3,3.4,0.7c0.1,10.8-2.3,31.5-19.2,49.2c0,0-9.6-3.5-17.7-20.2C250.8,1087.4,251.7,1084.5,254,1083.1z"/>
			<path class="st4" d="M255.2,1010L255.2,1010c2.4-1.5,5.5-0.7,6.9,1.7l6.7,11.3c0.7,1.1,2.3,1,2.9-0.2l15.1-35.8
				c0.8-1.8,3.4-1.3,3.4,0.7c0.1,10.8-2.3,31.5-19.2,49.2c0,0-9.6-3.5-17.7-20.2C252.1,1014.4,252.9,1011.5,255.2,1010z"/>
			<path class="st4" d="M255.6,1152.8L255.6,1152.8c2.4-1.5,5.5-0.7,6.9,1.7l6.7,11.3c0.7,1.1,2.3,1,2.9-0.2l15.1-35.8
				c0.8-1.8,3.4-1.3,3.4,0.7c0.1,10.8-2.3,31.5-19.2,49.2c0,0-9.6-3.5-17.7-20.2C252.5,1157.2,253.4,1154.3,255.6,1152.8z"/>
			<path class="st4" d="M254.2,1219.9L254.2,1219.9c2.4-1.5,5.5-0.7,6.9,1.7l6.7,11.3c0.7,1.1,2.3,1,2.9-0.2l15.1-35.8
				c0.8-1.8,3.4-1.3,3.4,0.7c0.1,10.8-2.3,31.5-19.2,49.2c0,0-9.6-3.5-17.7-20.2C251.1,1224.2,251.9,1221.3,254.2,1219.9z"/>
			<path class="st4" d="M252.2,1289L252.2,1289c2.4-1.5,5.5-0.7,6.9,1.7l6.7,11.3c0.7,1.1,2.3,1,2.9-0.2l15.1-35.8
				c0.8-1.8,3.4-1.3,3.4,0.7c0.1,10.8-2.3,31.5-19.2,49.2c0,0-9.6-3.5-17.7-20.2C249.1,1293.3,249.9,1290.4,252.2,1289z"/>
		</g>
		
			<linearGradient id="SVGID_32_" gradientUnits="userSpaceOnUse" x1="947.0662" y1="1458.0692" x2="818.2348" y2="1627.5439" gradientTransform="matrix(0.8781 0.4785 -0.4785 0.8781 298.2621 -899.3136)">
			<stop  offset="0" style="stop-color:#2B3582"/>
			<stop  offset="1" style="stop-color:#150E42"/>
		</linearGradient>
		<path class="st27" d="M377.2,846.8c-10.4-7.4-19.5-7.3-25.9-5.4c-5.8,1.7-9.7,7.3-9.2,13.3l2.5,30.1l32.8,3.2
			C377.4,888,397.6,861.2,377.2,846.8z M362.6,871c-4.5,0-8.1-3.7-8.1-8.2c0-4.5,3.7-8.1,8.2-8.1c4.5,0,8.1,3.7,8.1,8.2
			C370.8,867.4,367.1,871,362.6,871z"/>
		<path class="st4" d="M347.5,872.9c-0.6-0.2-1-0.7-1-1.4l-0.4-4.8c-0.1-0.9,0.6-1.7,1.5-1.8c0.9-0.1,1.7,0.6,1.8,1.5l0.4,4.8
			c0.1,0.9-0.6,1.7-1.5,1.8C347.9,873,347.7,873,347.5,872.9z M346.7,863.5c-0.6-0.2-1-0.7-1-1.4l-0.3-3.6
			c-0.5-6.2,3.4-11.9,9.3-13.6c4.1-1.2,8.2-1.3,12.4-0.4c0.9,0.2,1.4,1.1,1.2,1.9c-0.2,0.9-1.1,1.4-1.9,1.3
			c-3.6-0.8-7.3-0.7-10.8,0.4c-4.4,1.3-7.4,5.5-7,10.2l0.3,3.6c0.1,0.9-0.6,1.7-1.5,1.8C347.2,863.6,346.9,863.6,346.7,863.5z"/>
		
			<linearGradient id="SVGID_33_" gradientUnits="userSpaceOnUse" x1="-705.5312" y1="6331.2085" x2="-838.5265" y2="6506.1606" gradientTransform="matrix(1 8.300000e-03 -8.300000e-03 1 1182.3947 -5510.2051)">
			<stop  offset="0" style="stop-color:#2B3582"/>
			<stop  offset="1" style="stop-color:#150E42"/>
		</linearGradient>
		<path class="st28" d="M299.7,903.9l0.1-15.1c0-5.2,4.4-9.4,9.6-9.1l104.3,4.4c4.6,0.2,8.3,3.9,8.6,8.5l0.8,14.5L299.7,903.9z"/>
		<path class="st4" d="M334.3,885.7c-0.5,0-0.9-0.4-0.9-1c0-0.5,0.4-0.9,1-0.9l4.5,0c0.5,0,0.9,0.4,0.9,1c0,0.5-0.4,0.9-1,0.9
			L334.3,885.7C334.3,885.7,334.3,885.7,334.3,885.7z"/>
		<path class="st4" d="M304.9,899.9c-0.6-0.2-1.1-0.8-1.1-1.5l0.1-6.1c0-2.5,1-4.9,2.8-6.6c1.8-1.8,4.2-2.7,6.7-2.7l16.5,0.1
			c0.9,0,1.6,0.7,1.6,1.6c0,0.9-0.7,1.6-1.6,1.6l-16.5-0.1c-3.4,0-6.2,2.7-6.2,6.1l-0.1,6.1c0,0.9-0.7,1.6-1.6,1.6
			C305.2,900,305,900,304.9,899.9z"/>
		
			<linearGradient id="SVGID_34_" gradientUnits="userSpaceOnUse" x1="-722.2892" y1="6341.9077" x2="-814.1212" y2="6510.5303" gradientTransform="matrix(1 8.300000e-03 -8.300000e-03 1 1182.3947 -5510.2051)">
			<stop  offset="0" style="stop-color:#2B3582"/>
			<stop  offset="1" style="stop-color:#150E42"/>
		</linearGradient>
		<path class="st29" d="M267.1,898.1l182.4,1.5c6.6,0.1,12.1,4.8,13.2,11.3l0.1,0.9c1.2,7.1-4.3,13.5-11.5,13.5l-187.1-1.5
			c-4.3,0-7.7-3.7-7.5-8l0.5-8.4C257.5,902.1,261.8,898.1,267.1,898.1z"/>
	</g>
	<g>
		<g>
			<g>
				<g>
					<g>
						
							<linearGradient id="SVGID_35_" gradientUnits="userSpaceOnUse" x1="2533.4263" y1="1377.5924" x2="2591.8035" y2="1377.5924" gradientTransform="matrix(-1 0 0 1 3553.905 0)">
							<stop  offset="0" style="stop-color:#2B3582"/>
							<stop  offset="1" style="stop-color:#150E42"/>
						</linearGradient>
						<path class="st30" d="M963.8,1374.8c10,0.9,27.4,2.3,41,2.9c8.2,0.4,13-0.4,15.7-1.5c0,0.3,0,0.6,0,0.9
							c-0.1,1.4-1.2,2.6-2.7,2.7c-25.9,1.4-46.4,0.5-53.7,0.1c-1.5-0.1-2.4-1.7-1.6-3C962.8,1376,963.2,1375.4,963.8,1374.8z"/>
						
							<linearGradient id="SVGID_36_" gradientUnits="userSpaceOnUse" x1="2533.4229" y1="1366.1514" x2="2590.155" y2="1366.1514" gradientTransform="matrix(-1 0 0 1 3553.905 0)">
							<stop  offset="0" style="stop-color:#2B3582"/>
							<stop  offset="1" style="stop-color:#150E42"/>
						</linearGradient>
						<path class="st31" d="M1004.8,1377.6c-13.7-0.6-31-2-41-2.9c9.8-12.1,41-20.2,41-20.2h8.8c6.1,8.7,6.9,17.1,6.9,21.5
							C1017.8,1377.2,1013,1378,1004.8,1377.6z"/>
						
							<linearGradient id="SVGID_37_" gradientUnits="userSpaceOnUse" x1="2538.8159" y1="1350.1777" x2="2555.2595" y2="1350.1777" gradientTransform="matrix(-1 0 0 1 3553.905 0)">
							<stop  offset="0" style="stop-color:#F9B776"/>
							<stop  offset="1" style="stop-color:#F47960"/>
						</linearGradient>
						<path class="st32" d="M1015.1,1340.2l-0.8,16.3c-0.1,1.8-1.4,3.3-3.2,3.5c-1.8,0.3-4.1,0.3-6.6-0.5c-1.5-0.5-2.7-1.8-3-3.4
							l-2.9-15.9H1015.1z"/>
					</g>
					<g>
						<g>
							
								<linearGradient id="SVGID_38_" gradientUnits="userSpaceOnUse" x1="2417.0461" y1="1376.3334" x2="2439.4172" y2="1376.3334" gradientTransform="matrix(-1 0 0 1 3553.905 0)">
								<stop  offset="0" style="stop-color:#2B3582"/>
								<stop  offset="1" style="stop-color:#150E42"/>
							</linearGradient>
							<path class="st33" d="M1129.6,1377.5c4.3-0.6,6.3-2.9,7.1-5.3c0,0,0,0,0,0.1c0.6,2.5-0.8,5.2-3.8,6.4
								c-3.6,1.5-7.5,1.8-10.5,1.6c-3.3-0.1-6.2-1.5-7.9-3.6l0,0C1117.8,1378.3,1122.3,1378.5,1129.6,1377.5z"/>
							
								<linearGradient id="SVGID_39_" gradientUnits="userSpaceOnUse" x1="2417.2092" y1="1359.1084" x2="2450.0457" y2="1359.1084" gradientTransform="matrix(-1 0 0 1 3553.905 0)">
								<stop  offset="0" style="stop-color:#2B3582"/>
								<stop  offset="1" style="stop-color:#150E42"/>
							</linearGradient>
							<path class="st34" d="M1109.1,1340.1h7.3c11.1-0.2,18,23.1,20.3,32.2c-0.8,2.4-2.8,4.7-7.1,5.3c-7.2,1-11.8,0.8-15.1-0.8
								c-6-7.9-8.9-19.4-10.4-26.1C1102.5,1342.9,1109.1,1340.1,1109.1,1340.1z"/>
						</g>
						
							<linearGradient id="SVGID_40_" gradientUnits="userSpaceOnUse" x1="2434.2769" y1="1336.4697" x2="2453.9285" y2="1336.4697" gradientTransform="matrix(-1 0 0 1 3553.905 0)">
							<stop  offset="0" style="stop-color:#F9B776"/>
							<stop  offset="1" style="stop-color:#F47960"/>
						</linearGradient>
						<path class="st35" d="M1115.5,1324.9l4,16.1c0.5,2-0.4,4-2.3,4.9c-2.3,1.2-5.4,2.4-8.4,2c-1.4-0.2-2.5-1.1-3-2.4l-5.9-16.9
							L1115.5,1324.9z"/>
					</g>
					<linearGradient id="SVGID_41_" gradientUnits="userSpaceOnUse" x1="1156.3843" y1="776.0726" x2="1053.3948" y2="1183.1251">
						<stop  offset="0" style="stop-color:#2B3582"/>
						<stop  offset="1" style="stop-color:#150E42"/>
					</linearGradient>
					<path class="st36" d="M1120.3,1329.6c-5,4.5-21.4,5-21.4,5c-58.8-141.2-82.9-161.3-82.9-161.3c8.5,53.3,1.4,171.3,1.4,171.3
						c-9.7,4.3-22.2,0-22.2,0c-0.8-87.3-14.2-163.4-30-223.4c39.8-0.9,60.9-14.5,67.8-20C1066.1,1154.8,1120.3,1329.6,1120.3,1329.6
						z"/>
					<linearGradient id="SVGID_42_" gradientUnits="userSpaceOnUse" x1="1013.9691" y1="906.0689" x2="937.9534" y2="1163.5416">
						<stop  offset="0" style="stop-color:#2B3582"/>
						<stop  offset="1" style="stop-color:#150E42"/>
					</linearGradient>
					<path class="st38" d="M1022.8,938.9c7.5,37.5,4.8,104.7,3.1,135.4c-0.5,8.6,5.5,20.6,10.4,28.7c0.8,1.3,0.3,2.9-1,3.6
						c-8.1,4.2-35.7,17.1-67.7,18.8c-2.1,0.1-4-1.3-4.6-3.4c-23.7-88.5-51.2-145.1-51.2-145.1
						C942.1,928.4,1022.8,938.9,1022.8,938.9z"/>
					<g>
						
							<linearGradient id="SVGID_43_" gradientUnits="userSpaceOnUse" x1="2524.3108" y1="1050.0188" x2="2454.3542" y2="1111.967" gradientTransform="matrix(-1 0 0 1 3553.905 0)">
							<stop  offset="0" style="stop-color:#F9B776"/>
							<stop  offset="1" style="stop-color:#F47960"/>
						</linearGradient>
						<path class="st39" d="M1070,1046.7c-2.4,17.5-9.6,36.6-23.9,56.8l-5.4-4.4c0,0,6.3-25.4,2.7-54.3
							C1052.3,1043,1062.7,1044.8,1070,1046.7z"/>
						<linearGradient id="SVGID_44_" gradientUnits="userSpaceOnUse" x1="1067.3853" y1="921.8394" x2="991.3695" y2="1179.3124">
							<stop  offset="0" style="stop-color:#2B3582"/>
							<stop  offset="1" style="stop-color:#150E42"/>
						</linearGradient>
						<path class="st40" d="M1014.4,985.2l8.4-46.3c0,0,56.2,42.9,47.2,107.8c-7.4-1.9-17.8-3.6-26.6-1.9
							C1040.9,1024,1033.2,1001.4,1014.4,985.2z"/>
					</g>
					<g>
						<linearGradient id="SVGID_45_" gradientUnits="userSpaceOnUse" x1="954.8697" y1="888.6207" x2="878.8541" y2="1146.0931">
							<stop  offset="0" style="stop-color:#2B3582"/>
							<stop  offset="1" style="stop-color:#150E42"/>
						</linearGradient>
						<path class="st41" d="M911.7,976.9l21.7,46.7c-3.5,28.2-18.7,40.4-35,45.1c-1-12.8-4.3-23.2-7.3-30.4
							C912,1016.7,911.7,976.9,911.7,976.9z"/>
						
							<linearGradient id="SVGID_46_" gradientUnits="userSpaceOnUse" x1="2655.4539" y1="1055.8783" x2="2710.5479" y2="1055.8783" gradientTransform="matrix(-1 0 0 1 3553.905 0)">
							<stop  offset="0" style="stop-color:#F9B776"/>
							<stop  offset="1" style="stop-color:#F47960"/>
						</linearGradient>
						<path class="st42" d="M891.2,1038.3c3,7.2,6.3,17.6,7.3,30.4c-43.6,16.9-55.1-15.9-55.1-15.9l8.1-1.4
							C869.6,1053.3,882.3,1047.4,891.2,1038.3z"/>
					</g>
					
						<linearGradient id="SVGID_47_" gradientUnits="userSpaceOnUse" x1="2601.9009" y1="908.6468" x2="2601.2993" y2="1011.531" gradientTransform="matrix(-1 0 0 1 3553.905 0)">
						<stop  offset="0" style="stop-color:#F9B776"/>
						<stop  offset="1" style="stop-color:#F47960"/>
					</linearGradient>
					<path class="st43" d="M931.7,919.3l10.5,38.5c1.2,4.3,5.9,6.6,10,5c4.5-1.8,10.2-4.2,15.1-6.9c5.2-2.8,6.9-9.6,3.6-14.5
						l-21.8-32.4L931.7,919.3z"/>
				</g>
				
					<linearGradient id="SVGID_48_" gradientUnits="userSpaceOnUse" x1="2448.7673" y1="1096.2372" x2="2737.2712" y2="1096.2372" gradientTransform="matrix(-1 0 0 1 3553.905 0)">
					<stop  offset="0" style="stop-color:#2B3582"/>
					<stop  offset="1" style="stop-color:#150E42"/>
				</linearGradient>
				<path class="st44" d="M823.4,1027l268.2,97.6c11.2,4.1,16.6,16.9,11.7,27.8l-0.8,1.8c-4.4,9.6-15.8,13.9-25.4,9.4l-260.4-120.5
					L823.4,1027z"/>
				
					<linearGradient id="SVGID_49_" gradientUnits="userSpaceOnUse" x1="2721.3945" y1="968.3091" x2="2986.2151" y2="968.3091" gradientTransform="matrix(-1 0 0 1 3553.905 0)">
					<stop  offset="0" style="stop-color:#B37CFF"/>
					<stop  offset="1" style="stop-color:#F895E7"/>
				</linearGradient>
				<ellipse style="opacity:0.2;fill:url(#SVGID_49_);" cx="700.1" cy="968.3" rx="132.4" ry="130"/>
				
					<linearGradient id="SVGID_50_" gradientUnits="userSpaceOnUse" x1="2706.468" y1="968.3091" x2="3001.1416" y2="968.3091" gradientTransform="matrix(-1 0 0 1 3553.905 0)">
					<stop  offset="0" style="stop-color:#2B3582"/>
					<stop  offset="1" style="stop-color:#150E42"/>
				</linearGradient>
				<path class="st46" d="M552.8,968.3c0,79.9,66,144.7,147.3,144.7c81.4,0,147.3-64.8,147.3-144.7c0-79.9-66-144.7-147.3-144.7
					C618.7,823.6,552.8,888.4,552.8,968.3z M574.4,968.3c0-68.2,56.3-123.4,125.7-123.4s125.7,55.3,125.7,123.4
					c0,68.2-56.3,123.4-125.7,123.4S574.4,1036.5,574.4,968.3z"/>
				<path class="st4" d="M836.2,985.9C836.2,985.9,836.2,985.9,836.2,985.9c-0.4,0-0.7-0.4-0.6-0.7c0.4-3.4,0.7-6.8,0.9-10.2
					c0-0.3,0.3-0.6,0.7-0.6c0.3,0,0.6,0.3,0.6,0.7c-0.2,3.4-0.5,6.9-0.9,10.3C836.8,985.6,836.5,985.9,836.2,985.9z M835.2,945.4
					c-0.3,0-0.6-0.2-0.6-0.5c-1.6-9.2-4.3-18.2-7.9-26.9c0,0,0,0,0,0c-21-50.9-70.7-83.8-126.7-83.8c-26.1,0-51.5,7.2-73.3,21
					c-0.3,0.2-0.7,0.1-0.9-0.2c-0.2-0.3-0.1-0.7,0.2-0.9c22.1-13.8,47.7-21.1,74-21.1c56.5,0,106.6,33.2,127.8,84.6
					c3.6,8.7,6.3,17.9,7.9,27.1c0.1,0.3-0.2,0.7-0.5,0.7C835.3,945.4,835.3,945.4,835.2,945.4z"/>
				
					<linearGradient id="SVGID_51_" gradientUnits="userSpaceOnUse" x1="2551.9375" y1="1081.2161" x2="2481.9797" y2="1143.1652" gradientTransform="matrix(-1 0 0 1 3553.905 0)">
					<stop  offset="0" style="stop-color:#F9B776"/>
					<stop  offset="1" style="stop-color:#F47960"/>
				</linearGradient>
				<path class="st47" d="M1043,1098.3l-25.4-2.1l-11,10.1c0,0,2.6,3.6,10.7,1.5c8.1-2.1,19.2-2.6,19.2-2.6s11.2,5.1,11.3-4.4
					L1043,1098.3z"/>
				
					<linearGradient id="SVGID_52_" gradientUnits="userSpaceOnUse" x1="2704.6948" y1="1049.4078" x2="2724.4246" y2="1049.4078" gradientTransform="matrix(-1 0 0 1 3553.905 0)">
					<stop  offset="0" style="stop-color:#F9B776"/>
					<stop  offset="1" style="stop-color:#F47960"/>
				</linearGradient>
				<path class="st48" d="M846.6,1058.8c-2.2,1.7-9.7-1.9-14.3-4.3c-2.2-1.2-3.3-3.8-2.6-6.3c1.1-3.5,3-8,5.2-8.6
					C838.7,1038.7,855.6,1051.7,846.6,1058.8z"/>
				<path class="st4" d="M1086.3,1159.6c-0.3,0-0.5-0.2-0.6-0.4c-0.1-0.3,0.1-0.7,0.4-0.8c7.7-2.7,11.8-7,12-12.9
					c0.3-6-3.5-11.5-9.4-13.8l-32.2-12.6c-0.3-0.1-0.5-0.5-0.4-0.8c0.1-0.3,0.5-0.5,0.8-0.4l32.2,12.6c6.4,2.5,10.5,8.5,10.2,15
					c-0.3,6.5-4.6,11.2-12.9,14C1086.5,1159.5,1086.4,1159.6,1086.3,1159.6z"/>
				<path class="st4" d="M1046.9,1115.2c-0.1,0-0.2,0-0.2,0l-4.2-1.6c-0.3-0.1-0.5-0.5-0.4-0.8c0.1-0.3,0.5-0.5,0.8-0.4l4.2,1.6
					c0.3,0.1,0.5,0.5,0.4,0.8C1047.4,1115.1,1047.1,1115.2,1046.9,1115.2z"/>
				<g>
					
						<linearGradient id="SVGID_53_" gradientUnits="userSpaceOnUse" x1="293.2571" y1="898.9985" x2="243.7266" y2="936.8969" gradientTransform="matrix(-1 0 0 1 1220.9052 0)">
						<stop  offset="0" style="stop-color:#F9B776"/>
						<stop  offset="1" style="stop-color:#F47960"/>
					</linearGradient>
					<path class="st49" d="M929.5,881.5c0,0-8.7,19.9-9.2,30.3c-0.6,10.4-2.8,17.2,9.2,19.3c12.1,2.1,22.3-3.9,27.8-14.3
						c0,0,8.6-16,6.7-22.6C962,887.7,929.5,881.5,929.5,881.5z"/>
					
						<linearGradient id="SVGID_54_" gradientUnits="userSpaceOnUse" x1="258.4599" y1="869.0817" x2="303.3105" y2="926.8268" gradientTransform="matrix(-1 0 0 1 1220.9052 0)">
						<stop  offset="0" style="stop-color:#2B3582"/>
						<stop  offset="1" style="stop-color:#150E42"/>
					</linearGradient>
					<path class="st50" d="M953.1,909.4h-1.5c0,0,6.3-12.9,0.8-15.2c-5.5-2.3-27.4-6.7-32.2-14.5c-4.6-7.5-0.5-17.2,5.6-19.9
						c0.4-0.2,0.8,0,1,0.4l0.5,1c0.3,0.7,1.3,0.6,1.5-0.2l0,0c0.2-0.7,1.1-0.8,1.5-0.2c1.4,2.3,5.4,6.1,15.9,8
						c14.9,2.8,24.8,8.8,25,19.1c0,0.7,0.7,1,1.3,0.7c1.1-0.7,2.9-1,5.2,1c4.1,3.4,2.4,12.4-6.6,19.7c-0.4,0.3-0.4,1,0,1.3
						c1.6,1.1,4.1,3.6-2.2,6.9c-6.4,3.4-10.2,3.1-11.7,2.7c-0.4-0.1-0.6-0.5-0.6-0.8l0.6-9.1c0-0.5-0.3-0.9-0.8-0.9H953.1z"/>
					
						<linearGradient id="SVGID_55_" gradientUnits="userSpaceOnUse" x1="287.1132" y1="890.9692" x2="237.5831" y2="928.8672" gradientTransform="matrix(-1 0 0 1 1220.9052 0)">
						<stop  offset="0" style="stop-color:#F9B776"/>
						<stop  offset="1" style="stop-color:#F47960"/>
					</linearGradient>
					<path class="st51" d="M952.7,911.3c0,0,3.3-12.7,9-9.1c5.7,3.6-3,14.2-7.5,14.7L952.7,911.3z"/>
				</g>
			</g>
		</g>
	</g>
	<path class="st4" d="M629.3,920.6c22.3,21.9,41.6,44.7,58.4,68.2c25.1-57.1,51.8-110.2,80.7-157.9l70.9-23.6
		c-48.9,63.7-100.9,158.6-145.5,253.8c-32.2-45.4-64.4-90.6-87.6-106.7L629.3,920.6z"/>
</g>
<g>
	<g>
		<path class="st92" d="M107.8,106.2c-2.7-0.9-5-2.2-7-4c-2-1.7-3.4-3.7-4.2-6L105,93c0.3,1,1.1,2,2.2,2.8c1.1,0.8,2.4,1.5,4,2
			c1.6,0.5,3.2,0.7,5,0.7c1.8,0,3.5-0.3,5.2-0.9c1.6-0.6,2.9-1.4,3.9-2.4c1-1,1.5-2.2,1.5-3.5c0-3.4-3.5-5.7-10.5-6.8
			c-6.1-0.9-10.9-2.6-14.3-5.1c-3.4-2.4-5.1-6-5.1-10.7c0-3.1,0.9-5.8,2.7-8.2c1.8-2.4,4.2-4.3,7.1-5.6c3-1.3,6.2-2,9.6-2
			c2.9,0,5.7,0.5,8.3,1.4c2.7,0.9,5,2.2,7,4c2,1.7,3.4,3.8,4.3,6.1l-8.4,3c-0.3-1-1.1-1.9-2.2-2.8c-1.1-0.8-2.4-1.5-4-2
			c-1.6-0.5-3.2-0.7-5-0.7c-1.8,0-3.5,0.3-5.1,0.9c-1.6,0.6-2.9,1.4-3.9,2.4c-1,1-1.5,2.2-1.5,3.5c0,1.6,0.4,2.8,1.3,3.7
			c0.9,0.9,2,1.5,3.4,1.9s3.3,0.8,5.8,1.2c3.7,0.6,7,1.5,9.9,2.8c2.9,1.3,5.2,3.1,7,5.2c1.7,2.2,2.6,4.7,2.6,7.7
			c0,3.1-0.9,5.8-2.6,8.2c-1.8,2.4-4.1,4.3-7.1,5.6c-3,1.3-6.2,2-9.7,2C113.2,107.6,110.4,107.1,107.8,106.2z"/>
		<path class="st92" d="M149.8,104.9c-2.8-1.8-5.1-4.2-6.8-7.2c-1.7-3-2.5-6.3-2.5-9.9c0-3.6,0.8-6.8,2.5-9.9c1.7-3,3.9-5.4,6.8-7.2
			c2.8-1.8,6-2.6,9.3-2.6c3.5,0,6.6,0.9,9.4,2.7c2.8,1.8,5.1,4.2,6.7,7.2c1.6,3,2.4,6.3,2.4,9.9c0,1.1-0.1,2.1-0.2,2.9h-27.4
			c0.5,2.2,1.6,4.1,3.2,5.5c1.6,1.4,3.6,2.1,6,2.1c1.6,0,3-0.4,4.3-1.2c1.3-0.8,2.4-1.9,3.3-3.3l9.1,2.1c-1,2.2-2.4,4.2-4.1,5.9
			c-1.7,1.7-3.7,3-5.9,4s-4.5,1.4-7,1.4C155.8,107.6,152.7,106.7,149.8,104.9z M166.8,80.1c-0.9-1.3-2-2.2-3.3-3
			c-1.3-0.7-2.7-1.1-4.3-1.1c-1.5,0-2.9,0.4-4.2,1.1c-1.3,0.7-2.4,1.7-3.3,2.9c-0.9,1.3-1.5,2.7-1.8,4.2h18.7
			C168.3,82.8,167.7,81.4,166.8,80.1z"/>
		<path class="st92" d="M220.6,107.3c0,3.5-0.9,6.5-2.8,9.3c-1.9,2.7-4.3,4.8-7.4,6.4c-3.1,1.5-6.4,2.3-10,2.3
			c-2.6,0-5.1-0.5-7.5-1.6c-2.4-1.1-4.6-2.5-6.4-4.4c-1.9-1.9-3.3-4-4.2-6.4l8.2-3.7c0.5,1.4,1.3,2.6,2.3,3.7c1,1.1,2.2,1.9,3.5,2.5
			c1.3,0.6,2.7,0.9,4.1,0.9c2,0,3.8-0.4,5.5-1.1c1.7-0.7,3.1-1.8,4.2-3.1c1.1-1.4,1.6-2.9,1.6-4.7V102c-1.2,1.7-2.8,3.1-4.6,4.1
			s-3.8,1.5-6.1,1.5c-3.5,0-6.7-0.9-9.7-2.6c-3-1.8-5.3-4.1-7.1-7.1c-1.7-3-2.6-6.3-2.6-9.8s0.9-6.8,2.6-9.9c1.7-3,4.1-5.4,7.1-7.2
			c3-1.8,6.2-2.6,9.7-2.6c2.2,0,4.3,0.5,6.1,1.5c1.8,1,3.3,2.4,4.6,4.1v-4.6h9V107.3z M206.2,97.4c1.5-1,2.7-2.3,3.5-4
			c0.9-1.7,1.3-3.5,1.3-5.5c0-2-0.4-3.9-1.3-5.6c-0.9-1.7-2-3-3.6-4c-1.5-1-3.2-1.5-5.1-1.5s-3.6,0.5-5.2,1.5c-1.6,1-2.8,2.3-3.8,4
			c-0.9,1.7-1.4,3.5-1.4,5.6c0,2,0.5,3.9,1.4,5.5c0.9,1.7,2.2,3,3.8,4c1.6,1,3.3,1.5,5.2,1.5C203,98.9,204.7,98.4,206.2,97.4z"/>
		<path class="st92" d="M238.5,69.3v19.1c0,1.9,0.4,3.7,1.2,5.3s1.9,2.9,3.4,3.8c1.4,0.9,3.1,1.4,4.9,1.4c1.8,0,3.3-0.5,4.7-1.4
			c1.3-0.9,2.4-2.2,3.1-3.8c0.7-1.6,1.1-3.4,1.1-5.3V69.3h9v37.3h-9v-4.5c-1.3,1.7-2.9,3.1-4.6,4.1s-3.7,1.5-5.8,1.5
			c-3.3,0-6.3-0.9-8.8-2.6c-2.6-1.7-4.5-4-5.9-6.9c-1.4-2.9-2.1-6.1-2.2-9.6V69.3H238.5z"/>
		<path class="st92" d="M281.3,104.9c-2.8-1.8-5.1-4.2-6.8-7.2s-2.5-6.3-2.5-9.9c0-3.6,0.8-6.8,2.5-9.9s3.9-5.4,6.8-7.2
			c2.8-1.8,6-2.6,9.3-2.6c3.5,0,6.6,0.9,9.4,2.7c2.8,1.8,5.1,4.2,6.7,7.2c1.6,3,2.4,6.3,2.4,9.9c0,1.1-0.1,2.1-0.2,2.9h-27.4
			c0.5,2.2,1.6,4.1,3.2,5.5c1.6,1.4,3.6,2.1,6,2.1c1.6,0,3-0.4,4.3-1.2s2.4-1.9,3.3-3.3l9.1,2.1c-1,2.2-2.4,4.2-4.1,5.9
			c-1.7,1.7-3.7,3-5.9,4s-4.5,1.4-7,1.4C287.2,107.6,284.1,106.7,281.3,104.9z M298.2,80.1c-0.9-1.3-2-2.2-3.3-3
			c-1.3-0.7-2.7-1.1-4.3-1.1c-1.5,0-2.9,0.4-4.2,1.1c-1.3,0.7-2.4,1.7-3.3,2.9c-0.9,1.3-1.5,2.7-1.8,4.2H300
			C299.7,82.8,299.1,81.4,298.2,80.1z"/>
		<path class="st92" d="M341.7,106.6V87.4c0-1.9-0.4-3.7-1.2-5.3c-0.8-1.6-1.9-2.9-3.4-3.8c-1.4-0.9-3.1-1.4-4.9-1.4
			c-1.8,0-3.3,0.5-4.7,1.4c-1.3,0.9-2.4,2.2-3.1,3.8s-1.1,3.4-1.1,5.3v19.2h-9V69.3h9v4.5c1.3-1.7,2.8-3.1,4.6-4.1s3.7-1.5,5.8-1.5
			c3.3,0,6.3,0.9,8.8,2.6c2.6,1.7,4.5,4,5.9,6.9c1.4,2.9,2.1,6.1,2.2,9.6v19.3H341.7z"/>
		<path class="st92" d="M394.8,106.6h-9v-4.8c-1.3,1.8-2.8,3.2-4.7,4.2c-1.8,1-3.9,1.5-6.3,1.5c-3.6,0-6.8-0.9-9.8-2.6
			c-3-1.8-5.4-4.1-7.1-7.1c-1.8-3-2.7-6.3-2.7-9.8s0.9-6.8,2.7-9.9c1.8-3,4.1-5.4,7.1-7.2c3-1.8,6.3-2.6,9.8-2.6
			c2.3,0,4.4,0.5,6.3,1.5c1.8,1,3.4,2.4,4.7,4.2V50.6h9V106.6z M380.2,97.5c1.5-1,2.7-2.3,3.6-4c0.9-1.7,1.3-3.5,1.3-5.5
			c0-2-0.4-3.9-1.3-5.6c-0.9-1.7-2.1-3-3.6-4c-1.5-1-3.3-1.5-5.2-1.5c-1.9,0-3.6,0.5-5.3,1.5c-1.6,1-2.9,2.3-3.9,4
			c-1,1.7-1.4,3.5-1.4,5.5c0,2,0.5,3.8,1.4,5.5c1,1.7,2.2,3,3.9,4c1.6,1,3.4,1.5,5.3,1.5C377,98.9,378.7,98.4,380.2,97.5z"/>
		<path class="st92" d="M410.5,104.9c-2.8-1.8-5.1-4.1-6.8-7.1c-1.7-3-2.5-6.3-2.5-9.8c0-3.6,0.8-6.9,2.5-9.9c1.7-3,3.9-5.4,6.8-7.2
			c2.8-1.8,6-2.6,9.3-2.6s6.5,0.9,9.3,2.6c2.8,1.8,5.1,4.2,6.8,7.2c1.7,3,2.5,6.3,2.5,9.9c0,3.6-0.8,6.8-2.5,9.8
			c-1.7,3-3.9,5.4-6.8,7.1c-2.8,1.8-6,2.6-9.3,2.6S413.4,106.7,410.5,104.9z M424.8,97.1c1.5-1,2.6-2.3,3.5-3.9
			c0.9-1.6,1.3-3.4,1.3-5.3c0-1.9-0.4-3.7-1.3-5.4s-2.1-2.9-3.5-3.9c-1.5-1-3.1-1.5-4.8-1.5c-1.8,0-3.4,0.5-4.9,1.5
			c-1.5,1-2.7,2.3-3.5,3.9c-0.9,1.6-1.3,3.4-1.3,5.3c0,2,0.4,3.8,1.3,5.4c0.9,1.6,2.1,2.9,3.5,3.9c1.5,0.9,3.1,1.4,4.8,1.4
			C421.7,98.6,423.3,98.1,424.8,97.1z"/>
		<path class="st92" d="M463.5,50.6h9v55.9h-9V50.6z"/>
		<path class="st92" d="M488.7,104.9c-2.8-1.8-5.1-4.2-6.8-7.2s-2.5-6.3-2.5-9.9c0-3.6,0.8-6.8,2.5-9.9s3.9-5.4,6.8-7.2
			c2.8-1.8,6-2.6,9.3-2.6c3.5,0,6.6,0.9,9.4,2.7c2.8,1.8,5.1,4.2,6.7,7.2c1.6,3,2.4,6.3,2.4,9.9c0,1.1-0.1,2.1-0.2,2.9H489
			c0.5,2.2,1.6,4.1,3.2,5.5c1.6,1.4,3.6,2.1,6,2.1c1.6,0,3-0.4,4.3-1.2s2.4-1.9,3.3-3.3l9.1,2.1c-1,2.2-2.4,4.2-4.1,5.9
			c-1.7,1.7-3.7,3-5.9,4s-4.5,1.4-7,1.4C494.7,107.6,491.6,106.7,488.7,104.9z M505.6,80.1c-0.9-1.3-2-2.2-3.3-3
			c-1.3-0.7-2.7-1.1-4.3-1.1c-1.5,0-2.9,0.4-4.2,1.1c-1.3,0.7-2.4,1.7-3.3,2.9c-0.9,1.3-1.5,2.7-1.8,4.2h18.7
			C507.1,82.8,506.5,81.4,505.6,80.1z"/>
		<path class="st92" d="M567.9,106.6V87.4c0-1.9-0.4-3.7-1.2-5.3c-0.8-1.6-1.9-2.9-3.4-3.8c-1.4-0.9-3.1-1.4-4.9-1.4
			c-1.8,0-3.3,0.5-4.7,1.4c-1.3,0.9-2.4,2.2-3.1,3.8c-0.7,1.6-1.1,3.4-1.1,5.3v19.2h-9V69.3h9v4.5c1.3-1.7,2.8-3.1,4.6-4.1
			s3.7-1.5,5.8-1.5c3.3,0,6.3,0.9,8.8,2.6c2.5,1.7,4.5,4,5.9,6.9c1.4,2.9,2.1,6.1,2.2,9.6v19.3H567.9z"/>
		<path class="st92" d="M590.8,104.9c-2.8-1.8-5.1-4.1-6.8-7.1c-1.7-3-2.5-6.3-2.5-9.8c0-3.6,0.8-6.9,2.5-9.9s3.9-5.4,6.8-7.2
			c2.8-1.8,6-2.6,9.3-2.6s6.5,0.9,9.3,2.6c2.8,1.8,5.1,4.2,6.8,7.2c1.7,3,2.5,6.3,2.5,9.9c0,3.6-0.8,6.8-2.5,9.8
			c-1.7,3-3.9,5.4-6.8,7.1c-2.8,1.8-6,2.6-9.3,2.6S593.7,106.7,590.8,104.9z M605.1,97.1c1.5-1,2.7-2.3,3.5-3.9
			c0.9-1.6,1.3-3.4,1.3-5.3c0-1.9-0.4-3.7-1.3-5.4c-0.9-1.6-2.1-2.9-3.5-3.9c-1.5-1-3.1-1.5-4.9-1.5c-1.8,0-3.4,0.5-4.9,1.5
			c-1.5,1-2.7,2.3-3.5,3.9c-0.9,1.6-1.3,3.4-1.3,5.3c0,2,0.4,3.8,1.3,5.4c0.9,1.6,2.1,2.9,3.5,3.9c1.5,0.9,3.1,1.4,4.8,1.4
			C602,98.6,603.6,98.1,605.1,97.1z"/>
		<path class="st92" d="M628.7,104.9c-2.5-1.4-4.3-3.3-5.4-5.6l7.6-3.2c0.5,0.9,1.4,1.8,2.8,2.5c1.3,0.7,2.7,1.1,4.3,1.1
			c1.6,0,2.9-0.3,4.1-1c1.1-0.7,1.7-1.6,1.7-2.8c0-0.9-0.3-1.6-0.9-2.1c-0.6-0.5-1.3-0.9-2-1.2c-0.7-0.2-1.9-0.5-3.3-0.9
			c-3.9-0.8-7.1-2.2-9.6-4.1c-2.5-2-3.7-4.5-3.7-7.6c0-2.4,0.6-4.5,1.9-6.3c1.3-1.8,3-3.2,5.1-4.2c2.1-1,4.4-1.5,6.8-1.5
			c3,0,5.7,0.6,8.2,1.9c2.5,1.2,4.4,3,5.9,5.2l-7.1,4.2c-0.6-1-1.5-1.8-2.8-2.5c-1.3-0.7-2.6-1-4-1c-1.7,0-3.1,0.3-4.1,1
			s-1.6,1.7-1.6,3c0,0.7,0.2,1.3,0.7,1.7s1,0.8,1.7,1c0.7,0.2,1.5,0.5,2.6,0.8c0.2,0,0.5,0.1,0.9,0.2c0.4,0.1,0.8,0.2,1.1,0.3
			c3.8,1.2,6.9,2.8,9.2,4.7c2.3,1.9,3.4,4.3,3.3,7.2c0,2.2-0.6,4.2-1.9,6c-1.3,1.8-3,3.2-5.1,4.2c-2.1,1-4.4,1.5-6.8,1.5
			c-0.5,0-0.9,0-1.2,0C633.9,107.1,631.2,106.3,628.7,104.9z"/>
		<path class="st92" d="M671.4,78.9l0,27.7h-9l0-27.7h-5.6v-9h5.6l0-12.4h9l0,12.4h7.3v9H671.4z"/>
		<path class="st92" d="M703.3,76.9c-1.8,0-3.4,0.5-4.7,1.4c-1.3,0.9-2.4,2.2-3.1,3.8c-0.7,1.6-1.1,3.4-1.1,5.3v19.1h-9V69.3h9v4.4
			c1.3-1.7,2.8-3.1,4.6-4s3.7-1.5,5.8-1.5c2,0,3.6,0.2,4.7,0.5l-1.5,9.6C706.6,77.4,705,76.9,703.3,76.9z"/>
		<path class="st92" d="M719.7,104.9c-2.8-1.8-5.1-4.2-6.8-7.2s-2.5-6.3-2.5-9.9c0-3.6,0.8-6.8,2.5-9.9s3.9-5.4,6.8-7.2
			c2.8-1.8,6-2.6,9.3-2.6c3.5,0,6.6,0.9,9.4,2.7c2.8,1.8,5.1,4.2,6.7,7.2c1.6,3,2.4,6.3,2.4,9.9c0,1.1-0.1,2.1-0.2,2.9H720
			c0.5,2.2,1.6,4.1,3.2,5.5c1.6,1.4,3.6,2.1,6,2.1c1.6,0,3-0.4,4.3-1.2s2.4-1.9,3.3-3.3l9.1,2.1c-1,2.2-2.4,4.2-4.1,5.9
			c-1.7,1.7-3.7,3-5.9,4s-4.5,1.4-7,1.4C725.7,107.6,722.6,106.7,719.7,104.9z M736.6,80.1c-0.9-1.3-2-2.2-3.3-3
			c-1.3-0.7-2.7-1.1-4.3-1.1c-1.5,0-2.9,0.4-4.2,1.1c-1.3,0.7-2.4,1.7-3.3,2.9c-0.9,1.3-1.5,2.7-1.8,4.2h18.7
			C738.1,82.8,737.5,81.4,736.6,80.1z"/>
		<path class="st92" d="M772.6,50.6h9v55.9h-9V50.6z"/>
		<path class="st92" d="M793.1,64c-0.7-0.4-1.3-1-1.7-1.7c-0.4-0.7-0.6-1.5-0.6-2.3s0.2-1.6,0.6-2.3c0.4-0.7,1-1.3,1.7-1.7
			s1.5-0.6,2.3-0.6c0.8,0,1.6,0.2,2.3,0.6s1.3,1,1.7,1.7c0.4,0.7,0.6,1.5,0.6,2.3c0,1.3-0.4,2.4-1.3,3.3c-0.9,0.9-2,1.4-3.3,1.4
			C794.6,64.6,793.8,64.4,793.1,64z M799.9,69.3v37.3h-9V69.3H799.9z"/>
		<path class="st92" d="M835.3,106.6V87.4c0-1.9-0.4-3.7-1.2-5.3c-0.8-1.6-1.9-2.9-3.4-3.8c-1.4-0.9-3.1-1.4-4.9-1.4
			c-1.8,0-3.3,0.5-4.7,1.4c-1.3,0.9-2.4,2.2-3.1,3.8s-1.1,3.4-1.1,5.3v19.2h-9V69.3h9v4.5c1.3-1.7,2.8-3.1,4.6-4.1s3.7-1.5,5.8-1.5
			c3.3,0,6.3,0.9,8.8,2.6c2.6,1.7,4.5,4,5.9,6.9c1.4,2.9,2.1,6.1,2.2,9.6v19.3H835.3z"/>
		<path class="st92" d="M858.2,104.9c-2.8-1.8-5.1-4.2-6.8-7.2c-1.7-3-2.5-6.3-2.5-9.9c0-3.6,0.8-6.8,2.5-9.9c1.7-3,3.9-5.4,6.8-7.2
			c2.8-1.8,6-2.6,9.3-2.6c3.5,0,6.6,0.9,9.4,2.7c2.8,1.8,5.1,4.2,6.7,7.2c1.6,3,2.4,6.3,2.4,9.9c0,1.1-0.1,2.1-0.2,2.9h-27.4
			c0.5,2.2,1.6,4.1,3.2,5.5c1.6,1.4,3.6,2.1,6,2.1c1.6,0,3-0.4,4.3-1.2c1.3-0.8,2.4-1.9,3.3-3.3l9.1,2.1c-1,2.2-2.4,4.2-4.1,5.9
			c-1.7,1.7-3.7,3-5.9,4s-4.5,1.4-7,1.4C864.2,107.6,861.1,106.7,858.2,104.9z M875.2,80.1c-0.9-1.3-2-2.2-3.3-3
			c-1.3-0.7-2.7-1.1-4.3-1.1c-1.5,0-2.9,0.4-4.2,1.1c-1.3,0.7-2.4,1.7-3.3,2.9c-0.9,1.3-1.5,2.7-1.8,4.2H877
			C876.7,82.8,876.1,81.4,875.2,80.1z"/>
		<path class="st92" d="M899.3,104.9c-2.8-1.8-5.1-4.2-6.8-7.2c-1.7-3-2.5-6.3-2.5-9.9c0-3.6,0.8-6.8,2.5-9.9c1.7-3,3.9-5.4,6.8-7.2
			c2.8-1.8,6-2.6,9.3-2.6c3.5,0,6.6,0.9,9.4,2.7c2.8,1.8,5.1,4.2,6.7,7.2c1.6,3,2.4,6.3,2.4,9.9c0,1.1-0.1,2.1-0.2,2.9h-27.4
			c0.5,2.2,1.6,4.1,3.2,5.5c1.6,1.4,3.6,2.1,6,2.1c1.6,0,3-0.4,4.3-1.2c1.3-0.8,2.4-1.9,3.3-3.3l9.1,2.1c-1,2.2-2.4,4.2-4.1,5.9
			c-1.7,1.7-3.7,3-5.9,4s-4.5,1.4-7,1.4C905.3,107.6,902.1,106.7,899.3,104.9z M916.2,80.1c-0.9-1.3-2-2.2-3.3-3
			c-1.3-0.7-2.7-1.1-4.3-1.1c-1.5,0-2.9,0.4-4.2,1.1c-1.3,0.7-2.4,1.7-3.3,2.9c-0.9,1.3-1.5,2.7-1.8,4.2H918
			C917.7,82.8,917.1,81.4,916.2,80.1z"/>
		<path class="st92" d="M988.7,107.3c0,3.5-0.9,6.5-2.8,9.3c-1.9,2.7-4.3,4.8-7.4,6.4c-3.1,1.5-6.4,2.3-10,2.3
			c-2.6,0-5.1-0.5-7.5-1.6c-2.4-1.1-4.6-2.5-6.4-4.4c-1.9-1.9-3.3-4-4.2-6.4l8.2-3.7c0.5,1.4,1.3,2.6,2.3,3.7c1,1.1,2.2,1.9,3.5,2.5
			c1.3,0.6,2.7,0.9,4.1,0.9c2,0,3.8-0.4,5.5-1.1c1.7-0.7,3.1-1.8,4.2-3.1c1.1-1.4,1.6-2.9,1.6-4.7V102c-1.2,1.7-2.8,3.1-4.6,4.1
			c-1.8,1-3.8,1.5-6.1,1.5c-3.5,0-6.7-0.9-9.7-2.6c-3-1.8-5.3-4.1-7.1-7.1c-1.7-3-2.6-6.3-2.6-9.8s0.9-6.8,2.6-9.9
			c1.7-3,4.1-5.4,7.1-7.2c3-1.8,6.2-2.6,9.7-2.6c2.2,0,4.3,0.5,6.1,1.5c1.8,1,3.3,2.4,4.6,4.1v-4.6h9V107.3z M974.3,97.4
			c1.5-1,2.7-2.3,3.5-4c0.9-1.7,1.3-3.5,1.3-5.5c0-2-0.4-3.9-1.3-5.6c-0.9-1.7-2-3-3.6-4c-1.5-1-3.2-1.5-5.1-1.5s-3.6,0.5-5.2,1.5
			c-1.6,1-2.8,2.3-3.8,4c-0.9,1.7-1.4,3.5-1.4,5.6c0,2,0.5,3.9,1.4,5.5c0.9,1.7,2.2,3,3.8,4c1.6,1,3.3,1.5,5.2,1.5
			C971.1,98.9,972.8,98.4,974.3,97.4z"/>
		<path class="st92" d="M1006.6,69.3v19.1c0,1.9,0.4,3.7,1.2,5.3s1.9,2.9,3.4,3.8c1.4,0.9,3.1,1.4,4.9,1.4c1.8,0,3.3-0.5,4.7-1.4
			c1.3-0.9,2.4-2.2,3.1-3.8c0.7-1.6,1.1-3.4,1.1-5.3V69.3h9v37.3h-9v-4.5c-1.3,1.7-2.9,3.1-4.6,4.1s-3.7,1.5-5.8,1.5
			c-3.3,0-6.3-0.9-8.8-2.6s-4.5-4-5.9-6.9c-1.4-2.9-2.1-6.1-2.2-9.6V69.3H1006.6z"/>
		<path class="st92" d="M1045.2,64c-0.7-0.4-1.3-1-1.7-1.7c-0.4-0.7-0.6-1.5-0.6-2.3s0.2-1.6,0.6-2.3c0.4-0.7,1-1.3,1.7-1.7
			s1.5-0.6,2.3-0.6c0.8,0,1.6,0.2,2.3,0.6s1.3,1,1.7,1.7c0.4,0.7,0.6,1.5,0.6,2.3c0,1.3-0.4,2.4-1.3,3.3c-0.9,0.9-2,1.4-3.3,1.4
			C1046.7,64.6,1045.9,64.4,1045.2,64z M1051.9,69.3v37.3h-9V69.3H1051.9z"/>
		<path class="st92" d="M1098.4,106.6h-9v-4.8c-1.3,1.8-2.8,3.2-4.7,4.2c-1.8,1-3.9,1.5-6.3,1.5c-3.6,0-6.8-0.9-9.8-2.6
			c-3-1.8-5.4-4.1-7.1-7.1c-1.8-3-2.7-6.3-2.7-9.8s0.9-6.8,2.7-9.9c1.8-3,4.1-5.4,7.1-7.2c3-1.8,6.3-2.6,9.8-2.6
			c2.3,0,4.4,0.5,6.3,1.5c1.8,1,3.4,2.4,4.7,4.2V50.6h9V106.6z M1083.8,97.5c1.5-1,2.7-2.3,3.6-4c0.9-1.7,1.3-3.5,1.3-5.5
			c0-2-0.4-3.9-1.3-5.6c-0.9-1.7-2.1-3-3.6-4c-1.5-1-3.3-1.5-5.2-1.5c-1.9,0-3.6,0.5-5.3,1.5c-1.6,1-2.9,2.3-3.9,4
			c-1,1.7-1.4,3.5-1.4,5.5c0,2,0.5,3.8,1.4,5.5c1,1.7,2.2,3,3.9,4c1.6,1,3.4,1.5,5.3,1.5C1080.5,98.9,1082.2,98.4,1083.8,97.5z"/>
		<path class="st92" d="M1144.7,106.6h-9v-4.8c-1.3,1.8-2.8,3.2-4.7,4.2c-1.9,1-3.9,1.5-6.2,1.5c-3.6,0-6.8-0.9-9.8-2.6
			c-3-1.8-5.4-4.1-7.1-7.1c-1.8-3-2.6-6.3-2.6-9.8c0-3.6,0.9-6.9,2.6-9.9c1.8-3,4.1-5.4,7.1-7.2c3-1.8,6.3-2.6,9.8-2.6
			c2.3,0,4.4,0.5,6.3,1.5c1.8,1,3.4,2.4,4.7,4.2v-4.7h9V106.6z M1130.1,97.4c1.5-1,2.7-2.3,3.6-4c0.9-1.7,1.3-3.5,1.3-5.5
			c0-2-0.4-3.9-1.3-5.6c-0.9-1.7-2.1-3-3.6-4c-1.5-1-3.3-1.5-5.2-1.5c-1.9,0-3.7,0.5-5.3,1.5c-1.6,1-2.9,2.3-3.8,4
			c-0.9,1.7-1.4,3.5-1.4,5.6c0,2,0.5,3.8,1.4,5.5c1,1.7,2.2,3,3.9,4c1.6,1,3.4,1.5,5.3,1.5C1126.8,98.9,1128.5,98.4,1130.1,97.4z"/>
		<path class="st92" d="M186.5,194.4c-2.5-1.4-4.3-3.3-5.4-5.6l7.6-3.2c0.5,0.9,1.4,1.8,2.8,2.5c1.3,0.7,2.7,1.1,4.3,1.1
			c1.6,0,2.9-0.3,4.1-1c1.1-0.7,1.7-1.6,1.7-2.8c0-0.9-0.3-1.6-0.9-2.1c-0.6-0.5-1.3-0.9-2-1.2c-0.7-0.2-1.9-0.5-3.3-0.9
			c-3.9-0.8-7.1-2.2-9.6-4.1s-3.7-4.5-3.7-7.6c0-2.4,0.6-4.5,1.9-6.3c1.3-1.8,3-3.2,5.1-4.2c2.1-1,4.4-1.5,6.8-1.5
			c3,0,5.7,0.6,8.2,1.9c2.5,1.2,4.4,3,5.9,5.2l-7.1,4.2c-0.6-1-1.5-1.8-2.8-2.5c-1.3-0.7-2.6-1-4-1c-1.7,0-3.1,0.3-4.1,1
			s-1.6,1.7-1.6,3c0,0.7,0.2,1.3,0.7,1.7c0.4,0.4,1,0.8,1.7,1c0.7,0.2,1.5,0.5,2.6,0.8c0.2,0,0.5,0.1,0.9,0.2
			c0.4,0.1,0.8,0.2,1.1,0.3c3.8,1.2,6.9,2.8,9.2,4.7c2.3,1.9,3.4,4.3,3.3,7.2c0,2.2-0.6,4.2-1.9,6c-1.3,1.8-3,3.2-5.1,4.2
			c-2.1,1-4.4,1.5-6.8,1.5c-0.5,0-0.9,0-1.2,0C191.8,196.6,189,195.8,186.5,194.4z"/>
		<path class="st92" d="M253.7,196.1h-9v-4.8c-1.3,1.8-2.8,3.2-4.7,4.2c-1.9,1-3.9,1.5-6.2,1.5c-3.6,0-6.8-0.9-9.8-2.6
			c-3-1.8-5.4-4.1-7.1-7.1c-1.8-3-2.6-6.3-2.6-9.8c0-3.6,0.9-6.9,2.6-9.9c1.8-3,4.1-5.4,7.1-7.2c3-1.8,6.3-2.6,9.8-2.6
			c2.3,0,4.4,0.5,6.3,1.5c1.8,1,3.4,2.4,4.7,4.2v-4.7h9V196.1z M239,187c1.5-1,2.7-2.3,3.6-4c0.9-1.7,1.3-3.5,1.3-5.5
			c0-2-0.4-3.9-1.3-5.6c-0.9-1.7-2.1-3-3.6-4c-1.5-1-3.3-1.5-5.2-1.5c-1.9,0-3.7,0.5-5.3,1.5c-1.6,1-2.9,2.3-3.8,4
			c-0.9,1.7-1.4,3.5-1.4,5.6c0,2,0.5,3.8,1.4,5.5c1,1.7,2.2,3,3.9,4c1.6,1,3.4,1.5,5.3,1.5C235.8,188.5,237.5,188,239,187z"/>
		<path class="st92" d="M280.5,166.4c-1.8,0-3.4,0.5-4.7,1.4c-1.3,0.9-2.4,2.2-3.1,3.8c-0.7,1.6-1.1,3.4-1.1,5.3v19.1h-9v-37.3h9
			v4.4c1.3-1.7,2.8-3.1,4.6-4s3.7-1.5,5.8-1.5c2,0,3.6,0.2,4.7,0.5l-1.5,9.6C283.8,166.9,282.2,166.4,280.5,166.4z"/>
		<path class="st92" d="M327.5,196.1h-9v-4.8c-1.3,1.8-2.8,3.2-4.7,4.2c-1.9,1-3.9,1.5-6.2,1.5c-3.6,0-6.8-0.9-9.8-2.6
			c-3-1.8-5.4-4.1-7.1-7.1c-1.8-3-2.6-6.3-2.6-9.8c0-3.6,0.9-6.9,2.6-9.9c1.8-3,4.1-5.4,7.1-7.2c3-1.8,6.3-2.6,9.8-2.6
			c2.3,0,4.4,0.5,6.3,1.5c1.8,1,3.4,2.4,4.7,4.2v-4.7h9V196.1z M312.9,187c1.5-1,2.7-2.3,3.6-4c0.9-1.7,1.3-3.5,1.3-5.5
			c0-2-0.4-3.9-1.3-5.6c-0.9-1.7-2.1-3-3.6-4c-1.5-1-3.3-1.5-5.2-1.5c-1.9,0-3.7,0.5-5.3,1.5c-1.6,1-2.9,2.3-3.8,4
			c-0.9,1.7-1.4,3.5-1.4,5.6c0,2,0.5,3.8,1.4,5.5c1,1.7,2.2,3,3.9,4c1.6,1,3.4,1.5,5.3,1.5C309.6,188.5,311.4,188,312.9,187z"/>
		<path class="st92" d="M338.8,153.5c-0.7-0.4-1.3-1-1.7-1.7c-0.4-0.7-0.6-1.5-0.6-2.3s0.2-1.6,0.6-2.3c0.4-0.7,1-1.3,1.7-1.7
			s1.5-0.6,2.3-0.6c0.8,0,1.6,0.2,2.3,0.6s1.3,1,1.7,1.7c0.4,0.7,0.6,1.5,0.6,2.3c0,1.3-0.4,2.4-1.3,3.3c-0.9,0.9-2,1.4-3.3,1.4
			C340.2,154.2,339.5,154,338.8,153.5z M345.5,158.8v37.3h-9v-37.3H345.5z"/>
		<path class="st92" d="M374.9,153.5c-0.7-0.4-1.3-1-1.7-1.7c-0.4-0.7-0.6-1.5-0.6-2.3s0.2-1.6,0.6-2.3c0.4-0.7,1-1.3,1.7-1.7
			s1.5-0.6,2.3-0.6c0.8,0,1.6,0.2,2.3,0.6s1.3,1,1.7,1.7c0.4,0.7,0.6,1.5,0.6,2.3c0,1.3-0.4,2.4-1.3,3.3c-0.9,0.9-2,1.4-3.3,1.4
			C376.4,154.2,375.6,154,374.9,153.5z M381.7,158.8v37.3h-9v-37.3H381.7z"/>
		<path class="st92" d="M417.1,196.1V177c0-1.9-0.4-3.7-1.2-5.3c-0.8-1.6-1.9-2.9-3.4-3.8c-1.4-0.9-3.1-1.4-4.9-1.4
			c-1.8,0-3.3,0.5-4.7,1.4c-1.3,0.9-2.4,2.2-3.1,3.8s-1.1,3.4-1.1,5.3v19.2h-9v-37.3h9v4.5c1.3-1.7,2.8-3.1,4.6-4.1s3.7-1.5,5.8-1.5
			c3.3,0,6.3,0.9,8.8,2.6c2.6,1.7,4.5,4,5.9,6.9c1.4,2.9,2.1,6.1,2.2,9.6v19.3H417.1z"/>
		<path class="st92" d="M488.9,196.9c0,3.5-0.9,6.5-2.8,9.3c-1.9,2.7-4.3,4.8-7.4,6.4c-3.1,1.5-6.4,2.3-10,2.3
			c-2.6,0-5.1-0.5-7.5-1.6c-2.4-1.1-4.6-2.5-6.4-4.4c-1.9-1.9-3.3-4-4.2-6.4l8.2-3.7c0.5,1.4,1.3,2.6,2.3,3.7c1,1.1,2.2,1.9,3.5,2.5
			c1.3,0.6,2.7,0.9,4.1,0.9c2,0,3.8-0.4,5.5-1.1c1.7-0.7,3.1-1.8,4.2-3.1c1.1-1.4,1.6-2.9,1.6-4.7v-5.4c-1.2,1.7-2.8,3.1-4.6,4.1
			c-1.8,1-3.8,1.5-6.1,1.5c-3.5,0-6.7-0.9-9.7-2.6c-3-1.8-5.3-4.1-7.1-7.1c-1.7-3-2.6-6.3-2.6-9.8s0.9-6.8,2.6-9.9
			c1.7-3,4.1-5.4,7.1-7.2c3-1.8,6.2-2.6,9.7-2.6c2.2,0,4.3,0.5,6.1,1.5c1.8,1,3.3,2.4,4.6,4.1v-4.6h9V196.9z M474.6,187
			c1.5-1,2.7-2.3,3.5-4c0.9-1.7,1.3-3.5,1.3-5.5c0-2-0.4-3.9-1.3-5.6c-0.9-1.7-2-3-3.6-4c-1.5-1-3.2-1.5-5.1-1.5s-3.6,0.5-5.2,1.5
			c-1.6,1-2.8,2.3-3.8,4c-0.9,1.7-1.4,3.5-1.4,5.6c0,2,0.5,3.9,1.4,5.5c0.9,1.7,2.2,3,3.8,4c1.6,1,3.3,1.5,5.2,1.5
			C471.3,188.5,473,188,474.6,187z"/>
		<path class="st92" d="M515.8,166.4c-1.8,0-3.4,0.5-4.7,1.4c-1.3,0.9-2.4,2.2-3.1,3.8c-0.7,1.6-1.1,3.4-1.1,5.3v19.1h-9v-37.3h9
			v4.4c1.3-1.7,2.8-3.1,4.6-4s3.7-1.5,5.8-1.5c2,0,3.6,0.2,4.7,0.5l-1.5,9.6C519.1,166.9,517.5,166.4,515.8,166.4z"/>
		<path class="st92" d="M562.8,196.1h-9v-4.8c-1.3,1.8-2.8,3.2-4.7,4.2c-1.9,1-3.9,1.5-6.2,1.5c-3.6,0-6.8-0.9-9.8-2.6
			c-3-1.8-5.4-4.1-7.1-7.1c-1.8-3-2.6-6.3-2.6-9.8c0-3.6,0.9-6.9,2.6-9.9c1.8-3,4.1-5.4,7.1-7.2c3-1.8,6.3-2.6,9.8-2.6
			c2.3,0,4.4,0.5,6.3,1.5c1.8,1,3.4,2.4,4.7,4.2v-4.7h9V196.1z M548.2,187c1.5-1,2.7-2.3,3.6-4c0.9-1.7,1.3-3.5,1.3-5.5
			c0-2-0.4-3.9-1.3-5.6c-0.9-1.7-2.1-3-3.6-4c-1.5-1-3.3-1.5-5.2-1.5c-1.9,0-3.7,0.5-5.3,1.5c-1.6,1-2.9,2.3-3.8,4
			c-0.9,1.7-1.4,3.5-1.4,5.6c0,2,0.5,3.8,1.4,5.5c1,1.7,2.2,3,3.9,4c1.6,1,3.4,1.5,5.3,1.5C544.9,188.5,546.6,188,548.2,187z"/>
		<path class="st92" d="M607.7,196.1h-9v-4.8c-1.3,1.8-2.8,3.2-4.7,4.2c-1.8,1-3.9,1.5-6.3,1.5c-3.6,0-6.8-0.9-9.8-2.6
			c-3-1.8-5.4-4.1-7.1-7.1c-1.8-3-2.6-6.3-2.6-9.8s0.9-6.8,2.6-9.9c1.8-3,4.1-5.4,7.1-7.2c3-1.8,6.3-2.6,9.8-2.6
			c2.3,0,4.4,0.5,6.3,1.5c1.8,1,3.4,2.4,4.7,4.2v-23.4h9V196.1z M593.1,187c1.5-1,2.7-2.3,3.6-4c0.9-1.7,1.3-3.5,1.3-5.5
			c0-2-0.4-3.9-1.3-5.6c-0.9-1.7-2.1-3-3.6-4c-1.5-1-3.3-1.5-5.2-1.5c-1.9,0-3.6,0.5-5.3,1.5c-1.6,1-2.9,2.3-3.9,4s-1.4,3.5-1.4,5.5
			c0,2,0.5,3.8,1.4,5.5c1,1.7,2.2,3,3.9,4c1.6,1,3.4,1.5,5.3,1.5C589.8,188.5,591.6,188,593.1,187z"/>
		<path class="st92" d="M623.4,194.5c-2.8-1.8-5.1-4.1-6.8-7.1c-1.7-3-2.5-6.3-2.5-9.8c0-3.6,0.8-6.9,2.5-9.9s3.9-5.4,6.8-7.2
			c2.8-1.8,6-2.6,9.3-2.6s6.5,0.9,9.3,2.6c2.8,1.8,5.1,4.2,6.8,7.2c1.7,3,2.5,6.3,2.5,9.9c0,3.6-0.8,6.8-2.5,9.8
			c-1.7,3-3.9,5.4-6.8,7.1c-2.8,1.8-6,2.6-9.3,2.6S626.3,196.2,623.4,194.5z M637.7,186.7c1.5-1,2.7-2.3,3.5-3.9
			c0.9-1.6,1.3-3.4,1.3-5.3c0-1.9-0.4-3.7-1.3-5.4c-0.9-1.6-2.1-2.9-3.5-3.9c-1.5-1-3.1-1.5-4.9-1.5c-1.8,0-3.4,0.5-4.9,1.5
			c-1.5,1-2.7,2.3-3.5,3.9c-0.9,1.6-1.3,3.4-1.3,5.3c0,2,0.4,3.8,1.3,5.4c0.9,1.6,2.1,2.9,3.5,3.9c1.5,0.9,3.1,1.4,4.8,1.4
			C634.6,188.2,636.2,187.7,637.7,186.7z"/>
		<path class="st92" d="M713.3,196.1h-9v-4.8c-1.3,1.8-2.8,3.2-4.7,4.2c-1.8,1-3.9,1.5-6.3,1.5c-3.6,0-6.8-0.9-9.8-2.6
			c-3-1.8-5.4-4.1-7.1-7.1c-1.8-3-2.6-6.3-2.6-9.8s0.9-6.8,2.6-9.9c1.8-3,4.1-5.4,7.1-7.2c3-1.8,6.3-2.6,9.8-2.6
			c2.3,0,4.4,0.5,6.3,1.5c1.8,1,3.4,2.4,4.7,4.2v-23.4h9V196.1z M698.7,187c1.5-1,2.7-2.3,3.6-4c0.9-1.7,1.3-3.5,1.3-5.5
			c0-2-0.4-3.9-1.3-5.6c-0.9-1.7-2.1-3-3.6-4c-1.5-1-3.3-1.5-5.2-1.5c-1.9,0-3.6,0.5-5.3,1.5c-1.6,1-2.9,2.3-3.9,4s-1.4,3.5-1.4,5.5
			c0,2,0.5,3.8,1.4,5.5c1,1.7,2.2,3,3.9,4c1.6,1,3.4,1.5,5.3,1.5C695.5,188.5,697.2,188,698.7,187z"/>
		<path class="st92" d="M724.3,153.5c-0.7-0.4-1.3-1-1.7-1.7c-0.4-0.7-0.6-1.5-0.6-2.3s0.2-1.6,0.6-2.3c0.4-0.7,1-1.3,1.7-1.7
			s1.5-0.6,2.3-0.6c0.8,0,1.6,0.2,2.3,0.6s1.3,1,1.7,1.7c0.4,0.7,0.6,1.5,0.6,2.3c0,1.3-0.4,2.4-1.3,3.3c-0.9,0.9-2,1.4-3.3,1.4
			C725.8,154.2,725,154,724.3,153.5z M731.1,158.8v37.3h-9v-37.3H731.1z"/>
		<path class="st92" d="M769.5,196.1l-13.6-37.3h9.6l9.8,27l9.8-27h9.6L781,196.1H769.5z"/>
		<path class="st92" d="M835.8,196.1h-9v-4.8c-1.3,1.8-2.8,3.2-4.7,4.2c-1.9,1-3.9,1.5-6.2,1.5c-3.6,0-6.8-0.9-9.8-2.6
			c-3-1.8-5.4-4.1-7.1-7.1c-1.8-3-2.6-6.3-2.6-9.8c0-3.6,0.9-6.9,2.6-9.9c1.8-3,4.1-5.4,7.1-7.2c3-1.8,6.3-2.6,9.8-2.6
			c2.3,0,4.4,0.5,6.3,1.5c1.8,1,3.4,2.4,4.7,4.2v-4.7h9V196.1z M821.2,187c1.5-1,2.7-2.3,3.6-4c0.9-1.7,1.3-3.5,1.3-5.5
			c0-2-0.4-3.9-1.3-5.6c-0.9-1.7-2.1-3-3.6-4c-1.5-1-3.3-1.5-5.2-1.5c-1.9,0-3.7,0.5-5.3,1.5c-1.6,1-2.9,2.3-3.8,4
			c-0.9,1.7-1.4,3.5-1.4,5.6c0,2,0.5,3.8,1.4,5.5c1,1.7,2.2,3,3.9,4c1.6,1,3.4,1.5,5.3,1.5C818,188.5,819.7,188,821.2,187z"/>
		<path class="st92" d="M845.1,140.2h9v55.9h-9V140.2z"/>
		<path class="st92" d="M872.2,158.8v19.1c0,1.9,0.4,3.7,1.2,5.3s1.9,2.9,3.4,3.8c1.4,0.9,3.1,1.4,4.9,1.4c1.8,0,3.3-0.5,4.7-1.4
			c1.3-0.9,2.4-2.2,3.1-3.8c0.7-1.6,1.1-3.4,1.1-5.3v-19.1h9v37.3h-9v-4.5c-1.3,1.7-2.9,3.1-4.6,4.1s-3.7,1.5-5.8,1.5
			c-3.3,0-6.3-0.9-8.8-2.6c-2.6-1.7-4.5-4-5.9-6.9c-1.4-2.9-2.1-6.1-2.2-9.6v-19.3H872.2z"/>
		<path class="st92" d="M921.2,168.4l0,27.7h-9l0-27.7h-5.6v-9h5.6l0-12.4h9l0,12.4h7.3v9H921.2z"/>
		<path class="st92" d="M971.7,196.1h-9v-4.8c-1.3,1.8-2.8,3.2-4.7,4.2c-1.9,1-3.9,1.5-6.2,1.5c-3.6,0-6.8-0.9-9.8-2.6
			c-3-1.8-5.4-4.1-7.1-7.1c-1.8-3-2.6-6.3-2.6-9.8c0-3.6,0.9-6.9,2.6-9.9c1.8-3,4.1-5.4,7.1-7.2c3-1.8,6.3-2.6,9.8-2.6
			c2.3,0,4.4,0.5,6.3,1.5c1.8,1,3.4,2.4,4.7,4.2v-4.7h9V196.1z M957.1,187c1.5-1,2.7-2.3,3.6-4c0.9-1.7,1.3-3.5,1.3-5.5
			c0-2-0.4-3.9-1.3-5.6c-0.9-1.7-2.1-3-3.6-4c-1.5-1-3.3-1.5-5.2-1.5c-1.9,0-3.7,0.5-5.3,1.5c-1.6,1-2.9,2.3-3.8,4
			c-0.9,1.7-1.4,3.5-1.4,5.6c0,2,0.5,3.8,1.4,5.5c1,1.7,2.2,3,3.9,4c1.6,1,3.4,1.5,5.3,1.5C953.8,188.5,955.5,188,957.1,187z"/>
		<path class="st92" d="M998.5,166.4c-1.8,0-3.4,0.5-4.7,1.4c-1.3,0.9-2.4,2.2-3.1,3.8c-0.7,1.6-1.1,3.4-1.1,5.3v19.1h-9v-37.3h9
			v4.4c1.3-1.7,2.8-3.1,4.6-4s3.7-1.5,5.8-1.5c2,0,3.6,0.2,4.7,0.5l-1.5,9.6C1001.8,166.9,1000.2,166.4,998.5,166.4z"/>
		<path class="st92" d="M1014.9,194.5c-2.8-1.8-5.1-4.2-6.8-7.2s-2.5-6.3-2.5-9.9c0-3.6,0.8-6.8,2.5-9.9s3.9-5.4,6.8-7.2
			c2.8-1.8,6-2.6,9.3-2.6c3.5,0,6.6,0.9,9.4,2.7c2.8,1.8,5.1,4.2,6.7,7.2c1.6,3,2.4,6.3,2.4,9.9c0,1.1-0.1,2.1-0.2,2.9h-27.4
			c0.5,2.2,1.6,4.1,3.2,5.5c1.6,1.4,3.6,2.1,6,2.1c1.6,0,3-0.4,4.3-1.2s2.4-1.9,3.3-3.3l9.1,2.1c-1,2.2-2.4,4.2-4.1,5.9
			c-1.7,1.7-3.7,3-5.9,4s-4.5,1.4-7,1.4C1020.9,197.1,1017.8,196.2,1014.9,194.5z M1031.9,169.7c-0.9-1.3-2-2.2-3.3-3
			c-1.3-0.7-2.7-1.1-4.3-1.1c-1.5,0-2.9,0.4-4.2,1.1c-1.3,0.7-2.4,1.7-3.3,2.9c-0.9,1.3-1.5,2.7-1.8,4.2h18.7
			C1033.4,172.3,1032.8,170.9,1031.9,169.7z"/>
		<path class="st92" d="M199.6,229.7h9v55.9h-9V229.7z"/>
		<path class="st92" d="M217.1,233.4h9l-5.3,19.5h-6L217.1,233.4z"/>
		<path class="st92" d="M268.2,285.7h-9v-4.8c-1.3,1.8-2.8,3.2-4.7,4.2c-1.9,1-3.9,1.5-6.2,1.5c-3.6,0-6.8-0.9-9.8-2.6
			c-3-1.8-5.4-4.1-7.1-7.1c-1.8-3-2.6-6.3-2.6-9.8c0-3.6,0.9-6.9,2.6-9.9c1.8-3,4.1-5.4,7.1-7.2c3-1.8,6.3-2.6,9.8-2.6
			c2.3,0,4.4,0.5,6.3,1.5c1.8,1,3.4,2.4,4.7,4.2v-4.7h9V285.7z M253.6,276.5c1.5-1,2.7-2.3,3.6-4c0.9-1.7,1.3-3.5,1.3-5.5
			c0-2-0.4-3.9-1.3-5.6c-0.9-1.7-2.1-3-3.6-4c-1.5-1-3.3-1.5-5.2-1.5c-1.9,0-3.7,0.5-5.3,1.5c-1.6,1-2.9,2.3-3.8,4
			c-0.9,1.7-1.4,3.5-1.4,5.6c0,2,0.5,3.8,1.4,5.5c1,1.7,2.2,3,3.9,4c1.6,1,3.4,1.5,5.3,1.5C250.4,278,252.1,277.5,253.6,276.5z"/>
		<path class="st92" d="M297.8,249v9h-10.2v27.7h-9V258h-4.1v-9h4.1v-8.5c0-2.1,0.5-4.1,1.6-5.8c1.1-1.8,2.5-3.2,4.3-4.2
			c1.8-1,3.7-1.6,5.9-1.6c1.6,0,3.2,0.3,4.7,1c1.5,0.7,2.8,1.6,4,2.9l-6.4,6.3c-0.2-0.4-0.5-0.7-1-0.9c-0.4-0.2-0.9-0.3-1.3-0.3
			c-0.7,0-1.4,0.3-1.9,0.8s-0.8,1.2-0.8,1.9v8.5H297.8z"/>
		<path class="st92" d="M325.3,249v9h-10.2v27.7h-9V258h-4.1v-9h4.1v-8.5c0-2.1,0.5-4.1,1.6-5.8c1.1-1.8,2.5-3.2,4.3-4.2
			c1.8-1,3.7-1.6,5.9-1.6c1.6,0,3.2,0.3,4.7,1c1.5,0.7,2.8,1.6,4,2.9l-6.4,6.3c-0.2-0.4-0.5-0.7-1-0.9c-0.4-0.2-0.9-0.3-1.3-0.3
			c-0.7,0-1.4,0.3-1.9,0.8c-0.5,0.5-0.8,1.2-0.8,1.9v8.5H325.3z"/>
		<path class="st92" d="M333.6,243.1c-0.7-0.4-1.3-1-1.7-1.7c-0.4-0.7-0.6-1.5-0.6-2.3s0.2-1.6,0.6-2.3c0.4-0.7,1-1.3,1.7-1.7
			s1.5-0.6,2.3-0.6c0.8,0,1.6,0.2,2.3,0.6s1.3,1,1.7,1.7c0.4,0.7,0.6,1.5,0.6,2.3c0,1.3-0.4,2.4-1.3,3.3c-0.9,0.9-2,1.4-3.3,1.4
			C335,243.7,334.3,243.5,333.6,243.1z M340.3,248.4v37.3h-9v-37.3H340.3z"/>
		<path class="st92" d="M386.8,285.7h-9v-4.8c-1.3,1.8-2.8,3.2-4.7,4.2c-1.8,1-3.9,1.5-6.3,1.5c-3.6,0-6.8-0.9-9.8-2.6
			c-3-1.8-5.4-4.1-7.1-7.1c-1.8-3-2.6-6.3-2.6-9.8s0.9-6.8,2.6-9.9c1.8-3,4.1-5.4,7.1-7.2c3-1.8,6.3-2.6,9.8-2.6
			c2.3,0,4.4,0.5,6.3,1.5c1.8,1,3.4,2.4,4.7,4.2v-23.4h9V285.7z M372.1,276.6c1.5-1,2.7-2.3,3.6-4c0.9-1.7,1.3-3.5,1.3-5.5
			c0-2-0.4-3.9-1.3-5.6c-0.9-1.7-2.1-3-3.6-4c-1.5-1-3.3-1.5-5.2-1.5c-1.9,0-3.6,0.5-5.3,1.5c-1.6,1-2.9,2.3-3.9,4s-1.4,3.5-1.4,5.5
			c0,2,0.5,3.8,1.4,5.5c1,1.7,2.2,3,3.9,4c1.6,1,3.4,1.5,5.3,1.5C368.9,278,370.6,277.5,372.1,276.6z"/>
		<path class="st92" d="M433.1,285.7h-9v-4.8c-1.3,1.8-2.8,3.2-4.7,4.2c-1.9,1-3.9,1.5-6.2,1.5c-3.6,0-6.8-0.9-9.8-2.6
			c-3-1.8-5.4-4.1-7.1-7.1c-1.8-3-2.6-6.3-2.6-9.8c0-3.6,0.9-6.9,2.6-9.9c1.8-3,4.1-5.4,7.1-7.2c3-1.8,6.3-2.6,9.8-2.6
			c2.3,0,4.4,0.5,6.3,1.5c1.8,1,3.4,2.4,4.7,4.2v-4.7h9V285.7z M418.5,276.5c1.5-1,2.7-2.3,3.6-4c0.9-1.7,1.3-3.5,1.3-5.5
			c0-2-0.4-3.9-1.3-5.6c-0.9-1.7-2.1-3-3.6-4c-1.5-1-3.3-1.5-5.2-1.5c-1.9,0-3.7,0.5-5.3,1.5c-1.6,1-2.9,2.3-3.8,4
			c-0.9,1.7-1.4,3.5-1.4,5.6c0,2,0.5,3.8,1.4,5.5c1,1.7,2.2,3,3.9,4c1.6,1,3.4,1.5,5.3,1.5C415.2,278,416.9,277.5,418.5,276.5z"/>
		<path class="st92" d="M471.7,250c3,1.8,5.4,4.1,7.2,7.1c1.8,3,2.6,6.3,2.6,9.8c0,3.6-0.9,6.9-2.6,9.9c-1.8,3-4.2,5.4-7.2,7.2
			c-3,1.8-6.3,2.6-9.9,2.6c-2.3,0-4.4-0.5-6.2-1.5c-1.8-1-3.4-2.4-4.7-4.2v4.8h-9v-56h9v23.4c1.3-1.8,2.8-3.2,4.7-4.2
			c1.8-1,3.9-1.5,6.2-1.5C465.4,247.3,468.7,248.2,471.7,250z M467.1,276.5c1.6-1,2.9-2.3,3.9-4c0.9-1.7,1.4-3.5,1.4-5.5
			c0-2-0.5-3.8-1.4-5.5c-1-1.7-2.3-3-3.9-4c-1.6-1-3.4-1.5-5.3-1.5c-1.9,0-3.6,0.5-5.1,1.5c-1.5,1-2.7,2.3-3.6,4
			c-0.9,1.7-1.3,3.5-1.3,5.5c0,2,0.4,3.9,1.3,5.5c0.9,1.7,2,3,3.6,4c1.5,1,3.2,1.5,5.1,1.5C463.7,278,465.4,277.5,467.1,276.5z"/>
		<path class="st92" d="M488.9,243.1c-0.7-0.4-1.3-1-1.7-1.7c-0.4-0.7-0.6-1.5-0.6-2.3s0.2-1.6,0.6-2.3c0.4-0.7,1-1.3,1.7-1.7
			s1.5-0.6,2.3-0.6c0.8,0,1.6,0.2,2.3,0.6s1.3,1,1.7,1.7c0.4,0.7,0.6,1.5,0.6,2.3c0,1.3-0.4,2.4-1.3,3.3c-0.9,0.9-2,1.4-3.3,1.4
			C490.4,243.7,489.6,243.5,488.9,243.1z M495.6,248.4v37.3h-9v-37.3H495.6z"/>
		<path class="st92" d="M505.1,229.7h9v55.9h-9V229.7z"/>
		<path class="st92" d="M525.6,243.1c-0.7-0.4-1.3-1-1.7-1.7c-0.4-0.7-0.6-1.5-0.6-2.3s0.2-1.6,0.6-2.3c0.4-0.7,1-1.3,1.7-1.7
			s1.5-0.6,2.3-0.6c0.8,0,1.6,0.2,2.3,0.6s1.3,1,1.7,1.7c0.4,0.7,0.6,1.5,0.6,2.3c0,1.3-0.4,2.4-1.3,3.3c-0.9,0.9-2,1.4-3.3,1.4
			C527.1,243.7,526.3,243.5,525.6,243.1z M532.3,248.4v37.3h-9v-37.3H532.3z"/>
		<path class="st92" d="M554.2,258l0,27.7h-9l0-27.7h-5.6v-9h5.6l0-12.4h9l0,12.4h7.3v9H554.2z"/>
		<path class="st92" d="M604.7,285.7h-9v-4.8c-1.3,1.8-2.8,3.2-4.7,4.2c-1.9,1-3.9,1.5-6.2,1.5c-3.6,0-6.8-0.9-9.8-2.6
			c-3-1.8-5.4-4.1-7.1-7.1c-1.8-3-2.6-6.3-2.6-9.8c0-3.6,0.9-6.9,2.6-9.9c1.8-3,4.1-5.4,7.1-7.2c3-1.8,6.3-2.6,9.8-2.6
			c2.3,0,4.4,0.5,6.3,1.5c1.8,1,3.4,2.4,4.7,4.2v-4.7h9V285.7z M590.1,276.5c1.5-1,2.7-2.3,3.6-4c0.9-1.7,1.3-3.5,1.3-5.5
			c0-2-0.4-3.9-1.3-5.6c-0.9-1.7-2.1-3-3.6-4c-1.5-1-3.3-1.5-5.2-1.5c-1.9,0-3.7,0.5-5.3,1.5c-1.6,1-2.9,2.3-3.8,4
			c-0.9,1.7-1.4,3.5-1.4,5.6c0,2,0.5,3.8,1.4,5.5c1,1.7,2.2,3,3.9,4c1.6,1,3.4,1.5,5.3,1.5C586.9,278,588.6,277.5,590.1,276.5z
			 M583.5,232.5l3,10.7h-4.7l-7.3-10.7H583.5z"/>
		<path class="st92" d="M668.9,285.7h-9v-4.8c-1.3,1.8-2.8,3.2-4.7,4.2c-1.8,1-3.9,1.5-6.3,1.5c-3.6,0-6.8-0.9-9.8-2.6
			c-3-1.8-5.4-4.1-7.1-7.1c-1.8-3-2.6-6.3-2.6-9.8s0.9-6.8,2.6-9.9c1.8-3,4.1-5.4,7.1-7.2c3-1.8,6.3-2.6,9.8-2.6
			c2.3,0,4.4,0.5,6.3,1.5c1.8,1,3.4,2.4,4.7,4.2v-23.4h9V285.7z M654.3,276.6c1.5-1,2.7-2.3,3.6-4c0.9-1.7,1.3-3.5,1.3-5.5
			c0-2-0.4-3.9-1.3-5.6c-0.9-1.7-2.1-3-3.6-4c-1.5-1-3.3-1.5-5.2-1.5c-1.9,0-3.6,0.5-5.3,1.5c-1.6,1-2.9,2.3-3.9,4s-1.4,3.5-1.4,5.5
			c0,2,0.5,3.8,1.4,5.5c1,1.7,2.2,3,3.9,4c1.6,1,3.4,1.5,5.3,1.5C651,278,652.7,277.5,654.3,276.6z"/>
		<path class="st92" d="M684.6,284c-2.8-1.8-5.1-4.2-6.8-7.2s-2.5-6.3-2.5-9.9c0-3.6,0.8-6.8,2.5-9.9s3.9-5.4,6.8-7.2
			c2.8-1.8,6-2.6,9.3-2.6c3.5,0,6.6,0.9,9.4,2.7c2.8,1.8,5.1,4.2,6.7,7.2c1.6,3,2.4,6.3,2.4,9.9c0,1.1-0.1,2.1-0.2,2.9h-27.4
			c0.5,2.2,1.6,4.1,3.2,5.5c1.6,1.4,3.6,2.1,6,2.1c1.6,0,3-0.4,4.3-1.2s2.4-1.9,3.3-3.3l9.1,2.1c-1,2.2-2.4,4.2-4.1,5.9
			c-1.7,1.7-3.7,3-5.9,4s-4.5,1.4-7,1.4C690.6,286.7,687.4,285.8,684.6,284z M701.5,259.2c-0.9-1.3-2-2.2-3.3-3
			c-1.3-0.7-2.7-1.1-4.3-1.1c-1.5,0-2.9,0.4-4.2,1.1c-1.3,0.7-2.4,1.7-3.3,2.9c-0.9,1.3-1.5,2.7-1.8,4.2h18.7
			C703,261.9,702.4,260.5,701.5,259.2z"/>
		<path class="st92" d="M718.5,229.7h9v55.9h-9V229.7z"/>
		<path class="st92" d="M737,229.7h9v55.9h-9V229.7z"/>
		<path class="st92" d="M792.8,285.7h-9v-4.8c-1.3,1.8-2.8,3.2-4.7,4.2c-1.9,1-3.9,1.5-6.2,1.5c-3.6,0-6.8-0.9-9.8-2.6
			c-3-1.8-5.4-4.1-7.1-7.1c-1.8-3-2.6-6.3-2.6-9.8c0-3.6,0.9-6.9,2.6-9.9c1.8-3,4.1-5.4,7.1-7.2c3-1.8,6.3-2.6,9.8-2.6
			c2.3,0,4.4,0.5,6.3,1.5c1.8,1,3.4,2.4,4.7,4.2v-4.7h9V285.7z M778.2,276.5c1.5-1,2.7-2.3,3.6-4c0.9-1.7,1.3-3.5,1.3-5.5
			c0-2-0.4-3.9-1.3-5.6c-0.9-1.7-2.1-3-3.6-4c-1.5-1-3.3-1.5-5.2-1.5c-1.9,0-3.7,0.5-5.3,1.5c-1.6,1-2.9,2.3-3.8,4
			c-0.9,1.7-1.4,3.5-1.4,5.6c0,2,0.5,3.8,1.4,5.5c1,1.7,2.2,3,3.9,4c1.6,1,3.4,1.5,5.3,1.5C774.9,278,776.6,277.5,778.2,276.5z"/>
		<path class="st92" d="M846.2,285.7v-19.2c0-1.9-0.4-3.7-1.2-5.3c-0.8-1.6-1.9-2.9-3.4-3.8c-1.4-0.9-3.1-1.4-4.9-1.4
			c-1.8,0-3.3,0.5-4.7,1.4c-1.3,0.9-2.4,2.2-3.1,3.8c-0.7,1.6-1.1,3.4-1.1,5.3v19.2h-9v-37.3h9v4.5c1.3-1.7,2.8-3.1,4.6-4.1
			s3.7-1.5,5.8-1.5c3.3,0,6.3,0.9,8.8,2.6c2.5,1.7,4.5,4,5.9,6.9c1.4,2.9,2.1,6.1,2.2,9.6v19.3H846.2z"/>
		<path class="st92" d="M869.1,284c-2.8-1.8-5.1-4.1-6.8-7.1c-1.7-3-2.5-6.3-2.5-9.8c0-3.6,0.8-6.9,2.5-9.9s3.9-5.4,6.8-7.2
			c2.8-1.8,6-2.6,9.3-2.6s6.5,0.9,9.3,2.6c2.8,1.8,5.1,4.2,6.8,7.2c1.7,3,2.5,6.3,2.5,9.9c0,3.6-0.8,6.8-2.5,9.8
			c-1.7,3-3.9,5.4-6.8,7.1c-2.8,1.8-6,2.6-9.3,2.6S872,285.8,869.1,284z M883.4,276.2c1.5-1,2.7-2.3,3.5-3.9
			c0.9-1.6,1.3-3.4,1.3-5.3c0-1.9-0.4-3.7-1.3-5.4c-0.9-1.6-2.1-2.9-3.5-3.9c-1.5-1-3.1-1.5-4.9-1.5c-1.8,0-3.4,0.5-4.9,1.5
			c-1.5,1-2.7,2.3-3.5,3.9c-0.9,1.6-1.3,3.4-1.3,5.3c0,2,0.4,3.8,1.3,5.4c0.9,1.6,2.1,2.9,3.5,3.9c1.5,0.9,3.1,1.4,4.8,1.4
			C880.3,277.7,881.9,277.2,883.4,276.2z"/>
		<path class="st92" d="M916.1,258l0,27.7h-9l0-27.7h-5.6v-9h5.6l0-12.4h9l0,12.4h7.3v9H916.1z"/>
		<path class="st92" d="M930.4,243.1c-0.7-0.4-1.3-1-1.7-1.7c-0.4-0.7-0.6-1.5-0.6-2.3s0.2-1.6,0.6-2.3c0.4-0.7,1-1.3,1.7-1.7
			s1.5-0.6,2.3-0.6c0.8,0,1.6,0.2,2.3,0.6s1.3,1,1.7,1.7c0.4,0.7,0.6,1.5,0.6,2.3c0,1.3-0.4,2.4-1.3,3.3c-0.9,0.9-2,1.4-3.3,1.4
			C931.9,243.7,931.1,243.5,930.4,243.1z M937.1,248.4v37.3h-9v-37.3H937.1z"/>
		<path class="st92" d="M959,276.7h19v9h-31.9v-9l19-19.4h-19v-9H978v9L959,276.7z"/>
		<path class="st92" d="M989.1,243.1c-0.7-0.4-1.3-1-1.7-1.7c-0.4-0.7-0.6-1.5-0.6-2.3s0.2-1.6,0.6-2.3c0.4-0.7,1-1.3,1.7-1.7
			s1.5-0.6,2.3-0.6c0.8,0,1.6,0.2,2.3,0.6s1.3,1,1.7,1.7c0.4,0.7,0.6,1.5,0.6,2.3c0,1.3-0.4,2.4-1.3,3.3c-0.9,0.9-2,1.4-3.3,1.4
			C990.6,243.7,989.8,243.5,989.1,243.1z M995.8,248.4v37.3h-9v-37.3H995.8z"/>
		<path class="st92" d="M1042.7,285.7h-9v-4.8c-1.3,1.8-2.8,3.2-4.7,4.2c-1.9,1-3.9,1.5-6.2,1.5c-3.6,0-6.8-0.9-9.8-2.6
			c-3-1.8-5.4-4.1-7.1-7.1c-1.8-3-2.6-6.3-2.6-9.8c0-3.6,0.9-6.9,2.6-9.9c1.8-3,4.1-5.4,7.1-7.2c3-1.8,6.3-2.6,9.8-2.6
			c2.3,0,4.4,0.5,6.3,1.5c1.8,1,3.4,2.4,4.7,4.2v-4.7h9V285.7z M1028,276.5c1.5-1,2.7-2.3,3.6-4c0.9-1.7,1.3-3.5,1.3-5.5
			c0-2-0.4-3.9-1.3-5.6c-0.9-1.7-2.1-3-3.6-4c-1.5-1-3.3-1.5-5.2-1.5c-1.9,0-3.7,0.5-5.3,1.5c-1.6,1-2.9,2.3-3.8,4
			c-0.9,1.7-1.4,3.5-1.4,5.6c0,2,0.5,3.8,1.4,5.5c1,1.7,2.2,3,3.9,4c1.6,1,3.4,1.5,5.3,1.5C1024.8,278,1026.5,277.5,1028,276.5z"/>
	</g>
</g>
</svg>
