<?xml version="1.0" encoding="utf-8"?>
<!-- Generator: Adobe Illustrator 25.0.1, SVG Export Plug-In . SVG Version: 6.00 Build 0)  -->
<svg version="1.1" id="Livello_1" xmlns="http://www.w3.org/2000/svg" xmlns:xlink="http://www.w3.org/1999/xlink" x="0px" y="0px"
	 viewBox="0 0 1208 1501" style="enable-background:new 0 0 1208 1501;" xml:space="preserve">
<style type="text/css">
	.st0{opacity:0.26;fill:url(#SVGID_1_);}
	.st1{fill:#BFC8D6;}
	.st2{fill:#FFFFFF;}
	.st3{fill:url(#SVGID_2_);}
	.st4{opacity:0.8;}
	.st5{fill:url(#SVGID_3_);}
	.st6{fill:url(#SVGID_4_);}
	.st7{fill:url(#SVGID_5_);}
	.st8{fill:url(#SVGID_6_);}
	.st9{fill:url(#SVGID_7_);}
	.st10{fill:url(#SVGID_8_);}
	.st11{fill:url(#SVGID_9_);}
	.st12{fill:url(#SVGID_10_);}
	.st13{opacity:0.3;fill:url(#SVGID_11_);}
	.st14{fill:url(#SVGID_12_);}
	.st15{opacity:0.3;fill:url(#SVGID_13_);}
	.st16{opacity:0.9;fill:#D8DEE8;}
	.st17{fill:url(#SVGID_14_);}
	.st18{opacity:0.3;fill:url(#SVGID_15_);}
	.st19{fill:url(#SVGID_16_);}
	.st20{fill:url(#SVGID_17_);}
	.st21{opacity:0.3;fill:url(#SVGID_18_);}
	.st22{fill:url(#SVGID_19_);}
	.st23{fill:url(#SVGID_20_);}
	.st24{fill:url(#SVGID_21_);}
	.st25{fill:url(#SVGID_22_);}
	.st26{fill:url(#SVGID_23_);}
	.st27{opacity:0.3;fill:url(#SVGID_24_);}
	.st28{fill:url(#SVGID_25_);}
	.st29{fill:url(#SVGID_26_);}
	.st30{fill:url(#SVGID_27_);}
	.st31{fill:url(#SVGID_28_);}
	.st32{fill:url(#SVGID_29_);}
	.st33{fill:url(#SVGID_30_);}
	.st34{fill:url(#SVGID_31_);}
	.st35{fill:url(#SVGID_32_);}
	.st36{opacity:0.3;fill:url(#SVGID_33_);}
	.st37{fill:url(#SVGID_34_);}
	.st38{fill:url(#SVGID_35_);}
	.st39{opacity:0.26;fill:url(#SVGID_36_);}
	.st40{fill:url(#SVGID_37_);}
	.st41{fill:url(#SVGID_38_);}
	.st42{fill:url(#SVGID_39_);}
	.st43{fill:url(#SVGID_40_);}
	.st44{fill:url(#SVGID_41_);}
	.st45{fill:url(#SVGID_42_);}
	.st46{fill:url(#SVGID_43_);}
	.st47{fill:url(#SVGID_44_);}
	.st48{fill:url(#SVGID_45_);}
	.st49{fill:url(#SVGID_46_);}
	.st50{fill:url(#SVGID_47_);}
	.st51{fill:url(#SVGID_48_);}
	.st52{fill:url(#SVGID_49_);}
	.st53{fill:url(#SVGID_50_);}
	.st54{fill:url(#SVGID_51_);}
	.st55{fill:url(#SVGID_52_);}
	.st56{fill:url(#SVGID_53_);}
	.st57{fill:url(#SVGID_54_);}
	.st58{fill:url(#SVGID_55_);}
	.st59{fill:url(#SVGID_56_);}
	.st60{fill:url(#SVGID_57_);}
	.st61{fill:url(#SVGID_58_);}
	.st62{fill:url(#SVGID_59_);}
	.st63{fill:url(#SVGID_60_);}
	.st64{fill:url(#SVGID_61_);}
	.st65{fill:url(#SVGID_62_);}
	.st66{fill:url(#SVGID_63_);}
	.st67{fill:url(#SVGID_64_);}
	.st68{fill:url(#SVGID_65_);}
	.st69{fill:url(#SVGID_66_);}
	.st70{fill:url(#SVGID_67_);}
	.st71{fill:url(#SVGID_68_);}
	.st72{fill:url(#SVGID_69_);}
	.st73{fill:url(#SVGID_70_);}
	.st74{fill:url(#SVGID_71_);}
	.st75{fill:url(#SVGID_72_);}
	.st76{opacity:0.6;fill:#FFFFFF;}
	.st77{opacity:0.26;fill:url(#SVGID_73_);}
	.st78{fill:url(#SVGID_74_);}
	.st79{opacity:0.3;fill:url(#SVGID_75_);}
	.st80{fill:url(#SVGID_76_);}
	.st81{fill:url(#SVGID_77_);}
	.st82{opacity:0.3;fill:url(#SVGID_78_);}
	.st83{fill:url(#SVGID_79_);}
	.st84{fill:url(#SVGID_80_);}
	.st85{clip-path:url(#SVGID_82_);fill:url(#SVGID_83_);}
	.st86{opacity:0.3;clip-path:url(#SVGID_82_);fill:url(#SVGID_84_);}
	.st87{fill:url(#SVGID_85_);}
	.st88{fill:url(#SVGID_86_);}
	.st89{fill:url(#SVGID_87_);}
	.st90{fill:url(#SVGID_88_);}
	.st91{fill:url(#SVGID_89_);}
	.st92{fill:url(#SVGID_90_);}
	.st93{fill:url(#SVGID_91_);}
	.st94{fill:url(#SVGID_92_);}
	.st95{fill:url(#SVGID_93_);}
	.st96{fill:url(#SVGID_94_);}
	.st97{fill:url(#SVGID_95_);}
	.st98{fill:url(#SVGID_96_);}
	.st99{fill:#26264F;}
	.st100{fill:url(#SVGID_97_);}
	.st101{fill:url(#SVGID_98_);}
	.st102{fill:url(#SVGID_99_);}
	.st103{fill:url(#SVGID_100_);}
	.st104{fill:url(#SVGID_101_);}
	.st105{opacity:0.3;fill:url(#SVGID_102_);}
	.st106{fill:url(#SVGID_103_);}
	.st107{fill:url(#SVGID_104_);}
	.st108{fill:url(#SVGID_105_);}
	.st109{fill:url(#SVGID_106_);}
	.st110{fill:url(#SVGID_107_);}
	.st111{fill:url(#SVGID_108_);}
	.st112{fill:url(#SVGID_109_);}
	.st113{fill:url(#SVGID_110_);}
	.st114{fill:url(#SVGID_111_);}
	.st115{opacity:0.3;fill:url(#SVGID_112_);}
	.st116{fill:url(#SVGID_113_);}
	.st117{fill:url(#SVGID_114_);}
	.st118{fill:url(#SVGID_115_);}
	.st119{fill:url(#SVGID_116_);}
	.st120{fill:url(#SVGID_117_);}
	.st121{fill:url(#SVGID_118_);}
	.st122{fill:url(#SVGID_119_);}
	.st123{fill:url(#SVGID_120_);}
	.st124{fill:url(#SVGID_121_);}
	.st125{opacity:0.26;fill:url(#SVGID_122_);}
	.st126{fill:url(#SVGID_123_);}
	.st127{fill:url(#SVGID_124_);}
	.st128{fill:url(#SVGID_125_);}
	.st129{fill:url(#SVGID_126_);}
	.st130{fill:url(#SVGID_127_);}
	.st131{fill:url(#SVGID_128_);}
	.st132{fill:url(#SVGID_129_);}
	.st133{fill:url(#SVGID_130_);}
	.st134{fill:url(#SVGID_131_);}
	.st135{fill:#ED985F;}
	.st136{fill:url(#SVGID_132_);}
	.st137{fill:#FFB27D;}
	.st138{fill:url(#SVGID_133_);}
	.st139{fill:url(#SVGID_134_);}
	.st140{fill:url(#SVGID_135_);}
	.st141{fill:url(#SVGID_136_);}
	.st142{fill:url(#SVGID_137_);}
	.st143{fill:url(#SVGID_138_);}
	.st144{fill:url(#SVGID_139_);}
	.st145{fill:url(#SVGID_140_);}
	.st146{fill:url(#SVGID_141_);}
	.st147{fill:url(#SVGID_142_);}
	.st148{fill:url(#SVGID_143_);}
	.st149{fill:url(#SVGID_144_);}
	.st150{fill:url(#SVGID_145_);}
	.st151{fill:url(#SVGID_146_);}
	.st152{fill:url(#SVGID_147_);}
	.st153{fill:url(#SVGID_148_);}
	.st154{fill:url(#SVGID_149_);}
	.st155{fill:url(#SVGID_150_);}
	.st156{fill:url(#SVGID_151_);}
	.st157{fill:url(#SVGID_152_);}
	.st158{fill:url(#SVGID_153_);}
	.st159{fill:#2E3552;}
</style>
<g>
	<linearGradient id="SVGID_1_" gradientUnits="userSpaceOnUse" x1="1159.2195" y1="1164.34" x2="465.7957" y2="557.5947">
		<stop  offset="5.618000e-03" style="stop-color:#F17C54"/>
		<stop  offset="0.8017" style="stop-color:#F7B659"/>
		<stop  offset="1" style="stop-color:#F9C55A"/>
	</linearGradient>
	<path class="st0" d="M1041.4,849.2c-89.6,211-328.3,329.2-535.4,297.3c-33.7-5.2-126-20.6-207.8-93.6
		c-157.4-140.4-191.1-418.3-64.1-614.2c92.4-142.6,258.1-223.4,415.5-219.3c33.9,0.9,163.8,6.2,278,100.4
		c16.8,13.8,53.8,46.7,87.1,98.8C1093,541.1,1099.8,711.7,1041.4,849.2z"/>
	<g>
		<g>
			<linearGradient id="SVGID_2_" gradientUnits="userSpaceOnUse" x1="191.3313" y1="482.2063" x2="371.5056" y2="482.2063">
				<stop  offset="0.1866" style="stop-color:#F17C54"/>
				<stop  offset="0.3257" style="stop-color:#F7B659"/>
				<stop  offset="0.3489" style="stop-color:#F8C05A"/>
				<stop  offset="1" style="stop-color:#F9C55A"/>
			</linearGradient>
			<path class="st3" d="M201.6,224.4c-0.9-3.8,4.4-6.3,7.6-3.6c32.9,26.7,111.9,106.5,92.2,246.1c-24.7,175.1,17.5,239,70.1,277.9
				c0,0-72.2-18.3-117.6-83.1C142.4,502.4,217.3,291.2,201.6,224.4z"/>
		</g>
		<path class="st2" d="M226.6,279.1c4.1,19.5,7.8,39,10.6,58.7c3,19.6,5.2,39.3,6.8,59c1.5,19.7,2.5,39.5,2.6,59.2
			c0.2,19.8-0.7,39.5-1.6,59.3c-0.8,19.8-1.7,39.8-0.2,59.8c1.4,20.1,5.6,40.3,14,59.2c2.1,4.7,4.3,9.4,6.8,14
			c2.4,4.6,5,9.1,7.8,13.6c5.5,8.9,11.7,17.5,18.7,25.7c13.9,16.3,30.7,30.7,49.1,43c1.9,1.3,4.7,1,6.2-0.7c1.5-1.6,1.1-4-0.7-5.3
			l0,0c-4.4-3.1-8.7-6.2-12.9-9.5c-2.1-1.6-4.1-3.3-6.2-5c-2-1.7-4.1-3.4-6-5.2c-7.8-7-15.1-14.4-21.7-22.3
			c-13.3-15.7-23.9-33.1-31.9-51.2c-3.9-9.1-7-18.4-9.3-27.9c-2.3-9.5-3.7-19.2-4.5-28.9c-1.6-19.5-0.9-39.3-0.3-59.1
			c0.6-19.8,1-39.7,0.5-59.6c-0.2-9.9-0.7-19.9-1.3-29.8c-0.3-5-0.7-9.9-1.1-14.9c-0.4-5-0.9-9.9-1.4-14.9
			c-2.1-19.8-5-39.5-8.5-59.2c-3.7-19.6-7.9-39.1-13-58.5c-0.1-0.6-0.8-0.9-1.4-0.8C226.9,278,226.5,278.5,226.6,279.1z"/>
	</g>
	<g>
		<g>
			<g>
				<linearGradient id="SVGID_3_" gradientUnits="userSpaceOnUse" x1="234.2839" y1="426.3194" x2="364.8299" y2="426.3194">
					<stop  offset="0.1866" style="stop-color:#F17C54"/>
					<stop  offset="0.3257" style="stop-color:#F7B659"/>
					<stop  offset="0.3489" style="stop-color:#F8C05A"/>
					<stop  offset="1" style="stop-color:#F9C55A"/>
				</linearGradient>
				<path class="st5" d="M269.2,615.4c-4,4.3-11.1,3-13.5-2.3c-13.4-29.5-43.7-116.5,6.3-216.7c42.2-84.6,57.1-134.5,62.3-157.6
					c1.1-4.9,7.8-5.5,9.8-1C356.4,288.4,415.3,460.3,269.2,615.4z"/>
			</g>
			<path class="st2" d="M261.9,612.2c-0.1,0-0.3,0-0.4,0c-1.3,0-2.3-1.1-2.3-2.3c0-1.4,2.8-145,56.2-265.3c0.5-1.2,1.9-1.7,3-1.2
				c1.2,0.5,1.7,1.9,1.2,3c-53,119.4-55.8,262.1-55.8,263.5C263.8,611.1,262.9,612,261.9,612.2z"/>
		</g>
	</g>
	<g>
		
			<linearGradient id="SVGID_4_" gradientUnits="userSpaceOnUse" x1="4312.2769" y1="2306.1687" x2="4224.397" y2="2414.2046" gradientTransform="matrix(-0.6935 0.7205 0.7205 0.6935 2174.6987 -3897.5803)">
			<stop  offset="0" style="stop-color:#2B3582"/>
			<stop  offset="1" style="stop-color:#150E42"/>
		</linearGradient>
		<path class="st6" d="M875.3,820.3c-0.5-1.1,0.6-2.3,1.7-1.9c4.3,1.7,12.2,3.9,18.1,0.5c0.3-0.2,0.6-0.3,0.9-0.5
			c-0.5-0.7-1.3-1.3-2.5-1.4c-3.5-0.2-4.7-5.4-4.7-5.4s3,1.9,6.4,1.1c2.9-0.7,7,1,8.9,4.3c8.5,10.5,19.3,24.9,41.1,16.7
			c21.8-8.2,9.2-52.1,9.2-52.1l26.6,37c0,0-0.1,26.3-32.5,32.9c-32.3,6.6-48.2-25.6-48.2-25.6S883,836.6,875.3,820.3z"/>
		
			<linearGradient id="SVGID_5_" gradientUnits="userSpaceOnUse" x1="1362.7662" y1="1171.1998" x2="1543.3407" y2="1163.1581" gradientTransform="matrix(0.9998 1.890000e-02 -1.890000e-02 0.9998 -1610.2209 -13.4396)">
			<stop  offset="0" style="stop-color:#2B3582"/>
			<stop  offset="1" style="stop-color:#150E42"/>
		</linearGradient>
		<path class="st7" d="M1066.1,1142.6l1.2,11.7c0.2,2.2,1.9,4,4.1,4.3c3.7,0.5,9.7,1,15.6,0.5c2.6-0.2,4.3-2.8,3.6-5.3
			c-1.3-4.5-3.8-11.3-7.5-15.4l-12.9-0.2C1067.8,1138.2,1065.9,1140.3,1066.1,1142.6z"/>
		
			<linearGradient id="SVGID_6_" gradientUnits="userSpaceOnUse" x1="-1427.8273" y1="1209.6244" x2="-1391.9758" y2="790.6111" gradientTransform="matrix(0.9998 1.890000e-02 -1.890000e-02 0.9998 2409.2729 62.4575)">
			<stop  offset="0" style="stop-color:#F9B776"/>
			<stop  offset="1" style="stop-color:#F47960"/>
		</linearGradient>
		<path class="st8" d="M967.5,1004.3l-2.4,12.8c0,0,5.9,74.1,6.6,103.7c0.1,4.6-1.2,9.2-3.7,13.1l-13.1,20.4l32.6-18.4l0.7-3.9
			l-5.1-7.4l8.5-82.7c0.5-4.9-0.4-9.8-2.6-14.1l-6.4-12.7L967.5,1004.3z"/>
		
			<linearGradient id="SVGID_7_" gradientUnits="userSpaceOnUse" x1="1362.3851" y1="1162.6515" x2="1542.9594" y2="1154.6097" gradientTransform="matrix(0.9998 1.890000e-02 -1.890000e-02 0.9998 -1610.2209 -13.4396)">
			<stop  offset="0" style="stop-color:#2B3582"/>
			<stop  offset="1" style="stop-color:#150E42"/>
		</linearGradient>
		<path class="st9" d="M952.8,1157.2l10.3,0.2c1.9,0,3.8-0.8,5-2.3c3.3-4.1,10.1-12.1,13.3-12.3c4.3-0.2,3.5,15,3.5,15l2.4,0
			l3.4-18.9c0.9-4.7-1.4-9.5-5.7-11.8l0,0c0,0-1.1,7.2-6.5,10.3c-5.4,3.1-21.9,14.3-21.9,14.3s-2-0.3-4.2,0
			C949.1,1152.4,949.5,1157.2,952.8,1157.2z"/>
		
			<linearGradient id="SVGID_8_" gradientUnits="userSpaceOnUse" x1="-1355.7096" y1="1215.8557" x2="-1319.849" y2="796.7358" gradientTransform="matrix(0.9998 1.890000e-02 -1.890000e-02 0.9998 2409.2729 62.4575)">
			<stop  offset="0" style="stop-color:#F9B776"/>
			<stop  offset="1" style="stop-color:#F47960"/>
		</linearGradient>
		<path class="st10" d="M1011.6,1011.2c0,0,41.2,82,47.7,100.6c6.5,18.7,8.5,34.2,8.6,35.6c0.1,2.3,2.9,4.5,10.7,4.7
			c4,0.1,6.1-1.5,7.1-3.1c0.9-1.3,0.9-3,0.3-4.4c-2.4-5.1-9.9-21.2-12.7-28.5c-3.3-8.7-10-48.2-13.9-61.9
			c-3.8-13.7-8.2-28.6-25.8-42.6C1033.6,1011.6,1021.6,999.4,1011.6,1011.2z"/>
		<linearGradient id="SVGID_9_" gradientUnits="userSpaceOnUse" x1="878.1651" y1="948.0209" x2="976.0902" y2="817.9641">
			<stop  offset="0" style="stop-color:#2B3582"/>
			<stop  offset="1" style="stop-color:#150E42"/>
		</linearGradient>
		<path class="st11" d="M986.6,875.4c-7.2-37.7,10.4-61.3,16.6-68.4c1.2-1.3,1-3.3-0.3-4.5c-13.2-11.7-32.7-18.9-41.9-21.8
			c-3.2-1-6.7-0.4-9.3,1.7c-8.4,6.7-26.1,22.7-23.5,36.2c1.8,9.3,17.1,52.6,19.9,60.7c0.3,0.9,1,1.6,1.8,1.9
			c4.3,1.7,18.6,5.9,34.9-2.4C986.2,878.3,986.9,876.8,986.6,875.4z"/>
		<linearGradient id="SVGID_10_" gradientUnits="userSpaceOnUse" x1="1042.0757" y1="842.9957" x2="994.6432" y2="940.9205">
			<stop  offset="0" style="stop-color:#2B3582"/>
			<stop  offset="1" style="stop-color:#150E42"/>
		</linearGradient>
		<path class="st12" d="M1011.1,901.4c-4.2-13.6-24-23.6-24-23.6c-20.6,11.8-38.4,3-38.4,3s-4.3,15.3-1.8,29.7
			c2.5,14.4,18.2,106.6,18.2,106.6c27.4,6.1,69.9-4.3,69.9-4.3C1018,981.4,1015.3,915,1011.1,901.4z"/>
		
			<linearGradient id="SVGID_11_" gradientUnits="userSpaceOnUse" x1="-1436.4314" y1="733.2402" x2="-1410.6779" y2="732.7534" gradientTransform="matrix(0.9998 1.890000e-02 -1.890000e-02 0.9998 2409.2729 62.4575)">
			<stop  offset="0" style="stop-color:#F9B776"/>
			<stop  offset="1" style="stop-color:#F47960"/>
		</linearGradient>
		<path style="fill:url(#SVGID_11_);" d="M976.7,748.8l8.2,40.5c0.8,3.6-2.4,2.9-6,2.2c-5.9-1.2-13.4-3.6-15.8-8.3
			c-0.2-0.5-0.4-1-0.4-1.5l-3.3-28c-0.3-2.2,1-4.4,3-5.2l7.5-3.2C972.7,744,976,745.7,976.7,748.8z"/>
		<path class="st2" d="M1061.4,824.6c0.1,0,0.1,0,0.2-0.1c3.2-4.6,4.9-9.5,5-14.1c0-5.4-2.4-10.5-6.3-13.2c-0.1-0.1-0.2,0-0.3,0.1
			s0,0.2,0.1,0.3c3.8,2.7,6.2,7.6,6.1,12.9c0,4.5-1.7,9.3-4.9,13.8c-0.1,0.1,0,0.2,0.1,0.3C1061.3,824.6,1061.3,824.6,1061.4,824.6z
			"/>
	</g>
	<g>
		
			<linearGradient id="SVGID_12_" gradientUnits="userSpaceOnUse" x1="-6241.0015" y1="1140.2201" x2="-6188.5708" y2="1140.2201" gradientTransform="matrix(1 0 0 1 6481.8125 0)">
			<stop  offset="0" style="stop-color:#09005D"/>
			<stop  offset="1" style="stop-color:#1A0F91"/>
		</linearGradient>
		<path class="st14" d="M291.8,1137.7c-9,0.8-24.6,2-36.9,2.6c-7.4,0.3-11.6-0.4-14.1-1.4c0,0.3,0,0.5,0,0.8
			c0.1,1.3,1.1,2.3,2.4,2.4c23.2,1.3,41.7,0.4,48.3,0c1.4-0.1,2.2-1.6,1.5-2.7C292.6,1138.8,292.2,1138.2,291.8,1137.7z"/>
		
			<linearGradient id="SVGID_13_" gradientUnits="userSpaceOnUse" x1="-6241.0044" y1="1129.9443" x2="-6190.0513" y2="1129.9443" gradientTransform="matrix(1 0 0 1 6481.8125 0)">
			<stop  offset="0" style="stop-color:#09005D"/>
			<stop  offset="1" style="stop-color:#1A0F91"/>
		</linearGradient>
		<path style="fill:url(#SVGID_13_);" d="M254.9,1140.3c12.3-0.5,27.9-1.8,36.9-2.6c-8.8-10.8-36.9-18.1-36.9-18.1H247
			c-5.4,7.8-6.2,15.3-6.2,19.3C243.3,1139.9,247.5,1140.6,254.9,1140.3z"/>
		
			<linearGradient id="SVGID_14_" gradientUnits="userSpaceOnUse" x1="-6236.1611" y1="1115.5979" x2="-6221.3921" y2="1115.5979" gradientTransform="matrix(1 0 0 1 6481.8125 0)">
			<stop  offset="0" style="stop-color:#F9B776"/>
			<stop  offset="1" style="stop-color:#F47960"/>
		</linearGradient>
		<path class="st17" d="M245.7,1106.6l0.7,14.7c0.1,1.6,1.3,2.9,2.9,3.1c1.6,0.2,3.7,0.3,5.9-0.5c1.4-0.5,2.4-1.6,2.7-3l2.6-14.3
			H245.7z"/>
		<g>
			
				<linearGradient id="SVGID_15_" gradientUnits="userSpaceOnUse" x1="-6334.5835" y1="1153.2213" x2="-6314.4912" y2="1153.2213" gradientTransform="matrix(1 0 0 1 6481.8125 0)">
				<stop  offset="0" style="stop-color:#09005D"/>
				<stop  offset="1" style="stop-color:#1A0F91"/>
			</linearGradient>
			<path style="fill:url(#SVGID_15_);" d="M153.8,1154.6c-3.9-0.7-5.7-3.3-6.4-6.1c0,0,0,0.1,0,0.1c-0.6,2.9,0.8,6,3.4,7.5
				c3.2,1.8,6.7,2.1,9.4,1.9c2.9-0.2,5.6-1.7,7.1-4.2l0,0C164.4,1155.5,160.3,1155.8,153.8,1154.6z"/>
			
				<linearGradient id="SVGID_16_" gradientUnits="userSpaceOnUse" x1="-6334.4375" y1="1133.2271" x2="-6304.9458" y2="1133.2271" gradientTransform="matrix(1 0 0 1 6481.8125 0)">
				<stop  offset="0" style="stop-color:#09005D"/>
				<stop  offset="1" style="stop-color:#1A0F91"/>
			</linearGradient>
			<path class="st19" d="M172.1,1111.1h-6.5c-9.9-0.3-16.2,26.8-18.2,37.3c0.7,2.8,2.5,5.4,6.4,6.1c6.5,1.2,10.6,0.9,13.5-0.9
				c5.4-9.1,8-22.5,9.3-30.3C178.1,1114.5,172.1,1111.1,172.1,1111.1z"/>
		</g>
		
			<linearGradient id="SVGID_17_" gradientUnits="userSpaceOnUse" x1="-6319.1084" y1="1107.8966" x2="-6301.458" y2="1107.8966" gradientTransform="matrix(1 0 0 1 6481.8125 0)">
			<stop  offset="0" style="stop-color:#F9B776"/>
			<stop  offset="1" style="stop-color:#F47960"/>
		</linearGradient>
		<path class="st20" d="M166.4,1097.5l-3.6,14.4c-0.4,1.8,0.4,3.6,2,4.4c2,1,4.9,2.1,7.5,1.8c1.2-0.1,2.3-1,2.7-2.2l5.3-15.2
			L166.4,1097.5z"/>
		
			<linearGradient id="SVGID_18_" gradientUnits="userSpaceOnUse" x1="-6203.5122" y1="961.9335" x2="-6354.2036" y2="1208.7806" gradientTransform="matrix(1 0 0 1 6481.8125 0)">
			<stop  offset="0" style="stop-color:#09005D"/>
			<stop  offset="1" style="stop-color:#1A0F91"/>
		</linearGradient>
		<path style="fill:url(#SVGID_18_);" d="M294,907.6c0,0-32.4,202.5-31.9,203.6c0,0-8.9,4.1-18.7,0.5c0,0,2.9-108.3,9.8-149.8
			c0,0-55.3,96.8-72.8,145c0,0-9.2-1.1-16.7-6.1c0,0,59.5-174.2,75.4-197.4L294,907.6z"/>
		<linearGradient id="SVGID_19_" gradientUnits="userSpaceOnUse" x1="199.8749" y1="906.7164" x2="300.8597" y2="787.3708">
			<stop  offset="0" style="stop-color:#09005D"/>
			<stop  offset="1" style="stop-color:#1A0F91"/>
		</linearGradient>
		<path class="st22" d="M305.9,767.6c-2.2-0.8-4.5-1.2-6.8-1.3c-12.6-0.7-46,4.2-81.8,10.3c-12.6,2.1-14.4,11.2-15.3,18.8
			c-2,17,8.6,21.3,23.1,23.4c8.7,23.6,12.8,58,13.7,73.2c0.3,5-0.6,10-2.6,14.6l-0.2,0.5c-0.4,1,0.2,2.1,1.2,2.4
			c23.6,5.3,48.1,3.9,55.5,3.3c1.3-0.1,2.4-1,2.7-2.3c11.5-48.3,11.5-81.3,8.7-102.1C348.4,833.8,329.6,775.8,305.9,767.6z"/>
		<linearGradient id="SVGID_20_" gradientUnits="userSpaceOnUse" x1="295.0838" y1="792.4561" x2="304.0245" y2="792.4561">
			<stop  offset="0" style="stop-color:#53D8FF"/>
			<stop  offset="1" style="stop-color:#3840F7"/>
		</linearGradient>
		<path class="st23" d="M303,806.8c-3.1-20.9-6.7-27.1-7.5-27.6c0.1,0,0.3,0.1,0.5,0c0.2-0.1,0.2-0.3,0.2-0.4l-1,0.2
			c-0.1-0.4,0.1-0.6,0.2-0.7l0.6-0.1c1.1,0.4,4.8,6.5,8.1,28.5L303,806.8z"/>
		
			<linearGradient id="SVGID_21_" gradientUnits="userSpaceOnUse" x1="-6232.1543" y1="794.8945" x2="-6224.5068" y2="754.7444" gradientTransform="matrix(1 0 0 1 6481.8125 0)">
			<stop  offset="0" style="stop-color:#F9B776"/>
			<stop  offset="1" style="stop-color:#F47960"/>
		</linearGradient>
		<path class="st24" d="M245.8,738.1c0,0-2.4,25.2-4.5,32.7c-0.3,1.1,0.2,2.3,1.2,2.9c3.6,2,12.1,5.4,23.8-0.4c1.9-0.9,3-2.9,2.9-5
			l-1-24.4L245.8,738.1z"/>
	</g>
	<g>
		<g>
			<g>
				<linearGradient id="SVGID_22_" gradientUnits="userSpaceOnUse" x1="252.1257" y1="714.5278" x2="721.6594" y2="714.5278">
					<stop  offset="5.618000e-03" style="stop-color:#F17C54"/>
					<stop  offset="0.8017" style="stop-color:#F7B659"/>
					<stop  offset="1" style="stop-color:#F9C55A"/>
				</linearGradient>
				<path class="st25" d="M602,880.2c-18.4-4-41.3,0.3-62.3,6c-23.8,2.5-32.3-36.5-22.6-60.9c5.3-13.4,18.2-19.5,29.7-14.6
					c30.4,12.9,43.7,9,54.7,6.3c8.3-2,12.1-14.7,11.8-25l-5.4-206.3c-0.2-8.4,4.2-16.1,10.9-18.3c17-5.5,35.4,5.4,57.1,14.1
					c8.6,3.5,18.1,3.2,26.4-1.6c31.8-18.3,23.4-81.8-15.1-74.5c-21.8,6.4-45.8,10.8-67.9,6.4c-6.8-1.4-11.8-8.5-11.9-16.8
					l-2.8-191.4c-7,0.9-13.8,2.9-20.3,6L293.1,447.7c-22.5,10.7-37.5,32.7-39.1,57.5c-27.3,422,243.3,575.8,332,614.6
					c9.5,4.2,19.8,6.1,29.9,5.7l-2.2-227.8C613.7,889.2,608.8,881.7,602,880.2z"/>
			</g>
		</g>
		<g>
			<linearGradient id="SVGID_23_" gradientUnits="userSpaceOnUse" x1="983.9783" y1="719.3221" x2="612.1885" y2="714.1585">
				<stop  offset="2.247200e-02" style="stop-color:#583735"/>
				<stop  offset="0.427" style="stop-color:#DA5535"/>
				<stop  offset="0.736" style="stop-color:#F17A40"/>
				<stop  offset="1" style="stop-color:#F6BA52"/>
			</linearGradient>
			<path class="st26" d="M616,1125.5c8.6-0.3,17.2-2.2,25.3-5.7c88.7-38.8,359.3-192.6,332-614.6c-1.6-24.8-16.6-46.8-39.1-57.5
				L643.1,309.5c-12.2-5.8-25.6-7.8-38.6-6l2.8,191.4c0.1,8.4,5.1,15.5,11.9,16.8c22,4.4,46,0,67.9-6.4
				c38.5-7.3,46.9,56.2,15.1,74.5c-8.2,4.7-17.7,5.1-26.4,1.6c-21.6-8.7-40.1-19.6-57.1-14.1c-6.7,2.2-11.1,9.9-10.9,18.3l5.4,206.3
				c0.3,10.3-3.5,23.1-11.8,25c-11,2.6-24.3,6.5-54.7-6.3c-11.5-4.9-24.4,1.2-29.7,14.6c-9.7,24.5-1.2,63.4,22.6,60.9
				c21-5.6,43.9-10,62.3-6c6.9,1.5,11.8,9,11.8,17.5"/>
		</g>
	</g>
	<g>
		<linearGradient id="SVGID_24_" gradientUnits="userSpaceOnUse" x1="928.5104" y1="873.7861" x2="1065.452" y2="761.3257">
			<stop  offset="0" style="stop-color:#F9B776"/>
			<stop  offset="1" style="stop-color:#F47960"/>
		</linearGradient>
		<path style="fill:url(#SVGID_24_);" d="M1004.5,804c0,0,6.5,29.3-31.2,59.8c-18,14.6-55,13-57.8-5.6l7.2-6.5c0,0,27,8,35.3-0.1
			c8.3-8.1,17.8-26.6,17.8-26.6S994.6,801.5,1004.5,804z"/>
		
			<linearGradient id="SVGID_25_" gradientUnits="userSpaceOnUse" x1="472.6535" y1="857.1573" x2="501.5017" y2="857.1573" gradientTransform="matrix(-0.8054 -0.5927 -0.5927 0.8054 1814.1191 440.9862)">
			<stop  offset="0" style="stop-color:#F9B776"/>
			<stop  offset="1" style="stop-color:#F47960"/>
		</linearGradient>
		<path class="st28" d="M916.1,860.3c0,0,9.8-8.2,11.4-12.5c1.6-4.3,3.1-10.2-4-13.9c-7.1-3.6-16.5-6.5-16.5-6.5s-3,4.9,2.9,6.9
			l-4.7,0.1c0,0-2.3,4,3.2,5l-5,1c0,0-0.5,4.3,3.9,4.6C911.8,845.4,906.8,855.3,916.1,860.3z"/>
	</g>
	<g>
		
			<linearGradient id="SVGID_26_" gradientUnits="userSpaceOnUse" x1="-1735.5103" y1="668.0996" x2="-1676.7491" y2="563.5244" gradientTransform="matrix(0.9844 -0.1757 0.1757 0.9844 2542.9194 -190.3148)">
			<stop  offset="0" style="stop-color:#F9B776"/>
			<stop  offset="1" style="stop-color:#F47960"/>
		</linearGradient>
		<path class="st29" d="M960.2,711.7c0,0-9.7,6.3-14.1,22.7c-4.4,16.4,2.1,22.4,9,22.2c6.8-0.2,16.8-2.2,25.6-13.8
			C989.5,731.1,972.9,704,960.2,711.7z"/>
		<linearGradient id="SVGID_27_" gradientUnits="userSpaceOnUse" x1="1024.0269" y1="837.4149" x2="1181.9539" y2="1192.7504">
			<stop  offset="0" style="stop-color:#09005D"/>
			<stop  offset="1" style="stop-color:#1A0F91"/>
		</linearGradient>
		<path class="st30" d="M972.2,735.9c0,0,3.9-23.5-15.7-20.3l-4,4c0,0-9.4-11,1.4-18.9c10.8-8,25.5-5.6,33.3,9.4
			c7.9,15,10.6,25.5,3.6,34.6c-7,9.1-12,1.1-12,1.1s7.7-9.5,3.5-13.6c-3-3-8.8,4.1-8.8,4.1L972.2,735.9z"/>
	</g>
	<g>
		<linearGradient id="SVGID_28_" gradientUnits="userSpaceOnUse" x1="222.6195" y1="874.925" x2="270.0519" y2="721.9171">
			<stop  offset="0" style="stop-color:#09005D"/>
			<stop  offset="1" style="stop-color:#1A0F91"/>
		</linearGradient>
		<path class="st31" d="M273.1,860.5c-4-0.7-7.6-2.7-10-5c-11.2-10.9-22.8-38.1-22.8-38.1s-17.2-41.6-34.7-34.9
			c0,0-18.8,32.7,28.4,82.7c4.1,4.4,18.7,13.6,24.8,15.8C265.1,874.7,269.9,868.3,273.1,860.5z"/>
		
			<linearGradient id="SVGID_29_" gradientUnits="userSpaceOnUse" x1="564.0057" y1="843.473" x2="534.4791" y2="881.8862" gradientTransform="matrix(0.995 -0.1003 0.1003 0.995 -349.7057 88.2304)">
			<stop  offset="0" style="stop-color:#F9B776"/>
			<stop  offset="1" style="stop-color:#F47960"/>
		</linearGradient>
		<path class="st32" d="M319.6,863.7c-11.3,2.1-30.6,4.7-48.1-3.6c-1.2,5.4-2.9,9-13.2,20.8c16.8,3.9,42.6,4.6,68.2-8.1L319.6,863.7
			z"/>
		
			<linearGradient id="SVGID_30_" gradientUnits="userSpaceOnUse" x1="4445.0664" y1="3035.3894" x2="4470.0967" y2="3035.3894" gradientTransform="matrix(0.8046 -0.5938 0.5938 0.8046 -5059.8779 1065.5983)">
			<stop  offset="0" style="stop-color:#F9B776"/>
			<stop  offset="1" style="stop-color:#F47960"/>
		</linearGradient>
		<path class="st33" d="M330.2,873.9c-1.4,1.6-3.8,1.8-5.3,0.3c-2.6-2.4-6.7-6.3-7.6-8.8c-1.4-3.7-2.7-8.9,3.4-12
			c6.1-3.2,14.3-5.6,14.3-5.6s2.6,4.2-2.5,6l4.1,0.1c0,0,2,3.5-2.8,4.4l4.4,0.9c0,0,0.4,3.7-3.4,4
			C331.5,863.4,334.1,869.4,330.2,873.9z"/>
	</g>
	<g>
		
			<linearGradient id="SVGID_31_" gradientUnits="userSpaceOnUse" x1="-6226.0581" y1="732.4011" x2="-6269.6924" y2="765.788" gradientTransform="matrix(1 0 0 1 6481.8125 0)">
			<stop  offset="0" style="stop-color:#F9B776"/>
			<stop  offset="1" style="stop-color:#F47960"/>
		</linearGradient>
		<path class="st34" d="M268.8,705.8c0,0,7.6,17.5,8.1,26.7c0.5,9.2,2.5,15.2-8.1,17c-10.6,1.9-19.6-3.4-24.5-12.6
			c0,0-7.6-14.1-5.9-19.9C240.1,711.3,268.8,705.8,268.8,705.8z"/>
		
			<linearGradient id="SVGID_32_" gradientUnits="userSpaceOnUse" x1="-6242.1777" y1="694.7967" x2="-6201.5391" y2="747.1188" gradientTransform="matrix(1 0 0 1 6481.8125 0)">
			<stop  offset="0" style="stop-color:#09005D"/>
			<stop  offset="1" style="stop-color:#1A0F91"/>
		</linearGradient>
		<path class="st35" d="M247.9,730.4l0.6-0.3c0.8-0.3,1.1-1.3,0.7-2c-1.5-2.9-4.4-9.5-0.6-11.1c4.9-2,24.2-5.9,28.3-12.8
			c4-6.6,0.5-15.1-4.9-17.5c-0.4-0.2-0.8,0-1,0.3l-0.4,0.8c-0.3,0.6-1.2,0.5-1.3-0.1v0c-0.2-0.6-1-0.7-1.3-0.2
			c-1.3,2-4.7,5.4-14,7.1c-13.1,2.4-21.8,7.7-22,16.8c0,0.6-0.6,0.9-1.1,0.6c-1-0.6-2.5-0.9-4.6,0.9c-3.6,3-2.1,10.9,5.8,17.4
			c0.4,0.3,0.4,0.9,0,1.2c-1.4,0.9-3.6,3.2,2,6.1c5.7,3.1,10,2.8,11.6,2.5c0.4-0.1,0.7-0.5,0.6-0.9l-1.8-8c-0.1-0.5,0.2-0.9,0.7-0.9
			H247.9z"/>
		
			<linearGradient id="SVGID_33_" gradientUnits="userSpaceOnUse" x1="-6216.873" y1="714.1583" x2="-6260.5078" y2="747.5453" gradientTransform="matrix(1 0 0 1 6481.8125 0)">
			<stop  offset="0" style="stop-color:#F9B776"/>
			<stop  offset="1" style="stop-color:#F47960"/>
		</linearGradient>
		<path style="fill:url(#SVGID_33_);" d="M248.3,732c0,0-2.9-11.2-7.9-8.1c-5,3.1,2.6,12.5,6.6,13L248.3,732z"/>
	</g>
</g>
<path class="st2" d="M529.8,673.6c22.3,21.9,41.6,44.7,58.4,68.2c25.1-57.1,51.8-110.2,80.7-157.9l70.9-23.6
	C691,623.9,638.9,718.9,594.4,814.1c-32.2-45.4-64.4-90.6-87.6-106.7L529.8,673.6z"/>
</svg>
