<?xml version="1.0" encoding="utf-8"?>
<!-- Generator: Adobe Illustrator 25.0.1, SVG Export Plug-In . SVG Version: 6.00 Build 0)  -->
<svg version="1.1" id="Livello_1" xmlns="http://www.w3.org/2000/svg" xmlns:xlink="http://www.w3.org/1999/xlink" x="0px" y="0px"
	 viewBox="0 0 1242 1501" style="enable-background:new 0 0 1242 1501;" xml:space="preserve">
<style type="text/css">
	.st0{opacity:0.26;fill:url(#SVGID_1_);}
	.st1{fill:url(#SVGID_2_);}
	.st2{fill:url(#SVGID_3_);}
	.st3{opacity:0.47;}
	.st4{fill:url(#SVGID_4_);}
	.st5{fill:url(#SVGID_5_);}
	.st6{fill:url(#SVGID_6_);}
	.st7{fill:url(#SVGID_7_);}
	.st8{fill:url(#SVGID_8_);}
	.st9{fill:url(#SVGID_9_);}
	.st10{opacity:0.63;fill:#FFFFFF;}
	.st11{fill:url(#SVGID_10_);}
	.st12{fill:url(#SVGID_11_);}
	.st13{fill:url(#SVGID_12_);}
	.st14{fill:url(#SVGID_13_);}
	.st15{fill:url(#SVGID_14_);}
	.st16{fill:url(#SVGID_15_);}
	.st17{fill:url(#SVGID_16_);}
	.st18{fill:url(#SVGID_17_);}
	.st19{fill:url(#SVGID_18_);}
	.st20{fill:url(#SVGID_19_);}
	.st21{fill:url(#SVGID_20_);}
	.st22{fill:url(#SVGID_21_);}
	.st23{fill:#91B3FA;}
	.st24{fill:#BDD0FB;}
	.st25{fill:url(#SVGID_22_);}
	.st26{fill:url(#SVGID_23_);}
	.st27{fill:url(#SVGID_24_);}
	.st28{fill:url(#SVGID_25_);}
	.st29{fill:url(#SVGID_26_);}
	.st30{opacity:0.26;fill:url(#SVGID_27_);}
	.st31{opacity:0.5;}
	.st32{opacity:0.26;fill:url(#SVGID_28_);}
	.st33{opacity:0.26;fill:url(#SVGID_29_);}
	.st34{opacity:0.26;fill:url(#SVGID_30_);}
	.st35{opacity:0.26;fill:url(#SVGID_31_);}
	.st36{opacity:0.26;fill:url(#SVGID_32_);}
	.st37{fill:#F8FCFF;}
	.st38{fill:url(#SVGID_33_);}
	.st39{fill:url(#SVGID_34_);}
	.st40{fill:url(#SVGID_35_);}
	.st41{fill:#F1A34F;}
	.st42{fill:#D86713;}
	.st43{fill:url(#SVGID_36_);}
	.st44{fill:url(#SVGID_37_);}
	.st45{fill:#F99746;}
	.st46{fill:#ED7D2B;}
	.st47{fill:url(#SVGID_38_);}
	.st48{fill:url(#SVGID_39_);}
	.st49{fill:url(#SVGID_40_);}
	.st50{fill:url(#SVGID_41_);}
	.st51{fill:url(#SVGID_42_);}
	.st52{fill:url(#SVGID_43_);}
	.st53{fill:url(#SVGID_44_);}
	.st54{fill:url(#SVGID_45_);}
	.st55{fill:url(#SVGID_46_);}
	.st56{fill:url(#SVGID_47_);}
	.st57{fill:url(#SVGID_48_);}
	.st58{fill:url(#SVGID_49_);}
	.st59{fill:url(#SVGID_50_);}
	.st60{fill:url(#SVGID_51_);}
	.st61{fill:url(#SVGID_52_);}
	.st62{fill:url(#SVGID_53_);}
	.st63{fill:url(#SVGID_54_);}
	.st64{fill:url(#SVGID_55_);}
	.st65{fill:url(#SVGID_56_);}
	.st66{fill:url(#SVGID_57_);}
	.st67{fill:url(#SVGID_58_);}
	.st68{fill:#8CA0F4;}
	.st69{fill:url(#SVGID_59_);}
	.st70{fill:url(#SVGID_60_);}
	.st71{fill:url(#SVGID_61_);}
	.st72{fill:url(#SVGID_62_);}
	.st73{fill:url(#SVGID_63_);}
	.st74{fill:url(#SVGID_64_);}
	.st75{fill:url(#SVGID_65_);}
	.st76{fill:#233862;}
	.st77{fill:#2B478B;}
	.st78{fill:#EBF3FA;}
	.st79{fill:url(#SVGID_66_);}
	.st80{fill:url(#SVGID_67_);}
	.st81{fill:url(#SVGID_68_);}
	.st82{fill:url(#SVGID_69_);}
	.st83{fill:url(#SVGID_70_);}
	.st84{fill:#FFFFFF;}
	.st85{fill:url(#SVGID_71_);}
	.st86{fill:url(#SVGID_72_);}
	.st87{fill:url(#SVGID_73_);}
	.st88{fill:url(#SVGID_74_);}
	.st89{fill:url(#SVGID_75_);}
	.st90{fill:url(#SVGID_76_);}
	.st91{fill:url(#SVGID_77_);}
	.st92{fill:url(#SVGID_78_);}
	.st93{fill:url(#SVGID_79_);}
	.st94{fill:url(#SVGID_80_);}
	.st95{fill:url(#SVGID_81_);}
	.st96{fill:url(#SVGID_82_);}
	.st97{fill:url(#SVGID_83_);}
	.st98{fill:url(#SVGID_84_);}
	.st99{fill:url(#SVGID_85_);}
	.st100{fill:url(#SVGID_86_);}
	.st101{fill:url(#SVGID_87_);}
	.st102{fill:url(#SVGID_88_);}
	.st103{fill:url(#SVGID_89_);}
	.st104{fill:url(#SVGID_90_);}
	.st105{fill:url(#SVGID_91_);}
	.st106{fill:url(#SVGID_92_);}
	.st107{fill:url(#SVGID_93_);}
	.st108{fill:url(#SVGID_94_);}
	.st109{fill:url(#SVGID_95_);}
	.st110{fill:url(#SVGID_96_);}
	.st111{fill:url(#SVGID_97_);}
	.st112{fill:url(#SVGID_98_);}
	.st113{fill:url(#SVGID_99_);}
	.st114{fill:url(#SVGID_100_);}
	.st115{fill:url(#SVGID_101_);}
	.st116{fill:url(#SVGID_102_);}
	.st117{fill:url(#SVGID_103_);}
	.st118{fill:url(#SVGID_104_);}
	.st119{fill:url(#SVGID_105_);}
	.st120{fill:url(#SVGID_106_);}
	.st121{fill:url(#SVGID_107_);}
	.st122{fill:url(#SVGID_108_);}
	.st123{fill:url(#SVGID_109_);}
	.st124{opacity:0.26;}
	.st125{fill:url(#SVGID_110_);}
</style>
<g>
	<linearGradient id="SVGID_1_" gradientUnits="userSpaceOnUse" x1="1201.7737" y1="1528.8112" x2="330.1496" y2="446.3087">
		<stop  offset="5.618000e-03" style="stop-color:#F17C54"/>
		<stop  offset="0.8017" style="stop-color:#F7B659"/>
		<stop  offset="1" style="stop-color:#F9C55A"/>
	</linearGradient>
	<path class="st0" d="M962,1101.9c-20,21.1-39,34.7-53.9,45.4c-175.9,126.2-384.1,89.4-428.4,80.5
		c-65.3-13.3-191.6-38.9-282.9-146.3C58.6,919,80.1,663.1,187.3,494.2c19.6-30.9,123.1-202.4,333.5-229.9
		c127.3-16.6,275.8,16.9,383.3,107C1129.8,560.3,1113.7,942.2,962,1101.9z"/>
	<g>
		<g>
			<linearGradient id="SVGID_2_" gradientUnits="userSpaceOnUse" x1="709.4351" y1="919.4738" x2="1039.1896" y2="919.4738">
				<stop  offset="0.1866" style="stop-color:#F17C54"/>
				<stop  offset="0.3257" style="stop-color:#F7B659"/>
				<stop  offset="0.3489" style="stop-color:#F8C05A"/>
				<stop  offset="1" style="stop-color:#F9C55A"/>
			</linearGradient>
			<path class="st1" d="M766.5,1206.6c-1.7-0.2-3.2-1.1-4.2-2.5c-14.8-20-122.8-176.6,20.9-319.8
				c136.4-135.9,198.3-163.8,206.5-243.7c1-9.3,13.6-11.6,17.7-3.2c31,62.8,79.3,209.4-80.5,305.7
				c-176.3,106.1-161.8,222.5-153.3,255.6C774.6,1203.1,771,1207.2,766.5,1206.6L766.5,1206.6z"/>
		</g>
		<g>
			<linearGradient id="SVGID_3_" gradientUnits="userSpaceOnUse" x1="777.612" y1="1120.615" x2="1058.717" y2="1120.615">
				<stop  offset="0.1866" style="stop-color:#F17C54"/>
				<stop  offset="0.3257" style="stop-color:#F7B659"/>
				<stop  offset="0.3489" style="stop-color:#F8C05A"/>
				<stop  offset="1" style="stop-color:#F9C55A"/>
			</linearGradient>
			<path class="st2" d="M788.4,1209.6c-4-0.5-7.2-3.6-7.8-7.6c-4.2-27.2-14.5-129,60.4-156c82.5-29.7,149.2,47.2,209.8-13
				c3.2-3.2,8.6-0.4,7.8,4c-5.4,31.4-29.5,104.2-136.5,118.9c-114.5,15.7-127.4,28.8-125.1,45.1
				C797.8,1206,793.4,1210.3,788.4,1209.6L788.4,1209.6z"/>
		</g>
		<g class="st3">
			<linearGradient id="SVGID_4_" gradientUnits="userSpaceOnUse" x1="727.9963" y1="950.2421" x2="985.7195" y2="950.2421">
				<stop  offset="0.1866" style="stop-color:#F17C54"/>
				<stop  offset="0.3257" style="stop-color:#F7B659"/>
				<stop  offset="0.3489" style="stop-color:#F8C05A"/>
				<stop  offset="1" style="stop-color:#F9C55A"/>
			</linearGradient>
			<path class="st4" d="M985.7,722.1c-1.4,5.9-3.3,11.5-5.5,17c-2.2,5.5-4.7,10.9-7.4,16.1c-5.4,10.6-11.9,20.5-19,30
				c-14.3,19-31.7,35.6-50.8,49.8c-9.5,7-19.7,13.5-29.8,19.3c-9.8,5.7-19.2,12.1-28.3,18.9c-18.1,13.8-34.5,29.8-49,47.3
				c-28.9,35.1-49.3,77.5-56.1,122.6c-3.4,22.5-3.5,45.5-0.4,68.2c3.1,22.7,9.5,45,18.1,66.4c0.5,1.1-0.1,2.4-1.2,2.9
				c-1.1,0.4-2.4-0.1-2.9-1.1c-10-21.2-17.4-43.7-21.6-67c-2.1-11.6-3.4-23.4-3.7-35.3c-0.3-11.8,0.2-23.7,1.7-35.5
				c2.9-23.6,9.5-46.7,19.1-68.5c9.6-21.8,22.3-42.1,37.2-60.7c14.8-18.6,32-35.2,50.9-49.7c9.4-7.2,19.3-13.9,29.6-20
				c10.1-5.8,19.6-11.7,28.9-18.3c18.5-13.2,35.6-28.5,50.3-45.8c7.4-8.6,14.2-17.9,20.3-27.5c6-9.6,11.7-19.8,15.7-30.3l0.1-0.1
				c0.4-1.1,1.6-1.6,2.6-1.2C985.4,720.1,985.9,721.1,985.7,722.1z"/>
		</g>
		<g class="st3">
			<linearGradient id="SVGID_5_" gradientUnits="userSpaceOnUse" x1="783.5356" y1="1122.6312" x2="1041.6176" y2="1122.6312">
				<stop  offset="0.1866" style="stop-color:#F17C54"/>
				<stop  offset="0.3257" style="stop-color:#F7B659"/>
				<stop  offset="0.3489" style="stop-color:#F8C05A"/>
				<stop  offset="1" style="stop-color:#F9C55A"/>
			</linearGradient>
			<path class="st5" d="M783.6,1191.1c0.4-1,0.2-1.9,0.2-2.8l-0.1-2.8l-0.1-5.6c0-3.7,0.1-7.5,0.3-11.2c0.3-7.5,1-14.9,2-22.4
				c2-14.8,5.4-29.6,11.4-43.5c5.9-13.8,14.9-27,27.9-35.7c6.5-4.2,13.8-7.3,21.4-8.8c7.6-1.6,15.3-1.8,23-1.2
				c29.8,3.5,59,9.2,88.3,13.8c14.6,2.2,29.4,4.1,43.7,2.2c3.6-0.5,7.1-1.3,10.5-2.4c3.4-1.2,6.7-2.6,9.8-4.4
				c6.2-3.6,11.7-8.4,16.6-13.8l0,0c0.7-0.7,1.8-0.8,2.6-0.1c0.7,0.7,0.8,1.8,0.2,2.5c-5,5.7-10.6,11-17.3,15
				c-3.3,2-6.8,3.6-10.5,4.9c-3.7,1.3-7.4,2.2-11.2,2.8c-15.3,2.2-30.4,0.3-45.2-1.7c-14.8-2.1-29.4-4.9-44.1-7.2
				c-14.6-2.4-29.4-4.7-44-6.4c-7.2-0.7-14.5-0.5-21.5,0.9c-7,1.4-13.7,4.1-19.7,7.9c-12.1,7.7-20.9,20-26.9,33.3
				c-6,13.3-9.6,27.8-11.9,42.4c-1.1,7.3-1.9,14.7-2.3,22.1c-0.2,3.7-0.4,7.4-0.5,11.1l0,5.5l0,2.8c0,0.9,0,1.9,0.4,2.7
				c0.4,0.8,0.1,1.8-0.7,2.3c-0.8,0.4-1.8,0.1-2.3-0.7C783.5,1192,783.5,1191.6,783.6,1191.1L783.6,1191.1z"/>
		</g>
	</g>
	<g>
		<g>
			<linearGradient id="SVGID_6_" gradientUnits="userSpaceOnUse" x1="1830.37" y1="-421.8395" x2="8.8607" y2="1130.7451">
				<stop  offset="2.247200e-02" style="stop-color:#583735"/>
				<stop  offset="0.427" style="stop-color:#DA5535"/>
				<stop  offset="0.736" style="stop-color:#F17A40"/>
				<stop  offset="1" style="stop-color:#F6BA52"/>
			</linearGradient>
			<path class="st6" d="M627.9,260.7c-44.9-0.4-90.2,6.8-130.3,23.4C404.2,322.8,325,425.3,356,529.9c10.1,34,4.8,71.5,38.6,86.3
				c18.3,8,68.2,12.8,87.2,6.5c50.4-16.7,83.6-62.6,56.1-113.4c-8.8-16.3-20.1-31.1-27.7-48c-7.6-16.9-11-36.9-3.3-53.7
				c15.2-33,65.6-43.5,98.3-42.5c38.6,1.2,73.6,20.3,94.3,53c25.9,40.8,32.4,90.4,28.7,137.8c-4.1,50.7-25.4,89.4-57.5,128.3
				c-27.6,33.5-57.9,65.6-76.3,104.9c-16.8,36.1-22.3,76.1-23.1,115.6c-0.1,7.7-38.2,79.8-38,101.8c0,3.1,43.2,13.4,46.3,13.5
				c16.2,0.2,62.2,0.7,79.2,0.9c3.5,0,6.4-2.7,6.4-6.2c1.2-107.2,34.2-209.4,117.6-281.4c30.4-26.2,63.1-47.5,86.7-80.6
				c33.7-47.1,50.3-93.5,45.5-151.7c-4.4-53.1-21.9-106.3-56.5-147.5c-37.2-44.3-91.7-72-148.3-83.9
				C683.9,264.1,655.9,260.9,627.9,260.7z"/>
			<linearGradient id="SVGID_7_" gradientUnits="userSpaceOnUse" x1="2096.0417" y1="-110.1516" x2="274.5296" y2="1442.4355">
				<stop  offset="2.247200e-02" style="stop-color:#583735"/>
				<stop  offset="0.427" style="stop-color:#DA5535"/>
				<stop  offset="0.736" style="stop-color:#F17A40"/>
				<stop  offset="1" style="stop-color:#F6BA52"/>
			</linearGradient>
			<path class="st7" d="M710.7,1141c0,49.3-27.3,92.9-76.6,92.9c-10.6,0-46.9,0.1-56.3-3.3c-34.4-12.4-34.5-38.8-34.5-77.5
				c0-49.3,16.6-97.8,65.9-97.8C658.5,1055.4,710.7,1091.7,710.7,1141z"/>
		</g>
		<g>
			<linearGradient id="SVGID_8_" gradientUnits="userSpaceOnUse" x1="129.9119" y1="1056.0349" x2="1711.1825" y2="-618.4637">
				<stop  offset="0" style="stop-color:#FFC444"/>
				<stop  offset="0.9964" style="stop-color:#F36F56"/>
			</linearGradient>
			<path class="st8" d="M585.2,249.5c-44.9-0.4-90.2,6.8-130.3,23.4c-93.3,38.7-172.5,141.2-141.5,245.8
				c10.1,34,33.3,76.8,67.2,91.6c18.3,8,39.7,7.5,58.6,1.2c50.4-16.7,83.6-62.6,56.1-113.4c-8.8-16.3-20.1-31.1-27.7-48
				c-7.6-16.9-11-36.9-3.3-53.7c15.2-33,65.6-43.5,98.3-42.5c38.6,1.2,73.6,20.3,94.3,53c25.9,40.8,32.4,90.4,28.7,137.8
				c-4.1,50.7-25.4,89.4-57.5,128.3c-27.6,33.5-57.9,65.6-76.3,104.9C535,814,529.5,854,528.8,893.5c-0.1,7.7,2.4,87.6,2.6,109.6
				c0,3.1,2.5,5.6,5.6,5.7c16.2,0.2,62.2,0.7,79.2,0.9c3.5,0,6.4-2.7,6.4-6.2C623.8,896.2,656.7,794,740.2,722
				c30.4-26.2,63.1-47.5,86.7-80.6c33.7-47.1,50.3-93.5,45.5-151.7c-4.4-53.1-21.9-106.3-56.5-147.5c-37.2-44.3-91.7-72-148.3-83.9
				C641.2,252.9,613.3,249.7,585.2,249.5z"/>
			<linearGradient id="SVGID_9_" gradientUnits="userSpaceOnUse" x1="772.9272" y1="939.605" x2="414.4156" y2="1335.7601">
				<stop  offset="0" style="stop-color:#FFC444"/>
				<stop  offset="0.9964" style="stop-color:#F36F56"/>
			</linearGradient>
			<circle class="st9" cx="589.8" cy="1141.9" r="89.2"/>
		</g>
		<path class="st10" d="M342.9,508.5c-0.5,0-1-0.4-1.1-0.9c-6.3-28.2-7.2-72.5,24-122.8c30.4-49.1,73-82,126.7-97.7
			c57.4-16.8,125.5-13.2,202.6,10.7c0.6,0.2,0.9,0.8,0.8,1.4c-0.2,0.6-0.8,0.9-1.4,0.8c-147.9-45.8-264-15.3-326.7,86
			c-30.7,49.7-29.8,93.2-23.7,121.1c0.1,0.6-0.3,1.2-0.9,1.4C343.1,508.4,343,508.5,342.9,508.5z"/>
		<path class="st10" d="M361.7,553.9c-0.4,0-0.7-0.2-0.9-0.5c-0.3-0.4-6.7-9.3-12.7-24.9c-0.2-0.6,0.1-1.3,0.7-1.5
			c0.6-0.2,1.3,0.1,1.5,0.7c5.9,15.3,12.3,24.3,12.4,24.4c0.4,0.5,0.3,1.2-0.2,1.6C362.1,553.8,361.9,553.9,361.7,553.9z"/>
		<path class="st10" d="M619.7,1084.1c-0.2,0-0.4,0-0.5-0.1c-9.1-4.6-19-7-29.3-7c-0.6,0-1.1-0.5-1.1-1.1s0.5-1.1,1.1-1.1
			c10.7,0,20.9,2.4,30.4,7.2c0.6,0.3,0.8,1,0.5,1.5C620.5,1083.8,620.1,1084.1,619.7,1084.1z"/>
		<path class="st10" d="M552.9,1197.9c-0.2,0-0.4-0.1-0.6-0.2c-18.6-12.5-29.6-33.4-29.6-55.8c0-24.8,13.6-47.5,35.5-59.3
			c0.6-0.3,1.3-0.1,1.6,0.5c0.3,0.6,0.1,1.3-0.5,1.6c-21.1,11.4-34.3,33.3-34.3,57.3c0,21.6,10.7,41.8,28.6,53.9
			c0.5,0.4,0.7,1.1,0.3,1.6C553.6,1197.7,553.2,1197.9,552.9,1197.9z"/>
	</g>
	<g>
		
			<linearGradient id="SVGID_10_" gradientUnits="userSpaceOnUse" x1="6876.041" y1="1181.0566" x2="6656.6543" y2="1419.6881" gradientTransform="matrix(1 0 0 1 -6484.3511 0)">
			<stop  offset="0" style="stop-color:#2B3582"/>
			<stop  offset="1" style="stop-color:#150E42"/>
		</linearGradient>
		<path class="st11" d="M322.3,1198.8c0,0-2.3,12.9-3.4,25.6c-0.4,5,3.4,9.3,8.4,9.5c17,0.7,53.2,2.1,66.2,1.5
			c2-0.1,3.2-2.1,2.5-3.9l0,0c-0.6-1.5-1.8-2.8-3.3-3.4l-59.9-27.5L322.3,1198.8z"/>
		
			<linearGradient id="SVGID_11_" gradientUnits="userSpaceOnUse" x1="6804.8315" y1="1198.78" x2="6824.3184" y2="1198.78" gradientTransform="matrix(1 0 0 1 -6484.3511 0)">
			<stop  offset="0" style="stop-color:#F9B776"/>
			<stop  offset="1" style="stop-color:#F47960"/>
		</linearGradient>
		<path class="st12" d="M320.5,1191.3l1.8,15.4c0,0,10.5,4.9,17.7-0.6l-4.3-17.1L320.5,1191.3z"/>
		
			<linearGradient id="SVGID_12_" gradientUnits="userSpaceOnUse" x1="6893.3154" y1="911.19" x2="6706.6382" y2="1164.2068" gradientTransform="matrix(1 0 0 1 -6484.3511 0)">
			<stop  offset="0" style="stop-color:#2B3582"/>
			<stop  offset="1" style="stop-color:#150E42"/>
		</linearGradient>
		<path class="st13" d="M321.9,902c-0.8,4-4.2,200.5,16.8,288.5c0.3,1.4-0.4,2.9-1.8,3.5c-3.2,1.3-9.5,3.2-17.1,3.5
			c-2.3,0.1-4.4-1.4-5.1-3.7c-6-20.4-34.8-122.8-38.5-220.6c-4.2-109.3,0-3.7,0-3.7l2.5-67.5L321.9,902z"/>
		
			<linearGradient id="SVGID_13_" gradientUnits="userSpaceOnUse" x1="6826.8252" y1="1135.8098" x2="6607.4385" y2="1374.4413" gradientTransform="matrix(1 0 0 1 -6484.3511 0)">
			<stop  offset="0" style="stop-color:#2B3582"/>
			<stop  offset="1" style="stop-color:#150E42"/>
		</linearGradient>
		<path class="st14" d="M253.4,1205.5c0,0-3.6,6.5-7.1,23.7c-0.6,3.1,1.5,6.1,4.7,6.4c5.6,0.6,14.2,1.3,21.1,1.2
			c3.2,0,5.7-2.8,5.3-6c-0.8-6.3-3.1-16.6-10.5-24.7L253.4,1205.5z"/>
		
			<linearGradient id="SVGID_14_" gradientUnits="userSpaceOnUse" x1="6734.6001" y1="1197.7809" x2="6751.4253" y2="1197.7809" gradientTransform="matrix(1 0 0 1 -6484.3511 0)">
			<stop  offset="0" style="stop-color:#F9B776"/>
			<stop  offset="1" style="stop-color:#F47960"/>
		</linearGradient>
		<path class="st15" d="M250.2,1185.8l4.3,23.3c0,0,4.2,3.1,12.6,0.9l-2-25L250.2,1185.8z"/>
		
			<linearGradient id="SVGID_15_" gradientUnits="userSpaceOnUse" x1="6860.0449" y1="886.6428" x2="6673.3682" y2="1139.6595" gradientTransform="matrix(1 0 0 1 -6484.3511 0)">
			<stop  offset="0" style="stop-color:#2B3582"/>
			<stop  offset="1" style="stop-color:#150E42"/>
		</linearGradient>
		<path class="st16" d="M238.7,908.1c-17.2,103.7,3.7,256.2,10.8,286.1c0.4,1.8,1.9,3.2,3.8,3.5c3.1,0.5,8.3,0.9,13.4-0.5
			c1.8-0.5,3-2.1,3.1-3.9c0.9-24.1-0.8-172.3,15.2-230.9c0.8-3,2.6-5.6,5.1-7.3l31.1-22.1l2.4-35.7L238.7,908.1z"/>
		<g>
			<linearGradient id="SVGID_16_" gradientUnits="userSpaceOnUse" x1="309.6864" y1="774.0621" x2="607.2952" y2="261.3142">
				<stop  offset="0" style="stop-color:#2B3582"/>
				<stop  offset="1" style="stop-color:#150E42"/>
			</linearGradient>
			<path class="st17" d="M348.2,711.6c-51.5-0.9-108.3,13.5-108.3,13.5c-15.3,89.5-2.7,192.8-2.7,192.8c39.9,10.5,84.8-6.4,84.8-6.4
				c6.6-37.4,37.5-142.7,37.5-142.7c25.2-3.1,45.9-10.4,62.9-20c-13-15.1-19.1-34.3-21.8-45.6C382.5,708.9,364.1,711.9,348.2,711.6z
				"/>
			
				<linearGradient id="SVGID_17_" gradientUnits="userSpaceOnUse" x1="-8639.9424" y1="574.3953" x2="-8605.5596" y2="672.6306" gradientTransform="matrix(-1 0 0 1 -8155.0688 0)">
				<stop  offset="0" style="stop-color:#F9B776"/>
				<stop  offset="1" style="stop-color:#F47960"/>
			</linearGradient>
			<path class="st18" d="M500.2,635.8c-5.1-6.1-11.5-3.2-11.5-3.2c-7.6,32-47.3,57.9-88.1,70.6c2.7,11.3,8.8,30.5,21.8,45.6
				C490.2,710.8,500.2,635.8,500.2,635.8z"/>
		</g>
		<g>
			
				<linearGradient id="SVGID_18_" gradientUnits="userSpaceOnUse" x1="-8669.3291" y1="584.6807" x2="-8634.9473" y2="682.9157" gradientTransform="matrix(-1 0 0 1 -8155.0688 0)">
				<stop  offset="0" style="stop-color:#F9B776"/>
				<stop  offset="1" style="stop-color:#F47960"/>
			</linearGradient>
			<path class="st19" d="M499,637.4c0.5,1.7-5.6,4.2-9.2-2.6c-0.1-3.3-2.1-17.4-0.2-20.1c10.5-14.3,30.8-32.2,30.8-32.2
				c3.4,3.4,0.6,6.7,0.6,6.7l-9.9,10.3c2.1,3.7,4.6,6.9,5.8,11.4c0.9,3.4,0.3,7.1-1.4,10.2c-1.7,3.1-4.1,7.2-6.3,10.4
				C505,637.3,499,637.4,499,637.4z"/>
			
				<linearGradient id="SVGID_19_" gradientUnits="userSpaceOnUse" x1="-8642.916" y1="647.4429" x2="-8668.8145" y2="595.1992" gradientTransform="matrix(-1 0 0 1 -8155.0688 0)">
				<stop  offset="0" style="stop-color:#F9B776"/>
				<stop  offset="1" style="stop-color:#F47960"/>
			</linearGradient>
			<path class="st20" d="M506.9,606.1l-9,7.6l-2.8,7.6l8,8.9c0,0,2.7-15.1,4.7-18.3C509.8,608.6,508.8,607,506.9,606.1z"/>
		</g>
		<linearGradient id="SVGID_20_" gradientUnits="userSpaceOnUse" x1="247.7829" y1="738.1322" x2="545.3917" y2="225.3841">
			<stop  offset="0" style="stop-color:#2B3582"/>
			<stop  offset="1" style="stop-color:#150E42"/>
		</linearGradient>
		<path class="st21" d="M259.6,775l-19.7-49.8c0,0-48.1,32.7-56,74.1c9.1,0.7,25.6,3,41.8,11.2C229.3,790.9,259.6,775,259.6,775z"/>
		
			<linearGradient id="SVGID_21_" gradientUnits="userSpaceOnUse" x1="6667.1719" y1="831.4062" x2="6793.1606" y2="831.4062" gradientTransform="matrix(1 0 0 1 -6484.3511 0)">
			<stop  offset="0" style="stop-color:#F9B776"/>
			<stop  offset="1" style="stop-color:#F47960"/>
		</linearGradient>
		<path class="st22" d="M301.7,821.9c0,0-54,30.5-72.2,4.5c-3.8-5.4-4.7-10.8-3.8-15.9c-16.2-8.2-32.7-10.5-41.8-11.2
			c-2.4,12.5-1.1,25.8,6.2,39.2c31.9,58.4,118.7-3.2,118.7-3.2L301.7,821.9z"/>
		<g>
			<path class="st23" d="M295.2,860.5l29.5-102.9c0.3-1.2,1.3-2,2.5-2.2c5.3-0.6,20.8-2.4,38.7-3.9c21.5-1.8,46.5-3.3,61.4-2
				c2.1,0.2,3.4,2.4,2.5,4.3c-8.5,17.2-43.4,87-60.9,109.9c-0.6,0.8-1.5,1.2-2.4,1.2l-68.4-0.6C296.1,864.3,294.6,862.4,295.2,860.5
				z"/>
			<path class="st24" d="M368.9,742.6l21.4-3.6c1.1-0.2,2.1,0.9,1.7,2l-2.1,6.4c-0.2,0.6-0.7,1-1.3,1l-20.6,2.7
				c-1.1,0.1-1.9-0.8-1.7-1.9l1.3-5.6C367.8,743.2,368.3,742.8,368.9,742.6z"/>
			<path class="st24" d="M352.9,760.7l1.8-9.2c0.2-0.9,0.9-1.6,1.9-1.7l43.1-4.4c1.5-0.1,2.6,1.2,2.3,2.6l-2.7,11.4
				c-0.2,0.9-1,1.6-2,1.6l-42.2,2.1C353.7,763.3,352.6,762.1,352.9,760.7z"/>
			
				<linearGradient id="SVGID_22_" gradientUnits="userSpaceOnUse" x1="6783.8062" y1="818.1964" x2="6823.0566" y2="818.1964" gradientTransform="matrix(1 0 0 1 -6484.3511 0)">
				<stop  offset="0" style="stop-color:#F9B776"/>
				<stop  offset="1" style="stop-color:#F47960"/>
			</linearGradient>
			<path class="st25" d="M302.3,835.6c0,0-4.1-16.9-2.4-22.9c1.7-6,4.9-13.7,15.6-12c10.7,1.7,23.3,6.2,23.3,6.2s-0.6,7.8-8.8,5.3
				l5,3.9c0,0-0.7,6.2-7.6,2.9l4.7,5.2c0,0-2.9,5.1-8,1.8C319,822.8,316.6,837.7,302.3,835.6z"/>
		</g>
		
			<linearGradient id="SVGID_23_" gradientUnits="userSpaceOnUse" x1="6763.9136" y1="696.7168" x2="6813.7251" y2="696.7168" gradientTransform="matrix(1 0 0 1 -6484.3511 0)">
			<stop  offset="0" style="stop-color:#F9B776"/>
			<stop  offset="1" style="stop-color:#F47960"/>
		</linearGradient>
		<path class="st26" d="M296,669.9l-16.4,47.4c-0.3,0.8,0.1,1.7,0.8,2.1c4.5,2.5,20.5,9.6,39.9-2.7c2-1.3,3.4-3.4,3.7-5.7l5.3-41
			H296z"/>
		<g>
			
				<linearGradient id="SVGID_24_" gradientUnits="userSpaceOnUse" x1="-1821.2014" y1="3956.5815" x2="-1839.8154" y2="3895.1877" gradientTransform="matrix(0.746 -0.6659 0.6659 0.746 -934.8501 -3499.3203)">
				<stop  offset="0" style="stop-color:#F9B776"/>
				<stop  offset="1" style="stop-color:#F47960"/>
			</linearGradient>
			<path class="st27" d="M331.7,626c0,0,18,33.9,15.7,47.5c-2.3,13.7-24.6,12.7-44.1,1.6l-13.6-36.6L331.7,626z"/>
			
				<linearGradient id="SVGID_25_" gradientUnits="userSpaceOnUse" x1="-1837.995" y1="3849.6121" x2="-1822.4244" y2="3938.4221" gradientTransform="matrix(0.746 -0.6659 0.6659 0.746 -934.8501 -3499.3203)">
				<stop  offset="0" style="stop-color:#2B3582"/>
				<stop  offset="1" style="stop-color:#150E42"/>
			</linearGradient>
			<path class="st28" d="M304.2,657.2c0.8-0.4,1.1-1.3,0.6-2c-1.4-2.2-4.1-6.7-5-10.6c0,0-3.2-2.1,8.2-4.8
				c11.5-2.7,28.6-7,32.1-16.8c3.5-9.5-5.7-33.4-20.4-14.4c-0.6,0.7-1.7,0.7-2.2,0c-2.4-3.1-8.7-9.6-17.5-5.7
				c-8.2,3.7-9.1,9.7-9,12.8c0,0.9-0.8,1.6-1.6,1.4c-4.2-0.8-14.1-1.5-18.8,8.8c-3.8,8.4-1.3,13.2,0.9,15.5c0.7,0.8,0.4,2-0.6,2.3
				c-2.7,0.8-6.3,3.2-5.9,9.6c0.5,8.8,10.4,8.1,13.2,7.7c0.5-0.1,0.9,0.1,1.2,0.4c2.4,2.7,13.3,14,25.1,15.4c1,0.1,1.8-0.9,1.5-1.9
				l-5.1-14.8c-0.2-0.7,0.1-1.4,0.8-1.7L304.2,657.2z"/>
			
				<linearGradient id="SVGID_26_" gradientUnits="userSpaceOnUse" x1="-1840.2295" y1="3956.2954" x2="-1856.9768" y2="3901.0588" gradientTransform="matrix(0.746 -0.6659 0.6659 0.746 -934.8501 -3499.3203)">
				<stop  offset="0" style="stop-color:#F9B776"/>
				<stop  offset="1" style="stop-color:#F47960"/>
			</linearGradient>
			<path class="st29" d="M306.2,659.3c0,0-12.8-8.8-13.7-1.4c-0.9,7.4,11.5,10.7,17.7,8L306.2,659.3z"/>
		</g>
	</g>
</g>
</svg>
