<?xml version="1.0" encoding="utf-8"?>
<!-- Generator: Adobe Illustrator 25.0.1, SVG Export Plug-In . SVG Version: 6.00 Build 0)  -->
<svg version="1.1" id="Livello_1" xmlns="http://www.w3.org/2000/svg" xmlns:xlink="http://www.w3.org/1999/xlink" x="0px" y="0px"
	 viewBox="0 0 1242 1501" style="enable-background:new 0 0 1242 1501;" xml:space="preserve">
<style type="text/css">
	.st0{opacity:0.26;fill:url(#SVGID_1_);}
	.st1{fill:url(#SVGID_2_);}
	.st2{fill:url(#SVGID_3_);}
	.st3{opacity:0.47;}
	.st4{fill:url(#SVGID_4_);}
	.st5{fill:url(#SVGID_5_);}
	.st6{fill:url(#SVGID_6_);}
	.st7{fill:url(#SVGID_7_);}
	.st8{fill:url(#SVGID_8_);}
	.st9{fill:url(#SVGID_9_);}
	.st10{opacity:0.63;fill:#FFFFFF;}
	.st11{fill:url(#SVGID_10_);}
	.st12{fill:url(#SVGID_11_);}
	.st13{fill:url(#SVGID_12_);}
	.st14{fill:url(#SVGID_13_);}
	.st15{fill:url(#SVGID_14_);}
	.st16{fill:url(#SVGID_15_);}
	.st17{fill:url(#SVGID_16_);}
	.st18{fill:url(#SVGID_17_);}
	.st19{fill:url(#SVGID_18_);}
	.st20{fill:url(#SVGID_19_);}
	.st21{fill:url(#SVGID_20_);}
	.st22{fill:url(#SVGID_21_);}
	.st23{fill:#91B3FA;}
	.st24{fill:#BDD0FB;}
	.st25{fill:url(#SVGID_22_);}
	.st26{fill:url(#SVGID_23_);}
	.st27{fill:url(#SVGID_24_);}
	.st28{fill:url(#SVGID_25_);}
	.st29{fill:url(#SVGID_26_);}
	.st30{opacity:0.26;fill:url(#SVGID_27_);}
	.st31{opacity:0.5;}
	.st32{opacity:0.26;fill:url(#SVGID_28_);}
	.st33{opacity:0.26;fill:url(#SVGID_29_);}
	.st34{opacity:0.26;fill:url(#SVGID_30_);}
	.st35{opacity:0.26;fill:url(#SVGID_31_);}
	.st36{opacity:0.26;fill:url(#SVGID_32_);}
	.st37{fill:#F8FCFF;}
	.st38{fill:url(#SVGID_33_);}
	.st39{fill:url(#SVGID_34_);}
	.st40{fill:url(#SVGID_35_);}
	.st41{fill:#F1A34F;}
	.st42{fill:#D86713;}
	.st43{fill:url(#SVGID_36_);}
	.st44{fill:url(#SVGID_37_);}
	.st45{fill:#F99746;}
	.st46{fill:#ED7D2B;}
	.st47{fill:url(#SVGID_38_);}
	.st48{fill:url(#SVGID_39_);}
	.st49{fill:url(#SVGID_40_);}
	.st50{fill:url(#SVGID_41_);}
	.st51{fill:url(#SVGID_42_);}
	.st52{fill:url(#SVGID_43_);}
	.st53{fill:url(#SVGID_44_);}
	.st54{fill:url(#SVGID_45_);}
	.st55{fill:url(#SVGID_46_);}
	.st56{fill:url(#SVGID_47_);}
	.st57{fill:url(#SVGID_48_);}
	.st58{fill:url(#SVGID_49_);}
	.st59{fill:url(#SVGID_50_);}
	.st60{fill:url(#SVGID_51_);}
	.st61{fill:url(#SVGID_52_);}
	.st62{fill:url(#SVGID_53_);}
	.st63{fill:url(#SVGID_54_);}
	.st64{fill:url(#SVGID_55_);}
	.st65{fill:url(#SVGID_56_);}
	.st66{fill:url(#SVGID_57_);}
	.st67{fill:url(#SVGID_58_);}
	.st68{fill:#8CA0F4;}
	.st69{fill:url(#SVGID_59_);}
	.st70{fill:url(#SVGID_60_);}
	.st71{fill:url(#SVGID_61_);}
	.st72{fill:url(#SVGID_62_);}
	.st73{fill:url(#SVGID_63_);}
	.st74{fill:url(#SVGID_64_);}
	.st75{fill:url(#SVGID_65_);}
	.st76{fill:#233862;}
	.st77{fill:#2B478B;}
	.st78{fill:#EBF3FA;}
	.st79{fill:url(#SVGID_66_);}
	.st80{fill:url(#SVGID_67_);}
	.st81{fill:url(#SVGID_68_);}
	.st82{fill:url(#SVGID_69_);}
	.st83{fill:url(#SVGID_70_);}
	.st84{fill:#FFFFFF;}
	.st85{fill:url(#SVGID_71_);}
	.st86{fill:url(#SVGID_72_);}
	.st87{fill:url(#SVGID_73_);}
	.st88{fill:url(#SVGID_74_);}
	.st89{fill:url(#SVGID_75_);}
	.st90{fill:url(#SVGID_76_);}
	.st91{fill:url(#SVGID_77_);}
	.st92{fill:url(#SVGID_78_);}
	.st93{fill:url(#SVGID_79_);}
	.st94{fill:url(#SVGID_80_);}
	.st95{fill:url(#SVGID_81_);}
	.st96{fill:url(#SVGID_82_);}
	.st97{fill:url(#SVGID_83_);}
	.st98{fill:url(#SVGID_84_);}
	.st99{fill:url(#SVGID_85_);}
	.st100{fill:url(#SVGID_86_);}
	.st101{fill:url(#SVGID_87_);}
	.st102{fill:url(#SVGID_88_);}
	.st103{fill:url(#SVGID_89_);}
	.st104{fill:url(#SVGID_90_);}
	.st105{fill:url(#SVGID_91_);}
	.st106{fill:url(#SVGID_92_);}
	.st107{fill:url(#SVGID_93_);}
	.st108{fill:url(#SVGID_94_);}
	.st109{fill:url(#SVGID_95_);}
	.st110{fill:url(#SVGID_96_);}
	.st111{fill:url(#SVGID_97_);}
	.st112{fill:url(#SVGID_98_);}
	.st113{fill:url(#SVGID_99_);}
	.st114{fill:url(#SVGID_100_);}
	.st115{fill:url(#SVGID_101_);}
	.st116{fill:url(#SVGID_102_);}
	.st117{fill:url(#SVGID_103_);}
	.st118{fill:url(#SVGID_104_);}
	.st119{fill:url(#SVGID_105_);}
	.st120{fill:url(#SVGID_106_);}
	.st121{fill:url(#SVGID_107_);}
	.st122{fill:url(#SVGID_108_);}
	.st123{fill:url(#SVGID_109_);}
	.st124{opacity:0.26;}
	.st125{fill:url(#SVGID_110_);}
</style>
<g>
	<linearGradient id="SVGID_1_" gradientUnits="userSpaceOnUse" x1="54.9668" y1="691.6218" x2="1204.6556" y2="691.6218">
		<stop  offset="5.618000e-03" style="stop-color:#F17C54"/>
		<stop  offset="0.8017" style="stop-color:#F7B659"/>
		<stop  offset="1" style="stop-color:#F9C55A"/>
	</linearGradient>
	<path class="st0" d="M1158.3,1061.1c-67.7,0-1054.3,0.2-1054.8-1.5l-0.1-0.2c0,0-0.1-0.2-0.1-0.3c-0.4-0.9-152-248.9,83.7-421.6
		c92.2-67.6-5.8-112.2,67.6-187.4c84.3-86.4,176.3,9.2,270-30c16.6-6.9,33.2-18.1,49.8-35.1c9.4-9.6,19.6-18,30.6-25.3
		c1.7-1.1,3.4-2.2,5.1-3.3c6.6-4.1,13.4-7.7,20.4-11c4.7-2.2,9.5-4.3,14.4-6.1h0c7.8-3,15.8-5.6,23.9-7.7c11.6-3.1,23.5-5.4,35.7-7
		c5.3-0.7,10.6-1.2,16-1.6c104.7-7.8,222.6,36.2,283.4,100.5c12.2,13,67.9,80,24,172.2c-27.7,58.2,88.4,113.8,129.6,180.2
		C1262.5,944.8,1159.3,1058.9,1158.3,1061.1z"/>
	<g class="st31">
		<linearGradient id="SVGID_2_" gradientUnits="userSpaceOnUse" x1="455.5555" y1="585.0811" x2="532.6192" y2="585.0811">
			<stop  offset="5.618000e-03" style="stop-color:#F17C54"/>
			<stop  offset="0.8017" style="stop-color:#F7B659"/>
			<stop  offset="1" style="stop-color:#F9C55A"/>
		</linearGradient>
		<path style="opacity:0.26;fill:url(#SVGID_2_);" d="M532.6,661.2c0,0-11.1-93.1-58.8-148.6c-6.3-7.4-18.5-2.7-18.3,7
			c0,0.2,0,0.3,0,0.5C456.2,536.7,509.6,606.8,532.6,661.2z"/>
		<linearGradient id="SVGID_3_" gradientUnits="userSpaceOnUse" x1="392.6287" y1="603.072" x2="538.4148" y2="603.072">
			<stop  offset="5.618000e-03" style="stop-color:#F17C54"/>
			<stop  offset="0.8017" style="stop-color:#F7B659"/>
			<stop  offset="1" style="stop-color:#F9C55A"/>
		</linearGradient>
		<path style="opacity:0.26;fill:url(#SVGID_3_);" d="M538.4,687.8c0,0-47.5-116.3-128.7-167.8c-4.9-3.1-11.7-2-15,2.8
			c-2.2,3.1-3.1,8.1-0.7,15.7C400.5,559.1,491,628,538.4,687.8z"/>
	</g>
	<linearGradient id="SVGID_4_" gradientUnits="userSpaceOnUse" x1="195.0679" y1="916.6008" x2="490.8725" y2="916.6008">
		<stop  offset="5.618000e-03" style="stop-color:#F17C54"/>
		<stop  offset="0.8017" style="stop-color:#F7B659"/>
		<stop  offset="1" style="stop-color:#F9C55A"/>
	</linearGradient>
	<path style="opacity:0.26;fill:url(#SVGID_4_);" d="M420.3,831.4c0,0,26.4,72.4,12.6,76.5c-13.8,4.1-23.6-82.8-23.6-82.8
		s-74.9-22-101.7-14.8c0,0,55.1,65.8,40.7,66.4c-14.4,0.6-74.8-65.3-74.8-65.3s-73.4-1.5-77.8,42.6c-4.5,44.1,17.5,62.1,28.4,63
		c11,0.9,78.5-11.1,78.2-2.1c-0.3,9.1-43.7,30.7-70.5,27c0,0,39.6,64.8,75.9,55.2s44-34.3,66.6-39.8c22.6-5.5,40.3-2.1,29.9,5.9
		c-10.4,8-49.8,10.3-65.6,29c-15.9,18.7-29.2,31.3,6.2,32.2c97,2.7,112.1-69.9,112.1-69.9s59.8-47.8,20.8-92.8
		C477.7,861.6,448,834.9,420.3,831.4z"/>
	<linearGradient id="SVGID_5_" gradientUnits="userSpaceOnUse" x1="707.4167" y1="762.0947" x2="941.9739" y2="762.0947">
		<stop  offset="5.618000e-03" style="stop-color:#F17C54"/>
		<stop  offset="0.8017" style="stop-color:#F7B659"/>
		<stop  offset="1" style="stop-color:#F9C55A"/>
	</linearGradient>
	<path style="opacity:0.26;fill:url(#SVGID_5_);" d="M932,839.4c24.9-19.9-4.6-63.7-4.6-63.7s-63.4-10.9-68.7-19.8
		c-5.3-8.9,56.1-1.2,56.1-1.2c-6.1-19-48.6-55.8-48.6-55.8s-56.4,27.9-59.3,18c-2.9-9.9,51.2-22.2,51.2-22.2
		c-12.9-15.4-40.7-22.9-40.7-22.9c-42.5-6.1-48,48.8-48,48.8s-19.7,9.3-48,6.9l0,0c0,0-5.4-1-13.9-0.7l2.1,4.8
		c1.5-0.2,2.9-0.3,4.3-0.3c0,0,0,0,0,0c0,0,0,0,0.1,0c0.9,0,2.1,0,3.7,0.1c0,0,0,0,0,0c0,0,0,0,0,0c3.5,0.2,6.1,0.3,7.9,0.3
		c0,0,0,0,0,0c10.9,0.5,25.5,1.7,29.8,4.9c0,0,0.5-0.9,1.8-2c-0.6,0.6-1.1,1.3-1.8,2c-14.1,15.9,0.8,58.3,15.5,79.2
		c14.7,20.9,16.8,8.1,21.9-8.8c5.1-16.9-8.8-41.6-8-51c0.8-9.4,9.8,0,15.2,15.8c5.5,15.8-6.5,30.1,1.8,55.8
		c8.4,25.7,63,24.4,63,24.4c-12.7-14.8-16.5-49.4-11.2-53.2c5.4-3.7,24.4,41.8,29.2,48.1C887.6,853,907.1,859.3,932,839.4z"/>
	<linearGradient id="SVGID_6_" gradientUnits="userSpaceOnUse" x1="710.1051" y1="575.5358" x2="879.4534" y2="575.5358">
		<stop  offset="5.618000e-03" style="stop-color:#F17C54"/>
		<stop  offset="0.8017" style="stop-color:#F7B659"/>
		<stop  offset="1" style="stop-color:#F9C55A"/>
	</linearGradient>
	<path style="opacity:0.26;fill:url(#SVGID_6_);" d="M876.7,515.4c-7.7-25-50-15.6-50-15.6s-27.3,45.1-35.7,46.5
		c-8.4,1.3,15.8-43.2,15.8-43.2c-16.3-1-57.2,20.4-57.2,20.4s4.4,51.4-4,50.6c-8.4-0.8-1.6-45.7-1.6-45.7
		c-15.6,5.3-29.7,24.2-29.7,24.2c-17.3,30.6,22.8,51.3,22.8,51.3s1.2,17.8-9.2,38.7l0,0c0,0-2.4,3.9-4.7,10.4l4.3-0.2
		c0.3-1.2,0.7-2.3,1-3.4c0,0,0,0,0,0c0,0,0,0,0,0c0.3-0.7,0.7-1.6,1.1-2.8c0,0,0,0,0,0c0,0,0,0,0,0c1.2-2.6,2-4.5,2.6-5.9
		c0,0,0,0,0,0c3.7-8.2,8.9-18.9,12.7-21.3c0,0-0.5-0.7-1-1.9c0.3,0.6,0.6,1.3,1,1.9c7.9,15.5,44.8,16.8,65.1,11.9
		c20.3-4.9,11.2-10.4-0.2-19.4c-11.4-9-34.4-5.7-41.4-9.1c-7-3.4,2.9-7.5,16.6-6.9c13.7,0.6,21,14,43.1,15.3s37.5-40.8,37.5-40.8
		c-15.1,5.3-42.7-2.2-43.9-7.4c-1.2-5.2,39.2-6.1,45.5-7.9C873.9,553.4,884.5,540.4,876.7,515.4z"/>
	<path class="st37" d="M559.1,455.9c0,0,12-22.5,40.6-20c0,0,41.5-37.5,85.8-5c0,0,47.1-8.1,82,7c23.3,10,30.9,20.5,30.9,20.5
		L559.1,455.9z"/>
	<path class="st37" d="M744.5,418.5c0,0,8.5-17.1,28.8-15.2c0,0,29.5-28.4,60.9-3.8c0,0,33.4-6.1,58.1,5.3
		c16.5,7.6,21.9,15.6,21.9,15.6L744.5,418.5z"/>
	<path class="st37" d="M271.3,633.1c0,0,7.7-17.1,25.9-15.2c0,0,26.6-28.4,54.9-3.8c0,0,30.1-6.1,52.4,5.3
		c14.9,7.6,19.8,15.6,19.8,15.6L271.3,633.1z"/>
	<g>
		<linearGradient id="SVGID_7_" gradientUnits="userSpaceOnUse" x1="381.9653" y1="803.561" x2="835.962" y2="803.561">
			<stop  offset="2.247200e-02" style="stop-color:#583735"/>
			<stop  offset="0.427" style="stop-color:#DA5535"/>
			<stop  offset="0.736" style="stop-color:#F17A40"/>
			<stop  offset="1" style="stop-color:#F6BA52"/>
		</linearGradient>
		<path class="st7" d="M447.8,941.7H382v-76h79l21.2-127.2H409v-76h86.3L515,547.7h78.2l-19.7,114.8h119.9l19-114.8h78.2
			l-19.7,114.8H836v76h-78.2l-21.2,127.2h73.1v76h-86.3l-20.5,117.7h-78.2l20.5-117.7H525.3l-19.7,117.7h-78.2L447.8,941.7z
			 M658.3,865.7l21.9-127.2H560.3l-21.9,127.2H658.3z"/>
	</g>
	<g>
		<linearGradient id="SVGID_8_" gradientUnits="userSpaceOnUse" x1="290.5711" y1="789.8339" x2="294.1385" y2="789.8339">
			<stop  offset="0" style="stop-color:#F9B776"/>
			<stop  offset="1" style="stop-color:#F47960"/>
		</linearGradient>
		<path class="st8" d="M291.5,794c0-0.2,3.5-7.4,2.4-8c-1.1-0.6-3.1-0.5-3.3,0.8C290.4,788.1,291.5,794,291.5,794z"/>
		<linearGradient id="SVGID_9_" gradientUnits="userSpaceOnUse" x1="278.9257" y1="790.429" x2="292.8624" y2="790.429">
			<stop  offset="0" style="stop-color:#F9B776"/>
			<stop  offset="1" style="stop-color:#F47960"/>
		</linearGradient>
		<path class="st9" d="M292.9,798.3c0-0.7-0.8-11.5-2.6-13.6c-1.8-2.1-5.5-5.2-6.7-5.1c-1.2,0.1-5.7,6.2-4.4,10.8
			c1.4,4.6,7.2,10.9,7.2,10.9L292.9,798.3z"/>
		<g>
			<path class="st41" d="M299.8,785.2l-10.6,3.2c-0.4,0.1-0.7-0.1-0.8-0.4l-6-20.2c-0.1-0.4,0.1-0.7,0.4-0.8l10.6-3.2
				c0.4-0.1,0.7,0.1,0.8,0.4l6,20.2C300.3,784.8,300.1,785.1,299.8,785.2z"/>
			<path class="st42" d="M297,786.1l-9.6,2.9c-0.6,0.2-1.3-0.2-1.5-0.8l-5.8-19.2c-0.2-0.6,0.2-1.3,0.8-1.5l9.6-2.9
				c0.6-0.2,1.3,0.2,1.5,0.8l5.8,19.2C298,785.2,297.7,785.9,297,786.1z"/>
		</g>
		<linearGradient id="SVGID_10_" gradientUnits="userSpaceOnUse" x1="282.4468" y1="782.1801" x2="289.7919" y2="782.1801">
			<stop  offset="0" style="stop-color:#F9B776"/>
			<stop  offset="1" style="stop-color:#F47960"/>
		</linearGradient>
		<path class="st11" d="M282.4,780.3c0,0,4.4-6.8,5.5-6.4c1.5,0.5-4,9.1-4,9.1s4.1-6.4,4.7-5.9c1.5,1.1-0.9,5.1-3.2,8.2
			c0,0,4.1-3.8,4.3-3.1c0.5,2.4-4.5,8.1-4.5,8.1l-2.8-6.4V780.3z"/>
		<linearGradient id="SVGID_11_" gradientUnits="userSpaceOnUse" x1="279.1431" y1="778.8483" x2="282.4468" y2="778.8483">
			<stop  offset="0" style="stop-color:#F9B776"/>
			<stop  offset="1" style="stop-color:#F47960"/>
		</linearGradient>
		<path class="st12" d="M279.1,786.6c0.2-0.8,1.3-17,1.7-15.5c0.5,1.5,1.6,10,1.6,10L279.1,786.6z"/>
		<path class="st45" d="M349.4,782.2c0,0-0.5,17.6-5.5,31.8c-4,11.2-10.9,20.3-22.7,17c-1.2-0.3-2.4-0.7-3.5-1.1c0,0,0,0,0,0
			c-24-8.4-31.8-27.5-31.8-27.5c1.8-2.9,7-4,7-4c4.8,0.3,26.1,9.3,27.4,9.6c4.9,1,8.9-26,12.1-35.4c3.2-9.4,16.3-13.5,16.3-13.5
			L349.4,782.2z"/>
		<path class="st46" d="M344.4,801.3l-0.5,12.7c-4,11.2-10.9,20.3-22.7,17c-1.2-0.3-2.4-0.7-3.5-1.1c0.4,0,7.6,1,10.6-2
			c3.1-3.1,2.8-13.4,8.5-20.3C342.6,800.6,344.4,801.3,344.4,801.3z"/>
		<linearGradient id="SVGID_12_" gradientUnits="userSpaceOnUse" x1="323.6199" y1="1045.639" x2="349.9214" y2="1045.639">
			<stop  offset="0" style="stop-color:#2B3582"/>
			<stop  offset="1" style="stop-color:#150E42"/>
		</linearGradient>
		<path class="st13" d="M345,1033.2c0,0,5.9,5.4,4.8,9.2c-1.2,3.8-6.5,6.4-7.2,11.1c-0.7,4.7-3.6,7.2-6.2,7.2c-2.6,0-12.4,0-12.4,0
			s-1.9-3.3,2.7-4.3c4.6-1,6.3-6.5,6.1-11.6s0.4-11.9,0.4-11.9l9.8-2.3L345,1033.2z"/>
		<linearGradient id="SVGID_13_" gradientUnits="userSpaceOnUse" x1="279.941" y1="1045.6914" x2="322.7148" y2="1045.6914">
			<stop  offset="0" style="stop-color:#2B3582"/>
			<stop  offset="1" style="stop-color:#150E42"/>
		</linearGradient>
		<path class="st14" d="M279.9,1059.7h36.4c1.4,0,2.6-1.1,2.6-2.6c0.1-2.1-0.1-5.2-1.3-7.9c-1.9-4.3-3.2-5.1,5-17.6
			c-2.5,2.5-9.1,1.4-14.7,0.6c-0.7,1.1-11.1,17.2-13.4,18.9C292,1053,280.7,1052.3,279.9,1059.7z"/>
		<linearGradient id="SVGID_14_" gradientUnits="userSpaceOnUse" x1="302.4788" y1="946.2967" x2="375.4489" y2="946.2967">
			<stop  offset="0" style="stop-color:#2B3582"/>
			<stop  offset="1" style="stop-color:#150E42"/>
		</linearGradient>
		<path class="st15" d="M336.7,857.8c0,0-26.4,49.8-33.6,77.2c-5.6,21.3,28.4,103.6,28.4,103.6s2.8-0.2,7.3-2
			c4.4-1.7,6.1-6.4,6.1-6.4s-2-58.9-8.9-87.4c-1.5-6.4,7.5-27,22.7-38.3c15.2-11.3,21.6-47.6,12.5-50.1
			C362.2,852,336.7,857.8,336.7,857.8z"/>
		<linearGradient id="SVGID_15_" gradientUnits="userSpaceOnUse" x1="301.3279" y1="942.9223" x2="400.3387" y2="942.9223">
			<stop  offset="0" style="stop-color:#2B3582"/>
			<stop  offset="1" style="stop-color:#150E42"/>
		</linearGradient>
		<path class="st16" d="M359.3,843.7c0,0-27.7,101.7-36.2,124.5c-8.4,22.8-21.8,71.3-21.8,71.3s8.4,4,19.2,2.1
			c0,0,40.6-59.4,42.3-85.7c0.8-12.1,41.6-60.3,37.1-91.7L359.3,843.7z"/>
		<path class="st45" d="M399.9,875.4c0,0-5.9,3-16.3,3.9h0c-12,1-29.8-0.8-51.6-12.9c0,0-6.1-5,1.4-26.3
			c5.7-16.1,8.4-50.1,15.3-81.1c0,0,22.4-7,40.4-1c13.7,4.6,12.4,25.7,14.9,47.6c0.2,2,0.5,4.1,0.8,6.1
			C408.4,835.8,399.9,875.4,399.9,875.4z"/>
		<linearGradient id="SVGID_16_" gradientUnits="userSpaceOnUse" x1="340.7264" y1="718.8926" x2="381.4624" y2="718.8926">
			<stop  offset="0" style="stop-color:#2B3582"/>
			<stop  offset="1" style="stop-color:#150E42"/>
		</linearGradient>
		<path class="st17" d="M340.7,713.1c0,0,15.3-24.9,27.1-12.1c0,0,7.7,2,12.2,14c4.5,12.3-2.5,23.1-7.2,21.4c-3-1.1-4.4,4.1-4.4,4.1
			L340.7,713.1z"/>
		<linearGradient id="SVGID_17_" gradientUnits="userSpaceOnUse" x1="365.497" y1="700.6934" x2="387.0884" y2="700.6934">
			<stop  offset="0" style="stop-color:#2B3582"/>
			<stop  offset="1" style="stop-color:#150E42"/>
		</linearGradient>
		<path class="st18" d="M365.5,699c0,0,1.1-10.3,16.1-9.3c0,0-7.1,0.1-8.6,3.1c0,0,5.2-3.3,8.9-1.7c3.8,1.6,5.4,8.7,5.2,10.9
			c-0.2,2.2-3.1,9.3-5.6,9.6c-2.5,0.4-5.9-1.4-5.9-1.4L365.5,699z"/>
		<linearGradient id="SVGID_18_" gradientUnits="userSpaceOnUse" x1="351.7775" y1="750.9009" x2="373.0779" y2="750.9009">
			<stop  offset="0" style="stop-color:#F9B776"/>
			<stop  offset="1" style="stop-color:#F47960"/>
		</linearGradient>
		<path class="st19" d="M373.1,757.4c-1.4-3.8-3.5-7.7-5.2-19.8l-0.9,0.3l-15.2,5.3c0,0,1.1,4.9,1.7,9.5c0.3,1.9,0.5,5.3,0.6,8.2
			c0.1,3,3.1,3.3,6.1,3.2C368.3,763.8,372.7,760.8,373.1,757.4z"/>
		<linearGradient id="SVGID_19_" gradientUnits="userSpaceOnUse" x1="351.7775" y1="745.3488" x2="366.9666" y2="745.3488">
			<stop  offset="0" style="stop-color:#F9B776"/>
			<stop  offset="1" style="stop-color:#F47960"/>
		</linearGradient>
		<path class="st20" d="M351.8,743.3c0,0,1.1,4.9,1.7,9.5c8.7-1.5,12.2-10.2,13.4-14.9L351.8,743.3z"/>
		<linearGradient id="SVGID_20_" gradientUnits="userSpaceOnUse" x1="338.5154" y1="721.3408" x2="372.088" y2="721.3408">
			<stop  offset="0" style="stop-color:#2B3582"/>
			<stop  offset="1" style="stop-color:#150E42"/>
		</linearGradient>
		<path class="st21" d="M368.3,736c0,0,3.5-7.9,3.7-14.3c0.1-4.5-4.5-20.6-20.6-15.9c0,0-4.7,1.2-8.8,4.8c-3.2,2.9-7.6,8.9,0.2,22.4
			l2.2,4.6L368.3,736z"/>
		<linearGradient id="SVGID_21_" gradientUnits="userSpaceOnUse" x1="339.0124" y1="729.8755" x2="368.5101" y2="729.8755">
			<stop  offset="0" style="stop-color:#F9B776"/>
			<stop  offset="1" style="stop-color:#F47960"/>
		</linearGradient>
		<path class="st22" d="M349.5,748.1c0,0,20.8-2.6,18.9-15.5c-1.8-12.9-0.4-21.9-13.7-20.8c-13.3,1.1-15.2,6.4-15.6,10.9
			C338.6,727.1,344,748.4,349.5,748.1z"/>
		<linearGradient id="SVGID_22_" gradientUnits="userSpaceOnUse" x1="345.185" y1="718.8187" x2="374.5125" y2="718.8187">
			<stop  offset="0" style="stop-color:#2B3582"/>
			<stop  offset="1" style="stop-color:#150E42"/>
		</linearGradient>
		<path class="st25" d="M345.2,712.8c0,0,7.8,14.3,16.9,15.3c9,1,12.5-1.9,12.5-1.9s-7.4-4.3-10.2-13.4
			C364.4,712.8,348.4,705,345.2,712.8z"/>
		<linearGradient id="SVGID_23_" gradientUnits="userSpaceOnUse" x1="337.2271" y1="721.7103" x2="346.7669" y2="721.7103">
			<stop  offset="0" style="stop-color:#2B3582"/>
			<stop  offset="1" style="stop-color:#150E42"/>
		</linearGradient>
		<path class="st26" d="M346.8,713.8c0,0-3.7,4-4.3,7.4c-0.6,3.4,0,10.3-2.1,10.3c0,0-5.8-9.7-1.8-16.2
			C342.8,708.5,346.8,713.8,346.8,713.8z"/>
		<linearGradient id="SVGID_24_" gradientUnits="userSpaceOnUse" x1="346.0542" y1="721.6385" x2="364.0828" y2="721.6385">
			<stop  offset="0" style="stop-color:#2B3582"/>
			<stop  offset="1" style="stop-color:#150E42"/>
		</linearGradient>
		<path class="st27" d="M346.1,714.5c0,0,6.3,15.3,18,18.8c0,0-12.4-8.2-14.8-18.5C346.8,704.4,346.1,714.5,346.1,714.5z"/>
		<path class="st46" d="M399.9,875.4c0,0-5.9,3-16.3,3.9h0c0,0-8.6-10.8,1-22.8c9.6-12-0.7-34.3,6.6-46.4c5.1-8.4,10.1-6.5,12.7-4.5
			c0.2,2,0.5,4.1,0.8,6.1C408.4,835.8,399.9,875.4,399.9,875.4z"/>
		<linearGradient id="SVGID_25_" gradientUnits="userSpaceOnUse" x1="431.2799" y1="864.9157" x2="451.5927" y2="864.9157">
			<stop  offset="0" style="stop-color:#F9B776"/>
			<stop  offset="1" style="stop-color:#F47960"/>
		</linearGradient>
		<path class="st28" d="M437.6,857.6c0,0,1.3,3,3,3.2c2.9,0.3,8.4,2.8,9.3,3.3c2.4,1.4,2.2,7.6-0.2,8.2c-2.4,0.6-3.5-4.7-10.9-6.1
			c-2.5-0.5-6.1,1.2-7.6-4.7L437.6,857.6z"/>
		<path class="st45" d="M389,758c21.4,7.9,22.2,45.7,31.7,62.4c9.8,17.2,19.4,39.8,19.4,39.8s-0.2,0.7-3.8,1.7
			c-2.6,0.7-5.3,0.4-5.3,0.4s-20.2-18.3-25.7-25.5c-5.5-7.2-18.4-40.6-18.4-40.6S380.5,754.9,389,758z"/>
		<linearGradient id="SVGID_26_" gradientUnits="userSpaceOnUse" x1="431.8072" y1="866.8363" x2="441.4892" y2="866.8363">
			<stop  offset="0" style="stop-color:#F9B776"/>
			<stop  offset="1" style="stop-color:#F47960"/>
		</linearGradient>
		<path class="st29" d="M431.8,862.9c0,0,0.5,2.5,3.7,4.6c3.2,2.1,5.7,4.1,6,2.8c0.3-1.3-1.8-2.6-2.2-5
			C438.7,863,431.8,862.9,431.8,862.9z"/>
	</g>
	<g id="girl_2_1_">
		<linearGradient id="SVGID_27_" gradientUnits="userSpaceOnUse" x1="727.3331" y1="876.4472" x2="804.9149" y2="876.4472">
			<stop  offset="0" style="stop-color:#2B3582"/>
			<stop  offset="1" style="stop-color:#150E42"/>
		</linearGradient>
		<path style="fill:url(#SVGID_27_);" d="M766.9,837.2c-9.8-2.1-20,0.9-27.3,7.8c-3.2,3.1-6.7,6.9-9.9,11.4c-8,11.2,7.3,22.2,5.3,26
			c-2,3.8-6.8,6.8-4.7,14.7c2.1,7.9,15.7,18.2,20.1,18.6c45,4.6,64.6-20.2,49.5-33.6c-15.1-13.4-8.9-32.8-21.1-40.3
			C775,839.5,770.9,838.1,766.9,837.2z"/>
		<linearGradient id="SVGID_28_" gradientUnits="userSpaceOnUse" x1="638.7961" y1="924.2496" x2="752.4894" y2="924.2496">
			<stop  offset="0" style="stop-color:#F9B776"/>
			<stop  offset="1" style="stop-color:#F47960"/>
		</linearGradient>
		<path style="fill:url(#SVGID_28_);" d="M743.4,907.9c0,0-41.1,19.9-48.8,19.6c-7.7-0.3-55.8-17.3-55.8-17.3l1.2,8.2
			c0,0,36.6,21.1,49.4,22.2c12.6,1.2,55.7-11.3,59.8-13.9C753.4,924,755.5,910.5,743.4,907.9z"/>
		<linearGradient id="SVGID_29_" gradientUnits="userSpaceOnUse" x1="738.8671" y1="907.863" x2="786.6791" y2="907.863">
			<stop  offset="0" style="stop-color:#F9B776"/>
			<stop  offset="1" style="stop-color:#F47960"/>
		</linearGradient>
		<path style="fill:url(#SVGID_29_);" d="M738.9,926.6c3.7,2.6,8.4,4.7,14.3,6.1c22,5.1,30.4-13.5,33.6-26.2c-3-1.7-5.8-2.1-7.4-2.3
			c-1.6-0.2-3.3-0.3-4.6-0.4c-2.5-1.9-6.1-9.6-7-21.6l-1,0.3l-17.3,4.7c0,0,0.8,5.5,1.2,10.7c0.3,4.1,0.3,8-0.4,8.9
			c-1.4,0.3-2.2,0.5-2.2,0.5s0,0,0,0C747.6,907.7,742.6,915.9,738.9,926.6z"/>
		<linearGradient id="SVGID_30_" gradientUnits="userSpaceOnUse" x1="749.2838" y1="890.1667" x2="766.6022" y2="890.1667">
			<stop  offset="0" style="stop-color:#F9B776"/>
			<stop  offset="1" style="stop-color:#F47960"/>
		</linearGradient>
		<path style="fill:url(#SVGID_30_);" d="M749.3,887.2c0,0,0.8,5.5,1.2,10.7c9.8-1,14.4-10.3,16.1-15.4L749.3,887.2z"/>
		<linearGradient id="SVGID_31_" gradientUnits="userSpaceOnUse" x1="736.6552" y1="872.3572" x2="768.6511" y2="872.3572">
			<stop  offset="0" style="stop-color:#F9B776"/>
			<stop  offset="1" style="stop-color:#F47960"/>
		</linearGradient>
		<path style="fill:url(#SVGID_31_);" d="M746.4,892.3c0,0,23.3-1.3,22.3-15.8c-1-14.5,1.3-24.4-13.6-24.2
			c-14.9,0.2-17.4,5.9-18.2,10.9C735.9,868.1,740.3,892.3,746.4,892.3z"/>
		<linearGradient id="SVGID_32_" gradientUnits="userSpaceOnUse" x1="734.8177" y1="860.8683" x2="775.928" y2="860.8683">
			<stop  offset="0" style="stop-color:#2B3582"/>
			<stop  offset="1" style="stop-color:#150E42"/>
		</linearGradient>
		<path style="fill:url(#SVGID_32_);" d="M736.9,855.1c3.3-4.6,6.1-3.9,7.7-2.7c12.2-7.9,21.1,1.8,21.1,1.8
			c2.3,10.3,10.2,15.7,10.2,15.7s-4.1,3.3-14,1.1c-12.6-2.8-17-13.8-17.6-15.4c-1.3,1.4-3,2.3-4.4,5.2c-1.6,3.5-2.5,5.6-2.6,11.4
			C737.4,872.4,731.9,862,736.9,855.1z"/>
		<path class="st68" d="M793.3,974c2.1-10.8,9-53.7,2.1-67.5c-2.5-5-12.1-5.4-22.7-5c-3.3,2.1-15.9,10.2-21,9.2
			c-0.1,0-0.2,0-0.3-0.1c-2.4-0.6-3.3-2.3-1.3-3.8c0,0-4.7,0.3-11.2,1.6c-3.7,0.7-13.8,6.9-13.8,6.9s4.6,7.1,12,10.3
			c-1.3,11.2,0.6,16.2,12.3,42.1c9.8,21.9-1.3,41.6-1.3,41.6s57.9,46.6,58.2,22.9C806.4,1014.2,790.6,987.7,793.3,974z"/>
		<linearGradient id="SVGID_33_" gradientUnits="userSpaceOnUse" x1="690.9166" y1="996.4714" x2="780.6047" y2="996.4714">
			<stop  offset="0" style="stop-color:#2B3582"/>
			<stop  offset="1" style="stop-color:#150E42"/>
		</linearGradient>
		<path class="st38" d="M745.1,1059.9c-3.1-0.4-6-2.1-7.7-4.7c-0.3-0.4-0.6-0.9-0.9-1.3c-6.6-10-9.2-40.5-24-73.1
			c-3.6-7.9-16.6-9.4-20.1-18.3c0,0-8.7-29,16.7-29.9c25.4-0.9,67.9,80.8,68.6,89.4C778.2,1030.2,794.3,1065.4,745.1,1059.9z"/>
		<linearGradient id="SVGID_34_" gradientUnits="userSpaceOnUse" x1="644.3273" y1="1050.0806" x2="680.7925" y2="1050.0806">
			<stop  offset="0" style="stop-color:#2B3582"/>
			<stop  offset="1" style="stop-color:#150E42"/>
		</linearGradient>
		<path class="st39" d="M644.3,1059.7h36.1c0,0,1.3-5.9-1-9.9c-2.1-3.6-1.3-5.6,0.3-8.5c-1.6,0.7-3.7,1.3-6.1,1.2
			c-1.8-0.1-3.7-0.9-5.4-1.9c-1.6,1.8-8.2,9.6-10.3,11.1C655.6,1053.3,645.1,1052.7,644.3,1059.7z"/>
		<linearGradient id="SVGID_35_" gradientUnits="userSpaceOnUse" x1="665.0455" y1="988.8105" x2="722.7969" y2="988.8105">
			<stop  offset="0" style="stop-color:#2B3582"/>
			<stop  offset="1" style="stop-color:#150E42"/>
		</linearGradient>
		<path class="st40" d="M691.5,940.9c-2.2,16.3-10.7,67.7-25.6,92.8c-4.8,8.1,12.2,12.6,12.2,12.6c2.3-0.6,6.1-4.2,7.8-5.8
			c12.2-11,36.8-42,36.8-66.8c0-12.1,0.2-35.3-8.6-41.2C708.8,928.9,692.4,934.4,691.5,940.9z"/>
		<linearGradient id="SVGID_36_" gradientUnits="userSpaceOnUse" x1="712.4659" y1="995.8923" x2="806.9711" y2="995.8923">
			<stop  offset="0" style="stop-color:#2B3582"/>
			<stop  offset="1" style="stop-color:#150E42"/>
		</linearGradient>
		<path class="st43" d="M762.7,1059.9c0,0-1.8-2.7-3-6.8c-1.9-6.8-2.6-11.8-6.4-22.4c-3.9-11.1-8.6-24.8-14.4-39.1
			c-1.8-4.4-3.7-8.8-5.7-13.3c-3.6-7.9-13.5-6.8-17.1-15.8c0,0-13.8-31.1,11.6-31.9c25.4-0.9,73.5,83.1,76.3,91.2
			C807.1,1030.8,818,1068.4,762.7,1059.9z"/>
		<linearGradient id="SVGID_37_" gradientUnits="userSpaceOnUse" x1="670.8146" y1="1050.0806" x2="707.2797" y2="1050.0806">
			<stop  offset="0" style="stop-color:#2B3582"/>
			<stop  offset="1" style="stop-color:#150E42"/>
		</linearGradient>
		<path class="st44" d="M670.8,1059.7h36.1c0,0,1.3-5.9-1-9.9c-2.1-3.6-1.3-5.6,0.3-8.5c-1.6,0.7-3.7,1.3-6.1,1.2
			c-1.8-0.1-3.7-0.9-5.4-1.9c-1.6,1.8-8.2,9.6-10.3,11.1C682.1,1053.3,671.5,1052.7,670.8,1059.7z"/>
		<linearGradient id="SVGID_38_" gradientUnits="userSpaceOnUse" x1="739.0049" y1="999.1609" x2="756.6333" y2="999.1609">
			<stop  offset="0" style="stop-color:#2B3582"/>
			<stop  offset="1" style="stop-color:#150E42"/>
		</linearGradient>
		<path class="st47" d="M753.4,1030.7c-3.9-11.1-8.6-24.8-14.4-39.1c1.5-10.8,4.8-20.2,10.3-24
			C749.3,967.6,762.6,1008.9,753.4,1030.7z"/>
		<linearGradient id="SVGID_39_" gradientUnits="userSpaceOnUse" x1="691.5328" y1="989.1335" x2="749.2838" y2="989.1335">
			<stop  offset="0" style="stop-color:#2B3582"/>
			<stop  offset="1" style="stop-color:#150E42"/>
		</linearGradient>
		<path class="st48" d="M712.6,939.7c-2.2,16.3-5.2,68.9-20.2,93.9c-4.8,8.1,12.2,12.6,12.2,12.6c2.3-0.6,6.1-4.2,7.8-5.8
			c12.2-11,36.8-42,36.8-66.8c0-12.1-14.2-34.3-23-40.2C720.8,929.8,713.5,933.3,712.6,939.7z"/>
		<g>
			<path class="st76" d="M634.5,889.2l37-3.9c1.1-0.1,2.1,0.5,2.5,1.5l13.2,34.7c0.6,1.5-0.5,3.2-2.1,3.2l-36.7,1.5
				c-1,0-1.9-0.5-2.3-1.5l-13.5-32.3C631.9,891,632.9,889.3,634.5,889.2z"/>
			<path class="st77" d="M631.3,889.5l37-3.9c1.1-0.1,2.1,0.5,2.5,1.5l13.2,34.7c0.6,1.5-0.5,3.2-2.1,3.2l-36.7,1.5
				c-1,0-1.9-0.5-2.3-1.5l-13.5-32.3C628.7,891.3,629.7,889.7,631.3,889.5z"/>
			<path class="st78" d="M651.8,905.7c-0.5-1.2,0.2-2.2,1.4-2.2c1.2,0,2.6,1,3.1,2.2c0.5,1.2-0.2,2.2-1.4,2.2
				C653.6,908,652.2,907,651.8,905.7z"/>
			<path class="st78" d="M632.4,892.8c-0.2-0.6,0.1-1.1,0.7-1.1c0.6,0,1.3,0.5,1.5,1.1c0.2,0.6-0.1,1.1-0.7,1.1
				C633.3,893.9,632.6,893.4,632.4,892.8z"/>
		</g>
		<linearGradient id="SVGID_40_" gradientUnits="userSpaceOnUse" x1="677.7434" y1="924.6868" x2="795.4158" y2="924.6868">
			<stop  offset="0" style="stop-color:#F9B776"/>
			<stop  offset="1" style="stop-color:#F47960"/>
		</linearGradient>
		<path class="st49" d="M786.7,906.5c0,0-51.2,18.9-58.9,18.5c-5-0.2-46.3-14.8-46.3-14.8l-3.7,7c0,0,40.2,25.9,51.3,25.7
			c21.8-0.3,58.7-13.7,62.9-16.3C796.1,924,798.8,909.1,786.7,906.5z"/>
		<linearGradient id="SVGID_41_" gradientUnits="userSpaceOnUse" x1="654.8961" y1="910.7219" x2="681.455" y2="910.7219">
			<stop  offset="0" style="stop-color:#F9B776"/>
			<stop  offset="1" style="stop-color:#F47960"/>
		</linearGradient>
		<path class="st50" d="M681.5,910.2c0,0-3.7-5.7-7.4-5.9c-3.7-0.2-10.1,2.5-12.3,2.9c-2.2,0.4-8.4,2.4-6.6,5.5s10.4,3.7,14.1,3
			c3.7-0.7,8.4,1.5,8.4,1.5L681.5,910.2z"/>
		<linearGradient id="SVGID_42_" gradientUnits="userSpaceOnUse" x1="666.2469" y1="903.7971" x2="675.0537" y2="903.7971">
			<stop  offset="0" style="stop-color:#F9B776"/>
			<stop  offset="1" style="stop-color:#F47960"/>
		</linearGradient>
		<path class="st51" d="M675.1,904.5c0,0-5.9-2.7-7.6-3.2c-1.7-0.5-1.3,0-0.8,1.6c0.5,1.6,3.5,3.1,3.5,3.6
			C670.2,907,675.1,904.5,675.1,904.5z"/>
		<linearGradient id="SVGID_43_" gradientUnits="userSpaceOnUse" x1="634.9306" y1="908.5975" x2="641.5178" y2="908.5975">
			<stop  offset="0" style="stop-color:#F9B776"/>
			<stop  offset="1" style="stop-color:#F47960"/>
		</linearGradient>
		<path class="st52" d="M635.1,907.1c0,0,2.3-7.7,4.9-5.3c2.7,2.5,1.1,5.1,0.7,8.3c-0.6,6.2-1.9,5.9-2.7,5.6
			C637.3,915.4,634.2,910.2,635.1,907.1z"/>
		<linearGradient id="SVGID_44_" gradientUnits="userSpaceOnUse" x1="634.8547" y1="913.3104" x2="640.0038" y2="913.3104">
			<stop  offset="0" style="stop-color:#F9B776"/>
			<stop  offset="1" style="stop-color:#F47960"/>
		</linearGradient>
		<path class="st53" d="M634.9,908.3c0,0-1.2,6.6,5.1,10l-1.8-4.5L634.9,908.3z"/>
		<path class="st84" d="M742,884c0,0,2.2-0.9,8.4-0.4c0,0-0.3,2.4-4.9,2.7C742.9,886.4,742,884,742,884z"/>
		<path class="st68" d="M760.3,915.8c0,0,4.6,14.5,20.3,17.8c0,0,26-8,13-25.7C793.6,907.9,780.9,898.4,760.3,915.8z"/>
		<linearGradient id="SVGID_45_" gradientUnits="userSpaceOnUse" x1="633.7837" y1="906.7603" x2="635.5727" y2="906.7603">
			<stop  offset="0" style="stop-color:#F9B776"/>
			<stop  offset="1" style="stop-color:#F47960"/>
		</linearGradient>
		<path class="st54" d="M634.9,909.2c0,0-1.1-3.6-1.1-4.2c-0.1-0.6,0-0.9,0.6-0.5c0.6,0.4,1.4,1.6,1.2,2.7
			C635.3,908.3,634.9,909.2,634.9,909.2z"/>
	</g>
	<g>
		<g>
			<linearGradient id="SVGID_46_" gradientUnits="userSpaceOnUse" x1="618.8624" y1="730.4557" x2="646.7776" y2="730.4557">
				<stop  offset="0" style="stop-color:#F9B776"/>
				<stop  offset="1" style="stop-color:#F47960"/>
			</linearGradient>
			<path class="st55" d="M619.6,731.2c-0.8,1-1,2.1-0.5,3.2c0,0,0,0,0,0c0.8,2.1,3.3,4.5,6.3,6.9c0.4,0.3,0.7,0.6,1,0.8
				c0.1,0.1,0.2,0.1,0.2,0.2c0.1,0.1,0.1,0.1,0.2,0.2c2.8,2.6,1.7,3.1,6.7,8.3c5.7,5.9,9.6,6,10.7,5.5c0.9-0.5-1-3.6-3.1-7.1
				c-0.1-0.2-0.2-0.3-0.3-0.5c-0.3-0.5-0.6-0.9-0.8-1.4c-2.5-4.2-1.8-6.2-1.3-12.6c0.5-5.1,8-28.7,8-28.7l-10.9-1.9
				c0,0-3.3,18.8-6.9,21.7c-1.9,1.5-4.1,1.6-6,2.7c-0.1,0.1-0.3,0.2-0.4,0.2C621.6,729.5,620.5,730.3,619.6,731.2z"/>
			<linearGradient id="SVGID_47_" gradientUnits="userSpaceOnUse" x1="618.8624" y1="742.7552" x2="644.5409" y2="742.7552">
				<stop  offset="0" style="stop-color:#2B3582"/>
				<stop  offset="1" style="stop-color:#150E42"/>
			</linearGradient>
			<path class="st56" d="M619.6,731.2c-0.8,1-1,2.1-0.5,3.2c0,0,0,0,0,0c1,2.1,3.5,4.5,6.3,6.9c0.4,0.3,0.7,0.6,1,0.9
				c0.1,0.1,0.2,0.1,0.2,0.2c0.1,0.1,0.1,0.1,0.2,0.2c2.8,2.6,1.7,3.1,6.7,8.3c5.7,5.9,9.6,6,10.7,5.5c0.9-0.5-1-3.6-3.1-7.1
				c-1.1-0.4-6.3-2.5-10.1-7.5c-3.3-4.2-5.5-9.6-7.8-12.9c-0.2,0-0.4-0.1-0.6-0.1C621.6,729.5,620.5,730.3,619.6,731.2z"/>
			<linearGradient id="SVGID_48_" gradientUnits="userSpaceOnUse" x1="698.8546" y1="713.9421" x2="740.3094" y2="713.9421">
				<stop  offset="0" style="stop-color:#F9B776"/>
				<stop  offset="1" style="stop-color:#F47960"/>
			</linearGradient>
			<path class="st57" d="M707.6,724.4c0.7,3.4,5.5,2.8,10.8,1.5c5.4-1.3,4.1,0.2,11.7-0.6c7.6-0.8,9.9-3.7,10.2-4.8
				c0.2-1-3.6-1.4-7.6-1.8c-0.5-0.1-1-0.1-1.5-0.2c-4.6-0.6-7.9-3.5-12.1-5.9c-3.9-2.3-9.8-11.6-9.8-11.6l-10.5,0.8
				c0,0,5.5,8.3,7.6,12c1.2,2.1,1.2,5,1,7.1C707.4,722,707.3,723.2,707.6,724.4z"/>
			<linearGradient id="SVGID_49_" gradientUnits="userSpaceOnUse" x1="707.4168" y1="722.8176" x2="740.3094" y2="722.8176">
				<stop  offset="0" style="stop-color:#2B3582"/>
				<stop  offset="1" style="stop-color:#150E42"/>
			</linearGradient>
			<path class="st58" d="M718.4,725.9c5.4-1.3,4.1,0.2,11.7-0.6c7.6-0.8,9.9-3.7,10.2-4.8c0.2-1-3.6-1.4-7.6-1.8l0,0.1
				c0,0-4.6,3.2-10.9,3.4c-5.2,0.1-10.7-1.4-14.2-1.3c-0.1,1.2-0.2,2.4,0.1,3.6C708.3,727.8,713,727.2,718.4,725.9z"/>
			<linearGradient id="SVGID_50_" gradientUnits="userSpaceOnUse" x1="631.5777" y1="679.5132" x2="667.4766" y2="679.5132">
				<stop  offset="0" style="stop-color:#2B3582"/>
				<stop  offset="1" style="stop-color:#150E42"/>
			</linearGradient>
			<path class="st59" d="M667.5,657.5l-9.8,26.3l-12.8,34.4c0,0-3.5,0.3-6.8-0.6c-3.1-0.9-6.6-3.2-6.6-3.2s3.5-36.9,10.2-58.1
				c1.7-5.4,3.6-9.8,5.7-12.3C657.7,631.9,667.5,657.5,667.5,657.5z"/>
			<linearGradient id="SVGID_51_" gradientUnits="userSpaceOnUse" x1="562.9147" y1="660.1812" x2="715.3752" y2="660.1812">
				<stop  offset="0" style="stop-color:#2B3582"/>
				<stop  offset="1" style="stop-color:#150E42"/>
			</linearGradient>
			<path class="st60" d="M657.5,615.7c-5.6-1.8-20.1,0-35.9,2.8c-4.4,0.8-8.7-1.2-11-5l0,0l-39.7-3.1c0,0-13.1,29-5.9,47.5
				c1.1,2.7,3.4,4.4,6.9,4.5c0,0,0,0,0,0c0,0,24,0,31.6,0c19.7,0,41.7-13.6,44.6-14.1c4.7-0.9,6.5,8.4,11.2,18.2
				c4.7,9.8,43.8,43.4,43.8,43.4s6,0.1,8.5-0.9c2.7-1,3.7-2.3,3.7-2.3S672,620.4,657.5,615.7z"/>
			<linearGradient id="SVGID_52_" gradientUnits="userSpaceOnUse" x1="541.8564" y1="539.6301" x2="620.7125" y2="539.6301">
				<stop  offset="0" style="stop-color:#2B3582"/>
				<stop  offset="1" style="stop-color:#150E42"/>
			</linearGradient>
			<path class="st61" d="M606.4,497.1c-2.9-1.8-5.8-2-7.6-2c-1.2,0-2.4,0-3.7-0.2c-15.1-2.2-24.3,19.8-24.8,26.4
				c-1,12.2-7.4,14.1-16.5,21.7c-18.2,15.3-12.9,33.1-2.9,39.7c6,4,16.5,0,16.5,0c0.1,0.1,28.8-16,42.9-23.8
				C631.6,555.9,614.9,502.2,606.4,497.1z"/>
			<linearGradient id="SVGID_53_" gradientUnits="userSpaceOnUse" x1="579.2472" y1="541.8287" x2="600.3701" y2="541.8287">
				<stop  offset="0" style="stop-color:#F9B776"/>
				<stop  offset="1" style="stop-color:#F47960"/>
			</linearGradient>
			<path class="st62" d="M598.6,552.3c0.1,0-6.9,2.4-11.6,0.4c-4.4-1.9-7.8-9.2-7.7-9.2c2-0.1,4.2-1.8,5.9-13.4l0.9,0.3l14.4,5.2
				c0,0-1,4.6-1.7,9C598.1,548.3,597.8,551.8,598.6,552.3z"/>
			<linearGradient id="SVGID_54_" gradientUnits="userSpaceOnUse" x1="586.0073" y1="536.5806" x2="600.3701" y2="536.5806">
				<stop  offset="0" style="stop-color:#F9B776"/>
				<stop  offset="1" style="stop-color:#F47960"/>
			</linearGradient>
			<path class="st63" d="M600.4,535.6c0,0-0.6,2.5-1.4,7.1c-8.2-1.5-11.8-7.8-13-12.3L600.4,535.6z"/>
			<linearGradient id="SVGID_55_" gradientUnits="userSpaceOnUse" x1="584.5682" y1="522.8922" x2="612.5981" y2="522.8922">
				<stop  offset="0" style="stop-color:#F9B776"/>
				<stop  offset="1" style="stop-color:#F47960"/>
			</linearGradient>
			<path class="st64" d="M602.5,540.2c0,0-19.7-2.6-17.8-14.8c1.8-12.2,0.5-20.8,13.2-19.6c12.6,1.2,14.4,6.2,14.7,10.4
				C613,520.4,607.7,540.5,602.5,540.2z"/>
			<linearGradient id="SVGID_56_" gradientUnits="userSpaceOnUse" x1="578.9299" y1="512.9246" x2="611.8627" y2="512.9246">
				<stop  offset="0" style="stop-color:#2B3582"/>
				<stop  offset="1" style="stop-color:#150E42"/>
			</linearGradient>
			<path class="st65" d="M611.9,509.4c0,0-12.6,10.8-21.1,11.7c-8.6,0.9-11.8-1.9-11.8-1.9s5-4.2,8.1-10.9c0.9-2,2.8-3.4,5-3.5
				C598.1,504.3,609.7,504,611.9,509.4z"/>
			<linearGradient id="SVGID_57_" gradientUnits="userSpaceOnUse" x1="603.9989" y1="517.1556" x2="614.1596" y2="517.1556">
				<stop  offset="0" style="stop-color:#2B3582"/>
				<stop  offset="1" style="stop-color:#150E42"/>
			</linearGradient>
			<path class="st66" d="M604,508.5c0,0,4.2,4.1,5.5,7.1c1.3,2.9,1.7,9.9,0.6,12.6c0,0,6.6-12.7,2.8-18.9
				C609.1,502.7,604,508.5,604,508.5z"/>
			<linearGradient id="SVGID_58_" gradientUnits="userSpaceOnUse" x1="562.3829" y1="580.7123" x2="615.1208" y2="580.7123">
				<stop  offset="0" style="stop-color:#2B3582"/>
				<stop  offset="1" style="stop-color:#150E42"/>
			</linearGradient>
			<path class="st67" d="M615.1,581.3c-0.6,39.8-0.2,31.5-4.5,35.2c-1,0.9-4,1.5-7.9,1.7c-12.2,0.8-33.6-1.2-34.5-3.5
				c-2.8-7.8-0.8-10.2-3.2-22.2c-0.2-1.3-0.5-2.6-0.9-4.1c-2-8.2-3.9-11,3.1-24.2c6.3-11.9,12.8-21.6,13.4-21.3
				c16.6,9.9,18,1.6,18,1.6S615.4,561.9,615.1,581.3z"/>
			<linearGradient id="SVGID_59_" gradientUnits="userSpaceOnUse" x1="631.5777" y1="687.2956" x2="657.6943" y2="687.2956">
				<stop  offset="0" style="stop-color:#2B3582"/>
				<stop  offset="1" style="stop-color:#150E42"/>
			</linearGradient>
			<path class="st69" d="M657.7,683.8l-12.8,34.4c0,0-3.5,0.3-6.8-0.6c-3.1-0.9-6.6-3.2-6.6-3.2s3.5-36.9,10.2-58.1L657.7,683.8z"/>
			<linearGradient id="SVGID_60_" gradientUnits="userSpaceOnUse" x1="598.6563" y1="576.8978" x2="626.373" y2="576.8978">
				<stop  offset="0" style="stop-color:#2B3582"/>
				<stop  offset="1" style="stop-color:#150E42"/>
			</linearGradient>
			<path class="st70" d="M598.7,544.6c0,0,17.1,2.9,19.1,10.3c2,7.4,8.6,52,8.6,52s-4.8,4.7-8.8,0.7c-4-4-12.6-41.8-12.6-41.8
				L598.7,544.6z"/>
			<linearGradient id="SVGID_61_" gradientUnits="userSpaceOnUse" x1="565.0977" y1="597.225" x2="602.7271" y2="597.225">
				<stop  offset="0" style="stop-color:#2B3582"/>
				<stop  offset="1" style="stop-color:#150E42"/>
			</linearGradient>
			<path class="st71" d="M602.7,618.2c-12.2,0.8-33.6-1.2-34.5-3.5c-2.8-7.8-0.8-10.2-3.2-22.2L571,576c0,0-1,18.4,4.5,23.3
				c5.4,4.9,22.3,9.4,24.9,13.4C601.6,614.7,602.5,616.7,602.7,618.2z"/>
			<linearGradient id="SVGID_62_" gradientUnits="userSpaceOnUse" x1="588.7518" y1="612.3013" x2="610.058" y2="612.3013">
				<stop  offset="0" style="stop-color:#F9B776"/>
				<stop  offset="1" style="stop-color:#F47960"/>
			</linearGradient>
			<path class="st72" d="M588.8,610.5c0,0,12-2.7,14-1.6c1.9,1.1,6.7,5,7.3,6.3c0.6,1.4-4.3-1-5.9-1.5c-1-0.3-3.8,0.7-5.1,1.1
				c-5.7,1.9-9.2,0.9-9.2,0.9L588.8,610.5z"/>
			<linearGradient id="SVGID_63_" gradientUnits="userSpaceOnUse" x1="541.711" y1="581.2704" x2="590.6958" y2="581.2704">
				<stop  offset="0" style="stop-color:#2B3582"/>
				<stop  offset="1" style="stop-color:#150E42"/>
			</linearGradient>
			<path class="st73" d="M580.7,543c0,0-16.2,1-21.8,8.8c-7.9,11-23.5,57.8-14.5,64c10.1,7,45.9,1.8,45.9,1.8s1.2-5.6-0.5-8.3
				c-1.7-2.7-28.6-7-29.8-8.3c-1.2-1.2,15.5-24.2,15.5-28C575.5,569.4,580.7,543,580.7,543z"/>
			<linearGradient id="SVGID_64_" gradientUnits="userSpaceOnUse" x1="603.3098" y1="614.1761" x2="608.0182" y2="614.1761">
				<stop  offset="0" style="stop-color:#F9B776"/>
				<stop  offset="1" style="stop-color:#F47960"/>
			</linearGradient>
			<path class="st74" d="M603.3,612.2c0,0,2.5,3.3,3.3,3.6c0.8,0.4,1.4,0.3,1.4,0.3l-1.7-3.1L603.3,612.2z"/>
			<linearGradient id="SVGID_65_" gradientUnits="userSpaceOnUse" x1="602.7271" y1="610.8711" x2="610.058" y2="610.8711">
				<stop  offset="0" style="stop-color:#F9B776"/>
				<stop  offset="1" style="stop-color:#F47960"/>
			</linearGradient>
			<path class="st75" d="M602.7,608.9l7.3,3.6c0,0-0.3,0.5-1.2,0.5c-0.9,0-3.2-0.9-3.2-0.9L602.7,608.9z"/>
		</g>
		<g>
			<polygon class="st45" points="665.3,617.2 588.8,617.2 588.8,618.9 664.6,618.9 			"/>
			<polygon class="st45" points="606.7,618.9 664.6,618.9 682.1,575.5 624.2,575.5 			"/>
			<path class="st84" d="M650,597.2c0.4-1.5-0.4-2.8-2-2.8c-1.5,0-3.1,1.2-3.6,2.8c-0.4,1.5,0.4,2.8,2,2.8
				C648,600,649.6,598.7,650,597.2z"/>
		</g>
	</g>
	<g>
		<g id="man_58_">
			<linearGradient id="SVGID_66_" gradientUnits="userSpaceOnUse" x1="1040.225" y1="749.0052" x2="1059.5282" y2="749.0052">
				<stop  offset="0" style="stop-color:#F9B776"/>
				<stop  offset="1" style="stop-color:#F47960"/>
			</linearGradient>
			<path class="st79" d="M1059.1,746.8c-1.7,4.6-4.6,9.9-7.7,11.2c-3.5,1.5-5,3.6-5,3.6l-2.8-1.6l-3.4-2c0,0,0.1-0.4,0.2-1
				c0.2-0.6,0.4-1.5,0.8-2.4c0,0,1-1.3,0.4-3c-0.6-1.7-0.5-4.3,0.6-5.8c1.1-1.6,2.1-5.5,2.8-5.3c1.6,0.3-0.8,5.6-0.1,6.6
				c0.6,0.9,1.4,0.6,1.5,0.5c0,0,0,0,0,0c4.4-1.9,9.8-12.5,12.2-11C1059.5,737,1059.9,744.9,1059.1,746.8z"/>
			<g>
				<linearGradient id="SVGID_67_" gradientUnits="userSpaceOnUse" x1="1043.4271" y1="744.3076" x2="1064.9531" y2="744.3076">
					<stop  offset="0" style="stop-color:#2B3582"/>
					<stop  offset="1" style="stop-color:#150E42"/>
				</linearGradient>
				<path class="st80" d="M1043.8,753.2l5.6,3.9c0.4,0.3,0.9,0.2,1.2-0.2l14.2-20.2c0.3-0.4,0.2-0.9-0.2-1.2l-5.6-3.9
					c-0.4-0.3-0.9-0.2-1.2,0.2l-14.2,20.2C1043.3,752.4,1043.4,752.9,1043.8,753.2z"/>
				<linearGradient id="SVGID_68_" gradientUnits="userSpaceOnUse" x1="1048.6007" y1="747.0737" x2="1067.6515" y2="747.0737">
					<stop  offset="0" style="stop-color:#2B3582"/>
					<stop  offset="1" style="stop-color:#150E42"/>
				</linearGradient>
				<path class="st81" d="M1048.9,756.8l3.3,2.3c0.3,0.2,0.7,0.1,0.9-0.2l14.5-20.6c0.2-0.3,0.1-0.7-0.2-0.9l-3.3-2.3
					c-0.3-0.2-0.7-0.1-0.9,0.2l-14.5,20.6C1048.5,756.1,1048.6,756.6,1048.9,756.8z"/>
			</g>
			<linearGradient id="SVGID_69_" gradientUnits="userSpaceOnUse" x1="948.73" y1="767.1517" x2="1048.071" y2="767.1517">
				<stop  offset="0" style="stop-color:#2B3582"/>
				<stop  offset="1" style="stop-color:#150E42"/>
			</linearGradient>
			<path class="st82" d="M964.1,724.1c0,0,28.3,49.3,38.5,58.4l37.6-28c0,0,5.5,1.7,7.8,7.1c0,0-22.8,46.5-45.3,48.5
				c-22.5,2-54-55.8-54-55.8L964.1,724.1z"/>
			<g>
				<linearGradient id="SVGID_70_" gradientUnits="userSpaceOnUse" x1="871.2177" y1="1042.8638" x2="900.3174" y2="1042.8638">
					<stop  offset="0" style="stop-color:#2B3582"/>
					<stop  offset="1" style="stop-color:#150E42"/>
				</linearGradient>
				<path class="st83" d="M900.1,1059.4h-16.3c-2.1-1.1-3.9-3.7-4.5-7.5c-0.8-5.3-6.7-8.1-8-12.4c-1.3-4.3,5.3-10.4,5.3-10.4
					l1.1-1.4l1.1-1.5l10.8,2.6c0,0,0.3,2.6,0.4,5.9c0.1,2.4,0.2,5.1,0,7.5c-0.3,5.7,1.6,11.9,6.7,13
					C900.7,1056.1,900.5,1058.3,900.1,1059.4z"/>
				<linearGradient id="SVGID_71_" gradientUnits="userSpaceOnUse" x1="956.3704" y1="1049.8878" x2="994.9262" y2="1049.8878">
					<stop  offset="0" style="stop-color:#2B3582"/>
					<stop  offset="1" style="stop-color:#150E42"/>
				</linearGradient>
				<path class="st85" d="M994.9,1059.4h-37.3c-1.8-2.2-1.1-10.3-0.9-12.9c0.1-0.5,0.1-0.8,0.1-0.8s12.8-10.2,14.5-2.4
					c0.1,0.2,0.1,0.5,0.2,0.7c2.2,7.3,12.1,10.6,17.8,11.6C993,1056.2,994.4,1058.1,994.9,1059.4z"/>
				<path class="st45" d="M987.8,851c0,0-1.9,24.2-4.2,53.2c-3.1,39.5-6.8,87.9-7.2,97.1c-0.6,15.9-3.2,41.4-3.2,41.4
					s-6.1,6.1-18.2,3.5c0,0-10.8-36.4-13.9-74.9c0-0.6-0.1-1.3-0.1-1.9c-2.9-39.2-7.3-121.8-7.3-121.8L987.8,851z"/>
				<path class="st46" d="M987.8,851c0,0-1.9,24.2-4.2,53.2l-42.4,67.1c0-0.6-0.1-1.3-0.1-1.9c-2.9-39.2-7.3-121.8-7.3-121.8
					L987.8,851z"/>
				<path class="st45" d="M979,853.8c0,0-34.9,87.5-57.9,128.6c-23,41.1-30.1,52.6-30.1,52.6s-13.1-5.3-14.3-8.8
					c0,0,8.8-79.4,24.1-98.7c8.7-10.9,18.9-43.8,19.4-55.2c0.5-11.5,3.1-34.2,3.1-34.2L979,853.8z"/>
			</g>
			<linearGradient id="SVGID_72_" gradientUnits="userSpaceOnUse" x1="934.1336" y1="708.5569" x2="970.2773" y2="708.5569">
				<stop  offset="0" style="stop-color:#F9B776"/>
				<stop  offset="1" style="stop-color:#F47960"/>
			</linearGradient>
			<path class="st86" d="M970.3,726.3c-13.6,4.3-36.1-7.8-36.1-7.8s11.5-8.9,10.8-28.5l10.5,8.5l7.2,5.8c0,0,0,3.4-0.8,9.4
				c-0.2,1.6-0.6,4,0.6,5.3C967,723.7,970.3,726.3,970.3,726.3z"/>
			<linearGradient id="SVGID_73_" gradientUnits="userSpaceOnUse" x1="944.91" y1="705.8743" x2="962.6642" y2="705.8743">
				<stop  offset="0" style="stop-color:#F9B776"/>
				<stop  offset="1" style="stop-color:#F47960"/>
			</linearGradient>
			<path class="st87" d="M962.7,704.2c0,0,0,3.4-0.8,9.4c-7.9-1.4-16.9-14.2-16.9-14.2c4-1.2,7.6-1.4,10.6-0.9L962.7,704.2z"/>
			<linearGradient id="SVGID_74_" gradientUnits="userSpaceOnUse" x1="939.8871" y1="685.4453" x2="971.2318" y2="685.4453">
				<stop  offset="0" style="stop-color:#F9B776"/>
				<stop  offset="1" style="stop-color:#F47960"/>
			</linearGradient>
			<path class="st88" d="M966.8,703.9c0,0-22.5,3.7-24.6-10.3c-2.1-14.1-6.4-23.1,7.8-26c14.3-3,17.9,2,19.8,6.5
				C971.6,678.5,972.6,702.5,966.8,703.9z"/>
			<linearGradient id="SVGID_75_" gradientUnits="userSpaceOnUse" x1="920.6013" y1="784.4448" x2="989.7682" y2="784.4448">
				<stop  offset="0" style="stop-color:#2B3582"/>
				<stop  offset="1" style="stop-color:#150E42"/>
			</linearGradient>
			<path class="st89" d="M989.3,853c-0.4,0.3-0.9,0.5-1.4,0.5c-5.1-0.1-20.1,2.8-32.7,1.5c-10.7-1-20.1-4.2-30.2-8.7
				c-1.3-0.6-4.4-2.3-4.4-3.8c0-1.6,0.2-4,0.4-7c0.7-10.5,2-28.4,0.7-49.2c-0.2-3.9-0.3-7.7-0.3-11.5c-0.1-28.1,5.5-52.8,16.7-61.2
				c1-0.7,6.8,2.2,12.2,4.8c5,2.5,8.9,2.7,13.6,1.8l5.8,4.2c5.7,5.3,12,12.6,14.8,23.6c2.3,9.4,3.7,26.2,4.4,43.7
				c0.3,7.9,0.6,15.9,0.7,23.5v0.3c0.1,0.8,0.1,1.6,0.1,2.3C989.9,837.3,989.7,852.7,989.3,853z"/>
			<linearGradient id="SVGID_76_" gradientUnits="userSpaceOnUse" x1="921.0165" y1="795.4078" x2="942.8433" y2="795.4078">
				<stop  offset="0" style="stop-color:#2B3582"/>
				<stop  offset="1" style="stop-color:#150E42"/>
			</linearGradient>
			<path class="st90" d="M921,835.5c0.7-10.5,2-28.4,0.7-49.2c-0.2-3.9-0.3-7.7-0.3-11.5c4.7-11.3,8.5-19.5,8.5-19.5h11.8
				C941.7,755.3,950.3,814.2,921,835.5z"/>
			<g>
				<linearGradient id="SVGID_77_" gradientUnits="userSpaceOnUse" x1="850.4724" y1="883.077" x2="927.7098" y2="883.077">
					<stop  offset="0" style="stop-color:#2B3582"/>
					<stop  offset="1" style="stop-color:#150E42"/>
				</linearGradient>
				<path class="st91" d="M860.8,902.2l50.2,7.1c6.5,0.9,12.6-3.7,13.6-10.2l3.1-21.7c0.9-6.5-3.6-12.6-10.2-13.6l-50.2-7.1
					c-6.5-0.9-12.6,3.6-13.6,10.2l-3.1,21.7C849.7,895.2,854.2,901.3,860.8,902.2z"/>
				<linearGradient id="SVGID_78_" gradientUnits="userSpaceOnUse" x1="843.8263" y1="879.4849" x2="921.0994" y2="879.4849">
					<stop  offset="0" style="stop-color:#2B3582"/>
					<stop  offset="1" style="stop-color:#150E42"/>
				</linearGradient>
				<path class="st92" d="M920.2,870.4L920.2,870.4c-1.4-3.5-4.5-6.3-8.3-7.3h0c0,0,0,0,0,0c-0.4-0.1-0.8-0.2-1.2-0.2l-10-1.4
					l0.7-4.7c0.2-1-0.1-2.1-0.8-2.9c-0.6-0.8-1.6-1.4-2.6-1.5l-2.6-0.4l-10.5-1.5l-1.9-0.3c-2.2-0.3-4.2,1.2-4.5,3.4l-0.7,4.7
					l-17.2-2.5c-6.6-0.9-12.7,3.7-13.6,10.2l-3.1,22c-0.9,6.6,3.7,12.7,10.2,13.6l50.1,7.1c0.9,0.1,1.8,0.2,2.6,0.1h0c0,0,0,0,0,0
					c1.4-0.1,2.7-0.4,3.9-1c3.7-1.6,6.5-5.1,7.1-9.3l3.1-22C921.3,874.4,921,872.3,920.2,870.4z M881.1,853.9
					c0.1-0.7,0.6-1.2,1.2-1.3c0.1,0,0.3,0,0.4,0l2.2,0.3l8.3,1.2l4.5,0.6c0.8,0.1,1.4,0.9,1.3,1.7l-0.7,4.7l-17.9-2.6L881.1,853.9z"
					/>
			</g>
			<linearGradient id="SVGID_79_" gradientUnits="userSpaceOnUse" x1="884.0368" y1="844.8077" x2="898.2873" y2="844.8077">
				<stop  offset="0" style="stop-color:#F9B776"/>
				<stop  offset="1" style="stop-color:#F47960"/>
			</linearGradient>
			<path class="st93" d="M898.3,836.7c0,0-2.4,2.4-2.1,5.7c0.6,8.3-0.4,12.1-5.7,12.9c0,0-6.3,1.2-6.4-2.5c0,0,3,0,2.4-5.2
				c-0.7-6-0.6-6.1,3.3-9.2l2.6-4.3L898.3,836.7z"/>
			<linearGradient id="SVGID_80_" gradientUnits="userSpaceOnUse" x1="886.3931" y1="778.1389" x2="952.5809" y2="778.1389">
				<stop  offset="0" style="stop-color:#2B3582"/>
				<stop  offset="1" style="stop-color:#150E42"/>
			</linearGradient>
			<path class="st94" d="M892.2,840.2c4.2,0.8,8.8,0.5,8.8,0.5s12.6-38.8,14.2-42.4c1.6-3.5,37.3-45.5,37.3-45.5l-14.9-37.2
				c0,0-38.6,64.6-42.6,73.6c-6.5,15-8.7,48.6-8.7,48.6S888.9,839.6,892.2,840.2z"/>
			<linearGradient id="SVGID_81_" gradientUnits="userSpaceOnUse" x1="936.691" y1="674.3086" x2="977.0904" y2="674.3086">
				<stop  offset="0" style="stop-color:#2B3582"/>
				<stop  offset="1" style="stop-color:#150E42"/>
			</linearGradient>
			<path class="st95" d="M942.2,692.2c0,0,2.3-0.4,1.9-3.6c-0.4-3.2-0.4-7.3,2.2-6.6c2.6,0.8,2.7,2.8,3.8,1.6
				c1.1-1.2,1.1-6.3,8.8-6.7s10.8,2.3,14.4,0.8c3.6-1.6,3.8-7,3.8-7s-1,1.9-2.6,2.6c0,0,6-8.2-0.9-13.8c-6.9-5.6-14-1.9-18-1.7
				c-8.8,0.5-14.5,1.1-17.4,6.9C935.3,670.5,936.5,686.6,942.2,692.2z"/>
			<linearGradient id="SVGID_82_" gradientUnits="userSpaceOnUse" x1="894.5322" y1="846.3605" x2="898.7199" y2="846.3605">
				<stop  offset="0" style="stop-color:#F9B776"/>
				<stop  offset="1" style="stop-color:#F47960"/>
			</linearGradient>
			<path class="st96" d="M894.8,841.7c0,0,2.5,2.6,2.7,3.7c0.5,3.5,1.7,5.1,1.1,5.4c-1.2,0.8-2.9-1.8-3.6-4.2
				C894.2,844.4,894.8,841.7,894.8,841.7z"/>
		</g>
	</g>
	<linearGradient id="SVGID_83_" gradientUnits="userSpaceOnUse" x1="29.8477" y1="1061.1432" x2="1214" y2="1061.1432">
		<stop  offset="0" style="stop-color:#2B3582"/>
		<stop  offset="1" style="stop-color:#150E42"/>
	</linearGradient>
	<path class="st97" d="M1212.3,1062.8H31.6c-0.9,0-1.7-0.8-1.7-1.7l0,0c0-0.9,0.8-1.7,1.7-1.7h1180.7c0.9,0,1.7,0.8,1.7,1.7l0,0
		C1214,1062.1,1213.2,1062.8,1212.3,1062.8z"/>
	<g>
		<g>
			<path class="st78" d="M958.9,568.6 M945.5,580.7h11.4"/>
		</g>
	</g>
	<g class="st124">
		<linearGradient id="SVGID_84_" gradientUnits="userSpaceOnUse" x1="226.011" y1="697.3213" x2="298.4111" y2="697.3213">
			<stop  offset="5.618000e-03" style="stop-color:#F17C54"/>
			<stop  offset="0.8017" style="stop-color:#F7B659"/>
			<stop  offset="1" style="stop-color:#F9C55A"/>
		</linearGradient>
		<path class="st98" d="M226.1,695.1c1.7-27.3,20.8-31.8,38.4-31.8c17.6,0,34.8,9.1,33.9,29.6c-0.4,8.8-2.8,16.5-8.7,22l6.6,16.5
			l-13.5-12c-5.4,2.6-12.5,4-21.5,4C234.4,723.4,225,712.6,226.1,695.1z"/>
	</g>
</g>
</svg>
