<?xml version="1.0" encoding="utf-8"?>
<!-- Generator: Adobe Illustrator 25.0.1, SVG Export Plug-In . SVG Version: 6.00 Build 0)  -->
<svg version="1.1" id="Livello_1" xmlns="http://www.w3.org/2000/svg" xmlns:xlink="http://www.w3.org/1999/xlink" x="0px" y="0px"
	 viewBox="0 0 1885 1501" style="enable-background:new 0 0 1885 1501;" xml:space="preserve">
<style type="text/css">
	.st0{opacity:0.26;fill:url(#SVGID_1_);}
	.st1{fill:#BFC8D6;}
	.st2{fill:#FFFFFF;}
	.st3{fill:url(#SVGID_2_);}
	.st4{opacity:0.8;}
	.st5{fill:url(#SVGID_3_);}
	.st6{fill:url(#SVGID_4_);}
	.st7{fill:url(#SVGID_5_);}
	.st8{fill:url(#SVGID_6_);}
	.st9{fill:url(#SVGID_7_);}
	.st10{fill:url(#SVGID_8_);}
	.st11{fill:url(#SVGID_9_);}
	.st12{fill:url(#SVGID_10_);}
	.st13{opacity:0.3;fill:url(#SVGID_11_);}
	.st14{fill:url(#SVGID_12_);}
	.st15{opacity:0.3;fill:url(#SVGID_13_);}
	.st16{opacity:0.9;fill:#D8DEE8;}
	.st17{fill:url(#SVGID_14_);}
	.st18{opacity:0.3;fill:url(#SVGID_15_);}
	.st19{fill:url(#SVGID_16_);}
	.st20{fill:url(#SVGID_17_);}
	.st21{opacity:0.3;fill:url(#SVGID_18_);}
	.st22{fill:url(#SVGID_19_);}
	.st23{fill:url(#SVGID_20_);}
	.st24{fill:url(#SVGID_21_);}
	.st25{fill:url(#SVGID_22_);}
	.st26{fill:url(#SVGID_23_);}
	.st27{opacity:0.3;fill:url(#SVGID_24_);}
	.st28{fill:url(#SVGID_25_);}
	.st29{fill:url(#SVGID_26_);}
	.st30{fill:url(#SVGID_27_);}
	.st31{fill:url(#SVGID_28_);}
	.st32{fill:url(#SVGID_29_);}
	.st33{fill:url(#SVGID_30_);}
	.st34{fill:url(#SVGID_31_);}
	.st35{fill:url(#SVGID_32_);}
	.st36{opacity:0.3;fill:url(#SVGID_33_);}
	.st37{fill:url(#SVGID_34_);}
	.st38{fill:url(#SVGID_35_);}
	.st39{opacity:0.26;fill:url(#SVGID_36_);}
	.st40{fill:url(#SVGID_37_);}
	.st41{fill:url(#SVGID_38_);}
	.st42{fill:url(#SVGID_39_);}
	.st43{fill:url(#SVGID_40_);}
	.st44{fill:url(#SVGID_41_);}
	.st45{fill:url(#SVGID_42_);}
	.st46{fill:url(#SVGID_43_);}
	.st47{fill:url(#SVGID_44_);}
	.st48{fill:url(#SVGID_45_);}
	.st49{fill:url(#SVGID_46_);}
	.st50{fill:url(#SVGID_47_);}
	.st51{fill:url(#SVGID_48_);}
	.st52{fill:url(#SVGID_49_);}
	.st53{fill:url(#SVGID_50_);}
	.st54{fill:url(#SVGID_51_);}
	.st55{fill:url(#SVGID_52_);}
	.st56{fill:url(#SVGID_53_);}
	.st57{fill:url(#SVGID_54_);}
	.st58{fill:url(#SVGID_55_);}
	.st59{fill:url(#SVGID_56_);}
	.st60{fill:url(#SVGID_57_);}
	.st61{fill:url(#SVGID_58_);}
	.st62{fill:url(#SVGID_59_);}
	.st63{fill:url(#SVGID_60_);}
	.st64{fill:url(#SVGID_61_);}
	.st65{fill:url(#SVGID_62_);}
	.st66{fill:url(#SVGID_63_);}
	.st67{fill:url(#SVGID_64_);}
	.st68{fill:url(#SVGID_65_);}
	.st69{fill:url(#SVGID_66_);}
	.st70{fill:url(#SVGID_67_);}
	.st71{fill:url(#SVGID_68_);}
	.st72{fill:url(#SVGID_69_);}
	.st73{fill:url(#SVGID_70_);}
	.st74{fill:url(#SVGID_71_);}
	.st75{fill:url(#SVGID_72_);}
	.st76{opacity:0.6;fill:#FFFFFF;}
	.st77{opacity:0.26;fill:url(#SVGID_73_);}
	.st78{fill:url(#SVGID_74_);}
	.st79{opacity:0.3;fill:url(#SVGID_75_);}
	.st80{fill:url(#SVGID_76_);}
	.st81{fill:url(#SVGID_77_);}
	.st82{opacity:0.3;fill:url(#SVGID_78_);}
	.st83{fill:url(#SVGID_79_);}
	.st84{fill:url(#SVGID_80_);}
	.st85{clip-path:url(#SVGID_82_);fill:url(#SVGID_83_);}
	.st86{opacity:0.3;clip-path:url(#SVGID_82_);fill:url(#SVGID_84_);}
	.st87{fill:url(#SVGID_85_);}
	.st88{fill:url(#SVGID_86_);}
	.st89{fill:url(#SVGID_87_);}
	.st90{fill:url(#SVGID_88_);}
	.st91{fill:url(#SVGID_89_);}
	.st92{fill:url(#SVGID_90_);}
	.st93{fill:url(#SVGID_91_);}
	.st94{fill:url(#SVGID_92_);}
	.st95{fill:url(#SVGID_93_);}
	.st96{fill:url(#SVGID_94_);}
	.st97{fill:url(#SVGID_95_);}
	.st98{fill:url(#SVGID_96_);}
	.st99{fill:#26264F;}
	.st100{fill:url(#SVGID_97_);}
	.st101{fill:url(#SVGID_98_);}
	.st102{fill:url(#SVGID_99_);}
	.st103{fill:url(#SVGID_100_);}
	.st104{fill:url(#SVGID_101_);}
	.st105{opacity:0.3;fill:url(#SVGID_102_);}
	.st106{fill:url(#SVGID_103_);}
	.st107{fill:url(#SVGID_104_);}
	.st108{fill:url(#SVGID_105_);}
	.st109{fill:url(#SVGID_106_);}
	.st110{fill:url(#SVGID_107_);}
	.st111{fill:url(#SVGID_108_);}
	.st112{fill:url(#SVGID_109_);}
	.st113{fill:url(#SVGID_110_);}
	.st114{fill:url(#SVGID_111_);}
	.st115{opacity:0.3;fill:url(#SVGID_112_);}
	.st116{fill:url(#SVGID_113_);}
	.st117{fill:url(#SVGID_114_);}
	.st118{fill:url(#SVGID_115_);}
	.st119{fill:url(#SVGID_116_);}
	.st120{fill:url(#SVGID_117_);}
	.st121{fill:url(#SVGID_118_);}
	.st122{fill:url(#SVGID_119_);}
	.st123{fill:url(#SVGID_120_);}
	.st124{fill:url(#SVGID_121_);}
	.st125{opacity:0.26;fill:url(#SVGID_122_);}
	.st126{fill:url(#SVGID_123_);}
	.st127{fill:url(#SVGID_124_);}
	.st128{fill:url(#SVGID_125_);}
	.st129{fill:url(#SVGID_126_);}
	.st130{fill:url(#SVGID_127_);}
	.st131{fill:url(#SVGID_128_);}
	.st132{fill:url(#SVGID_129_);}
	.st133{fill:url(#SVGID_130_);}
	.st134{fill:url(#SVGID_131_);}
	.st135{fill:#ED985F;}
	.st136{fill:url(#SVGID_132_);}
	.st137{fill:#FFB27D;}
	.st138{fill:url(#SVGID_133_);}
	.st139{fill:url(#SVGID_134_);}
	.st140{fill:url(#SVGID_135_);}
	.st141{fill:url(#SVGID_136_);}
	.st142{fill:url(#SVGID_137_);}
	.st143{fill:url(#SVGID_138_);}
	.st144{fill:url(#SVGID_139_);}
	.st145{fill:url(#SVGID_140_);}
	.st146{fill:url(#SVGID_141_);}
	.st147{fill:url(#SVGID_142_);}
	.st148{fill:url(#SVGID_143_);}
	.st149{fill:url(#SVGID_144_);}
	.st150{fill:url(#SVGID_145_);}
	.st151{fill:url(#SVGID_146_);}
	.st152{fill:url(#SVGID_147_);}
	.st153{fill:url(#SVGID_148_);}
	.st154{fill:url(#SVGID_149_);}
	.st155{fill:url(#SVGID_150_);}
	.st156{fill:url(#SVGID_151_);}
	.st157{fill:url(#SVGID_152_);}
	.st158{fill:url(#SVGID_153_);}
	.st159{fill:#2E3552;}
</style>
<g>
	<linearGradient id="SVGID_1_" gradientUnits="userSpaceOnUse" x1="180.9654" y1="960.3106" x2="1702.1926" y2="960.3106">
		<stop  offset="5.618000e-03" style="stop-color:#F17C54"/>
		<stop  offset="0.8017" style="stop-color:#F7B659"/>
		<stop  offset="1" style="stop-color:#F9C55A"/>
	</linearGradient>
	<path class="st0" d="M274.3,1381.2c0,0-186.9-200.7-31.6-417.9c137.8-192.8,298.4-179.6,416.3-101.4c50.2,33.3,194.9,4.1,318.1-192
		c168-267.5,750.3-105.3,644.1,306.3c-51.4,199.2,156.4,206.4,50.5,405.5L274.3,1381.2z"/>
	<g>
		<linearGradient id="SVGID_2_" gradientUnits="userSpaceOnUse" x1="548.9877" y1="1310.0283" x2="1351.131" y2="1310.0283">
			<stop  offset="0.1866" style="stop-color:#F17C54"/>
			<stop  offset="0.3257" style="stop-color:#F7B659"/>
			<stop  offset="0.3489" style="stop-color:#F8C05A"/>
			<stop  offset="1" style="stop-color:#F9C55A"/>
		</linearGradient>
		<path class="st3" d="M549,1379.5c0,0,46.7-83,152.8-76.7c106.1,6.3,134.8-77.1,247.6-64.6c112.9,12.5,133.7,83.9,210.9,84.7
			c77.1,0.8,214.2-9.1,187.4,60.5L549,1379.5z"/>
	</g>
	<g>
		<g>
			<linearGradient id="SVGID_3_" gradientUnits="userSpaceOnUse" x1="259.6624" y1="754.6932" x2="763.132" y2="754.6932">
				<stop  offset="0" style="stop-color:#2B3582"/>
				<stop  offset="1" style="stop-color:#150E42"/>
			</linearGradient>
			<path class="st5" d="M711.3,591L651,481c0,0-90,26.6-205.2,89.8c-11.7,6.4-23.3,13.1-34.6,19.8c-84,50.2-151.5,104.9-151.5,104.9
				l60.3,110c93.6,170.7,281.5,252.9,348.2,212.8l17.6-9.6c5.5-3,10.9-7.1,16.1-12C763.2,937.8,797.6,748.5,711.3,591z M553.7,705.6
				c23.4-32.9,53.1-48.1,73.9-55c22.6-7.6,39.7-7.3,40.4-7.3c4.2,0.1,7.6,3.6,7.5,7.8c-0.1,4.2-3.6,7.6-7.8,7.5h-0.2
				c-1.8,0-16.6,0.2-35.7,6.7c-26.8,9.1-48.9,25.7-65.7,49.2c-0.7,1-1.6,1.7-2.6,2.3c-2.5,1.4-5.6,1.3-8.1-0.5
				C552.1,713.8,551.3,709,553.7,705.6z M453.9,762.8c-26.8,9.1-48.9,25.7-65.7,49.2c-0.7,1-1.6,1.7-2.6,2.3
				c-2.5,1.4-5.6,1.3-8.1-0.5c-3.4-2.4-4.2-7.2-1.8-10.7c23.4-32.9,53.1-48.1,73.9-55c6-2,11.5-3.4,16.5-4.5
				c13.9-2.9,23.3-2.8,23.9-2.8c4.2,0.1,7.6,3.6,7.5,7.8c-0.1,4.2-3.6,7.6-7.8,7.5h-0.1c-0.9,0-6.8,0.1-15.6,1.6
				C468.3,758.6,461.4,760.2,453.9,762.8z M560,951.7c-5.2,3.5-12-1-10.9-7.2c4.2-23.2,12.2-42.2,24-56.5c6.6-8,14.5-14.6,23.6-19.6
				c34.8-19.1,72-7.8,91.3,0.8c5.6,2.5,5.6,10.4,0,12.9c-16.1,7.2-43.8,20-66.2,32.1c-4.8,2.6-9.4,5.2-14,7.7
				C587.9,933.3,570.9,944.3,560,951.7z"/>
			<linearGradient id="SVGID_4_" gradientUnits="userSpaceOnUse" x1="259.6624" y1="809.5008" x2="701.8132" y2="809.5008">
				<stop  offset="0" style="stop-color:#2B3582"/>
				<stop  offset="1" style="stop-color:#150E42"/>
			</linearGradient>
			<path class="st6" d="M701.8,996.7c-5.2,5-10.6,9-16.1,12l-17.6,9.6c-66.8,40.1-254.7-42.1-348.2-212.8l-60.3-110
				c0,0,67.5-54.7,151.5-104.9c10.7,56.2,30.3,107.2,55,152.9v0c-5,1.1-10.6,2.5-16.5,4.5c-20.8,7-50.5,22.1-73.9,55
				c-2.4,3.4-1.6,8.2,1.8,10.7c2.5,1.8,5.6,1.8,8.1,0.5c1-0.5,1.9-1.3,2.6-2.3c16.7-23.5,38.8-40.1,65.7-49.2
				c7.5-2.6,14.4-4.1,20.1-5.1c28.9,50.3,63.8,93.8,99.1,130.4c-11.8,14.3-19.7,33.3-24,56.5c-1.1,6.2,5.7,10.7,10.9,7.2
				c10.9-7.4,27.9-18.4,47.8-29.8l0,0C642.1,953.5,675.2,978.5,701.8,996.7z"/>
		</g>
	</g>
	<g>
		<g>
			<linearGradient id="SVGID_5_" gradientUnits="userSpaceOnUse" x1="1127.6294" y1="897.5927" x2="1640.8948" y2="897.5927">
				<stop  offset="2.247200e-02" style="stop-color:#583735"/>
				<stop  offset="0.427" style="stop-color:#DA5535"/>
				<stop  offset="0.736" style="stop-color:#F17A40"/>
				<stop  offset="1" style="stop-color:#F6BA52"/>
			</linearGradient>
			<path class="st7" d="M1458.4,724.1c-11.5-6.8-23.2-13.3-34.8-19.5c-86.2-46.3-167.8-76.1-167.8-76.1l-63.4,108.2
				c-98.4,168-72.4,371.4-3.7,408.1l17.3,10.1c5.4,3.2,11.6,5.7,18.6,7.6c82.1,22.4,262.1-45.3,352.9-200.3l63.4-108.2
				C1640.9,854,1571.9,790.5,1458.4,724.1z M1214.9,790.3c0.3-4.2,4-7.3,8.2-7c40.2,3.2,68.5,20.8,85.2,35.1
				c4.8,4.1,8.9,8.1,12.4,11.9c9.7,10.4,14.4,18.6,14.7,19c2.1,3.7,0.8,8.3-2.8,10.4c-3.7,2.1-8.3,0.8-10.4-2.8c0-0.1-2-3.4-6-8.5
				c-1-1.3-2.1-2.7-3.4-4.2c-3.8-4.4-8.7-9.5-14.7-14.6c-21.6-18.3-47.2-28.8-75.9-31.1c-1.2-0.1-2.3-0.5-3.3-1
				C1216.3,796.1,1214.7,793.4,1214.9,790.3z M1343.1,1057c-34.5,13-64.8,12.8-89.7-1.7c-5-2.9-9.5-6.2-13.4-9.8
				c-23.4-20.9-30.6-51-32.8-68.9c-0.7-6,6-10.1,11-6.6c8.6,6,21,14.5,34.3,23.2c9,5.9,18.4,11.8,27.3,17.1
				c25.2,15,49.2,26.8,63.9,33.7C1349.3,1046.6,1349,1054.8,1343.1,1057z M1507.6,962.3c-3.7,2.1-8.3,0.8-10.4-2.8
				c0-0.1-2-3.4-6-8.5c-4-5.1-10-11.9-18.2-18.8c-21.6-18.3-47.2-28.8-75.9-31.1c-1.2-0.1-2.3-0.5-3.3-1c-2.4-1.4-4-4.2-3.8-7.2
				c0.3-4.2,4-7.4,8.2-7c40.2,3.2,68.5,20.8,85.1,35.1c18.1,15.5,26.7,30.3,27,30.9C1512.5,955.6,1511.3,960.2,1507.6,962.3z"/>
			<linearGradient id="SVGID_6_" gradientUnits="userSpaceOnUse" x1="1127.6294" y1="895.4976" x2="1423.6313" y2="895.4976">
				<stop  offset="2.247200e-02" style="stop-color:#583735"/>
				<stop  offset="0.427" style="stop-color:#DA5535"/>
				<stop  offset="0.736" style="stop-color:#F17A40"/>
				<stop  offset="1" style="stop-color:#F6BA52"/>
			</linearGradient>
			<path class="st8" d="M1423.6,704.6c-42.7,38.1-76.4,81.1-103,125.7c0,0,0,0,0,0c-3.5-3.7-7.6-7.8-12.4-11.9
				c-16.6-14.3-44.9-31.9-85.2-35.1c-4.2-0.3-7.9,2.8-8.2,7c-0.2,3,1.3,5.8,3.8,7.2c1,0.6,2.1,0.9,3.3,1
				c28.8,2.3,54.3,12.7,75.9,31.1c6.1,5.2,11,10.3,14.7,14.6c-27.7,49.6-46.9,100.7-60.2,148.9c-13.2-8.7-25.6-17.2-34.3-23.2
				c-5-3.5-11.8,0.6-11,6.6c2.2,17.9,9.4,48,32.8,68.9c-9.1,44.9-13.5,85.3-15.4,117.1c-6.9-1.9-13.1-4.4-18.6-7.6l-17.3-10.1
				c-68.7-36.7-94.7-240.1,3.7-408.1l63.4-108.2C1255.8,628.5,1337.4,658.3,1423.6,704.6z"/>
		</g>
	</g>
	<g>
		<linearGradient id="SVGID_7_" gradientUnits="userSpaceOnUse" x1="825.066" y1="999.1251" x2="963.035" y2="999.1251">
			<stop  offset="0" style="stop-color:#F9B776"/>
			<stop  offset="1" style="stop-color:#F47960"/>
		</linearGradient>
		<path class="st9" d="M954,796.8c-6.7,102.6-13.9,232-7.9,249.6c7.9,22.9-3.6,283.4-3.6,283.4l-33.9-2.1c0,0-45.7-227-40.7-260.6
			c2.5-16.9,2.5-32.3,1.9-43.6c-0.6-11.2-1.9-18.2-1.9-18.2c-30.9-104.1-40.6-183.8-42.5-237.6c-1.9-53.8,3.9-81.5,3.9-81.5
			L963,668.4C963,668.4,958.6,726.3,954,796.8z"/>
		<linearGradient id="SVGID_8_" gradientUnits="userSpaceOnUse" x1="897.2535" y1="996.1802" x2="1026.4753" y2="996.1802">
			<stop  offset="0" style="stop-color:#F9B776"/>
			<stop  offset="1" style="stop-color:#F47960"/>
		</linearGradient>
		<path class="st10" d="M1010.9,664.3c0,0,37.1,126.3-3,339.9c-2.8,15.2-3.7,28.3,2.9,61.7c6.5,33.4-28.6,262.3-28.6,262.3l-32.8,0
			c0,0-7.7-234.9-17.7-279.3C917.1,984.5,897.3,672,897.3,672L1010.9,664.3z"/>
		<linearGradient id="SVGID_9_" gradientUnits="userSpaceOnUse" x1="803.3551" y1="376.8314" x2="1049.2278" y2="376.8314">
			<stop  offset="0" style="stop-color:#2B3582"/>
			<stop  offset="1" style="stop-color:#150E42"/>
		</linearGradient>
		<path class="st11" d="M921.8,243.3c0,0-11.1-6-32.8,3.4c-21.7,9.4-83.6,74-82.9,92.8c0.7,18.8,23.1,34.7,16.6,51.3
			c-6.5,16.6-26.6,25.9-16.6,44.9c18.9,36.2-19.1,23.8,6.1,72.4c6.8,13.2,222.5-9.3,230.2-18.8c21.8-26.8-16.4-48.2-14.6-66.8
			c1.8-18.7-27.7-39-22.6-54.2c5.1-15.2,30.4-32.6-27.3-100.5C978,267.9,951.4,235,921.8,243.3z"/>
		<linearGradient id="SVGID_10_" gradientUnits="userSpaceOnUse" x1="865.6838" y1="402.1183" x2="977.9625" y2="402.1183">
			<stop  offset="0" style="stop-color:#F9B776"/>
			<stop  offset="1" style="stop-color:#F47960"/>
		</linearGradient>
		<path class="st12" d="M896.7,368.4c0,0,1,41.3-9.9,46.2c-10.9,5-21.1,5.6-21.1,5.6s62.4,35,112.3,0c0,0-19.8-4.3-23.4-10.9
			c-3.6-6.6-3.3-40.9-3.3-40.9H896.7z"/>
		<path class="st135" d="M896.5,381.3c0,0,11,25,28.8,25.8c17.8,0.9,26.1-22.8,26.1-22.8L896.5,381.3z"/>
		<linearGradient id="SVGID_11_" gradientUnits="userSpaceOnUse" x1="877.9222" y1="334.7654" x2="969.2277" y2="334.7654">
			<stop  offset="0" style="stop-color:#F9B776"/>
			<stop  offset="1" style="stop-color:#F47960"/>
		</linearGradient>
		<path style="fill:url(#SVGID_11_);" d="M923.6,397.6L923.6,397.6c-15.1,0-45.7-24.2-45.7-49.3v-30.6c0-25.1,20.5-45.7,45.7-45.7h0
			c25.1,0,45.7,20.5,45.7,45.7v30.6C969.2,373.3,940.3,397.6,923.6,397.6z"/>
		<path class="st137" d="M849.8,421.3c0,0,87-10.8,156.4,1.3c0,0,5.1,85.7-6.5,175.9c-1.8,14.1,28.2,87.9,28.2,87.9
			c-6.2,11-150.8,40.1-198.5,0c0,0-3.6,3.5,29.7-82.1C868.3,580.3,812.1,426.9,849.8,421.3z"/>
		<linearGradient id="SVGID_12_" gradientUnits="userSpaceOnUse" x1="819.137" y1="701.7327" x2="1094.0375" y2="701.7327">
			<stop  offset="0" style="stop-color:#2B3582"/>
			<stop  offset="1" style="stop-color:#150E42"/>
		</linearGradient>
		<path class="st14" d="M1094,912c-19.3,11.3-39.4,19.8-59.4,26.2c-99,31.4-196.7,9.6-196.7,9.6s-12.6-21.7-18.4-134.2
			c-5.9-112.4,48.8-351.8,48.8-351.8l138.7-13.4c0,0,17,66.3,11,101.3c-6,35-11.4,58.6-4.9,76.6C1061.5,760.1,1094,912,1094,912z"/>
		<linearGradient id="SVGID_13_" gradientUnits="userSpaceOnUse" x1="894.0496" y1="1352.308" x2="953.9967" y2="1352.308">
			<stop  offset="0" style="stop-color:#2B3582"/>
			<stop  offset="1" style="stop-color:#150E42"/>
		</linearGradient>
		<path style="fill:url(#SVGID_13_);" d="M954,1381.2h-58.6c-3.8-12.4,1.1-22.9,5.4-29c4.3-6.2,8.1-23,8.1-23
			c11.3-8.8,25.7-5.4,31.4-3.5c1.6,0.5,2.5,0.9,2.5,0.9s0,0,0,0v0c0.2,0.4,6.3,14.6,8.5,25.6c1.8,9,2.4,22.5,2.6,27.3
			C954,1380.6,954,1381.2,954,1381.2z"/>
		<linearGradient id="SVGID_14_" gradientUnits="userSpaceOnUse" x1="780.1611" y1="505.5144" x2="1076.6823" y2="505.5144">
			<stop  offset="0" style="stop-color:#2B3582"/>
			<stop  offset="1" style="stop-color:#150E42"/>
		</linearGradient>
		<path class="st17" d="M1076.7,559.2c0,0-15.1,17.3-36.7,28.3c-11.9,6-25.8,10.1-40.3,8.3c-40.9-5.1-158.7-5.1-158.7-5.1
			s-7-1.7-16.2-5c-16.9-6.1-41.3-17.4-44.5-33.3c0,0,0,0,0,0c0.5-1.3,44.4-125.4,61.2-133.2c16.9-7.8,30.3-2.6,30.3-2.6
			s46.6,18.6,99.1-0.9c0,0,38.8-2.3,50.1,14.6C1032,447,1076.2,557.9,1076.7,559.2C1076.7,559.2,1076.7,559.2,1076.7,559.2z"/>
		<linearGradient id="SVGID_15_" gradientUnits="userSpaceOnUse" x1="1005.2202" y1="782.2007" x2="1094.0375" y2="782.2007">
			<stop  offset="0" style="stop-color:#2B3582"/>
			<stop  offset="1" style="stop-color:#150E42"/>
		</linearGradient>
		<path style="fill:url(#SVGID_15_);" d="M1094,912c-19.3,11.3-39.4,19.8-59.4,26.2c-49.7-96.4-21.5-311.8-21.5-311.8
			C1061.5,760.1,1094,912,1094,912z"/>
		<linearGradient id="SVGID_16_" gradientUnits="userSpaceOnUse" x1="875.21" y1="1243.2634" x2="948.9932" y2="1243.2634">
			<stop  offset="0" style="stop-color:#2B3582"/>
			<stop  offset="1" style="stop-color:#150E42"/>
		</linearGradient>
		<path class="st19" d="M949,1164.4l-6.2,162.2v0l-0.2,6.1l-2.5-0.3l-31.1-3.3l-33.8-164.8c0,0,20.3-13.3,46.2-10
			C930.2,1155.4,939.5,1158.4,949,1164.4z"/>
		<linearGradient id="SVGID_17_" gradientUnits="userSpaceOnUse" x1="941.6547" y1="1243.2611" x2="1015.437" y2="1243.2611">
			<stop  offset="0" style="stop-color:#2B3582"/>
			<stop  offset="1" style="stop-color:#150E42"/>
		</linearGradient>
		<path class="st20" d="M1015.4,1164.4c0,0-36.3-23.7-73.8,0l6.4,168.3l33.6-3.6L1015.4,1164.4z"/>
		<g>
			<g>
				<path class="st2" d="M928.1,407.3c-3.2-0.1-6.4-0.1-9.5-0.1c-23.3,0.2-43.8,3.3-43.8,3.3l-0.8,29.9c-1.3,46.4,27.4,85.8,46,85.6
					l4.8,0.1c1.5,0,3.1-0.1,4.7-0.5c19.7-4.7,49.5-39.5,50.7-82.2l0.8-29.9C981.1,413.5,959.4,408.2,928.1,407.3z M884.8,449
					c-0.4-0.9,0-2,0.9-2.4c8.8-3.9,16.7-3.5,21.8-2.4c1.5,0.3,2.8,0.7,3.9,1.1c3.2,1.1,5.1,2.2,5.2,2.3c0.9,0.5,1.1,1.6,0.6,2.5
					c-0.5,0.9-1.6,1.1-2.5,0.6c0,0-0.8-0.5-2.2-1.1c-0.4-0.2-0.8-0.3-1.2-0.5c-1.3-0.5-2.9-1-4.8-1.4c-6.6-1.4-13.1-0.6-19.4,2.2
					c-0.3,0.1-0.5,0.2-0.8,0.2C885.8,450.1,885.1,449.7,884.8,449z M942.2,490c-5.7,6.7-12.1,10.1-18.9,9.9c-1.4,0-2.7-0.2-3.9-0.5
					c-7.3-1.7-12.2-7.1-14.7-10.6c-0.8-1.2,0.1-2.8,1.5-2.6c2.5,0.3,6.1,0.6,9.8,0.9c2.6,0.2,5.2,0.4,7.7,0.5c7,0.2,13.3,0,17.2-0.3
					C942.3,487.1,943.1,488.9,942.2,490z M965.7,451.4c-0.5,0.9-1.6,1.1-2.5,0.6c0,0-0.8-0.5-2.2-1.1c-1.4-0.6-3.5-1.3-5.9-1.8
					c-6.6-1.4-13.1-0.6-19.4,2.2c-0.3,0.1-0.5,0.2-0.8,0.2c-0.7,0-1.3-0.4-1.6-1.1c-0.4-0.9,0-2,0.9-2.4c8.8-3.9,16.7-3.5,21.8-2.4
					c5.6,1.2,9,3.3,9.2,3.4C965.9,449.4,966.2,450.5,965.7,451.4z"/>
				<path class="st2" d="M918.6,407.2c-4.6,12.8-6.7,25.7-7.1,38c0,0,0,0,0,0c-1.2-0.4-2.5-0.8-3.9-1.1c-5.1-1.1-13-1.5-21.8,2.4
					c-0.9,0.4-1.3,1.5-0.9,2.4c0.3,0.7,0.9,1.1,1.6,1.1c0.3,0,0.5,0,0.8-0.2c6.3-2.8,12.8-3.6,19.4-2.2c1.9,0.4,3.5,0.9,4.8,1.4
					c-0.1,13.5,1.8,26.4,4.5,38c-3.8-0.3-7.3-0.6-9.8-0.9c-1.4-0.2-2.4,1.5-1.5,2.6c2.5,3.5,7.5,8.9,14.7,10.6
					c3.2,10.4,7,19.4,10.2,26.2c-1.7,0.4-3.3,0.6-4.7,0.5L920,526c-18.6,0.2-47.3-39.3-46-85.6l0.8-29.9
					C874.8,410.5,895.3,407.4,918.6,407.2z"/>
			</g>
		</g>
		<linearGradient id="SVGID_18_" gradientUnits="userSpaceOnUse" x1="975.4924" y1="456.8449" x2="996.0344" y2="456.8449">
			<stop  offset="0" style="stop-color:#F9B776"/>
			<stop  offset="1" style="stop-color:#F47960"/>
		</linearGradient>
		<path style="fill:url(#SVGID_18_);" d="M996,486.1c0,0-5.6-16.5-3.2-26.3c2.4-9.8-10.6-36.1-12-35.6c-1.4,0.5-1.5,31.1-2.8,38.6
			c-1.1,6.3-4.9,12.5,0,26.5L996,486.1z"/>
		<linearGradient id="SVGID_19_" gradientUnits="userSpaceOnUse" x1="857.3804" y1="456.8449" x2="877.9224" y2="456.8449">
			<stop  offset="0" style="stop-color:#F9B776"/>
			<stop  offset="1" style="stop-color:#F47960"/>
		</linearGradient>
		<path class="st22" d="M857.4,486.1c0,0,5.6-16.5,3.2-26.3c-2.4-9.8,10.6-36.1,12-35.6c1.4,0.5,1.5,31.1,2.8,38.6
			c1.1,6.3,4.9,12.5,0,26.5L857.4,486.1z"/>
		<linearGradient id="SVGID_20_" gradientUnits="userSpaceOnUse" x1="789.1406" y1="565.098" x2="875.4524" y2="565.098">
			<stop  offset="0" style="stop-color:#F9B776"/>
			<stop  offset="1" style="stop-color:#F47960"/>
		</linearGradient>
		<path class="st23" d="M875.5,489.4c0,0-22.8,132.2-41.6,142.8c-18.8,10.6-31,11.9-31,11.9s-26.6-36.4-5.6-65.6
			c21-29.2,60.2-92.3,60.2-92.3L875.5,489.4z"/>
		<linearGradient id="SVGID_21_" gradientUnits="userSpaceOnUse" x1="977.9625" y1="565.098" x2="1064.274" y2="565.098">
			<stop  offset="0" style="stop-color:#F9B776"/>
			<stop  offset="1" style="stop-color:#F47960"/>
		</linearGradient>
		<path class="st24" d="M978,489.4c0,0,22.8,132.2,41.6,142.8c18.8,10.6,31,11.9,31,11.9s26.6-36.4,5.6-65.6
			c-21-29.2-60.2-92.3-60.2-92.3L978,489.4z"/>
		<linearGradient id="SVGID_22_" gradientUnits="userSpaceOnUse" x1="901.8688" y1="302.7831" x2="988.4503" y2="302.7831">
			<stop  offset="0" style="stop-color:#2B3582"/>
			<stop  offset="1" style="stop-color:#150E42"/>
		</linearGradient>
		<path class="st25" d="M903.2,282.4c0,0,10,28.2,32.2,43c22.1,14.8,30.6,14,30.6,14s-8.9-13.7-9.3-22.9c0,0,8.8,30.1,27.3,22.9
			c18.5-7.1-22.2-78.4-56.3-74.1C893.4,269.6,903.2,282.4,903.2,282.4z"/>
		<linearGradient id="SVGID_23_" gradientUnits="userSpaceOnUse" x1="865.4565" y1="298.62" x2="919.9814" y2="298.62">
			<stop  offset="0" style="stop-color:#2B3582"/>
			<stop  offset="1" style="stop-color:#150E42"/>
		</linearGradient>
		<path class="st26" d="M917.4,290.9c0,0-36.6,17.1-39.5,41.3c0,0-22.5-15.4-7.1-47.9c9.5-20,41.3-23.3,46.7-14.6
			C923.1,278.3,917.4,290.9,917.4,290.9z"/>
		<linearGradient id="SVGID_24_" gradientUnits="userSpaceOnUse" x1="920.5253" y1="1266.8944" x2="953.9343" y2="1266.8944">
			<stop  offset="0" style="stop-color:#2B3582"/>
			<stop  offset="1" style="stop-color:#150E42"/>
		</linearGradient>
		<path style="fill:url(#SVGID_24_);" d="M953.9,1379.5h-32.6c-5.1-12.1,14.1-23.4,17.6-37.5c0.5-2.1,0.9-5.4,1.1-9.5
			c0.1-2,0.2-4.3,0.2-6.8c0.5-25.5-1.9-71.7-1.4-109.9c0.7-48-16.6-60.7-17.5-61.4c8.7,1.1,18.1,4.1,27.6,10l-6.2,162.2v0
			c0.2,0.4,6.3,14.6,8.5,25.6C953,1361.2,953.7,1374.7,953.9,1379.5z"/>
		<linearGradient id="SVGID_25_" gradientUnits="userSpaceOnUse" x1="932.6625" y1="1351.9938" x2="992.6074" y2="1351.9938">
			<stop  offset="0" style="stop-color:#2B3582"/>
			<stop  offset="1" style="stop-color:#150E42"/>
		</linearGradient>
		<path class="st28" d="M948,1327.6c0,0-4.2,18.3-8.5,24.5c-4.3,6.2-9.2,16.6-5.4,29h58.6c0,0-0.5-17.9-2.7-29s-7.8-24.1-7.8-24.1
			S962.4,1316.4,948,1327.6z"/>
	</g>
	<g>
		<linearGradient id="SVGID_26_" gradientUnits="userSpaceOnUse" x1="1488.868" y1="1335.2679" x2="1572.8237" y2="1335.2679">
			<stop  offset="0.1866" style="stop-color:#F17C54"/>
			<stop  offset="0.3257" style="stop-color:#F7B659"/>
			<stop  offset="0.3489" style="stop-color:#F8C05A"/>
			<stop  offset="1" style="stop-color:#F9C55A"/>
		</linearGradient>
		<path class="st29" d="M1568.9,1379h-78.8c-4.2-3.6,2.9-11.7,10.4-12.3c3.2-0.2,7.3,0.4,12,1.4c1.1-14.4,7.3-79.1,30.6-76.5
			c26.2,2.9,0,28.5-7.4,43.7c-5.5,11.2-11.3,27.3-13.9,34.9c2.1,0.5,4.3,0.9,6.6,1.3c3.5-10.7,16.4-46.6,32.9-44.5
			c19.3,2.4,11.6,16.8-2.1,25.4c-10,6.3-22.4,15.2-28.2,19.5c5,0.8,10.1,1.4,15.4,1.2C1559.8,1372.9,1566.4,1376.8,1568.9,1379z"/>
	</g>
	<g>
		<linearGradient id="SVGID_27_" gradientUnits="userSpaceOnUse" x1="336.1622" y1="1339.6683" x2="416.3123" y2="1339.6683">
			<stop  offset="0.1866" style="stop-color:#F17C54"/>
			<stop  offset="0.3257" style="stop-color:#F7B659"/>
			<stop  offset="0.3489" style="stop-color:#F8C05A"/>
			<stop  offset="1" style="stop-color:#F9C55A"/>
		</linearGradient>
		<path class="st30" d="M376.4,1375.3c-4.1-6.4-16.3-22.9-32.5-20.7c-17.7,2.4,19.6,14.1,31,20.8c-2.5,0-4.7-0.2-6.3-0.7
			c-7.6-2.7-20.7,2.5-24.9,4.3h72.7c-0.5-1.7-1.8-4.6-5.2-6.6c-1.2-0.7-3.6-0.8-6.7-0.6c4.3-5.1,7.3-21.4-4.7-17.2
			c-8.8,3.1-8.8,13-7.9,18.9c-1.9,0.3-3.8,0.6-5.6,0.9c-3.6-18.4-16.4-72.5-42.4-73.9c-26.3-1.5,22.3,56.1,38.5,74.4
			C380.2,1375.1,378.2,1375.3,376.4,1375.3z"/>
	</g>
	<g>
		<linearGradient id="SVGID_28_" gradientUnits="userSpaceOnUse" x1="728.6013" y1="1212.1494" x2="819.137" y2="1212.1494">
			<stop  offset="0.1866" style="stop-color:#F17C54"/>
			<stop  offset="0.3257" style="stop-color:#F7B659"/>
			<stop  offset="0.3489" style="stop-color:#F8C05A"/>
			<stop  offset="1" style="stop-color:#F9C55A"/>
		</linearGradient>
		<path class="st31" d="M819.1,1295.9c0,0-40.2-179.3-81.9-166.8C695.5,1141.6,819.1,1295.9,819.1,1295.9z"/>
	</g>
	<g>
		<linearGradient id="SVGID_29_" gradientUnits="userSpaceOnUse" x1="714.3831" y1="1262.0911" x2="797.7213" y2="1262.0911">
			<stop  offset="0.1866" style="stop-color:#F17C54"/>
			<stop  offset="0.3257" style="stop-color:#F7B659"/>
			<stop  offset="0.3489" style="stop-color:#F8C05A"/>
			<stop  offset="1" style="stop-color:#F9C55A"/>
		</linearGradient>
		<path class="st32" d="M797.7,1295.9c0,0-58.4-79.5-80.3-66C695.6,1243.4,797.7,1295.9,797.7,1295.9z"/>
	</g>
	<g>
		<linearGradient id="SVGID_30_" gradientUnits="userSpaceOnUse" x1="1145.8757" y1="1287.2736" x2="1176.7135" y2="1287.2736">
			<stop  offset="0.1866" style="stop-color:#F17C54"/>
			<stop  offset="0.3257" style="stop-color:#F7B659"/>
			<stop  offset="0.3489" style="stop-color:#F8C05A"/>
			<stop  offset="1" style="stop-color:#F9C55A"/>
		</linearGradient>
		<path class="st33" d="M1145.9,1332.7c1,0.4,3.1-104.2,25-89.4C1192.8,1258,1145.9,1332.7,1145.9,1332.7z"/>
	</g>
	<g>
		<linearGradient id="SVGID_31_" gradientUnits="userSpaceOnUse" x1="1116.969" y1="1299.7775" x2="1138.2896" y2="1299.7775">
			<stop  offset="0.1866" style="stop-color:#F17C54"/>
			<stop  offset="0.3257" style="stop-color:#F7B659"/>
			<stop  offset="0.3489" style="stop-color:#F8C05A"/>
			<stop  offset="1" style="stop-color:#F9C55A"/>
		</linearGradient>
		<path class="st34" d="M1138.3,1328.1c0,0-4.9-59.8-18.1-56.5C1107,1274.8,1138.3,1328.1,1138.3,1328.1z"/>
	</g>
	<g>
		<linearGradient id="SVGID_32_" gradientUnits="userSpaceOnUse" x1="1160.319" y1="1310.0282" x2="1195.9463" y2="1310.0282">
			<stop  offset="0.1866" style="stop-color:#F17C54"/>
			<stop  offset="0.3257" style="stop-color:#F7B659"/>
			<stop  offset="0.3489" style="stop-color:#F8C05A"/>
			<stop  offset="1" style="stop-color:#F9C55A"/>
		</linearGradient>
		<path class="st35" d="M1160.3,1328.4c0,0,27.9-44.8,34.8-35.5C1202.1,1302.2,1160.3,1328.4,1160.3,1328.4z"/>
	</g>
	<path class="st159" d="M176.6,1383.2c-1,0-1.8-0.8-1.8-1.8v-0.6c0-1,0.8-1.8,1.8-1.8"/>
</g>
</svg>
