<?xml version="1.0" encoding="utf-8"?>
<!-- Generator: Adobe Illustrator 25.0.1, SVG Export Plug-In . SVG Version: 6.00 Build 0)  -->
<svg version="1.1" id="Livello_1" xmlns="http://www.w3.org/2000/svg" xmlns:xlink="http://www.w3.org/1999/xlink" x="0px" y="0px"
	 viewBox="0 0 1210 1493" style="enable-background:new 0 0 1210 1493;" xml:space="preserve">
<style type="text/css">
	.st0{opacity:0.26;fill:url(#SVGID_1_);}
	.st1{fill:#BFC8D6;}
	.st2{fill:#FFFFFF;}
	.st3{fill:url(#SVGID_2_);}
	.st4{opacity:0.8;}
	.st5{fill:url(#SVGID_3_);}
	.st6{fill:url(#SVGID_4_);}
	.st7{fill:url(#SVGID_5_);}
	.st8{fill:url(#SVGID_6_);}
	.st9{fill:url(#SVGID_7_);}
	.st10{fill:url(#SVGID_8_);}
	.st11{fill:url(#SVGID_9_);}
	.st12{fill:url(#SVGID_10_);}
	.st13{opacity:0.3;fill:url(#SVGID_11_);}
	.st14{fill:url(#SVGID_12_);}
	.st15{opacity:0.3;fill:url(#SVGID_13_);}
	.st16{opacity:0.9;fill:#D8DEE8;}
	.st17{fill:url(#SVGID_14_);}
	.st18{opacity:0.3;fill:url(#SVGID_15_);}
	.st19{fill:url(#SVGID_16_);}
	.st20{fill:url(#SVGID_17_);}
	.st21{opacity:0.3;fill:url(#SVGID_18_);}
	.st22{fill:url(#SVGID_19_);}
	.st23{fill:url(#SVGID_20_);}
	.st24{fill:url(#SVGID_21_);}
	.st25{fill:url(#SVGID_22_);}
	.st26{fill:url(#SVGID_23_);}
	.st27{opacity:0.3;fill:url(#SVGID_24_);}
	.st28{fill:url(#SVGID_25_);}
	.st29{fill:url(#SVGID_26_);}
	.st30{fill:url(#SVGID_27_);}
	.st31{fill:url(#SVGID_28_);}
	.st32{fill:url(#SVGID_29_);}
	.st33{fill:url(#SVGID_30_);}
	.st34{fill:url(#SVGID_31_);}
	.st35{fill:url(#SVGID_32_);}
	.st36{opacity:0.3;fill:url(#SVGID_33_);}
	.st37{fill:url(#SVGID_34_);}
	.st38{fill:url(#SVGID_35_);}
	.st39{opacity:0.26;fill:url(#SVGID_36_);}
	.st40{fill:url(#SVGID_37_);}
	.st41{fill:url(#SVGID_38_);}
	.st42{fill:url(#SVGID_39_);}
	.st43{fill:url(#SVGID_40_);}
	.st44{fill:url(#SVGID_41_);}
	.st45{fill:url(#SVGID_42_);}
	.st46{fill:url(#SVGID_43_);}
	.st47{fill:url(#SVGID_44_);}
	.st48{fill:url(#SVGID_45_);}
	.st49{fill:url(#SVGID_46_);}
	.st50{fill:url(#SVGID_47_);}
	.st51{fill:url(#SVGID_48_);}
	.st52{fill:url(#SVGID_49_);}
	.st53{fill:url(#SVGID_50_);}
	.st54{fill:url(#SVGID_51_);}
	.st55{fill:url(#SVGID_52_);}
	.st56{fill:url(#SVGID_53_);}
	.st57{fill:url(#SVGID_54_);}
	.st58{fill:url(#SVGID_55_);}
	.st59{fill:url(#SVGID_56_);}
	.st60{fill:url(#SVGID_57_);}
	.st61{fill:url(#SVGID_58_);}
	.st62{fill:url(#SVGID_59_);}
	.st63{fill:url(#SVGID_60_);}
	.st64{fill:url(#SVGID_61_);}
	.st65{fill:url(#SVGID_62_);}
	.st66{fill:url(#SVGID_63_);}
	.st67{fill:url(#SVGID_64_);}
	.st68{fill:url(#SVGID_65_);}
	.st69{fill:url(#SVGID_66_);}
	.st70{fill:url(#SVGID_67_);}
	.st71{fill:url(#SVGID_68_);}
	.st72{fill:url(#SVGID_69_);}
	.st73{fill:url(#SVGID_70_);}
	.st74{fill:url(#SVGID_71_);}
	.st75{fill:url(#SVGID_72_);}
	.st76{opacity:0.6;fill:#FFFFFF;}
	.st77{opacity:0.26;fill:url(#SVGID_73_);}
	.st78{fill:url(#SVGID_74_);}
	.st79{opacity:0.3;fill:url(#SVGID_75_);}
	.st80{fill:url(#SVGID_76_);}
	.st81{fill:url(#SVGID_77_);}
	.st82{opacity:0.3;fill:url(#SVGID_78_);}
	.st83{fill:url(#SVGID_79_);}
	.st84{fill:url(#SVGID_80_);}
	.st85{clip-path:url(#SVGID_82_);fill:url(#SVGID_83_);}
	.st86{opacity:0.3;clip-path:url(#SVGID_82_);fill:url(#SVGID_84_);}
	.st87{fill:url(#SVGID_85_);}
	.st88{fill:url(#SVGID_86_);}
	.st89{fill:url(#SVGID_87_);}
	.st90{fill:url(#SVGID_88_);}
	.st91{fill:url(#SVGID_89_);}
	.st92{fill:url(#SVGID_90_);}
	.st93{fill:url(#SVGID_91_);}
	.st94{fill:url(#SVGID_92_);}
	.st95{fill:url(#SVGID_93_);}
	.st96{fill:url(#SVGID_94_);}
	.st97{fill:url(#SVGID_95_);}
	.st98{fill:url(#SVGID_96_);}
	.st99{fill:#26264F;}
	.st100{fill:url(#SVGID_97_);}
	.st101{fill:url(#SVGID_98_);}
	.st102{fill:url(#SVGID_99_);}
	.st103{fill:url(#SVGID_100_);}
	.st104{fill:url(#SVGID_101_);}
	.st105{opacity:0.3;fill:url(#SVGID_102_);}
	.st106{fill:url(#SVGID_103_);}
	.st107{fill:url(#SVGID_104_);}
	.st108{fill:url(#SVGID_105_);}
	.st109{fill:url(#SVGID_106_);}
	.st110{fill:url(#SVGID_107_);}
	.st111{fill:url(#SVGID_108_);}
	.st112{fill:url(#SVGID_109_);}
	.st113{fill:url(#SVGID_110_);}
	.st114{fill:url(#SVGID_111_);}
	.st115{opacity:0.3;fill:url(#SVGID_112_);}
	.st116{fill:url(#SVGID_113_);}
	.st117{fill:url(#SVGID_114_);}
	.st118{fill:url(#SVGID_115_);}
	.st119{fill:url(#SVGID_116_);}
	.st120{fill:url(#SVGID_117_);}
	.st121{fill:url(#SVGID_118_);}
	.st122{fill:url(#SVGID_119_);}
	.st123{fill:url(#SVGID_120_);}
	.st124{fill:url(#SVGID_121_);}
	.st125{opacity:0.26;fill:url(#SVGID_122_);}
	.st126{fill:url(#SVGID_123_);}
	.st127{fill:url(#SVGID_124_);}
	.st128{fill:url(#SVGID_125_);}
	.st129{fill:url(#SVGID_126_);}
	.st130{fill:url(#SVGID_127_);}
	.st131{fill:url(#SVGID_128_);}
	.st132{fill:url(#SVGID_129_);}
	.st133{fill:url(#SVGID_130_);}
	.st134{fill:url(#SVGID_131_);}
	.st135{fill:#ED985F;}
	.st136{fill:url(#SVGID_132_);}
	.st137{fill:#FFB27D;}
	.st138{fill:url(#SVGID_133_);}
	.st139{fill:url(#SVGID_134_);}
	.st140{fill:url(#SVGID_135_);}
	.st141{fill:url(#SVGID_136_);}
	.st142{fill:url(#SVGID_137_);}
	.st143{fill:url(#SVGID_138_);}
	.st144{fill:url(#SVGID_139_);}
	.st145{fill:url(#SVGID_140_);}
	.st146{fill:url(#SVGID_141_);}
	.st147{fill:url(#SVGID_142_);}
	.st148{fill:url(#SVGID_143_);}
	.st149{fill:url(#SVGID_144_);}
	.st150{fill:url(#SVGID_145_);}
	.st151{fill:url(#SVGID_146_);}
	.st152{fill:url(#SVGID_147_);}
	.st153{fill:url(#SVGID_148_);}
	.st154{fill:url(#SVGID_149_);}
	.st155{fill:url(#SVGID_150_);}
	.st156{fill:url(#SVGID_151_);}
	.st157{fill:url(#SVGID_152_);}
	.st158{fill:url(#SVGID_153_);}
	.st159{fill:#2E3552;}
</style>
<g>
	<g>
		<g>
			<g>
				<linearGradient id="SVGID_1_" gradientUnits="userSpaceOnUse" x1="207.1452" y1="811.3032" x2="773.1617" y2="811.3032">
					<stop  offset="5.618000e-03" style="stop-color:#F17C54"/>
					<stop  offset="0.8017" style="stop-color:#F7B659"/>
					<stop  offset="1" style="stop-color:#F9C55A"/>
				</linearGradient>
				<path class="st0" d="M233.7,1141.4l38-196.9c6.7-39.1-6.5-79.7-35.2-108.9c-15.7-16.1-25.6-36.7-27.8-58.4
					c-3.4-34-3-89.3,19.7-156.9c30.5-90.8,125.3-148.9,226.9-137.6c51.8,5.8,113.2,19.8,179,49.2c38.4,17.2,65,51.4,69.3,90.9
					c2,18.4,5.6,38.8,12.3,56.9c8.4,22.9,12,38.6,13.5,48.8c1.4,9.3-2.6,18.4-10.4,24.3c-8,6.1-10,16.6-4.7,25l58.9,94.1v3
					c0,9.3-8,16.7-18.2,16.9l-35.5,0.8l1.3,32.8c0.3,6.3-4.3,11.8-11,13.2l-8,1.6l7.3,5.7c6,4.6,7.5,12.4,3.7,18.2l-10.4,15.6
					c-4.7,7-4,16.2,1.7,23.2c9.4,11.6,11.4,26.6,5,38.9l-2.9,5.6c-13.3,25.9-44.8,38.8-76,31.2c-35-8.5-79.3-21.1-109.4-36.3
					c-8.5-4.3-18.3,1-18.3,9.8v89.4H233.7z"/>
				<path class="st1" d="M569.1,722.6c27.8-6,36.1,5.1,58.6-3.3c27.1-10.1,47.4-37.2,50.8-64.3c4.8-38.6-25.5-67.2-46.4-86.8
					c-47.8-45-105.9-55.4-122.8-58.2c-23-3.8-121.2-16.9-199,47.9c-54,44.9-67.2,101.7-70.9,118.6c-5.3,24.6-22,101.5,21.5,131.7
					c25.8,17.9,67.2,15.7,93.5,0.6c19.4-11.1,15.4-19.2,34.5-30.2c38.1-22,64.8,5.8,109.9-11.4C534.8,753.4,531.5,730.7,569.1,722.6
					z"/>
			</g>
		</g>
		<g>
			<path class="st2" d="M424.1,687.1l-9.1-1.2c-0.2-4.4-0.7-8.8-1.7-13l8.5-3.5c2.4-1,3.5-3.7,2.5-6.1l-6.2-14.9
				c-1-2.4-3.7-3.5-6.1-2.5l-8.5,3.5c-2.3-3.6-4.9-7.1-7.9-10.2l5.6-7.3c1.6-2,1.2-5-0.9-6.5l-12.7-9.8c-2-1.6-4.9-1.2-6.5,0.9
				l-5.7,7.3c-3.8-1.9-7.7-3.6-11.8-4.8l1.3-9.2c0.3-2.5-1.4-4.9-4-5.2l-15.9-2.1c-2.5-0.3-4.9,1.5-5.2,4l-1.3,9.3
				c-4.3,0.2-8.6,0.8-12.7,1.7l-3.5-8.7c-1-2.4-3.7-3.5-6-2.5l-14.9,6.1c-2.4,1-3.5,3.7-2.6,6.1l3.5,8.8c-3.6,2.3-7,4.9-10.2,7.8
				l-7.5-5.8c-2-1.6-5-1.2-6.6,0.9l-10,12.8c-1.6,2.1-1.3,5,0.8,6.6l7.5,5.8c-2,3.8-3.7,7.7-5,11.9l-9.5-1.3
				c-2.6-0.3-4.9,1.5-5.3,4.1l-2.4,16.2c-0.4,2.6,1.4,5,4,5.3l9.6,1.3c0.1,4.4,0.6,8.7,1.4,12.8l-9,3.7c-2.4,1-3.6,3.8-2.7,6.2
				l6,15.2c1,2.4,3.7,3.6,6.1,2.6l9-3.8c2.3,3.7,4.8,7.1,7.7,10.4l-6,7.8c-1.6,2.1-1.3,5.1,0.8,6.7l12.8,10.1c2.1,1.6,5,1.2,6.6-0.9
				l5.9-7.7c3.8,2,7.8,3.7,11.9,5l-1.3,9.6c-0.4,2.6,1.4,5.1,4,5.4l16.2,2.1c2.6,0.3,5-1.5,5.3-4.2l1.3-9.6
				c4.4-0.2,8.7-0.8,12.9-1.7l3.6,8.8c1,2.5,3.7,3.6,6.2,2.6l15.1-6.4c2.4-1,3.6-3.8,2.6-6.3l-3.6-8.8c3.7-2.4,7.2-5.1,10.4-8.1
				l7.4,5.7c2.1,1.6,5,1.2,6.6-0.9l9.9-13.1c1.6-2.1,1.2-5.1-0.9-6.7l-7.3-5.7c2-3.9,3.6-8,5-12.2l9.1,1.2c2.6,0.3,4.9-1.5,5.3-4.1
				l2.1-16.2C428.5,689.8,426.7,687.4,424.1,687.1z M398.9,696.7c-4.3,32.2-33.6,55-65.6,50.8c-31.9-4.2-54.1-33.8-49.4-65.9
				c4.6-31.9,33.9-54.3,65.5-50.2C381,635.6,403.2,664.7,398.9,696.7z"/>
			<path class="st2" d="M500.8,578l-6.1-0.8c-0.1-3-0.5-5.9-1.1-8.7l5.7-2.4c1.6-0.7,2.3-2.5,1.7-4.1l-4.1-10
				c-0.7-1.6-2.5-2.4-4.1-1.7l-5.7,2.4c-1.6-2.4-3.3-4.7-5.3-6.9l3.8-4.9c1-1.4,0.8-3.3-0.6-4.4l-8.5-6.5c-1.4-1-3.3-0.8-4.4,0.6
				l-3.8,4.9c-2.5-1.3-5.2-2.4-7.9-3.3l0.8-6.2c0.2-1.7-1-3.3-2.7-3.5l-10.6-1.4c-1.7-0.2-3.3,1-3.5,2.7l-0.9,6.2
				c-2.9,0.1-5.7,0.5-8.5,1.1l-2.4-5.8c-0.6-1.6-2.5-2.3-4.1-1.7l-10,4.1c-1.6,0.7-2.4,2.5-1.7,4.1l2.4,5.9
				c-2.4,1.5-4.7,3.3-6.8,5.2l-5-3.9c-1.4-1.1-3.3-0.8-4.4,0.6l-6.7,8.6c-1.1,1.4-0.8,3.3,0.5,4.4l5,3.9c-1.3,2.5-2.5,5.2-3.4,8
				l-6.4-0.8c-1.7-0.2-3.3,1-3.6,2.7l-1.6,10.8c-0.3,1.7,0.9,3.3,2.7,3.6l6.4,0.8c0.1,2.9,0.4,5.8,1,8.6l-6,2.5
				c-1.6,0.7-2.4,2.5-1.8,4.2l4,10.2c0.6,1.6,2.5,2.4,4.1,1.7l6-2.5c1.5,2.5,3.2,4.8,5.2,6.9l-4,5.2c-1.1,1.4-0.9,3.4,0.5,4.5
				l8.6,6.7c1.4,1.1,3.4,0.8,4.5-0.6l4-5.2c2.5,1.3,5.2,2.5,8,3.4l-0.9,6.5c-0.2,1.8,1,3.4,2.7,3.6l10.9,1.4c1.7,0.2,3.3-1,3.6-2.8
				l0.9-6.4c3-0.1,5.9-0.5,8.7-1.1l2.4,5.9c0.7,1.6,2.5,2.4,4.1,1.7l10.1-4.3c1.6-0.7,2.4-2.6,1.7-4.2l-2.4-5.9
				c2.5-1.6,4.8-3.4,7-5.4l4.9,3.8c1.4,1.1,3.4,0.8,4.4-0.6l6.6-8.8c1.1-1.4,0.8-3.4-0.6-4.5l-4.9-3.8c1.3-2.6,2.4-5.3,3.3-8.2
				l6.1,0.8c1.7,0.2,3.3-1,3.5-2.7l1.4-10.9C503.7,579.8,502.5,578.3,500.8,578z M483.9,584.5c-2.9,21.6-22.5,36.9-44,34.1
				c-21.4-2.8-36.2-22.6-33.1-44.2c3.1-21.4,22.7-36.4,43.9-33.6C471.9,543.5,486.7,563.1,483.9,584.5z"/>
			<path class="st2" d="M624.9,646.5l-7.2-0.9c-0.1-3.5-0.6-6.9-1.3-10.2l6.7-2.8c1.9-0.8,2.8-2.9,2-4.8l-4.9-11.7
				c-0.8-1.9-2.9-2.8-4.8-2l-6.7,2.8c-1.8-2.9-3.9-5.6-6.2-8.1l4.4-5.8c1.2-1.6,0.9-3.9-0.7-5.1l-10-7.7c-1.6-1.2-3.9-0.9-5.1,0.7
				l-4.5,5.8c-3-1.5-6.1-2.8-9.3-3.8l1-7.3c0.3-2-1.1-3.8-3.1-4.1l-12.5-1.6c-2-0.3-3.8,1.1-4.1,3.1l-1,7.3c-3.4,0.2-6.7,0.6-10,1.3
				l-2.8-6.8c-0.8-1.9-2.9-2.7-4.8-2l-11.7,4.8c-1.9,0.8-2.8,2.9-2,4.8l2.8,6.9c-2.8,1.8-5.5,3.9-8,6.1l-5.9-4.6
				c-1.6-1.2-3.9-0.9-5.2,0.7l-7.9,10.1c-1.3,1.6-1,3.9,0.6,5.2l5.9,4.6c-1.6,3-2.9,6.1-4,9.3l-7.5-1c-2-0.3-3.9,1.2-4.2,3.2
				l-1.9,12.7c-0.3,2,1.1,3.9,3.1,4.2l7.5,1c0.1,3.4,0.5,6.8,1.1,10.1l-7.1,2.9c-1.9,0.8-2.8,3-2.1,4.9l4.7,12
				c0.8,1.9,2.9,2.8,4.8,2l7.1-3c1.8,2.9,3.8,5.6,6.1,8.1l-4.7,6.1c-1.3,1.7-1,4,0.6,5.3l10.1,7.9c1.6,1.3,4,0.9,5.2-0.7l4.7-6.1
				c3,1.6,6.1,2.9,9.4,3.9l-1.1,7.6c-0.3,2.1,1.1,4,3.2,4.2l12.7,1.7c2,0.3,3.9-1.2,4.2-3.3l1-7.5c3.5-0.1,6.9-0.6,10.2-1.3l2.8,6.9
				c0.8,1.9,2.9,2.8,4.8,2l11.9-5c1.9-0.8,2.8-3,2-4.9l-2.8-6.9c2.9-1.9,5.6-4,8.2-6.3l5.8,4.5c1.6,1.3,4,0.9,5.2-0.7l7.8-10.3
				c1.2-1.6,0.9-4-0.7-5.3l-5.8-4.5c1.6-3,2.9-6.3,3.9-9.6l7.2,0.9c2,0.3,3.9-1.2,4.1-3.2l1.6-12.7
				C628.3,648.6,626.9,646.8,624.9,646.5z M605.1,654.1c-3.4,25.3-26.5,43.3-51.6,40c-25.1-3.3-42.5-26.6-38.9-51.8
				c3.6-25.1,26.7-42.7,51.5-39.5C591,606,608.4,628.9,605.1,654.1z"/>
		</g>
	</g>
	<g>
		<g>
			
				<linearGradient id="SVGID_2_" gradientUnits="userSpaceOnUse" x1="1776.4496" y1="788.3244" x2="1665.5894" y2="1646.5914" gradientTransform="matrix(-1 0 0 1 2012.0648 0)">
				<stop  offset="0" style="stop-color:#2B3582"/>
				<stop  offset="1" style="stop-color:#150E42"/>
			</linearGradient>
			<path class="st3" d="M288.5,1149.7c-43.1-5.5-97.6-20.1-119.6-61.1c-5.2-9.8-10.4-28.7,2.7-35.8c12-6.5,27.6,0.4,36.5,8.9
				c6.6,6.2,11.7,20.2,19.1,24.6c10.8,6.4,16.6-11.1,16.4-18.4c-0.5-16.2-20.5-22.9-33.7-26.4c-22-5.8-47.6-10.9-46.3-35.7
				c1.4-24.8,25.6-39.7,44.2-28.8c15.3,8.9,13.2,28,23.6,39.5c9.3,10.2,12.5-6.3,11.9-14.4c-1.3-17.6-16.8-30.3-28.2-42.1
				c-12.9-13.3-27.1-40.1-13.4-57.8c7.9-10.1,27.9-12.5,39.8-10.8c58,8.4,19.5,83.4,30.1,91.8s20.5-6.3,20.5-28.6
				c0-22.3,3.4-38.7,26.6-31.6c23.3,7.1,27.7,65.3,1.1,87.7c-26.6,22.4,1.7,46.8,8.8,30.7c5.1-11.6,9.7-41.9,24.5-45.2
				c24.8-5.5,24.4,45.1,17.3,56.9c-10,16.5-32.6,20.1-45.2,34.3c-3.7,4.1-12,14.4-8.7,20.4c4.5,8.4,17-0.6,21.6-4.5
				c10.3-8.8,24.7-38.7,39.2-18.8C395.5,1109.1,365.4,1145.4,288.5,1149.7z"/>
			<g class="st4">
				<path class="st2" d="M282.3,1144.9c1,0,1.8-0.6,1.9-1.6c0-0.9,1.2-89-37.3-194c-0.4-1-1.4-1.4-2.4-1c-1,0.4-1.5,1.5-1.1,2.4
					c38.3,104.3,37.1,191.6,37.1,192.5C280.4,1144.3,281.2,1144.9,282.3,1144.9C282.3,1144.9,282.3,1144.9,282.3,1144.9z"/>
			</g>
		</g>
		<g>
			
				<linearGradient id="SVGID_3_" gradientUnits="userSpaceOnUse" x1="1704.8448" y1="914.2669" x2="1633.2833" y2="1468.2889" gradientTransform="matrix(-1 0 0 1 2012.0648 0)">
				<stop  offset="0.1866" style="stop-color:#F17C54"/>
				<stop  offset="0.3257" style="stop-color:#F7B659"/>
				<stop  offset="0.3489" style="stop-color:#F8C05A"/>
				<stop  offset="1" style="stop-color:#F9C55A"/>
			</linearGradient>
			<path class="st5" d="M271.7,1108.1c7-5.9,21.8,3.3,28,6.9c3.6,2,8.5,5.2,12.7,3.4c4.5-1.9,4.2-6.7,1.5-10
				c-4.9-6-14.3-7.7-21.1-10.6c-7.3-3.1-14-7.4-17.6-14.8c-2.9-5.9-3.5-14.6-0.3-20.4c9-16,22-3.5,29.3,6
				c3.5,4.6,11.5,12.6,17.5,7.2c6.4-5.8,0.9-16.2-4.1-20.8c-6.5-6-14.3-10.1-21.4-15.3c-6.4-4.7-12.9-11.4-8.7-19.7
				c3.3-6.4,11.5-10,18.5-9.4c16.3,1.3,18.8,25,29.5,34.1c3.8,3.2,12.4,5.8,16.9,2.6c4.6-3.2,1.6-10.6,0-14.6
				c-4.9-11.9-40.1-51.9-10.9-57c7.3-1.3,17.5,1,23.2,5.7c10.9,8.8,16.7,26.2,19.5,39.5c4.5,20.8,4.3,43.9-0.8,64.6
				c-11.1,45.7-37.3,60.4-37.3,60.4c-11.3,3.7-25.4,5.6-37.2,3.1c-13.8-2.9-30.2-13.1-37.1-25.8
				C269.8,1118.9,267.4,1111.7,271.7,1108.1z"/>
		</g>
	</g>
	<g>
		<g>
			<g>
				<linearGradient id="SVGID_4_" gradientUnits="userSpaceOnUse" x1="651.7012" y1="610.2698" x2="711.4631" y2="610.2698">
					<stop  offset="0" style="stop-color:#444B8C"/>
					<stop  offset="0.9964" style="stop-color:#26264F"/>
				</linearGradient>
				<polygon class="st6" points="653.9,710.9 651.7,710.3 709.3,509.7 711.5,510.3 				"/>
			</g>
			<g>
				<linearGradient id="SVGID_5_" gradientUnits="userSpaceOnUse" x1="908.6023" y1="574.1262" x2="933.1563" y2="574.1262">
					<stop  offset="0" style="stop-color:#444B8C"/>
					<stop  offset="0.9964" style="stop-color:#26264F"/>
				</linearGradient>
				<polygon class="st7" points="930.9,749.9 908.6,398.5 910.8,398.3 933.2,749.8 				"/>
			</g>
			<g>
				<linearGradient id="SVGID_6_" gradientUnits="userSpaceOnUse" x1="867.1188" y1="636.3023" x2="900.7362" y2="636.3023">
					<stop  offset="0" style="stop-color:#444B8C"/>
					<stop  offset="0.9964" style="stop-color:#26264F"/>
				</linearGradient>
				<polygon class="st8" points="869.3,815.3 867.1,815.1 898.5,457.3 900.7,457.5 				"/>
			</g>
			<g>
				<linearGradient id="SVGID_7_" gradientUnits="userSpaceOnUse" x1="757.2155" y1="658.2456" x2="856.6901" y2="658.2456">
					<stop  offset="0" style="stop-color:#444B8C"/>
					<stop  offset="0.9964" style="stop-color:#26264F"/>
				</linearGradient>
				<polygon class="st9" points="759.3,812.4 757.2,811.8 854.6,504 856.7,504.7 				"/>
			</g>
		</g>
		<g>
			
				<linearGradient id="SVGID_8_" gradientUnits="userSpaceOnUse" x1="1506.0145" y1="409.579" x2="1495.3326" y2="487.8487" gradientTransform="matrix(0.9936 0.113 -0.113 0.9936 -599.7018 -218.7936)">
				<stop  offset="0" style="stop-color:#FCB148"/>
				<stop  offset="5.207239e-02" style="stop-color:#FDBA46"/>
				<stop  offset="0.1424" style="stop-color:#FFC244"/>
				<stop  offset="0.3183" style="stop-color:#FFC444"/>
				<stop  offset="0.4849" style="stop-color:#FDB946"/>
				<stop  offset="0.7754" style="stop-color:#F99C4D"/>
				<stop  offset="0.8658" style="stop-color:#F8924F"/>
				<stop  offset="1" style="stop-color:#F8924F"/>
			</linearGradient>
			<path class="st10" d="M769,340.9c0,0,64.2,12.8,98.6,28c34.3,15.2,65.4,25.5,57.1,31.7c-8.3,6.2-26.7,28-70.6,0.4
				c-43.8-27.6-89-25.6-89-25.6L769,340.9z"/>
			
				<linearGradient id="SVGID_9_" gradientUnits="userSpaceOnUse" x1="1506.0145" y1="409.579" x2="1495.3326" y2="487.8487" gradientTransform="matrix(0.9936 0.113 -0.113 0.9936 -599.7018 -218.7936)">
				<stop  offset="0" style="stop-color:#F9B776"/>
				<stop  offset="1" style="stop-color:#F47960"/>
			</linearGradient>
			<path class="st11" d="M769,340.9c0,0,64.2,12.8,98.6,28c34.3,15.2,65.4,25.5,57.1,31.7c-8.3,6.2-26.7,28-70.6,0.4
				c-43.8-27.6-89-25.6-89-25.6L769,340.9z"/>
			<linearGradient id="SVGID_10_" gradientUnits="userSpaceOnUse" x1="859.7705" y1="341.831" x2="830.9801" y2="552.7867">
				<stop  offset="0" style="stop-color:#F9B776"/>
				<stop  offset="1" style="stop-color:#F47960"/>
			</linearGradient>
			<path class="st12" d="M897.4,462.9c-21-18.6-42.6-34.5-59-45.8c-16.8-11.6-28.2-18.4-28.2-18.4l-26.3-61.3
				c0,0,76,30.6,102.1,57.5c8.6,8.9,15.9,23.3,23.7,37.4v0C922.9,461,925.9,488.1,897.4,462.9z"/>
			<linearGradient id="SVGID_11_" gradientUnits="userSpaceOnUse" x1="875.1551" y1="360.3827" x2="850.1954" y2="543.2695">
				<stop  offset="0" style="stop-color:#FCB148"/>
				<stop  offset="5.207239e-02" style="stop-color:#FDBA46"/>
				<stop  offset="0.1424" style="stop-color:#FFC244"/>
				<stop  offset="0.3183" style="stop-color:#FFC444"/>
				<stop  offset="0.4849" style="stop-color:#FDB946"/>
				<stop  offset="0.7754" style="stop-color:#F99C4D"/>
				<stop  offset="0.8658" style="stop-color:#F8924F"/>
				<stop  offset="1" style="stop-color:#F8924F"/>
			</linearGradient>
			<path class="st13" d="M897.4,462.9c-21-18.6-42.6-34.5-59-45.8c-11.3-16.7-20.5-37-21.5-59.5c51.4,58.5,92.7,74.7,92.7,74.7v0
				C922.9,461,925.9,488.1,897.4,462.9z"/>
			<linearGradient id="SVGID_12_" gradientUnits="userSpaceOnUse" x1="704.8952" y1="289.6491" x2="648.506" y2="702.8281">
				<stop  offset="0" style="stop-color:#F9B776"/>
				<stop  offset="1" style="stop-color:#F47960"/>
			</linearGradient>
			<path class="st14" d="M843.2,546.8c-17.5-27.5,1.9-55-1.9-74.4c-3.8-19.4-59.4-48.8-76.2-59.4c-26.9-16.9-73.8-21.9-80-3.1
				c-3.7,11.2,10.1,23.7,23,38.5c8.7,10,16.9,21,18.9,33.4c5,30.6-3.8,62.5-35,28.8c-31.3-33.8-112.8-78.2-127.2-105
				c-14.4-26.9-65.3-2.5-65.3-2.5V286.1l18.8,0.6c0,0,136.3-5.1,228.9,29.9s122.8,107,135.9,133.3
				C896.2,476.1,860.7,574.3,843.2,546.8z"/>
			<linearGradient id="SVGID_13_" gradientUnits="userSpaceOnUse" x1="624.058" y1="347.1924" x2="585.5013" y2="629.709">
				<stop  offset="0" style="stop-color:#FCB148"/>
				<stop  offset="5.207239e-02" style="stop-color:#FDBA46"/>
				<stop  offset="0.1424" style="stop-color:#FFC244"/>
				<stop  offset="0.3183" style="stop-color:#FFC444"/>
				<stop  offset="0.4849" style="stop-color:#FDB946"/>
				<stop  offset="0.7754" style="stop-color:#F99C4D"/>
				<stop  offset="0.8658" style="stop-color:#F8924F"/>
				<stop  offset="1" style="stop-color:#F8924F"/>
			</linearGradient>
			<path class="st15" d="M692,510.5c-31.3-33.8-112.8-78.2-127.2-105c-14.4-26.9-65.3-2.5-65.3-2.5v-61.6c15.5-2.8,41.2-1.7,72,23.9
				c49.2,40.8,61.8,84.2,109.3,84.2c11.9,0,20.7-0.6,27.2-1.1c8.7,10,16.9,21,18.9,33.4C731.9,512.4,723.2,544.3,692,510.5z"/>
			<path class="st2" d="M509.4,275v129.6c0,5-3.4,8.4-8.4,8.4h-40.3V266H501C506,266,509.4,270.1,509.4,275z"/>
			<path class="st16" d="M509.4,373v31.7c0,5-3.4,8.4-8.4,8.4h-40.3V277c15.5,5.5,35.8,16.7,38.5,38.3
				C501.5,333.7,505,354.8,509.4,373z"/>
			<linearGradient id="SVGID_14_" gradientUnits="userSpaceOnUse" x1="408.8419" y1="236.7726" x2="361.4075" y2="584.3375">
				<stop  offset="0" style="stop-color:#444B8C"/>
				<stop  offset="0.9964" style="stop-color:#3E4177"/>
			</linearGradient>
			<path class="st17" d="M478.7,256.1h-41.4h-12.3h-25.1h-16.3h-25.1h-12.3h-41.4v170.2h41.4h12.3h25.1h16.3h25.1h12.3h41.4
				c3.5,0,6.4-3,6.4-6.4V262.3C485.1,258.9,482.2,256.1,478.7,256.1z"/>
			<linearGradient id="SVGID_15_" gradientUnits="userSpaceOnUse" x1="304.9044" y1="341.1837" x2="440.8605" y2="341.1837">
				<stop  offset="0" style="stop-color:#444B8C"/>
				<stop  offset="0.9964" style="stop-color:#3E4177"/>
			</linearGradient>
			<path class="st18" d="M440.9,426.3h-136V256.1h24.9c16.3,6.8,29.8,23.9,23.9,63.4C344,384.8,405.5,404.2,440.9,426.3z"/>
		</g>
		<g>
			<linearGradient id="SVGID_16_" gradientUnits="userSpaceOnUse" x1="721.8818" y1="704.4702" x2="677.8937" y2="1026.7842">
				<stop  offset="0" style="stop-color:#2B3582"/>
				<stop  offset="1" style="stop-color:#150E42"/>
			</linearGradient>
			<path class="st19" d="M793.7,757.4l-5.6,66.7c0,0-8,4.4-22,8.3c-13.1,3.7-31.6,7-53.6,5.9c-22.2-1.1-40.5-31.5-53.4-62.2
				c-0.5-1.2-1-2.4-1.5-3.7c0,0,0.3-0.1,0.3-0.1c-0.2-0.5-0.3-1-0.3-1.5v0c-12.2-30.3-19.2-59.3-19.2-59.3s5.5-5.2,13.8-5.2
				s50.8,55.7,59.9,70.1C721.2,790.9,793.7,757.4,793.7,757.4z"/>
			<linearGradient id="SVGID_17_" gradientUnits="userSpaceOnUse" x1="635.8074" y1="696.7255" x2="629.548" y2="742.5898">
				<stop  offset="0" style="stop-color:#F9B776"/>
				<stop  offset="1" style="stop-color:#F47960"/>
			</linearGradient>
			<path class="st20" d="M652.8,710.6c0,0-3.6-14.9-12.9-10.8s-30.7,17.7-24.9,20.3c5.7,2.5,8.5,1.4,12.8-1.5
				c4.3-2.9,6.9-8.3,6.9-6.1c0,2.2-0.2,7.7,1.3,8.2c1.5,0.5-0.1-2.9,2.7-5s5.2-3.6,5.8-4.5C645,710.4,651,712.6,652.8,710.6z"/>
			<linearGradient id="SVGID_18_" gradientUnits="userSpaceOnUse" x1="657.412" y1="770.6936" x2="656.8766" y2="774.6163">
				<stop  offset="0" style="stop-color:#AA80F9"/>
				<stop  offset="0.9964" style="stop-color:#6165D7"/>
			</linearGradient>
			<path class="st21" d="M657,771c0.2,0.4,0.4,0.9,0.6,1.5C657.4,771.9,657.2,771.5,657,771z"/>
			<linearGradient id="SVGID_19_" gradientUnits="userSpaceOnUse" x1="717.9803" y1="771.1463" x2="696.6886" y2="927.1565">
				<stop  offset="0" style="stop-color:#2B3582"/>
				<stop  offset="1" style="stop-color:#150E42"/>
			</linearGradient>
			<path class="st22" d="M770.1,815.8l-4,16.6c-13.1,3.7-31.6,7-53.6,5.9c-22.2-1.1-40.5-31.5-53.4-62.2
				c10.4,22.9,40.4,49.2,66.2,31.4C752.5,788.8,770.1,815.8,770.1,815.8z"/>
			<linearGradient id="SVGID_20_" gradientUnits="userSpaceOnUse" x1="933.4725" y1="725.3112" x2="929.2571" y2="756.1985">
				<stop  offset="0" style="stop-color:#FFC444"/>
				<stop  offset="0.9964" style="stop-color:#F36F56"/>
			</linearGradient>
			<path class="st23" d="M922.4,740.7c0,0,0.1,17.3,5.7,16.8c5.7-0.5,10.1,0.2,9.9,0s-2.3-16.1-2.3-16.1L922.4,740.7z"/>
			<g>
				
					<linearGradient id="SVGID_21_" gradientUnits="userSpaceOnUse" x1="1545.6453" y1="1103.7018" x2="1551.7361" y2="1181.22" gradientTransform="matrix(1 -2.400000e-03 2.400000e-03 1 -794.0109 1.8903)">
					<stop  offset="0" style="stop-color:#2B3582"/>
					<stop  offset="1" style="stop-color:#150E42"/>
				</linearGradient>
				<path class="st24" d="M766.3,1140.5c0,0-24.5,11.2-24.9,13c-0.4,1.8,15.8-0.6,22.4-0.4c6.6,0.2,12-1.7,11.4-4.5
					c-0.6-2.8-2.9-9.8-2.9-9.8L766.3,1140.5z"/>
				
					<linearGradient id="SVGID_22_" gradientUnits="userSpaceOnUse" x1="1561.3689" y1="1146.8588" x2="1560.2616" y2="1066.5742" gradientTransform="matrix(1 -2.400000e-03 2.400000e-03 1 -794.0109 1.8903)">
					<stop  offset="0" style="stop-color:#F9B776"/>
					<stop  offset="1" style="stop-color:#F47960"/>
				</linearGradient>
				<path class="st25" d="M765.3,1131.5l1.5,11c0,0,3.9,1.4,6.5-0.3l1.1-12.1L765.3,1131.5z"/>
				<linearGradient id="SVGID_23_" gradientUnits="userSpaceOnUse" x1="750.4941" y1="1014.9177" x2="809.7565" y2="1014.9177">
					<stop  offset="0" style="stop-color:#444B8C"/>
					<stop  offset="0.9964" style="stop-color:#3E4177"/>
				</linearGradient>
				<path class="st26" d="M806.7,943.7c-5.6,34.8-10.4,35.7-13.7,60.2c-3.8,27.6,1.8,30.9-2.9,68.2c-1.3,10.6-3.2,21.7-6.3,34
					c-2.9,11.7-6.2,21.6-9,29.1c-1.4,0.1-2.8,0.2-4.3,0.2c-2.2,0.1-4.3,0.1-6.3,0c-0.6-3.9-1.2-7.9-1.8-11.9c-0.2-1.3-0.4-2.7-0.6-4
					c-4.4-31.7-7.9-66.1-9.8-102.9c-1.4-27.8-1.9-54.2-1.5-79.3c0.1-9.4,0.4-18.6,0.7-27.7c4-2.5,8-4.7,11.8-6.6
					c13.2-6.6,25.5-9.9,34.2-8.6c0.8,0.1,1.6,0.3,2.3,0.5c0,0,0,0,0,0c0.3,0.1,0.5,0.2,0.8,0.2c0.3,0.1,0.5,0.2,0.8,0.3
					c0.5,0.2,1,0.4,1.5,0.6l0,0c0.5,0.2,0.9,0.5,1.4,0.8c0.7,0.4,1.3,0.9,1.8,1.4c0.2,0.2,0.5,0.5,0.8,0.9c0.1,0.1,0.1,0.1,0.2,0.2
					c0.1,0.1,0.1,0.2,0.2,0.2c0.1,0.1,0.1,0.2,0.2,0.3c0.2,0.2,0.3,0.5,0.5,0.8c0.2,0.3,0.3,0.7,0.5,1.1c0,0.1,0.1,0.2,0.1,0.4
					c0.1,0.3,0.2,0.6,0.3,0.9c0.2,0.9,0.5,1.9,0.6,3.2c0,0.2,0.1,0.5,0.1,0.8c0.2,1.3,0.3,2.8,0.3,4.5c0,0.3,0,0.6,0,0.9
					C809.9,919.2,809.1,929,806.7,943.7z"/>
				<linearGradient id="SVGID_24_" gradientUnits="userSpaceOnUse" x1="746.2187" y1="1014.845" x2="809.7563" y2="1014.845">
					<stop  offset="0" style="stop-color:#444B8C"/>
					<stop  offset="0.9964" style="stop-color:#3E4177"/>
				</linearGradient>
				<path class="st27" d="M806.7,943.7c-5.6,34.8-10.4,35.7-13.7,60.2c-3.8,27.6,1.8,30.9-2.9,68.2c-1.3,10.6-3.2,21.7-6.3,34
					c-2.9,11.7-6.2,21.6-9,29.1c-1.4,0.1-2.8,0.2-4.3,0.2c-2.2,0.1-4.3,0.1-6.3,0c-0.6-3.9-1.2-7.9-1.8-11.9c-0.2-1.3-0.4-2.7-0.6-4
					c10.2-7.6,13.7-15,15-20.6c2.9-13.1-6.1-19.2-4.2-37c1.6-15,8.5-14.9,8.7-27c0.3-18.3-15.4-22.9-15.5-40.2
					c0-8.6,3.7-13.3,7.5-18.6c0,0,0-0.1,0-0.1c0,0,4.1-28.8-22.7-38.6c0.1-9.4,0.4-18.8,0.7-27.8c4-2.5,8-4.6,11.8-6.8h0
					c13.2-5.5,25.4-9.7,34.2-8.4c0.8,0.1,1.6,0.4,2.3,0.6c0,0,0,0.1,0,0.1c0.3,0.1,0.5,0.2,0.8,0.3c0.3,0.1,0.5,0.2,0.8,0.3
					c0.5,0.2,1,0.4,1.5,0.6l0,0c0.5,0.2,0.9,0.5,1.4,0.8c0.7,0.4,1.3,0.9,1.8,1.4c0.2,0.2,0.5,0.5,0.8,0.9c0.1,0.1,0.1,0.1,0.2,0.2
					c0.1,0.1,0.1,0.2,0.2,0.2c0.1,0.1,0.1,0.2,0.2,0.3c0.2,0.2,0.3,0.5,0.5,0.8c0.2,0.3,0.3,0.7,0.5,1.1c0,0.1,0.1,0.2,0.1,0.4
					c0.1,0.3,0.2,0.6,0.3,0.9c0.2,0.9,0.5,1.9,0.6,3.2c0,0.2,0.1,0.5,0.1,0.8c0.2,1.3,0.3,2.8,0.3,4.5c0,0.3,0,0.6,0,0.9
					C809.9,919.2,809.1,929,806.7,943.7z"/>
				
					<linearGradient id="SVGID_25_" gradientUnits="userSpaceOnUse" x1="1704.8434" y1="1079.3053" x2="1710.9338" y2="1156.8209" gradientTransform="matrix(1 -2.400000e-03 2.400000e-03 1 -794.0109 1.8903)">
					<stop  offset="0" style="stop-color:#2B3582"/>
					<stop  offset="1" style="stop-color:#150E42"/>
				</linearGradient>
				<path class="st28" d="M924.9,1116l2.9,4.6c0.8,1.3,1,2.8,0.7,4.3c-1,3.8-3,11.2-3.8,13.2c-1.2,2.6-17,4.2-17,4.2s-1.4-2,1.9-4.4
					c3.3-2.4,5.4-2.8,6.6-6.3c1.2-3.6,1.9-13.6,1.9-13.6L924.9,1116z"/>
				
					<linearGradient id="SVGID_26_" gradientUnits="userSpaceOnUse" x1="-2306.7634" y1="-387.7722" x2="-2307.8713" y2="-468.1046" gradientTransform="matrix(0.84 -0.5426 0.5426 0.84 3073.3962 202.7516)">
					<stop  offset="0" style="stop-color:#F9B776"/>
					<stop  offset="1" style="stop-color:#F47960"/>
				</linearGradient>
				<path class="st29" d="M916.4,1104.9l-9.1,7.5c1.3,0.1,14,10.3,14,10.3s2.5,0.9,3.5-3.4c0.3-1.2,0-2.5-0.7-3.6L916.4,1104.9z"/>
				<linearGradient id="SVGID_27_" gradientUnits="userSpaceOnUse" x1="785.6533" y1="1021.0895" x2="917.8886" y2="1021.0895">
					<stop  offset="0" style="stop-color:#444B8C"/>
					<stop  offset="0.9964" style="stop-color:#3E4177"/>
				</linearGradient>
				<path class="st30" d="M917.6,1104.7c-1.4-6.4-26.2-49.4-53-73.8c-6.3-5.7-9.8-13.9-9.5-22.4c0.5-16.8,0.5-45.2-3.3-67.4
					c-5.7-33.6-66.1-8.4-66.1-8.4s15.2,95.2,48.4,121.5s79.6,64.2,79.6,64.2S919.2,1111.9,917.6,1104.7z"/>
			</g>
			<linearGradient id="SVGID_28_" gradientUnits="userSpaceOnUse" x1="839.0217" y1="720.4821" x2="795.0405" y2="1042.7448">
				<stop  offset="0" style="stop-color:#2B3582"/>
				<stop  offset="1" style="stop-color:#150E42"/>
			</linearGradient>
			<path class="st31" d="M894.1,819.3c-0.7,2.3-1.5,4.6-2.2,6.9c-2.1,6.2-4.4,12.6-7.3,18.6c-2.9,6.1-6.4,11.9-10.7,16.7
				c-12.5,14.1-12,68.8-11.5,81.6s-3.2,22.9-23.5,3.7c-20.3-19.2-76.8,4.3-93-6.7c-15.5-10.4,2-16.5,3.3-32.2
				c0.1-0.8,0.1-1.5,0.1-2.4c-0.4-17.5,9.2-74.8,20.8-120.4c1.7-6.7,6.3-14.2,11.1-19c17-17.1,55.7-21.3,79.8-16.2
				c1.6,0.3,3.2,0.7,4.6,1.1c0,0,0,0,0,0c9.6,2.8,20.7,9.6,26.9,17.4C904.1,783.3,899.3,803,894.1,819.3z"/>
			<linearGradient id="SVGID_29_" gradientUnits="userSpaceOnUse" x1="805.2184" y1="748.4716" x2="849.4166" y2="748.4716">
				<stop  offset="0" style="stop-color:#F9B776"/>
				<stop  offset="1" style="stop-color:#F47960"/>
			</linearGradient>
			<path class="st32" d="M815.8,742.6c0,0,5,8.2-0.6,10c-5.6,1.8-11.4,2.8-9.7,6.5c1.7,3.7,36.9,5.5,42.5-1.5c5.5-7.1-6-3.2-14-9.4
				c-8-6.2-14.7-13.7-14.7-13.7L815.8,742.6z"/>
			<g>
				
					<linearGradient id="SVGID_30_" gradientUnits="userSpaceOnUse" x1="-2364.9028" y1="-207.5558" x2="-2362.0059" y2="-107.1227" gradientTransform="matrix(0.8587 -0.5125 0.5125 0.8587 2918.5715 -347.8319)">
					<stop  offset="0" style="stop-color:#444B8C"/>
					<stop  offset="0.9964" style="stop-color:#26264F"/>
				</linearGradient>
				<path class="st33" d="M803.7,736c-7-0.6-13.9-9.2-12.5-12.9c0.4-1.1,1.3-1.2,15-3.4c6.8-1.1,10.2-1.5,12.5,0.4
					c1.4,1.2,2.5,3.2,2.9,5.1c0.2,1,0.2,2.4,0,5.1c-0.2,2.4-0.1,2.3-0.2,3c-0.2,1.7-0.6,4.7-2.3,8.9c-0.7-0.8-1.6-1.7-2.8-2.6
					c-0.4-0.3-2.2-1.7-4.2-2.5C808.6,735.6,806,736.2,803.7,736z"/>
				
					<linearGradient id="SVGID_31_" gradientUnits="userSpaceOnUse" x1="-2362.4104" y1="-155.488" x2="-2364.8247" y2="-33.3284" gradientTransform="matrix(0.8587 -0.5125 0.5125 0.8587 2918.5715 -347.8319)">
					<stop  offset="0" style="stop-color:#F9B776"/>
					<stop  offset="1" style="stop-color:#F47960"/>
				</linearGradient>
				<path class="st34" d="M821.6,737.5c0,0-0.4,6.7-6.7,9.5c-5.6,2.6-13-9.2-10.9-13.7c0.7-1.5,2.8-3.1,5-3.6c1.3-0.3,1.9,0,4-0.5
					c1.9-0.5,2.3-0.9,3-0.8c0.9,0.2,2.1,1.3,3,5.4c0.5-1.6,1.5-2.7,2.6-2.7c0.2,0,0.7,0,1.1,0.3
					C824.2,732.4,823.9,734.9,821.6,737.5z"/>
			</g>
			<linearGradient id="SVGID_32_" gradientUnits="userSpaceOnUse" x1="925.0364" y1="732.0102" x2="880.7186" y2="1056.7396">
				<stop  offset="0" style="stop-color:#2B3582"/>
				<stop  offset="1" style="stop-color:#150E42"/>
			</linearGradient>
			<path class="st35" d="M956.3,876.5c-2.7,0.8-6.1,0.8-10.4-0.1c-18.9-3.8-42.9-18.5-61.3-31.7c-16.7-11.9-28.9-22.4-28.9-22.4
				l0.1-0.8l9.8-70.5c0,0,0,0,0,0c1.1,0.2,25.2,6.1,58.4,41.7C953.9,824.8,976,870.9,956.3,876.5z"/>
			<linearGradient id="SVGID_33_" gradientUnits="userSpaceOnUse" x1="864.907" y1="780.3432" x2="809.0915" y2="1189.3192">
				<stop  offset="0" style="stop-color:#AA80F9"/>
				<stop  offset="0.9964" style="stop-color:#6165D7"/>
			</linearGradient>
			<path class="st36" d="M956.8,875c0,0-0.2,0.6-0.5,1.6c-2.7,0.8-6.1,0.8-10.4-0.1c-18.9-3.8-42.9-18.5-61.3-31.7
				c-2.9,6.1-6.4,11.9-10.7,16.7c-12.5,14.1-12,68.8-11.5,81.6s-3.2,22.9-23.5,3.7c-20.3-19.2-76.8,4.3-93-6.7
				c-15.5-10.4,2-16.5,3.3-32.2c16-4.6,33.8-0.5,44.5,1.2c18,2.8,45.2,5.2,37.6-27.2c-7.6-32.4,14.8-52.8,14.8-52.8
				c3.5-3.1,6.7-5.6,9.7-7.6c17-11,27.4-4.4,36.1,4.6c9,9.3,16.1,21.2,27,19C942,840.4,956.8,875,956.8,875z"/>
			<linearGradient id="SVGID_34_" gradientUnits="userSpaceOnUse" x1="974.2499" y1="762.5407" x2="872.4503" y2="929.6744">
				<stop  offset="0" style="stop-color:#2B3582"/>
				<stop  offset="1" style="stop-color:#150E42"/>
			</linearGradient>
			<path class="st37" d="M939.1,747.4l-17.3,1.4v34.7c2.2,69.8,20.9,91.6,20.9,91.6l0,0c0.9,0.8,2.1,1.3,3.3,1.4
				C1015.4,884.7,939.1,747.4,939.1,747.4z"/>
			<linearGradient id="SVGID_35_" gradientUnits="userSpaceOnUse" x1="938.551" y1="735.7443" x2="932.6365" y2="779.0809">
				<stop  offset="0" style="stop-color:#F9B776"/>
				<stop  offset="1" style="stop-color:#F47960"/>
			</linearGradient>
			<path class="st38" d="M922.4,740.4c0,0-0.2,4.4,3.2,7.3c3.4,2.9,2.3,11.1,4.5,8.5c2.2-2.6,1.4-6.2,1.9-6.4
				c0.5-0.2,8.7,13.4,13.8,12s6.2-3.2,4.6-8.5c-1.6-5.3-8.8-16.5-17.4-17.2S922.6,739.5,922.4,740.4z"/>
		</g>
	</g>
</g>
</svg>
