<?xml version="1.0" encoding="utf-8"?>
<!-- Generator: Adobe Illustrator 25.0.1, SVG Export Plug-In . SVG Version: 6.00 Build 0)  -->
<svg version="1.1" id="Livello_1" xmlns="http://www.w3.org/2000/svg" xmlns:xlink="http://www.w3.org/1999/xlink" x="0px" y="0px"
	 viewBox="0 0 1242 1501" style="enable-background:new 0 0 1242 1501;" xml:space="preserve">
<style type="text/css">
	.st0{opacity:0.26;fill:url(#SVGID_1_);}
	.st1{fill:#BFC8D6;}
	.st2{fill:#FFFFFF;}
	.st3{fill:url(#SVGID_2_);}
	.st4{opacity:0.8;}
	.st5{fill:url(#SVGID_3_);}
	.st6{fill:url(#SVGID_4_);}
	.st7{fill:url(#SVGID_5_);}
	.st8{fill:url(#SVGID_6_);}
	.st9{fill:url(#SVGID_7_);}
	.st10{fill:url(#SVGID_8_);}
	.st11{fill:url(#SVGID_9_);}
	.st12{fill:url(#SVGID_10_);}
	.st13{opacity:0.3;fill:url(#SVGID_11_);}
	.st14{fill:url(#SVGID_12_);}
	.st15{opacity:0.3;fill:url(#SVGID_13_);}
	.st16{opacity:0.9;fill:#D8DEE8;}
	.st17{fill:url(#SVGID_14_);}
	.st18{opacity:0.3;fill:url(#SVGID_15_);}
	.st19{fill:url(#SVGID_16_);}
	.st20{fill:url(#SVGID_17_);}
	.st21{opacity:0.3;fill:url(#SVGID_18_);}
	.st22{fill:url(#SVGID_19_);}
	.st23{fill:url(#SVGID_20_);}
	.st24{fill:url(#SVGID_21_);}
	.st25{fill:url(#SVGID_22_);}
	.st26{fill:url(#SVGID_23_);}
	.st27{opacity:0.3;fill:url(#SVGID_24_);}
	.st28{fill:url(#SVGID_25_);}
	.st29{fill:url(#SVGID_26_);}
	.st30{fill:url(#SVGID_27_);}
	.st31{fill:url(#SVGID_28_);}
	.st32{fill:url(#SVGID_29_);}
	.st33{fill:url(#SVGID_30_);}
	.st34{fill:url(#SVGID_31_);}
	.st35{fill:url(#SVGID_32_);}
	.st36{opacity:0.3;fill:url(#SVGID_33_);}
	.st37{fill:url(#SVGID_34_);}
	.st38{fill:url(#SVGID_35_);}
	.st39{opacity:0.26;fill:url(#SVGID_36_);}
	.st40{fill:url(#SVGID_37_);}
	.st41{fill:url(#SVGID_38_);}
	.st42{fill:url(#SVGID_39_);}
	.st43{fill:url(#SVGID_40_);}
	.st44{fill:url(#SVGID_41_);}
	.st45{fill:url(#SVGID_42_);}
	.st46{fill:url(#SVGID_43_);}
	.st47{fill:url(#SVGID_44_);}
	.st48{fill:url(#SVGID_45_);}
	.st49{fill:url(#SVGID_46_);}
	.st50{fill:url(#SVGID_47_);}
	.st51{fill:url(#SVGID_48_);}
	.st52{fill:url(#SVGID_49_);}
	.st53{fill:url(#SVGID_50_);}
	.st54{fill:url(#SVGID_51_);}
	.st55{fill:url(#SVGID_52_);}
	.st56{fill:url(#SVGID_53_);}
	.st57{fill:url(#SVGID_54_);}
	.st58{fill:url(#SVGID_55_);}
	.st59{fill:url(#SVGID_56_);}
	.st60{fill:url(#SVGID_57_);}
	.st61{fill:url(#SVGID_58_);}
	.st62{fill:url(#SVGID_59_);}
	.st63{fill:url(#SVGID_60_);}
	.st64{fill:url(#SVGID_61_);}
	.st65{fill:url(#SVGID_62_);}
	.st66{fill:url(#SVGID_63_);}
	.st67{fill:url(#SVGID_64_);}
	.st68{fill:url(#SVGID_65_);}
	.st69{fill:url(#SVGID_66_);}
	.st70{fill:url(#SVGID_67_);}
	.st71{fill:url(#SVGID_68_);}
	.st72{fill:url(#SVGID_69_);}
	.st73{fill:url(#SVGID_70_);}
	.st74{fill:url(#SVGID_71_);}
	.st75{fill:url(#SVGID_72_);}
	.st76{opacity:0.6;fill:#FFFFFF;}
	.st77{opacity:0.26;fill:url(#SVGID_73_);}
	.st78{fill:url(#SVGID_74_);}
	.st79{opacity:0.3;fill:url(#SVGID_75_);}
	.st80{fill:url(#SVGID_76_);}
	.st81{fill:url(#SVGID_77_);}
	.st82{opacity:0.3;fill:url(#SVGID_78_);}
	.st83{fill:url(#SVGID_79_);}
	.st84{fill:url(#SVGID_80_);}
	.st85{clip-path:url(#SVGID_82_);fill:url(#SVGID_83_);}
	.st86{opacity:0.3;clip-path:url(#SVGID_82_);fill:url(#SVGID_84_);}
	.st87{fill:url(#SVGID_85_);}
	.st88{fill:url(#SVGID_86_);}
	.st89{fill:url(#SVGID_87_);}
	.st90{fill:url(#SVGID_88_);}
	.st91{fill:url(#SVGID_89_);}
	.st92{fill:url(#SVGID_90_);}
	.st93{fill:url(#SVGID_91_);}
	.st94{fill:url(#SVGID_92_);}
	.st95{fill:url(#SVGID_93_);}
	.st96{fill:url(#SVGID_94_);}
	.st97{fill:url(#SVGID_95_);}
	.st98{fill:url(#SVGID_96_);}
	.st99{fill:#26264F;}
	.st100{fill:url(#SVGID_97_);}
	.st101{fill:url(#SVGID_98_);}
	.st102{fill:url(#SVGID_99_);}
	.st103{fill:url(#SVGID_100_);}
	.st104{fill:url(#SVGID_101_);}
	.st105{opacity:0.3;fill:url(#SVGID_102_);}
	.st106{fill:url(#SVGID_103_);}
	.st107{fill:url(#SVGID_104_);}
	.st108{fill:url(#SVGID_105_);}
	.st109{fill:url(#SVGID_106_);}
	.st110{fill:url(#SVGID_107_);}
	.st111{fill:url(#SVGID_108_);}
	.st112{fill:url(#SVGID_109_);}
	.st113{fill:url(#SVGID_110_);}
	.st114{fill:url(#SVGID_111_);}
	.st115{opacity:0.3;fill:url(#SVGID_112_);}
	.st116{fill:url(#SVGID_113_);}
	.st117{fill:url(#SVGID_114_);}
	.st118{fill:url(#SVGID_115_);}
	.st119{fill:url(#SVGID_116_);}
	.st120{fill:url(#SVGID_117_);}
	.st121{fill:url(#SVGID_118_);}
	.st122{fill:url(#SVGID_119_);}
	.st123{fill:url(#SVGID_120_);}
	.st124{fill:url(#SVGID_121_);}
	.st125{opacity:0.26;fill:url(#SVGID_122_);}
	.st126{fill:url(#SVGID_123_);}
	.st127{fill:url(#SVGID_124_);}
	.st128{fill:url(#SVGID_125_);}
	.st129{fill:url(#SVGID_126_);}
	.st130{fill:url(#SVGID_127_);}
	.st131{fill:url(#SVGID_128_);}
	.st132{fill:url(#SVGID_129_);}
	.st133{fill:url(#SVGID_130_);}
	.st134{fill:url(#SVGID_131_);}
	.st135{fill:#ED985F;}
	.st136{fill:url(#SVGID_132_);}
	.st137{fill:#FFB27D;}
	.st138{fill:url(#SVGID_133_);}
	.st139{fill:url(#SVGID_134_);}
	.st140{fill:url(#SVGID_135_);}
	.st141{fill:url(#SVGID_136_);}
	.st142{fill:url(#SVGID_137_);}
	.st143{fill:url(#SVGID_138_);}
	.st144{fill:url(#SVGID_139_);}
	.st145{fill:url(#SVGID_140_);}
	.st146{fill:url(#SVGID_141_);}
	.st147{fill:url(#SVGID_142_);}
	.st148{fill:url(#SVGID_143_);}
	.st149{fill:url(#SVGID_144_);}
	.st150{fill:url(#SVGID_145_);}
	.st151{fill:url(#SVGID_146_);}
	.st152{fill:url(#SVGID_147_);}
	.st153{fill:url(#SVGID_148_);}
	.st154{fill:url(#SVGID_149_);}
	.st155{fill:url(#SVGID_150_);}
	.st156{fill:url(#SVGID_151_);}
	.st157{fill:url(#SVGID_152_);}
	.st158{fill:url(#SVGID_153_);}
	.st159{fill:#2E3552;}
</style>
<g>
	<g>
		<g>
			
				<linearGradient id="SVGID_1_" gradientUnits="userSpaceOnUse" x1="-66.3889" y1="1003.1995" x2="-65.5724" y2="1056.2764" gradientTransform="matrix(-1 0 0 1 457.5015 0)">
				<stop  offset="0" style="stop-color:#2B3582"/>
				<stop  offset="1" style="stop-color:#150E42"/>
			</linearGradient>
			<path style="fill:url(#SVGID_1_);" d="M954.5,1085.2L415.8,1048c-0.6-0.1-1.3-0.1-1.9,0L93,1062.6c-7.7,0.7-7.3,20.8,1.4,21.9
				l504.1,67.5c2.1,0.3,4.2,0.2,6.2,0l348.8-49C958.2,1102.1,959.9,1085.6,954.5,1085.2z"/>
			
				<linearGradient id="SVGID_2_" gradientUnits="userSpaceOnUse" x1="-75.6041" y1="1108.5292" x2="9.1604" y2="851.881" gradientTransform="matrix(-1 0 0 1 457.5015 0)">
				<stop  offset="0" style="stop-color:#2B3582"/>
				<stop  offset="1" style="stop-color:#150E42"/>
			</linearGradient>
			<path class="st3" d="M953.4,1084.6l-537.7-50.7c-0.6-0.1-1.3-0.1-1.9,0l-319.3,28c-5.9,0.5-6,9-0.2,9.8l504.1,62.2
				c2.1,0.3,4.2,0.2,6.2,0l348.8-45.1C956,1088.5,955.9,1084.9,953.4,1084.6z"/>
			
				<linearGradient id="SVGID_3_" gradientUnits="userSpaceOnUse" x1="-451.3616" y1="1083.9728" x2="336.4798" y2="1083.9728" gradientTransform="matrix(-1 0 0 1 457.5015 0)">
				<stop  offset="2.247200e-02" style="stop-color:#583735"/>
				<stop  offset="0.427" style="stop-color:#DA5535"/>
				<stop  offset="0.736" style="stop-color:#F17A40"/>
				<stop  offset="1" style="stop-color:#F6BA52"/>
			</linearGradient>
			<path class="st5" d="M593.2,1127.8c0.7,0,1.5,0,2.2-0.1l312.6-40.4c1.1-0.1,1.1-1.8,0-1.9l-480.1-45.2c-0.1,0-0.2,0-0.3,0
				c-0.1,0-0.2,0-0.3,0l-305.2,26.8c-1.4,0.1-1.5,2.2,0,2.4l469,58.4C591.7,1127.8,592.4,1127.8,593.2,1127.8z"/>
			<path class="st2" d="M771,1108.4c0.1,0.9,3.1,1.3,6.6,0.9c3.5-0.4,6.3-1.5,6.2-2.5s-3.1-1.3-6.6-0.9
				C773.7,1106.3,770.9,1107.4,771,1108.4z"/>
			<g>
				<path class="st2" d="M516.8,1137.2l48.4,6.4c3.5,0.5,6.4-1.3,6.4-3.9l0,0c0-2.6-2.9-5-6.4-5.5l-48.4-5.7c-3-0.3-5.4,1.3-5.4,3.6
					l0,0C511.4,1134.5,513.8,1136.8,516.8,1137.2z"/>
				<path class="st2" d="M463.9,1130.2l39.9,5.2c2.9,0.4,5.3-1.2,5.3-3.6l0,0c0-2.3-2.4-4.5-5.3-4.9l-39.9-4.7
					c-2.5-0.3-4.5,1.2-4.5,3.4l0,0C459.4,1127.9,461.4,1129.9,463.9,1130.2z"/>
				<path class="st2" d="M397.1,1121.4l30.3,4c2.2,0.3,4-1.1,4-3.2l0,0c0-2-1.8-3.9-4-4.2l-30.3-3.5c-1.9-0.2-3.4,1.1-3.4,3l0,0
					C393.7,1119.5,395.2,1121.2,397.1,1121.4z"/>
			</g>
		</g>
		<g>
			<g>
				<path class="st2" d="M452.1,1089.4c-30.7,0-61.7-5.4-61.7-15.8c0-10.4,31-15.8,61.7-15.8s61.7,5.4,61.7,15.8
					C513.8,1084,482.7,1089.4,452.1,1089.4z M452.1,1061.7c-41.2,0-57.8,8.4-57.8,11.9c0,3.5,16.6,11.9,57.8,11.9
					s57.8-8.4,57.8-11.9C509.9,1070.1,493.2,1061.7,452.1,1061.7z"/>
				<ellipse class="st76" cx="452.1" cy="1073.6" rx="27.2" ry="6.3"/>
				
					<linearGradient id="SVGID_4_" gradientUnits="userSpaceOnUse" x1="-269.6749" y1="785.6761" x2="344.838" y2="785.6761" gradientTransform="matrix(-1 0 0 1 457.5015 0)">
					<stop  offset="5.618000e-03" style="stop-color:#F17C54"/>
					<stop  offset="0.8017" style="stop-color:#F7B659"/>
					<stop  offset="1" style="stop-color:#F9C55A"/>
				</linearGradient>
				<path style="opacity:0.26;fill:url(#SVGID_4_);" d="M317.9,487.6l409.3,211.6l-231.7,374.4c0,5.6-19.5,10.1-43.4,10.1
					c-24,0-43.4-4.5-43.4-10.1l-296-536.9L317.9,487.6z"/>
			</g>
			<g>
				
					<linearGradient id="SVGID_5_" gradientUnits="userSpaceOnUse" x1="-4603.6353" y1="507.1951" x2="-4747.0195" y2="676.2949" gradientTransform="matrix(1 0 0 1 4939.2446 0)">
					<stop  offset="0" style="stop-color:#FFC444"/>
					<stop  offset="0.9964" style="stop-color:#F36F56"/>
				</linearGradient>
				<path class="st7" d="M312.2,765c-18.5-1.2-36-12.9-43.5-31L162.7,479.2c-9.7-23.2,1.2-49.5,24.5-58.8
					c23.4-9.4,59.8,1.7,69.7,25.1l108.8,257.5c10.3,24.3-1.3,50.8-25.7,59.2C333.9,764.4,318.4,765.4,312.2,765z"/>
				
					<linearGradient id="SVGID_6_" gradientUnits="userSpaceOnUse" x1="-4621.2974" y1="492.219" x2="-4764.6812" y2="661.3182" gradientTransform="matrix(1 0 0 1 4939.2446 0)">
					<stop  offset="0" style="stop-color:#FFC444"/>
					<stop  offset="0.9964" style="stop-color:#F36F56"/>
				</linearGradient>
				<path style="opacity:0.3;fill:url(#SVGID_6_);" d="M187.1,420.5c23.4-9.4,59.8,1.7,69.7,25.1l99.5,235.5
					c-16.7-4.3-36.4-3.9-55.3-20.5c-31.5-27.6-16-63-41-94.5c-11.4-14.4-32.5-29.6-75.5-34.2l-21.9-52.6
					C153,456,163.9,429.8,187.1,420.5z"/>
				
					<linearGradient id="SVGID_7_" gradientUnits="userSpaceOnUse" x1="362.579" y1="387.1418" x2="246.8413" y2="523.6367" gradientTransform="matrix(-1 0 0 1 457.5015 0)">
					<stop  offset="2.247200e-02" style="stop-color:#583735"/>
					<stop  offset="0.427" style="stop-color:#DA5535"/>
					<stop  offset="0.736" style="stop-color:#F17A40"/>
					<stop  offset="1" style="stop-color:#F6BA52"/>
				</linearGradient>
				<path class="st9" d="M123.2,369.9c0.9,0,1.8,0.1,2.7,0.2l65.6-0.7v170.5l-63.3-0.9c-1.6,0.4-3.3,0.6-5,0.6
					c-22.5,0-40.7-38-40.7-84.9C82.6,407.9,100.8,369.9,123.2,369.9z"/>
				
					<linearGradient id="SVGID_8_" gradientUnits="userSpaceOnUse" x1="-4537.4287" y1="196.9089" x2="-4405.105" y2="928.822" gradientTransform="matrix(1 0 0 1 4939.2446 0)">
					<stop  offset="2.247200e-02" style="stop-color:#583735"/>
					<stop  offset="0.427" style="stop-color:#DA5535"/>
					<stop  offset="0.736" style="stop-color:#F17A40"/>
					<stop  offset="1" style="stop-color:#F6BA52"/>
				</linearGradient>
				<path class="st10" d="M191.5,369.4c-24.8,56.8-24.8,113.3,0,170.5l487.7,156.8l5-478.5L191.5,369.4z"/>
				
					<linearGradient id="SVGID_9_" gradientUnits="userSpaceOnUse" x1="-4582.7046" y1="198.2474" x2="-4448.7334" y2="939.2733" gradientTransform="matrix(1 0 0 1 4939.2446 0)">
					<stop  offset="0" style="stop-color:#AA80F9"/>
					<stop  offset="0.9964" style="stop-color:#6165D7"/>
				</linearGradient>
				<path style="opacity:0.3;fill:url(#SVGID_9_);" d="M547.6,556c-46.4-17.6-60.8-84.8-114.6-87.1c-42.2-1.8-55,39.2-96.4,34.8
					c-42.4-4.5-49.5-50.2-96.9-66.3c-21.6-7.3-44.1-6-66.1,0.2c-2.9,33.9,3,67.9,17.9,102.2l487.7,156.8l-28.9-162.5
					C602.3,562.3,570.1,564.5,547.6,556z"/>
				
					<linearGradient id="SVGID_10_" gradientUnits="userSpaceOnUse" x1="-113.6365" y1="300.0958" x2="-377.224" y2="610.957" gradientTransform="matrix(-1 0 0 1 457.5015 0)">
					<stop  offset="0" style="stop-color:#FFC444"/>
					<stop  offset="0.9964" style="stop-color:#F36F56"/>
				</linearGradient>
				<ellipse class="st12" cx="702.9" cy="455.5" rx="118.6" ry="247.4"/>
				
					<linearGradient id="SVGID_11_" gradientUnits="userSpaceOnUse" x1="-95.1759" y1="451.6984" x2="-349.2781" y2="458.1721" gradientTransform="matrix(-1 0 0 1 457.5015 0)">
					<stop  offset="2.247200e-02" style="stop-color:#583735"/>
					<stop  offset="0.427" style="stop-color:#DA5535"/>
					<stop  offset="0.736" style="stop-color:#F17A40"/>
					<stop  offset="1" style="stop-color:#F6BA52"/>
				</linearGradient>
				<path style="fill:url(#SVGID_11_);" d="M702.9,694.6c13.9,0,27.6-5.8,40.6-17.3c13.3-11.7,25.3-28.7,35.7-50.4
					c21.9-45.6,33.9-106.5,33.9-171.3c0-64.9-12-125.7-33.9-171.3c-10.4-21.7-22.4-38.6-35.7-50.4c-13-11.5-26.7-17.3-40.6-17.3
					c-13.9,0-27.6,5.8-40.6,17.3c-13.3,11.7-25.3,28.7-35.7,50.4c-9.1,19.1-16.6,40.8-22.1,64.4c-7.7,32.8,14.6,67.1,14.6,104.8
					c0,40.1-21.8,80.9-13.1,115.3c5.4,21.2,12.3,40.8,20.6,58.2c10.4,21.7,22.4,38.6,35.7,50.4C675.4,688.7,689,694.6,702.9,694.6z"
					/>
				<g>
					<defs>
						<path id="SVGID_81_" d="M702.9,694.6c13.9,0,27.6-5.8,40.6-17.3c13.3-11.7,25.3-28.7,35.7-50.4
							c21.9-45.6,33.9-106.5,33.9-171.3c0-64.9-12-125.7-33.9-171.3c-10.4-21.7-22.4-38.6-35.7-50.4c-13-11.5-26.7-17.3-40.6-17.3
							c-13.9,0-27.6,5.8-40.6,17.3c-13.3,11.7-25.3,28.7-35.7,50.4c-21.9,45.6-33.9,106.5-33.9,171.3c0,64.9,12,125.7,33.9,171.3
							c10.4,21.7,22.4,38.6,35.7,50.4C675.4,688.7,689,694.6,702.9,694.6z"/>
					</defs>
					<clipPath id="SVGID_12_">
						<use xlink:href="#SVGID_81_"  style="overflow:visible;"/>
					</clipPath>
					
						<linearGradient id="SVGID_13_" gradientUnits="userSpaceOnUse" x1="-4360.2891" y1="220.0321" x2="-4273.8926" y2="697.9109" gradientTransform="matrix(1 0 0 1 4939.2446 0)">
						<stop  offset="0" style="stop-color:#FFC444"/>
						<stop  offset="0.9964" style="stop-color:#F36F56"/>
					</linearGradient>
					<path style="clip-path:url(#SVGID_12_);fill:url(#SVGID_13_);" d="M712.7,458.8c0,62.7-41.5,112.5-92,111.2
						c-49.7-1.3-89.4-51.7-89.4-112.6c0-60.9,39.7-110.7,89.4-111.2C671.2,345.7,712.7,396.1,712.7,458.8z"/>
					
						<linearGradient id="SVGID_14_" gradientUnits="userSpaceOnUse" x1="-4310.4697" y1="281.5945" x2="-4246.7227" y2="634.1957" gradientTransform="matrix(1 0 0 1 4939.2446 0)">
						<stop  offset="0" style="stop-color:#FFC444"/>
						<stop  offset="0.9964" style="stop-color:#F36F56"/>
					</linearGradient>
					<path style="opacity:0.3;clip-path:url(#SVGID_12_);fill:url(#SVGID_14_);" d="M704.7,457.8c0,46.6-20.2,83.5-44.8,82.6
						c-24.2-0.9-43.6-38.4-43.6-83.6s19.4-82.2,43.6-82.6C684.5,373.8,704.7,411.2,704.7,457.8z"/>
				</g>
			</g>
		</g>
		<g>
			<g>
				<linearGradient id="SVGID_15_" gradientUnits="userSpaceOnUse" x1="1113.453" y1="345.461" x2="743.1135" y2="686.2205">
					<stop  offset="0" style="stop-color:#2B3582"/>
					<stop  offset="1" style="stop-color:#150E42"/>
				</linearGradient>
				<path style="fill:url(#SVGID_15_);" d="M1121.6,625.8l-307.7-19.2c-15.8-1-28.4-16.6-28.4-34.9v-210c0-18.3,12.6-33.9,28.4-34.8
					l307.7-17.9c20.6-1.2,37.4,15.1,37.4,36.4v244.2C1159,610.8,1142.1,627.1,1121.6,625.8z"/>
				<linearGradient id="SVGID_16_" gradientUnits="userSpaceOnUse" x1="1002.5001" y1="271.4583" x2="667.7842" y2="579.4395">
					<stop  offset="0" style="stop-color:#311944"/>
					<stop  offset="1" style="stop-color:#893976"/>
				</linearGradient>
				<polygon class="st19" points="796.8,508.6 742.3,463 796.8,417.4 				"/>
			</g>
			<g>
				<linearGradient id="SVGID_17_" gradientUnits="userSpaceOnUse" x1="1094.7885" y1="344.3705" x2="721.1474" y2="688.1677">
					<stop  offset="0" style="stop-color:#2B3582"/>
					<stop  offset="1" style="stop-color:#150E42"/>
				</linearGradient>
				<path class="st20" d="M1104,625.8l-312.4-19.2c-16-1-28.9-16.6-28.9-34.9v-210c0-18.3,12.8-33.9,28.9-34.8l312.4-17.9
					c20.9-1.2,38,15.1,38,36.4v244.2C1142,610.8,1124.9,627.1,1104,625.8z"/>
				<linearGradient id="SVGID_18_" gradientUnits="userSpaceOnUse" x1="977.6923" y1="273.5867" x2="647.1414" y2="577.7355">
					<stop  offset="0" style="stop-color:#2B3582"/>
					<stop  offset="1" style="stop-color:#150E42"/>
				</linearGradient>
				<path style="fill:url(#SVGID_18_);" d="M774.3,508.6l-46.4-38.3c-4.6-3.8-4.6-10.9,0-14.8l46.4-38.2V508.6z"/>
			</g>
			<g>
				<g>
					<path class="st2" d="M861.9,427.7l-29.7,0.4v34.2l-15.2,0v-83.1l48.6-1.7v14.2l-33.4,1v21.6l29.7-0.6V427.7z"/>
					<path class="st2" d="M908.5,444.6l-28.2,0.2l-5.3,17.6l-16.7,0l28.5-85.6l14.9-0.5l29.7,86.1l-17.5,0L908.5,444.6z
						 M884.6,430.5l19.5-0.2l-9.8-32L884.6,430.5z"/>
					<path class="st2" d="M964.5,427l-8.8,10.3v25.1l-16.8,0V375l16.8-0.6v39.9l7.4-11.1l21.2-29.8l21.4-0.7l-29.9,40.4l30.8,49.3
						l-20.7,0L964.5,427z"/>
					<path class="st2" d="M1065.9,422.6l-34.8,0.5v24.3l41-0.2v15.2l-58.8,0v-90l58.6-2v15.4l-40.8,1.2v21.6l34.8-0.7V422.6z"/>
				</g>
				<g>
					<path class="st2" d="M868.2,555.3l-13.2-0.5l-25.2-47.2v46.3l-12.8-0.5v-70l12.8,0.1l25.3,47.1v-46.9l13.1,0.1V555.3z"/>
					<path class="st2" d="M919.5,525.6l-26.2-0.7v19.3l30.8,1v12.1l-44.3-1.7v-71.8l44.2,0.4v12.2l-30.7-0.4v17.2l26.2,0.5V525.6z"
						/>
					<path class="st2" d="M986,538.2l9.5-53.2l14.7,0.1l-15.9,75l-14.7-0.6l-11.4-50.2l-11.3,49.3l-14.2-0.5l-15-73.8l13.9,0.1
						L951,537l11.4-52.4l12.1,0.1L986,538.2z"/>
					<path class="st2" d="M1056.4,542.3c0-3-1-5.3-3.1-7c-2-1.7-5.7-3.4-11-5.4c-5.3-1.9-9.4-3.7-12.5-5.5
						c-8.3-4.9-12.4-11.2-12.4-19.1c0-4.1,1.1-7.7,3.3-10.9c2.2-3.2,5.4-5.7,9.6-7.4c4.2-1.8,8.9-2.6,14.1-2.6
						c5.3,0,10,1.1,14.2,3.1c4.2,2,7.4,4.9,9.8,8.6c2.3,3.7,3.5,7.8,3.5,12.5l-15.5-0.3c0-3.5-1.1-6.3-3.2-8.3c-2.1-2-5.1-3-9-3.1
						c-3.7-0.1-6.6,0.7-8.6,2.3c-2,1.6-3.1,3.7-3.1,6.4c0,2.5,1.2,4.6,3.6,6.3c2.4,1.7,6,3.4,10.7,4.9c8.7,2.9,15.1,6.4,19.1,10.5
						c4,4.1,6,9.2,6,15.3c0,6.7-2.5,11.9-7.4,15.5c-4.9,3.6-11.5,5.3-19.7,4.9c-5.7-0.2-10.8-1.5-15.4-3.8
						c-4.6-2.3-8.1-5.4-10.5-9.2c-2.4-3.8-3.6-8.1-3.6-13l15,0.4c0,8.4,4.8,12.8,14.5,13.1c3.6,0.1,6.5-0.5,8.5-2
						C1055.4,547.2,1056.4,545.1,1056.4,542.3z"/>
				</g>
			</g>
		</g>
	</g>
	<g>
		
			<linearGradient id="SVGID_19_" gradientUnits="userSpaceOnUse" x1="3294.1694" y1="1701.0765" x2="3308.1907" y2="1713.5485" gradientTransform="matrix(0.9902 -0.14 0.14 0.9902 -2464.2495 -79.531)">
			<stop  offset="0" style="stop-color:#444B8C"/>
			<stop  offset="0.9964" style="stop-color:#26264F"/>
		</linearGradient>
		<path class="st22" d="M1039.7,1150c0.4-2.2,7.5-4.2,11-1.2c1.7,1.5,2.9,4.4,1.9,5.8c-0.4,0.5,1.1,1.3-0.3,1.4
			C1047.6,1156,1039.3,1152.2,1039.7,1150z"/>
		
			<linearGradient id="SVGID_20_" gradientUnits="userSpaceOnUse" x1="3058.4197" y1="1439.2583" x2="3058.4197" y2="1414.832" gradientTransform="matrix(0.9988 4.980000e-02 -4.980000e-02 0.9988 -1932.5408 -435.807)">
			<stop  offset="0" style="stop-color:#F9B776"/>
			<stop  offset="1" style="stop-color:#F47960"/>
		</linearGradient>
		<path class="st23" d="M1047.5,1150l7.4,0.4c-2.6-4.6,0.5-17.3,0.5-17.3l-8,0.2c0,0,0.2,3.7,0.7,9.1
			C1048.3,1144.4,1048,1147.2,1047.5,1150z"/>
		
			<linearGradient id="SVGID_21_" gradientUnits="userSpaceOnUse" x1="3295.5791" y1="1699.4922" x2="3309.6001" y2="1711.964" gradientTransform="matrix(0.9902 -0.14 0.14 0.9902 -2464.2495 -79.531)">
			<stop  offset="0" style="stop-color:#444B8C"/>
			<stop  offset="0.9964" style="stop-color:#26264F"/>
		</linearGradient>
		<path class="st24" d="M1046.5,1149.9c0,0,8.8-2,9.7-0.3c1,1.7,1.7,6.4-3.9,6.3C1046.8,1155.8,1046,1151.4,1046.5,1149.9z"/>
		
			<linearGradient id="SVGID_22_" gradientUnits="userSpaceOnUse" x1="3552.5803" y1="1159.1449" x2="3566.6021" y2="1171.6173" gradientTransform="matrix(1 0 0 1 -2609.0793 0)">
			<stop  offset="0" style="stop-color:#444B8C"/>
			<stop  offset="0.9964" style="stop-color:#26264F"/>
		</linearGradient>
		<path class="st25" d="M946.5,1166c0.7-2.1,8-3.1,11.1,0.3c1.5,1.7,2.3,4.8,1.1,6c-0.4,0.4,0.9,1.5-0.5,1.3
			C953.5,1173,945.8,1168.1,946.5,1166z"/>
		
			<linearGradient id="SVGID_23_" gradientUnits="userSpaceOnUse" x1="3284.9973" y1="803.899" x2="3284.9973" y2="779.4719" gradientTransform="matrix(0.9813 0.1926 -0.1926 0.9813 -2111.1482 -249.1538)">
			<stop  offset="0" style="stop-color:#F9B776"/>
			<stop  offset="1" style="stop-color:#F47960"/>
		</linearGradient>
		<path class="st26" d="M955.2,1168l7.2,1.4c-1.9-5,3-17,3-17l-7.9-0.9c0,0-0.3,3.7-0.6,9.1C956.7,1162.5,956,1165.2,955.2,1168z"/>
		
			<linearGradient id="SVGID_24_" gradientUnits="userSpaceOnUse" x1="3553.99" y1="1157.5603" x2="3568.0117" y2="1170.0327" gradientTransform="matrix(1 0 0 1 -2609.0793 0)">
			<stop  offset="0" style="stop-color:#444B8C"/>
			<stop  offset="0.9964" style="stop-color:#26264F"/>
		</linearGradient>
		<path style="fill:url(#SVGID_24_);" d="M953.3,1166.8c0,0,9-0.8,9.7,1.1c0.7,1.9,0.8,6.6-4.7,5.7
			C952.7,1172.6,952.6,1168.2,953.3,1166.8z"/>
		<linearGradient id="SVGID_25_" gradientUnits="userSpaceOnUse" x1="1019.7249" y1="1024.1766" x2="1077.6636" y2="1024.1766">
			<stop  offset="0" style="stop-color:#2B3582"/>
			<stop  offset="1" style="stop-color:#150E42"/>
		</linearGradient>
		<path class="st28" d="M1019.7,913.4c2,33.7,4.7,68.7,8.4,105c4.3,42,9.5,82.1,15.4,120.3c7.2,2.5,13.9,0,13.9,0
			s8.5-13.8,14.9-50.6c4.1-23.6,4.4-23.3,4.5-27.4c0.2-20.8-7.1-26.8-8.4-45.4c-1.3-17.2,4.2-22.3,7.5-41.7
			c2.5-14.9,3.5-36.6-4.5-64.9C1054.2,910.2,1036.9,911.8,1019.7,913.4z"/>
		<linearGradient id="SVGID_26_" gradientUnits="userSpaceOnUse" x1="998.8667" y1="949.1583" x2="998.3699" y2="1123.548">
			<stop  offset="0" style="stop-color:#2B3582"/>
			<stop  offset="1" style="stop-color:#150E42"/>
		</linearGradient>
		<path class="st29" d="M983.5,912.3c-9.9,33.3-19.5,74.8-24.8,122.9c-5.2,46.7-5.1,88.2-3,122.4c3.1,0.9,6.3,1.8,9.4,2.6
			c18.3-19.1,24.8-36.7,27.3-49.6c3.7-19-1.9-25.5,3-47c1.1-4.9,2.7-10.3,20.9-45.9c17.4-34,20.9-39,23.8-51.2
			c4.2-17.4,3.1-32.9,1.5-43.3C1022.2,919.7,1002.8,916,983.5,912.3z"/>
		<g>
			<path class="st99" d="M905.4,840.2l-31-72.7c-1.6-3.6,0.5-7.8,4.4-8.7l56.9-13.8c3.1-0.7,6.2,0.9,7.4,3.8l28.6,69.9
				c1.4,3.5-0.5,7.4-4,8.5l-54.4,16.6C910.1,844.8,906.7,843.2,905.4,840.2z"/>
			<linearGradient id="SVGID_27_" gradientUnits="userSpaceOnUse" x1="925.6163" y1="796.3871" x2="898.0419" y2="741.9835">
				<stop  offset="0" style="stop-color:#FF9085"/>
				<stop  offset="1" style="stop-color:#FB6FBB"/>
			</linearGradient>
			<path class="st30" d="M906.8,836.7l-29-67.9c-1.4-3.4,0.5-7.3,4.1-8.1l53.1-12.9c2.9-0.7,5.8,0.8,6.9,3.5l26.7,65.3
				c1.3,3.3-0.4,6.9-3.8,8l-50.8,15.5C911.2,841,908,839.5,906.8,836.7z"/>
		</g>
		<linearGradient id="SVGID_28_" gradientUnits="userSpaceOnUse" x1="889.8051" y1="790.5785" x2="881.2346" y2="829.7043">
			<stop  offset="0" style="stop-color:#FFC444"/>
			<stop  offset="0.9964" style="stop-color:#F36F56"/>
		</linearGradient>
		<path class="st31" d="M888.9,816.8l-0.9-8.6l-4.9-9.4c-0.7-1.3-1-2.7-1-4.2v-9.3l6,13.8c0,0,3.9-3.5,5.4-4.3
			c1.5-0.7,1.3,2.2,0.2,3.4c-1.1,1.1,0.6,10.2-0.6,11.2l0.4,5.6L888.9,816.8z"/>
		<linearGradient id="SVGID_29_" gradientUnits="userSpaceOnUse" x1="967.2472" y1="787.2125" x2="1066.366" y2="881.8597">
			<stop  offset="0" style="stop-color:#2B3582"/>
			<stop  offset="1" style="stop-color:#150E42"/>
		</linearGradient>
		<path class="st32" d="M936.3,762.2c4.6-11.3,14.6-17.9,19.7-21.2c12.2-8,20-6.5,48.1-10.8c37.4-5.7,41.8-11.1,54.4-6.7
			c16.5,5.7,25.1,20.7,29.1,27.6c19.9,34.6-3.4,52.2,2.6,121.1c2.4,28.1,8.7,52.6-6.3,67.1c-3.2,3-6.7,4.6-13.8,7.8
			c-28.1,12.6-53.3,10.5-68.6,8.9c-16.8-1.7-25.3-2.6-29.8-8.6c-7.1-9.5,0.2-21.6,1.5-42.5c0.9-15-2.5-26.9-9.3-50.7
			C948,798.9,927.4,783.9,936.3,762.2z"/>
		<g>
			<g>
				
					<linearGradient id="SVGID_30_" gradientUnits="userSpaceOnUse" x1="4449.6606" y1="34.5125" x2="4511.4912" y2="112.3032" gradientTransform="matrix(0.9663 0.2576 -0.2576 0.9663 -3299.0217 -495.1831)">
					<stop  offset="0" style="stop-color:#F9B776"/>
					<stop  offset="1" style="stop-color:#F47960"/>
				</linearGradient>
				<path class="st33" d="M998.8,709.7c-1.7-6.1,1.3-11.7,1.9-12.9c2.7-5.1,3.4-5.8,4.8-6.6l1.8-1.1c0,0,0.1,0,0.2-0.1
					c1.2-0.4,5.2-0.5,6-0.4c2.6,0.6,5.3,11,4.5,25.9c0.1,0.6,0.2,1.1,0.3,1.7c0.4,2.3,0.7,4.6,1,6.9c0.2,2.1,3.3,2.1,5.4,2
					c8.8-0.6,13,0.2,13.4,1.5c0.7,2.4-9.7,10.4-22.5,12.2c-17.2,0.1-31.2-1.7-29.7-4.4c0.7-1.2,14-4.7,17.8-8.1
					c3.4-3.2,3.2-6.4,3.4-8.8C1006.1,717,1000.1,714.2,998.8,709.7z"/>
				<path class="st99" d="M1002,684.9c0,4.6,2.2,9.5,3.3,10.3c0.1,0.1,0.9,0.7,1.7,1.8c0.1,0.1,0.2,0.3,0.3,0.5
					c1,2.9-3.6,6.3-2.7,7.6c0.6,0.9,3.8-0.3,4.1,0.5c0.4,0.8-2.3,2.3-1.9,3.3c0.3,0.7,1.9,0.1,2.9,1.1c0.5,0.5,0.4,0.9,0.9,2.6
					c0.3,0.9,0.7,1.9,1.1,2.5c1.6,2.7,6.1,3.7,7,2.6c0.2-0.3,0-0.6,0.3-1.6c0,0,0.2-0.9,0.9-2c0.9-1.5,3.2-2.7,5.4-4.3
					c4.2-3,5.3-5.6,5.7-6.5c0.1-0.3,0.2-0.5,0.3-0.7c1.1-3.4,1.1-8.4-0.4-11.4c-2.6-5.1-8.3-2.7-13-7.8c-5.4-5.9-2.2-13.9-5.1-14.8
					C1009.3,667.7,1001.9,676.4,1002,684.9z"/>
				
					<linearGradient id="SVGID_31_" gradientUnits="userSpaceOnUse" x1="4452.6196" y1="30.5968" x2="4521.6548" y2="117.4519" gradientTransform="matrix(0.9663 0.2576 -0.2576 0.9663 -3299.0217 -495.1831)">
					<stop  offset="0" style="stop-color:#F9B776"/>
					<stop  offset="1" style="stop-color:#F47960"/>
				</linearGradient>
				<path class="st34" d="M1006.1,704.1c1.1-1.5,3.1-0.1,3.1,1.9c0,2-1.9,4.1-3.8,3.7C1003.6,709.3,1004.6,706.1,1006.1,704.1z"/>
			</g>
			<path class="st99" d="M1007,700.7l-2.6,3.4c0,0-2.8,4.2-4.5,1.9c-1.3-1.9-1.7-1.8-1.8-1.7c0,0,0,0,0,0c0,0,0.2-0.9,0.4-1.7
				c-0.7,1-1.7,2.6-2.2,4.8c-0.6,2.1-1.2,4.4,0,6.6c0.1,0.1,1.4,2.4,3.8,3c0,0,1,0.2,5.1-0.5c0,0-4.5-3.2-4.5-4
				c-0.2-2.1,2.7-3.2,4.9-7.5C1006.4,703.2,1006.8,701.7,1007,700.7z"/>
		</g>
		<linearGradient id="SVGID_32_" gradientUnits="userSpaceOnUse" x1="930.6557" y1="825.5327" x2="1029.7747" y2="920.18">
			<stop  offset="3.597120e-03" style="stop-color:#E38DDD"/>
			<stop  offset="1" style="stop-color:#9571F6"/>
		</linearGradient>
		<path style="opacity:0.3;fill:url(#SVGID_32_);" d="M1016,936.2c-5-9.9,7.2-23-0.7-38c-6.7-12.8-19-9.9-24.6-21.6
			c-6.8-14.1,8-24.7,7.5-46.2c-0.6-25.7-22.8-51.4-35.8-49.2c-8.4,1.5-9.5,14-15.4,27.8c5.2,11.5,11.4,25.9,16.9,45.3
			c6.8,23.8,10.2,35.7,9.3,50.7c-1.3,20.9-8.6,33-1.5,42.5c4.5,5.9,13,6.9,29.8,8.6c15.3,1.5,40.5,3.7,68.6-8.9
			c3.6-1.6,6.2-2.8,8.4-4C1034.5,949.6,1019.9,944,1016,936.2z"/>
		<linearGradient id="SVGID_33_" gradientUnits="userSpaceOnUse" x1="945.4719" y1="810.0166" x2="1044.5907" y2="904.6638">
			<stop  offset="0" style="stop-color:#F9B776"/>
			<stop  offset="1" style="stop-color:#F47960"/>
		</linearGradient>
		<path style="fill:url(#SVGID_33_);" d="M887.3,815.1c2.7-1.2,5.5-2.4,8.2-3.5c4.6,4.7,10.5,9.3,15.5,7.8
			c7.4-2.2,5.5-15.8,14.5-39.7c10.2-27.1,21.8-34,27.6-36.5c3.3-1.4,5.5-2.3,8.2-1.7c12.4,3,16.5,35.4,13,59.6
			c-2,13.6-5.8,40.4-27.8,53.1c-3.1,1.8-20.3,11.7-37.3,3.9C894.7,851.4,885.8,834.3,887.3,815.1z"/>
	</g>
	<g>
		
			<linearGradient id="SVGID_34_" gradientUnits="userSpaceOnUse" x1="-2847.6433" y1="1437.2511" x2="-2869.3682" y2="1365.6178" gradientTransform="matrix(-0.993 0.1177 0.1177 0.993 -2091.4297 122.1395)">
			<stop  offset="0" style="stop-color:#444B8C"/>
			<stop  offset="0.9964" style="stop-color:#26264F"/>
		</linearGradient>
		<path class="st37" d="M922.4,1177.2c2.7,4.3,2.3,6.3,1.8,7.2c-1.4,2.7-5.5,0.7-15.5,3c-1.2,0.3-3.4,0.8-6.3,0.4
			c-2.5-0.3-5.5-1.3-5.4-2c0-0.2,0.4-0.4,0.6-0.4c2.8-0.9,19.8-8.1,19.8-8.1L922.4,1177.2z"/>
		
			<linearGradient id="SVGID_35_" gradientUnits="userSpaceOnUse" x1="-2866.3718" y1="1423.3027" x2="-2866.3718" y2="1308.218" gradientTransform="matrix(-0.993 0.1177 0.1177 0.993 -2091.4297 122.1395)">
			<stop  offset="0" style="stop-color:#F9B776"/>
			<stop  offset="1" style="stop-color:#F47960"/>
		</linearGradient>
		<path class="st38" d="M922.7,1167.1l-0.5,10.2c0,0-4,3.5-5.5-0.1c-1.1-2.6-1.8-9.8-1.8-9.8L922.7,1167.1z"/>
		
			<linearGradient id="SVGID_36_" gradientUnits="userSpaceOnUse" x1="-2823.9976" y1="1423.3026" x2="-2823.9976" y2="1308.2157" gradientTransform="matrix(-0.993 0.1177 0.1177 0.993 -2091.4297 122.1395)">
			<stop  offset="0" style="stop-color:#F9B776"/>
			<stop  offset="1" style="stop-color:#F47960"/>
		</linearGradient>
		<polygon style="fill:url(#SVGID_36_);" points="872.1,1177.5 877.5,1188.6 883.6,1187 881.1,1176.4 		"/>
		
			<linearGradient id="SVGID_37_" gradientUnits="userSpaceOnUse" x1="-2815.9956" y1="1427.6531" x2="-2837.7205" y2="1356.0195" gradientTransform="matrix(-0.993 0.1177 0.1177 0.993 -2091.4297 122.1395)">
			<stop  offset="0" style="stop-color:#444B8C"/>
			<stop  offset="0.9964" style="stop-color:#26264F"/>
		</linearGradient>
		<path class="st40" d="M880.1,1194.8c2.6-3.9,5.3-3.8,5.6-6.3c0.2-2-1.2-4.2-3.1-4.9c-2.6-1-5.4,1.3-6.1,1.8
			c-4.3,3.5-2.6,8.1-6.7,10.6c-0.8,0.5-2.2,1.1-3.5,2.6c-0.6,0.6-2,2.3-1.5,3.2c0.5,1.1,3.3,0.8,5.9,0.5c3.1-0.4,4.7-0.6,6.1-1.7
			C878.9,1199.1,878.1,1197.8,880.1,1194.8z"/>
		
			<linearGradient id="SVGID_38_" gradientUnits="userSpaceOnUse" x1="-2876.3225" y1="1174.9729" x2="-2886.8914" y2="1412.7749" gradientTransform="matrix(-0.993 0.1177 0.1177 0.993 -2091.4297 122.1395)">
			<stop  offset="0" style="stop-color:#2B3582"/>
			<stop  offset="1" style="stop-color:#150E42"/>
		</linearGradient>
		<path class="st41" d="M930.5,922.5c1.3,23.6,0,43.9-2.1,60.7c-2.3,18-4.2,21.2-4.4,33.5c-0.3,26.8,8.6,29.9,12.6,59.8
			c4.5,33.1-2.2,60.2-4.8,70.5c-2.3,9-4.9,16.4-6.9,21.6c-2.8,2.9-7.6,2.3-12.6,1.7c-4.3-30-8.9-58.1-13.2-88.1
			c-9.6-44.8-19.2-89.6-28.8-134.4C890.6,939.4,910.6,930.9,930.5,922.5z"/>
		
			<linearGradient id="SVGID_39_" gradientUnits="userSpaceOnUse" x1="-2876.3225" y1="1174.9729" x2="-2886.8914" y2="1412.7749" gradientTransform="matrix(-0.993 0.1177 0.1177 0.993 -2091.4297 122.1395)">
			<stop  offset="0" style="stop-color:#2B3582"/>
			<stop  offset="1" style="stop-color:#150E42"/>
		</linearGradient>
		<path class="st42" d="M912.5,1170.3c-4.3-30-8.9-58.1-13.2-88.1c-9.6-44.8-19.2-89.6-28.8-134.4c20-8.4,40-16.9,60-25.3
			c0.1,1.6,0.1,3.1,0.2,4.6c-26.8,27.4-30.8,47.7-29.3,61.2c1.7,16.4,11.3,23.8,11.6,47.7c0.2,17.1-4.7,20.5-3.4,35.9
			c1.6,19.8,11,30.2,16.1,41.3c4.9,10.7,7.6,26.2,1.8,49.1c-0.8,2.4-1.6,4.5-2.3,6.3C922.3,1171.5,917.5,1170.9,912.5,1170.3z"/>
		
			<linearGradient id="SVGID_40_" gradientUnits="userSpaceOnUse" x1="-2715.2036" y1="1276.1367" x2="-2908.9702" y2="1267.329" gradientTransform="matrix(-0.993 0.1177 0.1177 0.993 -2091.4297 122.1395)">
			<stop  offset="0" style="stop-color:#2B3582"/>
			<stop  offset="1" style="stop-color:#150E42"/>
		</linearGradient>
		<path class="st43" d="M896,948.2c-13,26.8-19.7,47.5-23.2,60.3c-2.2,7.8-4,15.9-3.7,26.3c0.3,12.7,3.7,22.9,6.4,29.4
			c3.9,8.3,7.6,18,10.3,29.1c8.9,36,2.9,67.2-2.4,85.3c-3.5,1.7-7.1,3.3-10.6,5c-10.2-22.5-23-54.4-33.7-94.3
			c-5.8-21.8-10.3-38.9-12.1-60.9c-2-23.2-1.7-60.2,13.7-105.7C859.1,931.1,877.6,939.6,896,948.2z"/>
		
			<linearGradient id="SVGID_41_" gradientUnits="userSpaceOnUse" x1="-3001.9858" y1="1326.907" x2="-2864.5881" y2="1033.3223" gradientTransform="matrix(-0.993 0.1177 0.1177 0.993 -2091.4297 122.1395)">
			<stop  offset="0" style="stop-color:#2B3582"/>
			<stop  offset="1" style="stop-color:#150E42"/>
		</linearGradient>
		<path class="st44" d="M870.9,747.8c-22.9,5.9-40.2,11.5-47.1,24.3c-7.3,13.5,6.8,22.1,12.7,50c9.1,42.7-14.4,60.9-3.6,103.7
			c3.6,14.4,9.5,25.4,13.5,31.8c8,5.5,20.6,12.9,37.3,17.2c24.2,6.3,35.5,0.5,67.3-0.3c52.1-1.3,61.1,13.1,83.7,1.9
			c22.9-11.3,37.9-38,32-48.3c-3.5-6.2-12.7-1.4-26.9-8.2c-18.4-8.8-16.6-23-31.8-33.7c-21.8-15.5-40.1,3.5-58.8-10
			c-18.9-13.7-24.1-50.2-18.4-72.8c3.7-14.7,2.5-30.3,4.9-45.2c0.2-1.2,0.3-3.2-0.7-5.3c-3.6-8.2-19.2-8.5-30.9-8.7
			C886.3,743.9,872.8,747.3,870.9,747.8z"/>
		
			<linearGradient id="SVGID_42_" gradientUnits="userSpaceOnUse" x1="1504.5994" y1="1373.3843" x2="1611.9181" y2="1594.0681" gradientTransform="matrix(0.9575 -0.2886 0.2886 0.9575 -1034.981 -96.6393)">
			<stop  offset="0" style="stop-color:#FF9085"/>
			<stop  offset="1" style="stop-color:#FB6FBB"/>
		</linearGradient>
		<path style="opacity:0.3;fill:url(#SVGID_42_);" d="M1030.6,960.3c-7.6-4.2-4.8-18.1-16-24.4c-10.4-5.9-17.4,3.5-32.3,0.3
			c-19.1-4.2-19.6-22.2-38-26.4c-13.2-3.1-16.4,5.5-34.9,7.4c-18.5,1.9-43.4-3.7-60.3-22.1c-7.2-7.8-11.6-16.4-14.3-24.4
			c-3.6,16.4-7.7,32.3-1.9,55.3c3.6,14.4,9.5,25.4,13.5,31.8c8,5.5,20.6,12.9,37.3,17.2c24.2,6.3,35.5,0.5,67.3-0.3
			c52.1-1.3,61.1,13.1,83.7,1.9c14.6-7.2,26-20.7,30.8-32.2C1046.3,960.8,1036.1,963.3,1030.6,960.3z"/>
		
			<linearGradient id="SVGID_43_" gradientUnits="userSpaceOnUse" x1="-3347.6138" y1="1047.1184" x2="-3372.4004" y2="1087.2145" gradientTransform="matrix(-0.9925 -0.1215 -0.1215 0.9925 -2327.9773 -720.8274)">
			<stop  offset="0" style="stop-color:#F9B776"/>
			<stop  offset="1" style="stop-color:#F47960"/>
		</linearGradient>
		<path class="st46" d="M875,709.2c0,0-8.2,10.9-10,19.2c-1.7,8.3,7.8,9.2,7.8,9.2l-1.2,5.2c-1,4.5-4.6,7.9-9,8.8l-3.9,0.8
			c0,0,23.5,9,38.2,1.8l-3.8-1c-5.3-1.4-8.9-6.3-8.6-11.8l0.1-2.3C884.6,739,892.9,713.6,875,709.2z"/>
		<g>
			
				<linearGradient id="SVGID_44_" gradientUnits="userSpaceOnUse" x1="-2758.2683" y1="1008.1147" x2="-2808.228" y2="1088.9319" gradientTransform="matrix(-0.993 0.1177 0.1177 0.993 -2091.4297 122.1395)">
				<stop  offset="0" style="stop-color:#444B8C"/>
				<stop  offset="0.9964" style="stop-color:#26264F"/>
			</linearGradient>
			<path class="st47" d="M829.2,845.6l-37.3-64.3c-0.5-0.8-1.4-1.2-2.3-1l-52.2,12.2c-1.4,0.3-2.1,1.9-1.3,3.1l43.3,69.2
				c0.5,0.8,1.6,1.2,2.5,0.9l45.8-16.6L829.2,845.6z"/>
			<path class="st2" d="M820,838.3l-30.2-52.1c-0.4-0.6-1.1-1-1.8-0.8l-42.2,9.9c-1.1,0.3-1.7,1.6-1,2.5l35,56c0.4,0.7,1.3,1,2,0.7
				l37.1-13.4L820,838.3z"/>
			
				<linearGradient id="SVGID_45_" gradientUnits="userSpaceOnUse" x1="-2763.3708" y1="1002.9305" x2="-2751.4807" y2="978.2693" gradientTransform="matrix(-0.993 0.1177 0.1177 0.993 -2091.4297 122.1395)">
				<stop  offset="0" style="stop-color:#444B8C"/>
				<stop  offset="0.9964" style="stop-color:#26264F"/>
			</linearGradient>
			<path class="st48" d="M780.9,786.9l-2.4-4.2c-0.3-0.6-1-0.9-1.7-0.7l-21.7,4.9c-1,0.2-1.5,1.4-1,2.3l2.7,4.5
				c0.3,0.6,1,0.9,1.7,0.7l21.5-5.3C781,788.9,781.4,787.7,780.9,786.9z"/>
			
				<linearGradient id="SVGID_46_" gradientUnits="userSpaceOnUse" x1="-2760.8464" y1="982.0146" x2="-2720.1045" y2="982.0146" gradientTransform="matrix(-0.9946 0.104 0.104 0.9946 -2056.3054 107.6786)">
				<stop  offset="0" style="stop-color:#444B8C"/>
				<stop  offset="0.9964" style="stop-color:#26264F"/>
			</linearGradient>
			<path class="st49" d="M752.5,804.8C752.5,804.8,752.5,804.8,752.5,804.8l38.3-9c0.5-0.1,0.8-0.6,0.7-1.1
				c-0.1-0.5-0.6-0.8-1.1-0.7l-38.2,9c-0.5,0.1-0.8,0.6-0.7,1.1C751.6,804.5,752,804.8,752.5,804.8z"/>
			
				<linearGradient id="SVGID_47_" gradientUnits="userSpaceOnUse" x1="-2762.6494" y1="985.7604" x2="-2722.1052" y2="985.7604" gradientTransform="matrix(-0.9946 0.104 0.104 0.9946 -2056.3054 107.6786)">
				<stop  offset="0" style="stop-color:#444B8C"/>
				<stop  offset="0.9964" style="stop-color:#26264F"/>
			</linearGradient>
			<path class="st50" d="M754.9,808.5c0,0,0.1,0,0.1,0l38-9.4c0.5-0.1,0.8-0.6,0.6-1.1c-0.1-0.5-0.6-0.8-1.1-0.6l-38,9.4
				c-0.5,0.1-0.8,0.6-0.6,1.1C754,808.2,754.4,808.5,754.9,808.5z"/>
			
				<linearGradient id="SVGID_48_" gradientUnits="userSpaceOnUse" x1="-2764.5291" y1="992.877" x2="-2741.6187" y2="992.877" gradientTransform="matrix(-0.9946 0.104 0.104 0.9946 -2056.3054 107.6786)">
				<stop  offset="0" style="stop-color:#444B8C"/>
				<stop  offset="0.9964" style="stop-color:#26264F"/>
			</linearGradient>
			<path class="st51" d="M774.9,812.6c0,0,0.1,0,0.1,0l20.7-5.7c0.5-0.1,0.7-0.6,0.6-1.1c-0.1-0.5-0.6-0.7-1.1-0.6l-20.7,5.7
				c-0.5,0.1-0.7,0.6-0.6,1.1C774.1,812.4,774.5,812.7,774.9,812.6z"/>
		</g>
		
			<linearGradient id="SVGID_49_" gradientUnits="userSpaceOnUse" x1="-2747.6987" y1="1040.0531" x2="-2759.6865" y2="1059.4449" gradientTransform="matrix(-0.993 0.1177 0.1177 0.993 -2091.4297 122.1395)">
			<stop  offset="0" style="stop-color:#F9B776"/>
			<stop  offset="1" style="stop-color:#F47960"/>
		</linearGradient>
		<path class="st52" d="M768.9,847.9c0,0-9.2-5-10.7-9c-1.4-4-2-11.8-2-11.8l6.2,10.4c0,0,2.4-0.9,3-4.7c0.7-3.7,2.8-0.6,2.4,2.2
			C767.3,837.9,768.9,847.9,768.9,847.9z"/>
		
			<linearGradient id="SVGID_50_" gradientUnits="userSpaceOnUse" x1="-2940.3208" y1="1355.7603" x2="-2802.9253" y2="1062.1804" gradientTransform="matrix(-0.993 0.1177 0.1177 0.993 -2091.4297 122.1395)">
			<stop  offset="0" style="stop-color:#2B3582"/>
			<stop  offset="1" style="stop-color:#150E42"/>
		</linearGradient>
		<path class="st53" d="M827.5,767.6c-4.3,3.2-10.6,8.8-15.9,17.3c-14.9,24.1-5.7,47.2-19.1,57.1c-3.8,2.8-10.8,5.5-24.2,2.3
			l-4.7,3.2c0,0-2.8,31.4,34.7,28.7c37.5-2.8,51.3-51.2,51.3-51.2L827.5,767.6z"/>
		
			<linearGradient id="SVGID_51_" gradientUnits="userSpaceOnUse" x1="-3485.2756" y1="1215.0651" x2="-3385.0679" y2="1000.9459" gradientTransform="matrix(-0.9925 -0.1215 -0.1215 0.9925 -2327.9773 -720.8274)">
			<stop  offset="0" style="stop-color:#444B8C"/>
			<stop  offset="0.9964" style="stop-color:#26264F"/>
		</linearGradient>
		<path class="st54" d="M876.9,721.6c1.3,0.1,2.6-1.3,3.3-0.7c0.8,0.6,0.4,2.9-0.7,4.4c-0.9,1.2-2,1.8-2.7,2.1
			c0.8,1.5,1.7,3.8,1.7,6.6c0.2,6.2-3.8,10.6-5.6,13.2c-8,11.9-1.9,33.6,6.8,45.4c7,9.6,11.5,6.9,15.4,14.5
			c7.6,14.7-8.1,27.1-5.9,45.7c3.3,28.2,44.8,43,46.5,43.6c0.7,0.2,1.1,0.4,1.8,0.6c18.7,6.1,47,15.3,69.9,2.8
			c17.2-9.3,27.4-28.7,29.1-46.9c0.4-4.8,1.9-23-10.5-40c-2-2.7-13.6-18.7-32.2-21.8c-9.9-1.7-12.4,1.5-19.6-1.8
			c-9.9-4.6-14.7-15-17.8-21.4c-5.6-11.9-2.3-13.7-6.6-19.8c-8.6-11.9-21.9-5.7-31.4-16.6c-9.4-10.7-0.9-21.8-10.1-31.3
			c-9.5-9.7-30.4-10.2-36.3-1.3C867.1,706.6,873,721.3,876.9,721.6z"/>
	</g>
</g>
</svg>
