<?xml version="1.0" encoding="UTF-8" standalone="no"?>
<svg
   xmlns:dc="http://purl.org/dc/elements/1.1/"
   xmlns:cc="http://creativecommons.org/ns#"
   xmlns:rdf="http://www.w3.org/1999/02/22-rdf-syntax-ns#"
   xmlns:svg="http://www.w3.org/2000/svg"
   xmlns="http://www.w3.org/2000/svg"
   version="1.1"
   id="Livello_1"
   x="0px"
   y="0px"
   viewBox="0 0 842.40002 918"
   xml:space="preserve"
   width="842.40002"
   height="918"><metadata
   id="metadata89"><rdf:RDF><cc:Work
       rdf:about=""><dc:format>image/svg+xml</dc:format><dc:type
         rdf:resource="http://purl.org/dc/dcmitype/StillImage" /><dc:title></dc:title></cc:Work></rdf:RDF></metadata><defs
   id="defs87" />
<style
   type="text/css"
   id="style2">
	.st0{fill:#3F3FCB;}
	.st1{fill:#FB9600;}
	.st2{fill:#FF9432;}
</style>
<g
   id="g28"
   transform="translate(-203.3,-273.9)">
	<g
   id="g26">
		<path
   class="st0"
   d="m 220.9,1186.6 c -5.6,-3.5 -9.9,-8.4 -13,-14.5 -3.1,-6.1 -4.6,-12.8 -4.6,-20.2 v -53.5 H 219 v 53.5 c 0,4.5 0.8,8.5 2.5,12.2 1.7,3.7 4.1,6.6 7.3,8.8 3.2,2.2 6.9,3.2 11.2,3.2 4.4,0 8.1,-1.1 11.3,-3.2 3.1,-2.2 5.5,-5.1 7.2,-8.8 1.6,-3.7 2.5,-7.8 2.5,-12.3 v -53.5 h 15.7 v 53.5 c 0,7.4 -1.5,14.1 -4.6,20.2 -3.1,6.1 -7.4,10.9 -13,14.5 -5.6,3.5 -12,5.3 -19.1,5.3 -7.2,0.1 -13.5,-1.7 -19.1,-5.2 z"
   id="path4" />
		<path
   class="st0"
   d="m 297.9,1187.1 c -4.4,-2.5 -7.5,-5.7 -9.4,-9.8 l 13.3,-5.7 c 0.9,1.6 2.5,3.1 4.9,4.4 2.3,1.3 4.8,2 7.5,2 2.8,0 5.2,-0.6 7.2,-1.7 2,-1.2 3,-2.8 3,-5 0,-1.5 -0.5,-2.8 -1.6,-3.7 -1.1,-0.9 -2.3,-1.6 -3.6,-2 -1.3,-0.4 -3.3,-1 -5.8,-1.6 -6.9,-1.4 -12.5,-3.8 -16.9,-7.2 -4.4,-3.4 -6.5,-7.9 -6.5,-13.4 0,-4.2 1.1,-7.8 3.4,-11 2.3,-3.2 5.2,-5.7 9,-7.4 3.7,-1.7 7.8,-2.6 12,-2.6 5.2,0 10,1.1 14.3,3.3 4.4,2.2 7.8,5.2 10.3,9.1 l -12.5,7.3 c -1,-1.7 -2.7,-3.2 -4.9,-4.5 -2.2,-1.3 -4.5,-1.8 -7,-1.8 -3,0 -5.4,0.6 -7.2,1.8 -1.8,1.2 -2.8,3 -2.8,5.3 0,1.2 0.4,2.2 1.2,3 0.8,0.8 1.8,1.4 2.9,1.8 1.2,0.4 2.7,0.9 4.6,1.4 0.3,0.1 0.9,0.2 1.6,0.4 0.7,0.2 1.3,0.4 1.9,0.6 6.7,2.2 12.1,4.9 16.2,8.2 4,3.3 6,7.5 5.9,12.7 0,3.8 -1.1,7.3 -3.4,10.5 -2.3,3.1 -5.2,5.6 -9,7.3 -3.7,1.7 -7.7,2.6 -11.9,2.6 -0.9,0 -1.6,0 -2.1,-0.1 -5.3,-0.3 -10.2,-1.7 -14.6,-4.2 z"
   id="path6" />
		<path
   class="st0"
   d="m 362.2,1187.2 c -5,-3.1 -9,-7.3 -11.9,-12.6 -3,-5.3 -4.4,-11.1 -4.4,-17.3 0,-6.2 1.5,-12 4.4,-17.3 3,-5.3 6.9,-9.5 11.9,-12.6 5,-3.1 10.5,-4.7 16.4,-4.7 6.1,0 11.6,1.6 16.6,4.7 5,3.1 8.9,7.4 11.8,12.7 2.9,5.3 4.3,11.1 4.3,17.4 0,2 -0.1,3.7 -0.3,5.2 h -48.2 c 0.9,3.9 2.7,7.1 5.6,9.6 2.9,2.5 6.4,3.7 10.5,3.7 2.8,0 5.3,-0.7 7.6,-2.1 2.3,-1.4 4.3,-3.3 5.8,-5.7 l 16.1,3.7 c -1.8,3.9 -4.2,7.3 -7.2,10.3 -3,3 -6.4,5.3 -10.3,7 -3.9,1.7 -7.9,2.5 -12.2,2.5 -6,0.2 -11.5,-1.4 -16.5,-4.5 z m 29.7,-43.6 c -1.6,-2.2 -3.5,-3.9 -5.8,-5.2 -2.3,-1.3 -4.8,-1.9 -7.5,-1.9 -2.6,0 -5.1,0.6 -7.4,1.9 -2.3,1.3 -4.2,3 -5.8,5.2 -1.6,2.2 -2.6,4.7 -3.2,7.4 h 32.9 c -0.5,-2.7 -1.6,-5.2 -3.2,-7.4 z"
   id="path8" />
		<path
   class="st0"
   d="m 477,1141.4 -0.1,48.7 h -15.7 l 0.1,-48.7 h -9.8 v -15.7 h 9.8 l -0.1,-21.7 h 15.7 l 0.1,21.7 h 12.9 v 15.7 z"
   id="path10" />
		<path
   class="st0"
   d="m 546.4,1190.2 v -33.7 c 0,-3.4 -0.7,-6.5 -2.1,-9.3 -1.4,-2.8 -3.3,-5.1 -5.7,-6.8 -2.4,-1.7 -5,-2.5 -7.8,-2.5 -3.1,0 -5.8,0.8 -8,2.5 -2.2,1.6 -3.8,3.9 -5,6.7 -1.1,2.8 -1.7,5.9 -1.7,9.4 v 33.7 h -15.9 v -98.4 H 516 v 39.2 c 1.6,-3 3.7,-5.1 6.4,-6.3 2.7,-1.2 6,-1.8 10,-1.8 5.9,0 11,1.5 15.5,4.5 4.5,3 8,7 10.4,12.1 2.5,5.1 3.7,10.7 3.8,16.8 v 33.9 z"
   id="path12" />
		<path
   class="st0"
   d="m 585.4,1187.2 c -5,-3.1 -9,-7.3 -11.9,-12.6 -3,-5.3 -4.4,-11.1 -4.4,-17.3 0,-6.2 1.5,-12 4.4,-17.3 3,-5.3 6.9,-9.5 11.9,-12.6 5,-3.1 10.5,-4.7 16.4,-4.7 6.1,0 11.6,1.6 16.6,4.7 5,3.1 8.9,7.4 11.8,12.7 2.9,5.3 4.3,11.1 4.3,17.4 0,2 -0.1,3.7 -0.3,5.2 H 586 c 0.9,3.9 2.7,7.1 5.6,9.6 2.9,2.5 6.4,3.7 10.5,3.7 2.8,0 5.3,-0.7 7.6,-2.1 2.3,-1.4 4.3,-3.3 5.8,-5.7 l 16.1,3.7 c -1.8,3.9 -4.2,7.3 -7.2,10.3 -3,3 -6.4,5.3 -10.3,7 -3.9,1.7 -7.9,2.5 -12.2,2.5 -6,0.2 -11.5,-1.4 -16.5,-4.5 z m 29.8,-43.6 c -1.6,-2.2 -3.5,-3.9 -5.8,-5.2 -2.3,-1.3 -4.8,-1.9 -7.5,-1.9 -2.6,0 -5.1,0.6 -7.4,1.9 -2.3,1.3 -4.2,3 -5.8,5.2 -1.6,2.2 -2.6,4.7 -3.2,7.4 h 32.9 c -0.6,-2.7 -1.7,-5.2 -3.2,-7.4 z"
   id="path14" />
		<path
   class="st1"
   d="m 758.1,1098.3 -12.9,91.8 h -19.7 l 5.5,-39.4 h -32.5 l -5.5,39.4 h -19.7 l 12.9,-91.8 h 19.7 l -4.6,32.8 h 32.5 l 4.6,-32.8 z"
   id="path16" />
		<path
   class="st1"
   d="m 775.1,1098.3 h 58.5 l -2.8,19.7 H 792 l -1.8,13.1 h 29.9 l -2.8,19.7 h -29.9 l -2.8,19.7 h 38.8 l -2.8,19.7 h -58.5 z"
   id="path18" />
		<path
   class="st1"
   d="m 898.2,1098.3 20.4,91.8 h -20.5 l -3.2,-14.4 h -36.6 l -7.3,14.4 h -21.2 l 46.2,-91.8 z m -7.8,57.8 -6.7,-30.4 -15.5,30.4 z"
   id="path20" />
		<path
   class="st1"
   d="m 972.1,1098.3 c 7.6,0 14.5,1.8 20.6,5.3 6.1,3.6 11,8.4 14.5,14.6 3.5,6.2 5.2,13 5.2,20.6 0,2.2 -0.2,4.4 -0.5,6.5 -1.1,8.1 -4.2,15.6 -9.2,22.5 -5,6.8 -11.3,12.3 -18.8,16.3 -7.5,4 -15.4,6 -23.7,6 h -31 l 12.9,-91.8 z m 3.6,68.5 c 4.5,-2.4 8.2,-5.8 11.2,-10 3,-4.2 4.9,-8.8 5.6,-13.7 0.2,-1 0.3,-2.2 0.3,-3.5 0,-4 -1,-7.7 -2.9,-11 -1.9,-3.3 -4.6,-5.9 -8,-7.8 -3.4,-1.9 -7.2,-2.9 -11.5,-2.9 h -11.3 l -7.3,52.5 H 962 c 4.6,0.1 9.2,-1.1 13.7,-3.6 z"
   id="path22" />
		<path
   class="st1"
   d="m 1018.7,1189.2 c -1.8,-1.8 -2.7,-4 -2.7,-6.8 0,-0.4 0,-0.9 0.1,-1.6 0.3,-2.4 1.5,-4.4 3.4,-6.1 1.9,-1.7 4.1,-2.5 6.5,-2.5 1.8,0 3.4,0.4 4.9,1.2 1.4,0.8 2.6,1.9 3.4,3.3 0.8,1.4 1.2,3 1.2,4.8 0,1.9 -0.5,3.6 -1.4,5.2 -0.9,1.6 -2.1,2.9 -3.7,3.8 -1.5,0.9 -3.2,1.4 -4.9,1.4 -2.7,0 -5,-0.9 -6.8,-2.7 z m 10.6,-90.9 h 16.4 l -9,64.3 h -16.4 z"
   id="path24" />
	</g>
</g>
<g
   id="g60"
   transform="translate(-203.3,-273.9)">
	<path
   class="st2"
   d="M 270.6,622.6 V 273.9 H 619.3 968 V 622.6 971.3 H 619.3 270.6 Z m 564.8,324.6 c 2,-1.3 4.9,-4 6.6,-5.9 l 3,-3.3 4.9,4.6 c 11.7,11 22.8,9.4 35.4,-5 3,-3.5 7.5,-7.2 9.8,-8.4 6.8,-3.6 9.7,-7.6 10.5,-15.1 0.6,-5.6 1.6,-7.6 5.6,-11 6.8,-5.8 10.8,-14.3 11.2,-24.4 0.4,-7.6 1.2,-9.2 6.5,-15 7.5,-8.1 8.6,-11.4 8.6,-24.2 0,-7.5 -0.7,-11.8 -2.9,-16 -2,-3.9 -2.9,-8.5 -2.9,-14.7 0,-17.4 -7.9,-31.1 -20.9,-36.6 -4.3,-1.7 -8.2,-4.5 -8.6,-5.9 -1.2,-3.5 -7.6,-7.8 -13.7,-9.1 -2.7,-0.6 -6.6,-2.2 -8.6,-3.6 -5,-3.5 -15.3,-7.2 -19.6,-7.2 -1.9,0 -6.1,1.3 -9.2,2.9 l -5.6,2.9 -6.9,-3 c -8.6,-3.7 -14.6,-3 -24.2,2.6 -4,2.4 -9.8,4.8 -12.7,5.3 -3.6,0.7 -7.3,2.9 -10.8,6.5 -2.9,3 -7.9,6.6 -11.1,8.2 -14.3,6.6 -20,17.4 -21.8,40.9 -0.3,3.6 -1.7,10.1 -3.3,14.4 -5.3,14.3 -3.3,25.1 6.6,36 5.3,5.9 6.2,7.8 6.2,13.1 0,9.7 4.2,19.6 10.8,25.5 4.6,4.2 5.8,6.3 6.1,10.5 0.3,7.5 3.9,13.5 9.8,16.3 2.9,1.4 7.2,4.8 9.8,7.6 11.6,13 23.1,16.9 31.4,11.1 z M 504,844.5 V 740.8 H 400.3 296.5 V 844.5 948.2 H 400.2 504 Z m 220.5,0 V 740.8 h -103 -103 v 103.7 103.7 h 103 103 z M 504,624 V 520.3 H 400.3 296.5 V 624 727.7 H 400.2 504 Z m 220.5,0 V 520.3 h -103 -103 V 624 727.7 h 103 103 z m 220.4,0 V 520.3 H 841.2 737.5 V 624 727.7 H 841.2 944.9 Z M 504,403.6 V 299.8 H 400.3 296.5 V 403.5 507.2 H 400.2 504 Z m 220.5,0 V 299.8 h -103 -103 v 103.7 103.7 h 103 103 z m 220.4,0 V 299.8 H 841.2 737.5 v 103.7 103.7 h 103.7 103.7 z"
   id="path30" />
	<path
   class="st2"
   d="m 817.3,939.3 c -2.3,-1.7 -5.5,-4.8 -7.1,-6.8 -5.6,-6.8 -7.9,-8.8 -10.8,-8.8 -4.5,0 -8.9,-8.2 -7.9,-14.7 0.7,-4.9 0.3,-5.6 -4.9,-9.4 -8.5,-6.1 -12,-13 -11.5,-23.5 0.3,-8.4 0.1,-8.9 -4.8,-13.4 -6.3,-5.9 -11.2,-15.3 -11.2,-21.8 0,-2.9 1.3,-8.5 3,-12.7 1.7,-4.2 3.3,-11.2 3.6,-15.6 0.7,-12.2 1.9,-18.6 4.3,-23.2 2.7,-5.3 12.8,-12.8 17.3,-12.8 2.3,0 4,-1.4 5.6,-4.2 2.9,-5.6 7.5,-8.8 13.1,-8.8 2.4,0 5.3,-1 6.5,-2.3 3,-3.6 12.4,-7.8 17.4,-7.8 2.6,0 6.2,1.2 8.1,2.6 l 3.2,2.4 0.1,86 c 0.1,77.5 -0.1,86.3 -2.3,89.5 -5.4,8.8 -14.5,10.8 -21.7,5.3 z m 12.1,-20.2 c 5,-5.5 6.3,-10.8 3.9,-15.6 -1.3,-2.4 -3.9,-5.3 -5.8,-6.6 -5,-3.3 -5.2,-12.2 -0.1,-14.8 1.9,-1.2 4.6,-4.3 5.9,-7.3 2.2,-4.9 2.2,-5.8 0.1,-9.7 -1.2,-2.4 -3.7,-5.3 -5.8,-6.6 -3.2,-2.2 -3.6,-3.6 -4,-12.8 l -0.4,-10.5 -4.6,-0.4 -4.8,-0.4 V 820 c 0,-13.8 0.1,-14.4 3.5,-16 6.2,-2.7 8.1,-12.2 4,-19.5 -1,-1.7 -4.3,-4 -7.3,-4.9 -4.9,-1.4 -6.3,-1.3 -10.5,1.2 -2.6,1.4 -5.6,4.5 -6.6,6.6 -2.6,5.5 0,13.5 5.6,16.7 4.2,2.3 4.2,2.4 4.2,16.4 v 14 h -4 c -3,0 -4.6,-1 -5.8,-3.5 -0.9,-2 -3.7,-4.2 -6.6,-5.2 -13.5,-4.5 -24.6,8.9 -16.7,20.2 5.8,8.1 17.3,8.1 23.1,0 2.9,-4 3.7,-4.3 11.7,-4.3 h 8.5 v 7.9 c 0,5.9 -0.6,7.9 -2,7.9 -3.5,0 -8.1,7.2 -8.1,12.5 0,3.9 1.2,6.2 5,10.1 6.6,6.6 6.8,12.4 0.6,17.6 -3.2,2.7 -4.6,5.3 -5.2,9.8 -0.7,5.3 -0.3,6.6 3.6,10.5 5.5,5.5 13.8,6 18.6,1.1 z"
   id="path32" />
	<path
   class="st2"
   d="m 815.6,913.4 c -2.3,-2.3 -2.2,-7.6 0.3,-9.8 3,-2.3 8.1,-1.3 10.4,2.2 3.8,5.8 -5.7,12.6 -10.7,7.6 z"
   id="path34" />
	<path
   class="st2"
   d="m 816.3,875 c -3,-3.5 -3.2,-9.8 -0.1,-11 4.5,-1.7 7.8,-0.9 10.1,2.7 2.2,3.3 2.2,3.7 -0.4,6.8 -3.4,4.4 -6.7,4.9 -9.6,1.5 z"
   id="path36" />
	<path
   class="st2"
   d="m 780.2,843.3 c -1.4,-1.4 -2.4,-3.7 -2.4,-5 0,-3 3.9,-6.8 7.2,-6.8 3.2,0 7.2,3.7 7.2,6.6 0,2.6 -5.2,7.8 -7.6,7.8 -1.2,0 -3.1,-1.1 -4.4,-2.6 z"
   id="path38" />
	<path
   class="st2"
   d="m 804.7,797.2 c -3.2,-3.5 -3,-6.5 0.3,-9.5 3.5,-3.2 8.5,-2.4 11.2,1.4 1.7,2.6 1.6,3.5 -1.2,6.8 -3.3,4.5 -6.9,4.9 -10.3,1.3 z"
   id="path40" />
	<path
   class="st2"
   d="m 853.6,936.7 -5.2,-5.8 v -86.2 -86.2 l 5,-2.4 c 6.5,-3 11.7,-3 17.7,0.1 l 4.6,2.6 -3.6,4.9 c -3.9,5.3 -4.5,7.9 -1.9,9.5 0.9,0.6 3.6,-1.2 6.5,-4.2 5.6,-6.2 11,-6.9 16.9,-2.3 3,2.4 3.5,3.5 2.2,5 -0.9,1.2 -2.4,2 -3.5,2 -5.3,0 -15.4,18 -13.3,23.6 1.6,4.2 3.9,2.4 7.3,-5.5 3.6,-8.2 11.8,-15.3 17.6,-15.3 4.8,0 14.7,8.1 17.3,14 2.7,6.5 3.3,10.2 3.6,20.5 0,5 1.2,9.9 3.2,13.7 4.3,8.4 4.2,21.2 -0.1,29 -4,6.9 -14,14.7 -20.2,16 -7.3,1.4 -11.2,-0.4 -16.9,-8.1 -4.3,-5.9 -5.8,-6.9 -7.3,-5.6 -2.2,1.7 -1.6,5.9 1.4,9.7 7.9,10.2 15.7,13.5 25.1,10.7 2.9,-0.9 5.5,-1.3 5.8,-1 0.4,0.3 0.1,3.6 -0.3,7.1 -1.2,7.2 -5.8,13.7 -12.5,17.7 -3.7,2.3 -4.2,3.2 -4.2,9.9 0,8.2 -2,11.5 -8.8,13.8 -2.2,0.7 -5.5,3.6 -7.3,6.3 -4.5,6.8 -13,12.1 -19,12.1 -3.9,0.2 -5.9,-1 -10.1,-5.6 z m 10.5,-25.3 c 4,-7.3 10.5,-13.5 14.7,-13.5 1.7,0 2.7,-1 2.7,-2.7 0,-2.2 -1.2,-3 -4.6,-3.3 -3.9,-0.4 -4.8,-1.2 -5.9,-5.3 -1.9,-7.6 -8.8,-17.4 -12.2,-17.4 -3.6,0 -3.3,4.2 0.9,9.9 5.9,8.1 7.3,16.6 3.5,20.7 -4.8,5.2 -8.8,15 -7.1,16.7 2.7,2.6 4.6,1.6 8,-5.1 z m 47.6,-69.9 c 2.9,-1 4.5,-2.6 4.5,-4.3 0,-2.6 -0.7,-2.7 -10.4,-1.9 -9.5,0.7 -11,0.6 -15.4,-2.6 -5,-3.3 -11.8,-13.4 -13.5,-19.9 -0.6,-2 -2.4,-5.3 -4.5,-7.6 -2.9,-3.5 -3.3,-4.8 -2.2,-9.4 1.9,-8.2 1.6,-13.3 -1,-14.3 -3.2,-1.2 -4.8,1 -5,7.5 -0.3,7.1 -4.8,21 -8.9,28.5 -2.6,4.6 -2.7,5.6 -1,6.8 2.7,1.7 8.1,-3.2 10.4,-9.7 2.2,-6.2 3.5,-6.1 5.6,0.7 6.8,21.4 23.9,32.2 41.4,26.2 z"
   id="path42" />
	<path
   class="st2"
   d="m 349.8,848.8 v -57.6 h 12.7 l 12.5,0.1 11.5,17.9 c 6.3,9.9 17,26.5 23.8,37 l 12.2,19 0.4,-37 0.3,-37 h 10.8 10.8 v 57.6 57.6 h -10.7 -10.7 l -25.4,-40.3 -25.8,-40.3 -0.4,40.3 -0.3,40.3 h -10.8 -10.8 c -0.1,0.1 -0.1,-57.6 -0.1,-57.6 z"
   id="path44" />
	<path
   class="st2"
   d="m 566,848.8 v -57.6 h 10.8 10.8 v 25.2 c 0,13.8 0.4,25.2 1.2,25.2 0.6,0 11.4,-11.4 23.9,-25.2 l 22.9,-25.2 h 12.8 13 l -6.3,6.9 c -3.3,3.9 -14.6,16.1 -24.9,27.5 -10.2,11.2 -18.9,21.2 -19.2,21.9 -0.4,1 6.6,9.1 36.6,41.6 3.3,3.6 8.1,8.9 10.7,12 l 4.6,5.3 h -14.1 l -14.3,-0.1 -22.3,-25.1 c -12.2,-13.7 -22.8,-25.1 -23.3,-25.1 -0.7,-0.1 -1.2,11.2 -1.2,25.1 v 25.2 H 576.9 566 Z"
   id="path46" />
	<path
   class="st2"
   d="M 385.9,638.5 V 590.9 H 370 354.1 v -10.1 -10.1 h 43.2 43.2 v 10.1 10.1 h -15.9 -15.9 v 47.6 47.5 h -11.5 -11.5 v -47.5 z"
   id="path48" />
	<path
   class="st2"
   d="m 570.3,628.4 v -57.6 h 10.8 10.7 l 0.4,22.8 0.4,22.6 22.8,0.4 22.6,0.4 v -23.2 -23.1 h 10.8 10.8 V 628.3 686 H 648.8 638 V 660.1 634 l -22.6,0.4 -22.8,0.4 -0.4,25.6 -0.3,25.5 h -10.8 -10.8 z"
   id="path50" />
	<path
   class="st2"
   d="m 823.9,628.4 v -57.6 h 10.8 10.8 v 57.6 57.6 h -10.8 -10.8 z"
   id="path52" />
	<path
   class="st2"
   d="m 388.8,467.1 c -7.2,-2.3 -19,-8.9 -24.8,-14.3 -25.1,-22.5 -26.2,-59.5 -2.6,-84.4 22.3,-23.6 64.3,-24.4 86.5,-1.6 l 4.9,5 -7.3,7.5 -7.5,7.3 -5.8,-5.2 c -7.8,-7.1 -12.8,-9.4 -22.2,-10.5 -16.1,-1.9 -32,6.6 -39.5,21.6 -9.4,18.4 -1.6,41.2 17.1,50.7 15.3,7.6 31.3,5.6 43.9,-5.8 l 7.2,-6.5 7.3,7.5 7.5,7.6 -5.3,5 c -13.4,12.7 -25.1,17.1 -43.5,17 -6.7,0.3 -13.9,-0.3 -15.9,-0.9 z"
   id="path54" />
	<path
   class="st2"
   d="m 570.3,410.6 v -57.8 l 27.8,0.6 c 25.2,0.4 28.2,0.7 33.6,3.6 12.7,6.8 18.6,17.7 17.6,32.3 -0.7,9.9 -5.9,18.6 -14.6,24.2 l -5.3,3.5 4.2,2.6 c 5.5,3.3 6.6,5.3 15.4,29.1 l 7.3,19.7 h -11.8 -12 l -3.7,-12.5 c -4.8,-16.1 -10.2,-26.9 -15,-30.1 -2,-1.3 -7.8,-2.7 -12.8,-3.2 l -9.1,-0.7 v 23.3 23.2 h -10.8 -10.8 z m 49,-7.7 c 8.4,-4.3 11.1,-15.9 5.8,-24.4 -4.2,-6.9 -8.9,-8.8 -21.5,-8.8 h -11 l -0.4,17.7 -0.4,17.6 h 11.7 c 7.6,0 13.1,-0.7 15.8,-2.1 z"
   id="path56" />
	<path
   class="st2"
   d="m 823.9,405 v -57.6 h 10.8 10.8 v 57.6 57.6 h -10.8 -10.8 z"
   id="path58" />
</g>
<g
   id="g62"
   transform="translate(-203.3,-273.9)">
</g>
<g
   id="g64"
   transform="translate(-203.3,-273.9)">
</g>
<g
   id="g66"
   transform="translate(-203.3,-273.9)">
</g>
<g
   id="g68"
   transform="translate(-203.3,-273.9)">
</g>
<g
   id="g70"
   transform="translate(-203.3,-273.9)">
</g>
<g
   id="g72"
   transform="translate(-203.3,-273.9)">
</g>
<g
   id="g74"
   transform="translate(-203.3,-273.9)">
</g>
<g
   id="g76"
   transform="translate(-203.3,-273.9)">
</g>
<g
   id="g78"
   transform="translate(-203.3,-273.9)">
</g>
<g
   id="g80"
   transform="translate(-203.3,-273.9)">
</g>
<g
   id="g82"
   transform="translate(-203.3,-273.9)">
</g>
</svg>
